M48
; DRILL file {KiCad 9.0.6} date 2026-07-31T17:21:50+0900
; FORMAT={-:-/ absolute / metric / decimal}
; #@! TF.CreationDate,2026-07-31T17:21:50+09:00
; #@! TF.GenerationSoftware,Kicad,Pcbnew,9.0.6
; #@! TF.FileFunction,Plated,1,2,PTH
FMAT,2
METRIC
; #@! TA.AperFunction,Plated,PTH,ViaDrill
T1C0.400
; #@! TA.AperFunction,Plated,PTH,ViaDrill
T2C0.500
; #@! TA.AperFunction,Plated,PTH,ComponentDrill
T3C0.800
; #@! TA.AperFunction,Plated,PTH,ComponentDrill
T4C0.900
; #@! TA.AperFunction,Plated,PTH,ComponentDrill
T5C1.000
%
G90
G05
T1
X105.9Y-79.0
X108.9Y-72.0
X109.05Y-77.05
X109.05Y-78.95
X113.9Y-79.0
X116.1Y-69.0
X116.1Y-73.0
X116.1Y-79.0
X122.0Y-73.9
X125.05Y-70.05
T2
X126.95Y-71.0
T3
X144.73Y-64.0
X147.27Y-64.0
T4
X103.46Y-66.0
X106.0Y-66.0
X108.54Y-66.0
X110.73Y-56.0
X113.27Y-56.0
X124.73Y-56.0
X127.27Y-56.0
X138.73Y-56.0
X141.27Y-56.0
T5
X123.0Y-86.0
X125.0Y-86.0
X127.0Y-86.0
X129.0Y-86.0
M30
