%TF.GenerationSoftware,KiCad,Pcbnew,9.0.6*%
%TF.CreationDate,2026-07-31T17:21:50+09:00*%
%TF.ProjectId,m5_ir_blaster,6d355f69-725f-4626-9c61-737465722e6b,rev?*%
%TF.SameCoordinates,Original*%
%TF.FileFunction,Copper,L2,Bot*%
%TF.FilePolarity,Positive*%
%FSLAX46Y46*%
G04 Gerber Fmt 4.6, Leading zero omitted, Abs format (unit mm)*
G04 Created by KiCad (PCBNEW 9.0.6) date 2026-07-31 17:21:50*
%MOMM*%
%LPD*%
G01*
G04 APERTURE LIST*
%TA.AperFunction,ComponentPad*%
%ADD10R,1.700000X1.700000*%
%TD*%
%TA.AperFunction,ComponentPad*%
%ADD11C,1.700000*%
%TD*%
%TA.AperFunction,ComponentPad*%
%ADD12R,2.000000X2.000000*%
%TD*%
%TA.AperFunction,ComponentPad*%
%ADD13C,2.000000*%
%TD*%
%TA.AperFunction,ComponentPad*%
%ADD14R,1.800000X1.800000*%
%TD*%
%TA.AperFunction,ComponentPad*%
%ADD15C,1.800000*%
%TD*%
%TA.AperFunction,ViaPad*%
%ADD16C,0.900000*%
%TD*%
%TA.AperFunction,ViaPad*%
%ADD17C,1.000000*%
%TD*%
%TA.AperFunction,Conductor*%
%ADD18C,0.800000*%
%TD*%
%TA.AperFunction,Conductor*%
%ADD19C,0.500000*%
%TD*%
%TA.AperFunction,Conductor*%
%ADD20C,0.900000*%
%TD*%
%TA.AperFunction,Conductor*%
%ADD21C,0.700000*%
%TD*%
%TA.AperFunction,Conductor*%
%ADD22C,0.350000*%
%TD*%
%TA.AperFunction,Conductor*%
%ADD23C,0.300000*%
%TD*%
G04 APERTURE END LIST*
D10*
%TO.P,J1,1*%
%TO.N,IR_TX*%
X123000000Y-86000000D03*
D11*
%TO.P,J1,2*%
%TO.N,IR_RX*%
X125000000Y-86000000D03*
%TO.P,J1,3*%
%TO.N,+5V*%
X127000000Y-86000000D03*
%TO.P,J1,4*%
%TO.N,GND*%
X129000000Y-86000000D03*
%TD*%
D12*
%TO.P,D1,1*%
%TO.N,LED1_A*%
X110730000Y-56000000D03*
D13*
%TO.P,D1,2*%
%TO.N,IR_SINK*%
X113270000Y-56000000D03*
%TD*%
D12*
%TO.P,D2,1*%
%TO.N,LED2_A*%
X124730000Y-56000000D03*
D13*
%TO.P,D2,2*%
%TO.N,IR_SINK*%
X127270000Y-56000000D03*
%TD*%
D12*
%TO.P,D3,1*%
%TO.N,LED3_A*%
X138730000Y-56000000D03*
D13*
%TO.P,D3,2*%
%TO.N,IR_SINK*%
X141270000Y-56000000D03*
%TD*%
D10*
%TO.P,D4,1*%
%TO.N,STATUS_A*%
X144730000Y-64000000D03*
D11*
%TO.P,D4,2*%
%TO.N,IR_SINK*%
X147270000Y-64000000D03*
%TD*%
D14*
%TO.P,U2,1*%
%TO.N,IR_RX*%
X103460000Y-66000000D03*
D15*
%TO.P,U2,2*%
%TO.N,GND*%
X106000000Y-66000000D03*
%TO.P,U2,3*%
%TO.N,RX_VCC*%
X108540000Y-66000000D03*
%TD*%
D16*
%TO.N,GND*%
X116100000Y-79000000D03*
X109050000Y-78950000D03*
X105900000Y-79000000D03*
X116100000Y-73000000D03*
X116100000Y-69000000D03*
X122000000Y-73900000D03*
X125050000Y-70050000D03*
D17*
%TO.N,IR_SINK*%
X126950000Y-71000000D03*
D16*
%TO.N,+3V3*%
X109050000Y-77050000D03*
X113900000Y-79000000D03*
X108900000Y-72000000D03*
%TD*%
D18*
%TO.N,GND*%
X129000000Y-86000000D02*
X131000000Y-84000000D01*
X131000000Y-84000000D02*
X118000000Y-84000000D01*
D19*
X118000000Y-84000000D02*
X118000000Y-79000000D01*
X118000000Y-79000000D02*
X116100000Y-79000000D01*
X118000000Y-79000000D02*
X118000000Y-73000000D01*
X109050000Y-79000000D02*
X105900000Y-79000000D01*
X105900000Y-79000000D02*
X105900000Y-75000000D01*
X105900000Y-75000000D02*
X103000000Y-72100000D01*
X103000000Y-72100000D02*
X103000000Y-69000000D01*
X103000000Y-69000000D02*
X106000000Y-66000000D01*
X106000000Y-66000000D02*
X106000000Y-64000000D01*
X106000000Y-64000000D02*
X118000000Y-64000000D01*
X118000000Y-64000000D02*
X118000000Y-69000000D01*
X118000000Y-69000000D02*
X116100000Y-69000000D01*
X118000000Y-69000000D02*
X118000000Y-73000000D01*
X118000000Y-73000000D02*
X116100000Y-73000000D01*
X118000000Y-73000000D02*
X121100000Y-73000000D01*
X121100000Y-73000000D02*
X122000000Y-73900000D01*
X122000000Y-73900000D02*
X125050000Y-70850000D01*
X125050000Y-70850000D02*
X125050000Y-70050000D01*
D20*
%TO.N,IR_SINK*%
X113270000Y-56000000D02*
X113270000Y-58500000D01*
X113270000Y-58500000D02*
X127270000Y-58500000D01*
X127270000Y-56000000D02*
X127270000Y-58500000D01*
X127270000Y-58500000D02*
X141270000Y-58500000D01*
X141270000Y-56000000D02*
X141270000Y-58500000D01*
D21*
X147270000Y-64000000D02*
X147270000Y-60000000D01*
X147270000Y-60000000D02*
X141270000Y-58500000D01*
D20*
X141270000Y-58500000D02*
X135000000Y-64770000D01*
X135000000Y-64770000D02*
X130000000Y-64770000D01*
X130000000Y-64770000D02*
X126950000Y-67820000D01*
X126950000Y-67820000D02*
X126950000Y-71000000D01*
D22*
%TO.N,+3V3*%
X109050000Y-77050000D02*
X113900000Y-79000000D01*
X109050000Y-77050000D02*
X108900000Y-72000000D01*
D23*
%TO.N,IR_RX*%
X125000000Y-86000000D02*
X125000000Y-88000000D01*
X125000000Y-88000000D02*
X108000000Y-88000000D01*
X108000000Y-88000000D02*
X106000000Y-89000000D01*
X106000000Y-89000000D02*
X101500000Y-89000000D01*
X101500000Y-89000000D02*
X101500000Y-67960000D01*
X101500000Y-67960000D02*
X103460000Y-66000000D01*
%TD*%
M02*
