%TF.GenerationSoftware,KiCad,Pcbnew,9.0.6*%
%TF.CreationDate,2026-08-11T20:14:58+09:00*%
%TF.ProjectId,ir_blaster_v2_smd,69725f62-6c61-4737-9465-725f76325f73,rev?*%
%TF.SameCoordinates,Original*%
%TF.FileFunction,Copper,L2,Bot*%
%TF.FilePolarity,Positive*%
%FSLAX46Y46*%
G04 Gerber Fmt 4.6, Leading zero omitted, Abs format (unit mm)*
G04 Created by KiCad (PCBNEW 9.0.6) date 2026-08-11 20:14:58*
%MOMM*%
%LPD*%
G01*
G04 APERTURE LIST*
G04 Aperture macros list*
%AMRotRect*
0 Rectangle, with rotation*
0 The origin of the aperture is its center*
0 $1 length*
0 $2 width*
0 $3 Rotation angle, in degrees counterclockwise*
0 Add horizontal line*
21,1,$1,$2,0,0,$3*%
G04 Aperture macros list end*
%TA.AperFunction,ComponentPad*%
%ADD10R,2.000000X2.000000*%
%TD*%
%TA.AperFunction,ComponentPad*%
%ADD11C,2.000000*%
%TD*%
%TA.AperFunction,ComponentPad*%
%ADD12RotRect,2.000000X2.000000X60.000000*%
%TD*%
%TA.AperFunction,ComponentPad*%
%ADD13RotRect,2.000000X2.000000X30.000000*%
%TD*%
%TA.AperFunction,ComponentPad*%
%ADD14RotRect,2.000000X2.000000X330.000000*%
%TD*%
%TA.AperFunction,ComponentPad*%
%ADD15RotRect,2.000000X2.000000X300.000000*%
%TD*%
%TA.AperFunction,ComponentPad*%
%ADD16RotRect,2.000000X2.000000X240.000000*%
%TD*%
%TA.AperFunction,ComponentPad*%
%ADD17RotRect,2.000000X2.000000X210.000000*%
%TD*%
%TA.AperFunction,ComponentPad*%
%ADD18RotRect,2.000000X2.000000X150.000000*%
%TD*%
%TA.AperFunction,ComponentPad*%
%ADD19RotRect,2.000000X2.000000X120.000000*%
%TD*%
%TA.AperFunction,ComponentPad*%
%ADD20R,1.800000X1.800000*%
%TD*%
%TA.AperFunction,ComponentPad*%
%ADD21C,1.800000*%
%TD*%
%TA.AperFunction,ComponentPad*%
%ADD22R,2.200000X2.200000*%
%TD*%
%TA.AperFunction,ComponentPad*%
%ADD23C,2.200000*%
%TD*%
%TA.AperFunction,ComponentPad*%
%ADD24C,2.400000*%
%TD*%
%TA.AperFunction,ViaPad*%
%ADD25C,0.800000*%
%TD*%
%TA.AperFunction,Conductor*%
%ADD26C,0.800000*%
%TD*%
%TA.AperFunction,Conductor*%
%ADD27C,1.000000*%
%TD*%
%TA.AperFunction,Conductor*%
%ADD28C,0.200000*%
%TD*%
G04 APERTURE END LIST*
D10*
%TO.P,D1,1*%
%TO.N,D1_A*%
X100000000Y-69070000D03*
D11*
%TO.P,D1,2*%
%TO.N,LED_DRAIN*%
X100000000Y-66530000D03*
%TD*%
D12*
%TO.P,D2,1*%
%TO.N,D2_A*%
X115465000Y-73213852D03*
D11*
%TO.P,D2,2*%
%TO.N,LED_DRAIN*%
X116735000Y-71014148D03*
%TD*%
D13*
%TO.P,D3,1*%
%TO.N,D3_A*%
X126786148Y-84535000D03*
D11*
%TO.P,D3,2*%
%TO.N,LED_DRAIN*%
X128985852Y-83265000D03*
%TD*%
D10*
%TO.P,D4,1*%
%TO.N,D4_A*%
X130930000Y-100000000D03*
D11*
%TO.P,D4,2*%
%TO.N,LED_DRAIN*%
X133470000Y-100000000D03*
%TD*%
D14*
%TO.P,D5,1*%
%TO.N,D5_A*%
X126786148Y-115465000D03*
D11*
%TO.P,D5,2*%
%TO.N,LED_DRAIN*%
X128985852Y-116735000D03*
%TD*%
D15*
%TO.P,D6,1*%
%TO.N,D6_A*%
X115465000Y-126786148D03*
D11*
%TO.P,D6,2*%
%TO.N,LED_DRAIN*%
X116735000Y-128985852D03*
%TD*%
D10*
%TO.P,D7,1*%
%TO.N,D7_A*%
X100000000Y-130930000D03*
D11*
%TO.P,D7,2*%
%TO.N,LED_DRAIN*%
X100000000Y-133470000D03*
%TD*%
D16*
%TO.P,D8,1*%
%TO.N,D8_A*%
X84535000Y-126786148D03*
D11*
%TO.P,D8,2*%
%TO.N,LED_DRAIN*%
X83265000Y-128985852D03*
%TD*%
D17*
%TO.P,D9,1*%
%TO.N,D9_A*%
X73213852Y-115465000D03*
D11*
%TO.P,D9,2*%
%TO.N,LED_DRAIN*%
X71014148Y-116735000D03*
%TD*%
D10*
%TO.P,D10,1*%
%TO.N,D10_A*%
X69070000Y-100000000D03*
D11*
%TO.P,D10,2*%
%TO.N,LED_DRAIN*%
X66530000Y-100000000D03*
%TD*%
D18*
%TO.P,D11,1*%
%TO.N,D11_A*%
X73213852Y-84535000D03*
D11*
%TO.P,D11,2*%
%TO.N,LED_DRAIN*%
X71014148Y-83265000D03*
%TD*%
D19*
%TO.P,D12,1*%
%TO.N,D12_A*%
X84535000Y-73213852D03*
D11*
%TO.P,D12,2*%
%TO.N,LED_DRAIN*%
X83265000Y-71014148D03*
%TD*%
D20*
%TO.P,J1,1*%
%TO.N,N/C*%
X87300000Y-72000000D03*
D21*
%TO.P,J1,2*%
X87300000Y-74540000D03*
%TO.P,J1,3*%
X87300000Y-77080000D03*
%TO.P,J1,4*%
X87300000Y-79620000D03*
%TO.P,J1,5*%
X87300000Y-82160000D03*
%TO.P,J1,6*%
X87300000Y-84700000D03*
%TO.P,J1,7*%
X87300000Y-87240000D03*
%TO.P,J1,8*%
X87300000Y-89780000D03*
%TO.P,J1,9*%
%TO.N,IR_TX*%
X87300000Y-92320000D03*
%TO.P,J1,10*%
%TO.N,N/C*%
X87300000Y-94860000D03*
%TO.P,J1,11*%
X87300000Y-97400000D03*
%TO.P,J1,12*%
X87300000Y-99940000D03*
%TO.P,J1,13*%
X87300000Y-102480000D03*
%TO.P,J1,14*%
%TO.N,GND*%
X87300000Y-105020000D03*
%TO.P,J1,15*%
%TO.N,N/C*%
X87300000Y-107560000D03*
%TO.P,J1,16*%
X87300000Y-110100000D03*
%TO.P,J1,17*%
X87300000Y-112640000D03*
%TO.P,J1,18*%
X87300000Y-115180000D03*
%TO.P,J1,19*%
%TO.N,+5V*%
X87300000Y-117720000D03*
%TD*%
D20*
%TO.P,J2,1*%
%TO.N,N/C*%
X112700000Y-72000000D03*
D21*
%TO.P,J2,2*%
X112700000Y-74540000D03*
%TO.P,J2,3*%
X112700000Y-77080000D03*
%TO.P,J2,4*%
X112700000Y-79620000D03*
%TO.P,J2,5*%
X112700000Y-82160000D03*
%TO.P,J2,6*%
X112700000Y-84700000D03*
%TO.P,J2,7*%
X112700000Y-87240000D03*
%TO.P,J2,8*%
X112700000Y-89780000D03*
%TO.P,J2,9*%
X112700000Y-92320000D03*
%TO.P,J2,10*%
X112700000Y-94860000D03*
%TO.P,J2,11*%
X112700000Y-97400000D03*
%TO.P,J2,12*%
X112700000Y-99940000D03*
%TO.P,J2,13*%
X112700000Y-102480000D03*
%TO.P,J2,14*%
X112700000Y-105020000D03*
%TO.P,J2,15*%
X112700000Y-107560000D03*
%TO.P,J2,16*%
X112700000Y-110100000D03*
%TO.P,J2,17*%
X112700000Y-112640000D03*
%TO.P,J2,18*%
X112700000Y-115180000D03*
%TO.P,J2,19*%
X112700000Y-117720000D03*
%TD*%
D22*
%TO.P,Cbulk,1*%
%TO.N,+5V*%
X91500000Y-106000000D03*
D23*
%TO.P,Cbulk,2*%
%TO.N,GND*%
X96500000Y-106000000D03*
%TD*%
D24*
%TO.P,TP1,1*%
%TO.N,+5V*%
X94000000Y-95000000D03*
%TD*%
%TO.P,TP2,1*%
%TO.N,GND*%
X106000000Y-95000000D03*
%TD*%
%TO.P,TP3,1*%
%TO.N,IR_TX*%
X96000000Y-102000000D03*
%TD*%
%TO.P,TP4,1*%
%TO.N,LED_DRAIN*%
X103000000Y-120000000D03*
%TD*%
D25*
%TO.N,D2_A*%
X108400000Y-85451000D03*
%TO.N,D12_A*%
X91600000Y-85451000D03*
%TO.N,GND*%
X99000000Y-116950000D03*
X108000000Y-116950000D03*
X102900000Y-101000000D03*
%TD*%
D26*
%TO.N,LED_DRAIN*%
X100000000Y-65900000D02*
X104451000Y-66192000D01*
X104451000Y-66192000D02*
X108826000Y-67062000D01*
X108826000Y-67062000D02*
X113050000Y-68496000D01*
X113050000Y-68496000D02*
X117050000Y-70469000D01*
X117050000Y-70469000D02*
X120759000Y-72947000D01*
X120759000Y-72947000D02*
X124112000Y-75888000D01*
X124112000Y-75888000D02*
X127053000Y-79241000D01*
X127053000Y-79241000D02*
X129531000Y-82950000D01*
X129531000Y-82950000D02*
X131504000Y-86950000D01*
X131504000Y-86950000D02*
X132938000Y-91174000D01*
X132938000Y-91174000D02*
X133808000Y-95549000D01*
X133808000Y-95549000D02*
X134100000Y-100000000D01*
X134100000Y-100000000D02*
X133808000Y-104451000D01*
X133808000Y-104451000D02*
X132938000Y-108826000D01*
X132938000Y-108826000D02*
X131504000Y-113050000D01*
X131504000Y-113050000D02*
X129531000Y-117050000D01*
X129531000Y-117050000D02*
X127053000Y-120759000D01*
X127053000Y-120759000D02*
X124112000Y-124112000D01*
X124112000Y-124112000D02*
X120759000Y-127053000D01*
X120759000Y-127053000D02*
X117050000Y-129531000D01*
X117050000Y-129531000D02*
X113050000Y-131504000D01*
X113050000Y-131504000D02*
X108826000Y-132938000D01*
X108826000Y-132938000D02*
X104451000Y-133808000D01*
X104451000Y-133808000D02*
X100000000Y-134100000D01*
X100000000Y-134100000D02*
X95549000Y-133808000D01*
X95549000Y-133808000D02*
X91174000Y-132938000D01*
X91174000Y-132938000D02*
X86950000Y-131504000D01*
X86950000Y-131504000D02*
X82950000Y-129531000D01*
X82950000Y-129531000D02*
X79241000Y-127053000D01*
X79241000Y-127053000D02*
X75888000Y-124112000D01*
X75888000Y-124112000D02*
X72947000Y-120759000D01*
X72947000Y-120759000D02*
X70469000Y-117050000D01*
X70469000Y-117050000D02*
X68496000Y-113050000D01*
X68496000Y-113050000D02*
X67062000Y-108826000D01*
X67062000Y-108826000D02*
X66192000Y-104451000D01*
X66192000Y-104451000D02*
X65900000Y-100000000D01*
X65900000Y-100000000D02*
X66192000Y-95549000D01*
X66192000Y-95549000D02*
X67062000Y-91174000D01*
X67062000Y-91174000D02*
X68496000Y-86950000D01*
X68496000Y-86950000D02*
X70469000Y-82950000D01*
X70469000Y-82950000D02*
X72947000Y-79241000D01*
X72947000Y-79241000D02*
X75888000Y-75888000D01*
X75888000Y-75888000D02*
X79241000Y-72947000D01*
X79241000Y-72947000D02*
X82950000Y-70469000D01*
X82950000Y-70469000D02*
X86950000Y-68496000D01*
X86950000Y-68496000D02*
X91174000Y-67062000D01*
X91174000Y-67062000D02*
X95549000Y-66192000D01*
X95549000Y-66192000D02*
X100000000Y-65900000D01*
D27*
X100000000Y-66530000D02*
X100000000Y-65900000D01*
D28*
%TO.N,D2_A*%
X108400000Y-85451000D02*
X110500000Y-83430000D01*
X110500000Y-83430000D02*
X114900000Y-83430000D01*
X114900000Y-83430000D02*
X115465000Y-73214000D01*
D27*
%TO.N,LED_DRAIN*%
X116735000Y-71014000D02*
X117050000Y-70469000D01*
X128986000Y-83265000D02*
X129531000Y-82950000D01*
X133470000Y-100000000D02*
X134100000Y-100000000D01*
X128986000Y-116735000D02*
X129531000Y-117050000D01*
X116735000Y-128986000D02*
X117050000Y-129531000D01*
X100000000Y-133470000D02*
X100000000Y-134100000D01*
X83265000Y-128986000D02*
X82950000Y-129531000D01*
X71014000Y-116735000D02*
X70469000Y-117050000D01*
X66530000Y-100000000D02*
X65900000Y-100000000D01*
X71014000Y-83265000D02*
X70469000Y-82950000D01*
D28*
%TO.N,D12_A*%
X91600000Y-85451000D02*
X89500000Y-83430000D01*
X89500000Y-83430000D02*
X85100000Y-83430000D01*
X85100000Y-83430000D02*
X84535000Y-73214000D01*
D27*
%TO.N,LED_DRAIN*%
X83265000Y-71014000D02*
X82950000Y-70469000D01*
D26*
X103000000Y-120000000D02*
X108826000Y-132938000D01*
%TD*%
M02*
