%TF.GenerationSoftware,KiCad,Pcbnew,9.0.6*%
%TF.CreationDate,2026-08-16T21:16:21+09:00*%
%TF.ProjectId,ir_blaster_v4_complete,69725f62-6c61-4737-9465-725f76345f63,rev?*%
%TF.SameCoordinates,Original*%
%TF.FileFunction,Copper,L2,Bot*%
%TF.FilePolarity,Positive*%
%FSLAX46Y46*%
G04 Gerber Fmt 4.6, Leading zero omitted, Abs format (unit mm)*
G04 Created by KiCad (PCBNEW 9.0.6) date 2026-08-16 21:16:21*
%MOMM*%
%LPD*%
G01*
G04 APERTURE LIST*
G04 Aperture macros list*
%AMRoundRect*
0 Rectangle with rounded corners*
0 $1 Rounding radius*
0 $2 $3 $4 $5 $6 $7 $8 $9 X,Y pos of 4 corners*
0 Add a 4 corners polygon primitive as box body*
4,1,4,$2,$3,$4,$5,$6,$7,$8,$9,$2,$3,0*
0 Add four circle primitives for the rounded corners*
1,1,$1+$1,$2,$3*
1,1,$1+$1,$4,$5*
1,1,$1+$1,$6,$7*
1,1,$1+$1,$8,$9*
0 Add four rect primitives between the rounded corners*
20,1,$1+$1,$2,$3,$4,$5,0*
20,1,$1+$1,$4,$5,$6,$7,0*
20,1,$1+$1,$6,$7,$8,$9,0*
20,1,$1+$1,$8,$9,$2,$3,0*%
G04 Aperture macros list end*
%TA.AperFunction,ComponentPad*%
%ADD10RoundRect,0.250000X-0.750000X-0.750000X0.750000X-0.750000X0.750000X0.750000X-0.750000X0.750000X0*%
%TD*%
%TA.AperFunction,ComponentPad*%
%ADD11C,2.000000*%
%TD*%
%TA.AperFunction,HeatsinkPad*%
%ADD12C,0.700000*%
%TD*%
%TA.AperFunction,ComponentPad*%
%ADD13R,1.800000X1.800000*%
%TD*%
%TA.AperFunction,ComponentPad*%
%ADD14C,1.800000*%
%TD*%
%TA.AperFunction,ComponentPad*%
%ADD15R,1.700000X1.700000*%
%TD*%
%TA.AperFunction,ComponentPad*%
%ADD16C,1.700000*%
%TD*%
%TA.AperFunction,ComponentPad*%
%ADD17R,1.900000X1.900000*%
%TD*%
%TA.AperFunction,ComponentPad*%
%ADD18C,1.900000*%
%TD*%
%TA.AperFunction,HeatsinkPad*%
%ADD19O,1.000000X2.100000*%
%TD*%
%TA.AperFunction,HeatsinkPad*%
%ADD20O,1.000000X1.600000*%
%TD*%
%TA.AperFunction,SMDPad,CuDef*%
%ADD21C,1.800000*%
%TD*%
%TA.AperFunction,SMDPad,CuDef*%
%ADD22R,2.400000X2.400000*%
%TD*%
%TA.AperFunction,SMDPad,CuDef*%
%ADD23C,2.400000*%
%TD*%
%TA.AperFunction,ViaPad*%
%ADD24C,0.800000*%
%TD*%
%TA.AperFunction,ViaPad*%
%ADD25C,0.600000*%
%TD*%
%TA.AperFunction,ViaPad*%
%ADD26C,1.000000*%
%TD*%
%TA.AperFunction,Conductor*%
%ADD27C,0.350000*%
%TD*%
%TA.AperFunction,Conductor*%
%ADD28C,1.000000*%
%TD*%
%TA.AperFunction,Conductor*%
%ADD29C,0.300000*%
%TD*%
%TA.AperFunction,Conductor*%
%ADD30C,0.250000*%
%TD*%
G04 APERTURE END LIST*
D10*
%TO.P,C_BULK,1*%
%TO.N,+5V*%
X92000000Y-104000000D03*
D11*
%TO.P,C_BULK,2*%
%TO.N,GND*%
X97000000Y-104000000D03*
%TD*%
D12*
%TO.P,U1,39*%
%TO.N,GND*%
X126260000Y-102900000D03*
X127660000Y-102900000D03*
X125560000Y-102200000D03*
X126960000Y-102200000D03*
X128360000Y-102200000D03*
X126260000Y-101500000D03*
X127660000Y-101500000D03*
X125560000Y-100800000D03*
X126960000Y-100800000D03*
X128360000Y-100800000D03*
X126260000Y-100100000D03*
X127660000Y-100100000D03*
%TD*%
D13*
%TO.P,D3,1*%
%TO.N,LED_A3*%
X125229160Y-79118076D03*
D14*
%TO.P,D3,2*%
%TO.N,LED_DRAIN*%
X126861840Y-77172324D03*
%TD*%
D13*
%TO.P,D5,1*%
%TO.N,LED_A5*%
X118099852Y-130079900D03*
D14*
%TO.P,D5,2*%
%TO.N,LED_DRAIN*%
X115900148Y-128809900D03*
%TD*%
D15*
%TO.P,J_PROG,1*%
%TO.N,+3V3*%
X85000000Y-75000000D03*
D16*
%TO.P,J_PROG,2*%
%TO.N,GND*%
X85000000Y-77540000D03*
%TO.P,J_PROG,3*%
%TO.N,U0TXD*%
X85000000Y-80080000D03*
%TO.P,J_PROG,4*%
%TO.N,U0RXD*%
X85000000Y-82620000D03*
%TO.P,J_PROG,5*%
%TO.N,EN*%
X85000000Y-85160000D03*
%TO.P,J_PROG,6*%
%TO.N,IO0*%
X85000000Y-87700000D03*
%TD*%
D17*
%TO.P,U_RX,1*%
%TO.N,IR_RX*%
X81000000Y-105460000D03*
D18*
%TO.P,U_RX,2*%
%TO.N,GND*%
X81000000Y-108000000D03*
%TO.P,U_RX,3*%
%TO.N,IR_RX_VCC*%
X81000000Y-110540000D03*
%TD*%
D13*
%TO.P,D6,1*%
%TO.N,LED_A6*%
X74770840Y-120881924D03*
D14*
%TO.P,D6,2*%
%TO.N,LED_DRAIN*%
X73138160Y-122827676D03*
%TD*%
D13*
%TO.P,D2,1*%
%TO.N,LED_A2*%
X113217989Y-69722225D03*
D14*
%TO.P,D2,2*%
%TO.N,LED_DRAIN*%
X115520011Y-68648775D03*
%TD*%
D13*
%TO.P,D4,1*%
%TO.N,LED_A4*%
X126861840Y-122827676D03*
D14*
%TO.P,D4,2*%
%TO.N,LED_DRAIN*%
X125229160Y-120881924D03*
%TD*%
D19*
%TO.P,J1,S1*%
%TO.N,GND*%
X104320000Y-135130000D03*
D20*
X104320000Y-130950000D03*
D19*
X95680000Y-135130000D03*
D20*
X95680000Y-130950000D03*
%TD*%
D13*
%TO.P,D12,1*%
%TO.N,LED_A12*%
X87177890Y-67616134D03*
D14*
%TO.P,D12,2*%
%TO.N,LED_DRAIN*%
X89564710Y-68484866D03*
%TD*%
D13*
%TO.P,D9,1*%
%TO.N,LED_A9*%
X66018712Y-95771533D03*
D14*
%TO.P,D9,2*%
%TO.N,LED_DRAIN*%
X66240088Y-98301867D03*
%TD*%
D13*
%TO.P,D7,1*%
%TO.N,LED_A7*%
X69722225Y-113217989D03*
D14*
%TO.P,D7,2*%
%TO.N,LED_DRAIN*%
X68648775Y-115520011D03*
%TD*%
D13*
%TO.P,D10,1*%
%TO.N,LED_A10*%
X67616134Y-87177890D03*
D14*
%TO.P,D10,2*%
%TO.N,LED_DRAIN*%
X68484866Y-89564710D03*
%TD*%
D13*
%TO.P,D11,1*%
%TO.N,LED_A11*%
X75060374Y-75060374D03*
D14*
%TO.P,D11,2*%
%TO.N,LED_DRAIN*%
X76856426Y-76856426D03*
%TD*%
D13*
%TO.P,D1,1*%
%TO.N,LED_A1*%
X98730000Y-66000000D03*
D14*
%TO.P,D1,2*%
%TO.N,LED_DRAIN*%
X101270000Y-66000000D03*
%TD*%
D13*
%TO.P,D8,1*%
%TO.N,LED_A8*%
X66737033Y-104653294D03*
D14*
%TO.P,D8,2*%
%TO.N,LED_DRAIN*%
X66295967Y-107154706D03*
%TD*%
D21*
%TO.P,TP_3V3,1*%
%TO.N,+3V3*%
X94000000Y-114000000D03*
%TD*%
D22*
%TO.P,TP_PROG_3V3,1*%
%TO.N,+3V3*%
X104000000Y-120000000D03*
%TD*%
D23*
%TO.P,TP_PROG_TXD,1*%
%TO.N,U0TXD*%
X104000000Y-123810000D03*
%TD*%
%TO.P,TP_PROG_GND,1*%
%TO.N,GND*%
X107810000Y-120000000D03*
%TD*%
%TO.P,TP_PROG_IO0,1*%
%TO.N,IO0*%
X107810000Y-127620000D03*
%TD*%
D21*
%TO.P,TP_DRAIN,1*%
%TO.N,LED_DRAIN*%
X110000000Y-111000000D03*
%TD*%
%TO.P,TP_5V,1*%
%TO.N,+5V*%
X90000000Y-114000000D03*
%TD*%
D23*
%TO.P,TP_PROG_RXD,1*%
%TO.N,U0RXD*%
X107810000Y-123810000D03*
%TD*%
D21*
%TO.P,TP_GND,1*%
%TO.N,GND*%
X98000000Y-114000000D03*
%TD*%
%TO.P,TP_TX,1*%
%TO.N,IR_TX*%
X102000000Y-114000000D03*
%TD*%
D23*
%TO.P,TP_PROG_EN,1*%
%TO.N,EN*%
X104000000Y-127620000D03*
%TD*%
D21*
%TO.P,TP_RX,1*%
%TO.N,IR_RX*%
X106000000Y-114000000D03*
%TD*%
D24*
%TO.N,GND*%
X100144200Y-114369100D03*
X88000000Y-90183900D03*
X118283900Y-107723300D03*
X105000000Y-82404900D03*
X110856300Y-109776700D03*
X84048400Y-98387000D03*
D25*
X107000000Y-116375600D03*
D26*
%TO.N,+5V*%
X81235100Y-80824100D03*
X112022900Y-124901400D03*
X97958400Y-137630000D03*
X100012300Y-116999700D03*
X88938600Y-72598200D03*
D25*
X102450000Y-137300000D03*
D26*
X80872900Y-117736400D03*
D24*
%TO.N,+3V3*%
X104059300Y-105265400D03*
X93884600Y-117093600D03*
X103150000Y-118216700D03*
X105866400Y-90224500D03*
D26*
%TO.N,LED_DRAIN*%
X110362200Y-113683300D03*
D24*
%TO.N,IR_TX*%
X101956500Y-108775900D03*
%TO.N,IR_RX*%
X106000000Y-108697600D03*
%TO.N,IR_RX_VCC*%
X98525000Y-83480500D03*
%TO.N,U0TXD*%
X123050000Y-92590200D03*
%TO.N,U0RXD*%
X124320000Y-92553600D03*
%TO.N,EN*%
X89040600Y-89591500D03*
%TO.N,IO0*%
X99363300Y-88273800D03*
X79360500Y-94711200D03*
%TO.N,STATUS*%
X91175000Y-116028100D03*
X100643100Y-125957300D03*
%TO.N,CC2*%
X106025000Y-127542500D03*
X98250000Y-134752200D03*
%TO.N,LED_A1*%
X98955800Y-72418300D03*
%TO.N,LED_A4*%
X122569500Y-118486200D03*
%TO.N,LED_A5*%
X115849100Y-123665700D03*
%TO.N,LED_A10*%
X71181600Y-91359500D03*
%TO.N,LED_A11*%
X78112200Y-80180400D03*
%TD*%
D27*
%TO.N,GND*%
X107200000Y-118000000D02*
X107810000Y-120000000D01*
X107000000Y-116375600D02*
X107200000Y-118000000D01*
D28*
%TO.N,+5V*%
X98730900Y-116999700D02*
X100012300Y-116999700D01*
X96000000Y-113805100D02*
X96000000Y-114268800D01*
X81235100Y-80824100D02*
X81235100Y-76132700D01*
X86263600Y-117736400D02*
X80872900Y-117736400D01*
X106321900Y-132441600D02*
X101697700Y-132441600D01*
X99763200Y-134376100D02*
X99763200Y-135825200D01*
D29*
X102450000Y-137300000D02*
X101900000Y-135600000D01*
D28*
X112022900Y-124901400D02*
X112022900Y-126740600D01*
X92449800Y-112414400D02*
X90864200Y-114000000D01*
X90864200Y-114000000D02*
X90000000Y-114000000D01*
X92449800Y-112414400D02*
X94609300Y-112414400D01*
X84769600Y-72598200D02*
X88938600Y-72598200D01*
X96000000Y-114268800D02*
X98730900Y-116999700D01*
D29*
X101900000Y-135600000D02*
X99763200Y-134376100D01*
D28*
X81235100Y-76132700D02*
X84769600Y-72598200D01*
X90000000Y-114000000D02*
X86263600Y-117736400D01*
X94609300Y-112414400D02*
X96000000Y-113805100D01*
X92449800Y-104449800D02*
X92449800Y-112414400D01*
X112022900Y-126740600D02*
X106321900Y-132441600D01*
X99763200Y-135825200D02*
X97958400Y-137630000D01*
X101697700Y-132441600D02*
X99763200Y-134376100D01*
X92000000Y-104000000D02*
X92449800Y-104449800D01*
D30*
%TO.N,+3V3*%
X93884600Y-117093600D02*
X94000000Y-116978200D01*
X103150000Y-118216700D02*
X103456600Y-118523300D01*
X103456600Y-118523300D02*
X104000000Y-118523300D01*
X104059300Y-92031600D02*
X104059300Y-105265400D01*
X94000000Y-116978200D02*
X94000000Y-114000000D01*
X104000000Y-120000000D02*
X104000000Y-118523300D01*
X104059300Y-117307400D02*
X103150000Y-118216700D01*
X104059300Y-105265400D02*
X104059300Y-117307400D01*
X105866400Y-90224500D02*
X104059300Y-92031600D01*
D28*
%TO.N,LED_DRAIN*%
X110362200Y-113683300D02*
X114125100Y-117446200D01*
X112217300Y-66000000D02*
X101270000Y-66000000D01*
X110000000Y-111000000D02*
X110000000Y-113321100D01*
X114125100Y-117446200D02*
X114125100Y-127034900D01*
X114866000Y-68648800D02*
X114866000Y-68648700D01*
X66296000Y-113167200D02*
X68648800Y-115520000D01*
X65166800Y-106025500D02*
X66296000Y-107154700D01*
X66240100Y-98301900D02*
X65166800Y-99375200D01*
X66296000Y-107154700D02*
X66296000Y-113167200D01*
X87587800Y-70461800D02*
X89564700Y-68484900D01*
X125229200Y-106848600D02*
X129381900Y-102695900D01*
X68648800Y-115520000D02*
X73138200Y-120009400D01*
X115520000Y-68648800D02*
X114866000Y-68648800D01*
X68484900Y-96057100D02*
X66240100Y-98301900D01*
X114125100Y-127034900D02*
X115900100Y-128809900D01*
X125229200Y-120881900D02*
X125229200Y-106848600D01*
X65166800Y-99375200D02*
X65166800Y-106025500D01*
X76856400Y-76856400D02*
X83251000Y-70461800D01*
X114866000Y-68648700D02*
X112217300Y-66000000D01*
X110000000Y-113321100D02*
X110362200Y-113683300D01*
X73138200Y-120009400D02*
X73138200Y-122827700D01*
X129381900Y-79692400D02*
X126861800Y-77172300D01*
X129381900Y-102695900D02*
X129381900Y-79692400D01*
X68484900Y-89564700D02*
X68484900Y-96057100D01*
X83251000Y-70461800D02*
X87587800Y-70461800D01*
D30*
%TO.N,IR_TX*%
X102000000Y-114000000D02*
X102000000Y-108819400D01*
X102000000Y-108819400D02*
X101956500Y-108775900D01*
%TO.N,IR_RX*%
X106000000Y-114000000D02*
X106000000Y-108697600D01*
%TO.N,IR_RX_VCC*%
X98525000Y-93015000D02*
X98525000Y-83480500D01*
X81000000Y-110540000D02*
X98525000Y-93015000D01*
%TO.N,U0TXD*%
X105925500Y-120869300D02*
X105925500Y-115769700D01*
X109768200Y-93168000D02*
X96680200Y-80080000D01*
X96680200Y-80080000D02*
X85000000Y-80080000D01*
X104000000Y-122333300D02*
X104461500Y-122333300D01*
X105925500Y-115769700D02*
X107812700Y-113882500D01*
X104000000Y-123810000D02*
X104000000Y-122333300D01*
X122472200Y-93168000D02*
X109768200Y-93168000D01*
X123050000Y-92590200D02*
X122472200Y-93168000D01*
X104461500Y-122333300D02*
X105925500Y-120869300D01*
X107812700Y-95123500D02*
X109768200Y-93168000D01*
X107812700Y-113882500D02*
X107812700Y-95123500D01*
%TO.N,U0RXD*%
X109320500Y-121284300D02*
X109320500Y-113751800D01*
X107810000Y-123810000D02*
X107810000Y-122333300D01*
X108776700Y-113208000D02*
X108776700Y-108096900D01*
X108776700Y-108096900D02*
X124320000Y-92553600D01*
X108271500Y-122333300D02*
X109320500Y-121284300D01*
X109320500Y-113751800D02*
X108776700Y-113208000D01*
X107810000Y-122333300D02*
X108271500Y-122333300D01*
%TO.N,EN*%
X102523300Y-127620000D02*
X89630100Y-127620000D01*
X81508200Y-109226700D02*
X89040600Y-101694300D01*
X104000000Y-127620000D02*
X102523300Y-127620000D01*
X89040600Y-89200600D02*
X89040600Y-89591500D01*
X80516700Y-109226700D02*
X81508200Y-109226700D01*
X89040600Y-101694300D02*
X89040600Y-89591500D01*
X89630100Y-127620000D02*
X79730200Y-117720100D01*
X79730200Y-110013200D02*
X80516700Y-109226700D01*
X85000000Y-85160000D02*
X89040600Y-89200600D01*
X79730200Y-117720100D02*
X79730200Y-110013200D01*
%TO.N,IO0*%
X102950800Y-125573400D02*
X105763400Y-125573400D01*
X105763400Y-125573400D02*
X107810000Y-127620000D01*
X100823200Y-123445800D02*
X102950800Y-125573400D01*
X99363300Y-88273800D02*
X100823200Y-89733700D01*
X85000000Y-87700000D02*
X85000000Y-89071700D01*
X85000000Y-89071700D02*
X79360500Y-94711200D01*
X100823200Y-89733700D02*
X100823200Y-123445800D01*
%TO.N,STATUS*%
X100643100Y-125496200D02*
X100643100Y-125957300D01*
X91175000Y-116028100D02*
X100643100Y-125496200D01*
%TO.N,CC2*%
X103894100Y-129108100D02*
X98250000Y-134752200D01*
X106025000Y-128402800D02*
X105319700Y-129108100D01*
X105319700Y-129108100D02*
X103894100Y-129108100D01*
X106025000Y-127542500D02*
X106025000Y-128402800D01*
%TO.N,LED_A1*%
X98955800Y-72418300D02*
X98730000Y-72192500D01*
X98730000Y-72192500D02*
X98730000Y-66000000D01*
%TO.N,LED_A4*%
X122569500Y-119903600D02*
X125493600Y-122827700D01*
X122569500Y-118486200D02*
X122569500Y-119903600D01*
X125493600Y-122827700D02*
X126861800Y-122827700D01*
%TO.N,LED_A5*%
X115849100Y-123665700D02*
X118099900Y-125916500D01*
X118099900Y-125916500D02*
X118099900Y-130079900D01*
%TO.N,LED_A10*%
X67616100Y-87177900D02*
X68792800Y-87177900D01*
X71181600Y-89566700D02*
X68792800Y-87177900D01*
X71181600Y-91359500D02*
X71181600Y-89566700D01*
%TO.N,LED_A11*%
X75060400Y-77128600D02*
X75060400Y-75060400D01*
X78112200Y-80180400D02*
X75060400Y-77128600D01*
%TD*%
%TA.AperFunction,Conductor*%
%TO.N,GND*%
G36*
X100606665Y-61505311D02*
G01*
X101811663Y-61543178D01*
X101815514Y-61543361D01*
X103018704Y-61619059D01*
X103022525Y-61619359D01*
X103627981Y-61676592D01*
X103632390Y-61677090D01*
X106454982Y-62047818D01*
X106458140Y-62048276D01*
X106603630Y-62071319D01*
X106617239Y-62073475D01*
X106621080Y-62074144D01*
X107805323Y-62300051D01*
X107809079Y-62300828D01*
X108985698Y-62563834D01*
X108989381Y-62564719D01*
X110157099Y-62864539D01*
X110160854Y-62865566D01*
X111318555Y-63201909D01*
X111322219Y-63203036D01*
X112468825Y-63575591D01*
X112472491Y-63576846D01*
X113408350Y-63913776D01*
X113413800Y-63915887D01*
X116066222Y-65016571D01*
X116071417Y-65018869D01*
X116935716Y-65425576D01*
X116939150Y-65427259D01*
X118013371Y-65974602D01*
X118016755Y-65976394D01*
X119073238Y-66557201D01*
X119076544Y-66559086D01*
X119615049Y-66877558D01*
X120114253Y-67172787D01*
X120117574Y-67174822D01*
X121135463Y-67820793D01*
X121138719Y-67822932D01*
X122135806Y-68500552D01*
X122138993Y-68502792D01*
X122405932Y-68696734D01*
X123114342Y-69211424D01*
X123117356Y-69213686D01*
X124069999Y-69952632D01*
X124073003Y-69955039D01*
X125001949Y-70723530D01*
X125004869Y-70726024D01*
X125597637Y-71248619D01*
X125909192Y-71523292D01*
X125912073Y-71525914D01*
X126660316Y-72228561D01*
X126790883Y-72351171D01*
X126793680Y-72353882D01*
X127646117Y-73206319D01*
X127648828Y-73209116D01*
X128474085Y-74087926D01*
X128476707Y-74090807D01*
X129127538Y-74829030D01*
X129273957Y-74995109D01*
X129276474Y-74998056D01*
X129832030Y-75669607D01*
X130044958Y-75926993D01*
X130047373Y-75930008D01*
X130786305Y-76882633D01*
X130788583Y-76885668D01*
X131040930Y-77232993D01*
X131497207Y-77861006D01*
X131499447Y-77864193D01*
X132177067Y-78861280D01*
X132179206Y-78864536D01*
X132825177Y-79882425D01*
X132827212Y-79885746D01*
X133175806Y-80475185D01*
X133425870Y-80898020D01*
X133440890Y-80923416D01*
X133442809Y-80926782D01*
X133812985Y-81600128D01*
X134023589Y-81983215D01*
X134025409Y-81986651D01*
X134492839Y-82904035D01*
X134572724Y-83060817D01*
X134574435Y-83064309D01*
X134915271Y-83788624D01*
X134981113Y-83928544D01*
X134983438Y-83933801D01*
X135101692Y-84218768D01*
X136084094Y-86586156D01*
X136086233Y-86591679D01*
X136328341Y-87264160D01*
X136423149Y-87527498D01*
X136423153Y-87527507D01*
X136424410Y-87531178D01*
X136476139Y-87690384D01*
X136796954Y-88677751D01*
X136798099Y-88681474D01*
X137134432Y-89839143D01*
X137135460Y-89842900D01*
X137435267Y-91010565D01*
X137436177Y-91014353D01*
X137699164Y-92190891D01*
X137699954Y-92194706D01*
X137925856Y-93378927D01*
X137926525Y-93382765D01*
X137951714Y-93541806D01*
X137952185Y-93545055D01*
X138322903Y-96367570D01*
X138323409Y-96372048D01*
X138380637Y-96977445D01*
X138380942Y-96981329D01*
X138456637Y-98184464D01*
X138456821Y-98188355D01*
X138494689Y-99393334D01*
X138494750Y-99397229D01*
X138494750Y-100602770D01*
X138494689Y-100606665D01*
X138456821Y-101811644D01*
X138456637Y-101815535D01*
X138380942Y-103018670D01*
X138380637Y-103022554D01*
X138323409Y-103627950D01*
X138322903Y-103632428D01*
X137952185Y-106454943D01*
X137951714Y-106458192D01*
X137926525Y-106617234D01*
X137925856Y-106621072D01*
X137699954Y-107805293D01*
X137699164Y-107809108D01*
X137436177Y-108985646D01*
X137435267Y-108989434D01*
X137135460Y-110157099D01*
X137134432Y-110160856D01*
X136798099Y-111318525D01*
X136796954Y-111322248D01*
X136424415Y-112468806D01*
X136423153Y-112472492D01*
X136086233Y-113408319D01*
X136084094Y-113413842D01*
X134983444Y-116066184D01*
X134981113Y-116071454D01*
X134574438Y-116935684D01*
X134572724Y-116939182D01*
X134025412Y-118013342D01*
X134023589Y-118016784D01*
X133442820Y-119073199D01*
X133440890Y-119076583D01*
X132827212Y-120114253D01*
X132825177Y-120117574D01*
X132179206Y-121135463D01*
X132177067Y-121138719D01*
X131499447Y-122135806D01*
X131497207Y-122138993D01*
X130788602Y-123114306D01*
X130786282Y-123117396D01*
X130293760Y-123752352D01*
X130047393Y-124069966D01*
X130044958Y-124073006D01*
X129276487Y-125001928D01*
X129273957Y-125004890D01*
X128476707Y-125909192D01*
X128474085Y-125912073D01*
X127648828Y-126790883D01*
X127646117Y-126793680D01*
X126793680Y-127646117D01*
X126790883Y-127648828D01*
X125912073Y-128474085D01*
X125909192Y-128476707D01*
X125004890Y-129273957D01*
X125001928Y-129276487D01*
X124073006Y-130044958D01*
X124069966Y-130047393D01*
X123117396Y-130786282D01*
X123114306Y-130788602D01*
X122138993Y-131497207D01*
X122135806Y-131499447D01*
X121138719Y-132177067D01*
X121135463Y-132179206D01*
X120117574Y-132825177D01*
X120114253Y-132827212D01*
X119076583Y-133440890D01*
X119073199Y-133442820D01*
X118016784Y-134023589D01*
X118013342Y-134025412D01*
X116939182Y-134572724D01*
X116935684Y-134574438D01*
X116071454Y-134981113D01*
X116066184Y-134983444D01*
X113413842Y-136084094D01*
X113408319Y-136086233D01*
X112472492Y-136423153D01*
X112468806Y-136424415D01*
X111322248Y-136796954D01*
X111318525Y-136798099D01*
X110160856Y-137134432D01*
X110157099Y-137135460D01*
X108989434Y-137435267D01*
X108985646Y-137436177D01*
X107809108Y-137699164D01*
X107805293Y-137699954D01*
X106621072Y-137925856D01*
X106617234Y-137926525D01*
X106458192Y-137951714D01*
X106454943Y-137952185D01*
X103632428Y-138322903D01*
X103627950Y-138323409D01*
X103022554Y-138380637D01*
X103018670Y-138380942D01*
X101815535Y-138456637D01*
X101811644Y-138456821D01*
X100606665Y-138494689D01*
X100602770Y-138494750D01*
X99397230Y-138494750D01*
X99393335Y-138494689D01*
X98463676Y-138465473D01*
X98397288Y-138443692D01*
X98353214Y-138389477D01*
X98345448Y-138320040D01*
X98376455Y-138257428D01*
X98398679Y-138238432D01*
X98436816Y-138212952D01*
X100346152Y-136303615D01*
X100373405Y-136262827D01*
X100428284Y-136180695D01*
X100451718Y-136124120D01*
X100484859Y-136044112D01*
X100513700Y-135899117D01*
X100513700Y-135751282D01*
X100513700Y-135481432D01*
X100533385Y-135414393D01*
X100586189Y-135368638D01*
X100655347Y-135358694D01*
X100699326Y-135373830D01*
X101039897Y-135568900D01*
X101525007Y-135846758D01*
X101573397Y-135897159D01*
X101581356Y-135916188D01*
X101936290Y-137013256D01*
X101938197Y-137083100D01*
X101938086Y-137083519D01*
X101900104Y-137225270D01*
X101899500Y-137227525D01*
X101899500Y-137372475D01*
X101937016Y-137512485D01*
X101937017Y-137512488D01*
X102009488Y-137638011D01*
X102009490Y-137638013D01*
X102009491Y-137638015D01*
X102111985Y-137740509D01*
X102111986Y-137740510D01*
X102111988Y-137740511D01*
X102237511Y-137812982D01*
X102237512Y-137812982D01*
X102237515Y-137812984D01*
X102377525Y-137850500D01*
X102377528Y-137850500D01*
X102522472Y-137850500D01*
X102522475Y-137850500D01*
X102662485Y-137812984D01*
X102788015Y-137740509D01*
X102890509Y-137638015D01*
X102962984Y-137512485D01*
X103000500Y-137372475D01*
X103000500Y-137227525D01*
X102962984Y-137087515D01*
X102948051Y-137061651D01*
X102890511Y-136961988D01*
X102890506Y-136961982D01*
X102788017Y-136859493D01*
X102788015Y-136859491D01*
X102756031Y-136841025D01*
X102707815Y-136790458D01*
X102700054Y-136771813D01*
X102283995Y-135485810D01*
X102272673Y-135444130D01*
X102267802Y-135435761D01*
X102264823Y-135426551D01*
X102241349Y-135390305D01*
X102219632Y-135352986D01*
X102212765Y-135346166D01*
X102207505Y-135338043D01*
X102207501Y-135338038D01*
X102177627Y-135311071D01*
X102175438Y-135309095D01*
X102144809Y-135278676D01*
X102136409Y-135273864D01*
X102129222Y-135267377D01*
X102093382Y-135249059D01*
X102088217Y-135246262D01*
X101450325Y-134880895D01*
X101001303Y-134623707D01*
X100872224Y-134549774D01*
X100847703Y-134524234D01*
X102314500Y-134524234D01*
X102314500Y-134675765D01*
X102353719Y-134822136D01*
X102387644Y-134880895D01*
X102429485Y-134953365D01*
X102536635Y-135060515D01*
X102667865Y-135136281D01*
X102814234Y-135175500D01*
X102814236Y-135175500D01*
X102965764Y-135175500D01*
X102965766Y-135175500D01*
X103112135Y-135136281D01*
X103243365Y-135060515D01*
X103350515Y-134953365D01*
X103426281Y-134822135D01*
X103465500Y-134675766D01*
X103465500Y-134524234D01*
X103426281Y-134377865D01*
X103350515Y-134246635D01*
X103243365Y-134139485D01*
X103173011Y-134098866D01*
X103112136Y-134063719D01*
X103038950Y-134044109D01*
X102965766Y-134024500D01*
X102814234Y-134024500D01*
X102667863Y-134063719D01*
X102536635Y-134139485D01*
X102536632Y-134139487D01*
X102429487Y-134246632D01*
X102429485Y-134246635D01*
X102353719Y-134377863D01*
X102314500Y-134524234D01*
X100847703Y-134524234D01*
X100823834Y-134499373D01*
X100810376Y-134430812D01*
X100836120Y-134365858D01*
X100846165Y-134354501D01*
X101972248Y-133228419D01*
X102033571Y-133194934D01*
X102059929Y-133192100D01*
X106395820Y-133192100D01*
X106493362Y-133172696D01*
X106540813Y-133163258D01*
X106677395Y-133106684D01*
X106726629Y-133073786D01*
X106800316Y-133024552D01*
X112605852Y-127219015D01*
X112640607Y-127167000D01*
X112687984Y-127096095D01*
X112741857Y-126966035D01*
X112744559Y-126959512D01*
X112764398Y-126859772D01*
X112767663Y-126843360D01*
X112767663Y-126843358D01*
X112773400Y-126814518D01*
X112773400Y-124827479D01*
X112744559Y-124682492D01*
X112744558Y-124682491D01*
X112744558Y-124682487D01*
X112718152Y-124618736D01*
X112687987Y-124545911D01*
X112687980Y-124545898D01*
X112605851Y-124422984D01*
X112605848Y-124422980D01*
X112501319Y-124318451D01*
X112501315Y-124318448D01*
X112378401Y-124236319D01*
X112378388Y-124236312D01*
X112241817Y-124179743D01*
X112241807Y-124179740D01*
X112096820Y-124150900D01*
X112096818Y-124150900D01*
X111948982Y-124150900D01*
X111948980Y-124150900D01*
X111803992Y-124179740D01*
X111803982Y-124179743D01*
X111667411Y-124236312D01*
X111667398Y-124236319D01*
X111544484Y-124318448D01*
X111544480Y-124318451D01*
X111439951Y-124422980D01*
X111439948Y-124422984D01*
X111357819Y-124545898D01*
X111357812Y-124545911D01*
X111301243Y-124682482D01*
X111301240Y-124682492D01*
X111272400Y-124827479D01*
X111272400Y-126378370D01*
X111252715Y-126445409D01*
X111236081Y-126466051D01*
X109322312Y-128379819D01*
X109260989Y-128413304D01*
X109191297Y-128408320D01*
X109135364Y-128366448D01*
X109110947Y-128300984D01*
X109124147Y-128235842D01*
X109154228Y-128176805D01*
X109154229Y-128176803D01*
X109154231Y-128176799D01*
X109224784Y-127959660D01*
X109225179Y-127957169D01*
X109260500Y-127734162D01*
X109260500Y-127505837D01*
X109224784Y-127280339D01*
X109176022Y-127130268D01*
X109154231Y-127063201D01*
X109154229Y-127063198D01*
X109154229Y-127063196D01*
X109092976Y-126942981D01*
X109050579Y-126859772D01*
X108916379Y-126675063D01*
X108754937Y-126513621D01*
X108570228Y-126379421D01*
X108568165Y-126378370D01*
X108366803Y-126275770D01*
X108149660Y-126205215D01*
X107924162Y-126169500D01*
X107924157Y-126169500D01*
X107695843Y-126169500D01*
X107695838Y-126169500D01*
X107470339Y-126205215D01*
X107253196Y-126275770D01*
X107163621Y-126321412D01*
X107094951Y-126334308D01*
X107030211Y-126308032D01*
X107019645Y-126298608D01*
X105993963Y-125272926D01*
X105993962Y-125272925D01*
X105931282Y-125236737D01*
X105908340Y-125223491D01*
X105908339Y-125223490D01*
X105908338Y-125223490D01*
X105853193Y-125208714D01*
X105853191Y-125208713D01*
X105853189Y-125208712D01*
X105812836Y-125197900D01*
X105812835Y-125197900D01*
X104939090Y-125197900D01*
X104872051Y-125178215D01*
X104826296Y-125125411D01*
X104816352Y-125056253D01*
X104845377Y-124992697D01*
X104866204Y-124973582D01*
X104944937Y-124916379D01*
X105106379Y-124754937D01*
X105240579Y-124570228D01*
X105344231Y-124366799D01*
X105414784Y-124149660D01*
X105427159Y-124071530D01*
X105450500Y-123924162D01*
X105450500Y-123695837D01*
X105414784Y-123470339D01*
X105351538Y-123275689D01*
X105344231Y-123253201D01*
X105344229Y-123253198D01*
X105344229Y-123253196D01*
X105275048Y-123117422D01*
X105240579Y-123049772D01*
X105106379Y-122865063D01*
X104944937Y-122703621D01*
X104875474Y-122653152D01*
X104832810Y-122597824D01*
X104826831Y-122528210D01*
X104859437Y-122466415D01*
X104860597Y-122465239D01*
X106225975Y-121099863D01*
X106275411Y-121014237D01*
X106301000Y-120918736D01*
X106301000Y-120819864D01*
X106301000Y-115976599D01*
X106320685Y-115909560D01*
X106337319Y-115888918D01*
X107199908Y-115026329D01*
X108113175Y-114113063D01*
X108156053Y-114038795D01*
X108162610Y-114027438D01*
X108188200Y-113931935D01*
X108188200Y-113400320D01*
X108207885Y-113333281D01*
X108260689Y-113287526D01*
X108329847Y-113277582D01*
X108393403Y-113306607D01*
X108422025Y-113346304D01*
X108422726Y-113345900D01*
X108426710Y-113352801D01*
X108426765Y-113352877D01*
X108426792Y-113352943D01*
X108466845Y-113422317D01*
X108476221Y-113438557D01*
X108476228Y-113438566D01*
X108908681Y-113871018D01*
X108942166Y-113932341D01*
X108945000Y-113958699D01*
X108945000Y-121077401D01*
X108925315Y-121144440D01*
X108908681Y-121165082D01*
X108152282Y-121921481D01*
X108090959Y-121954966D01*
X108064601Y-121957800D01*
X107859435Y-121957800D01*
X107760565Y-121957800D01*
X107665062Y-121983390D01*
X107665060Y-121983391D01*
X107665059Y-121983391D01*
X107579436Y-122032826D01*
X107509526Y-122102736D01*
X107460091Y-122188359D01*
X107460091Y-122188360D01*
X107460090Y-122188362D01*
X107434500Y-122283865D01*
X107434500Y-122283867D01*
X107434500Y-122316770D01*
X107414815Y-122383809D01*
X107362011Y-122429564D01*
X107348824Y-122434698D01*
X107313004Y-122446337D01*
X107253196Y-122465770D01*
X107049771Y-122569421D01*
X106865061Y-122703622D01*
X106703622Y-122865061D01*
X106569421Y-123049771D01*
X106465770Y-123253196D01*
X106395215Y-123470339D01*
X106359500Y-123695837D01*
X106359500Y-123924162D01*
X106395215Y-124149660D01*
X106465770Y-124366803D01*
X106540638Y-124513739D01*
X106569421Y-124570228D01*
X106703621Y-124754937D01*
X106865063Y-124916379D01*
X107049772Y-125050579D01*
X107145884Y-125099550D01*
X107253196Y-125154229D01*
X107253198Y-125154229D01*
X107253201Y-125154231D01*
X107327016Y-125178215D01*
X107470339Y-125224784D01*
X107695838Y-125260500D01*
X107695843Y-125260500D01*
X107924162Y-125260500D01*
X108149660Y-125224784D01*
X108153639Y-125223491D01*
X108366799Y-125154231D01*
X108570228Y-125050579D01*
X108754937Y-124916379D01*
X108916379Y-124754937D01*
X109050579Y-124570228D01*
X109154231Y-124366799D01*
X109224784Y-124149660D01*
X109237159Y-124071530D01*
X109260500Y-123924162D01*
X109260500Y-123695837D01*
X109224784Y-123470339D01*
X109161538Y-123275689D01*
X109154231Y-123253201D01*
X109154229Y-123253198D01*
X109154229Y-123253196D01*
X109085048Y-123117422D01*
X109050579Y-123049772D01*
X108916379Y-122865063D01*
X108754937Y-122703621D01*
X108685476Y-122653154D01*
X108685475Y-122653153D01*
X108642810Y-122597823D01*
X108636832Y-122528209D01*
X108669439Y-122466415D01*
X108670612Y-122465225D01*
X109620974Y-121514863D01*
X109638263Y-121484918D01*
X109670410Y-121429238D01*
X109696000Y-121333735D01*
X109696000Y-114377830D01*
X109715685Y-114310791D01*
X109768489Y-114265036D01*
X109837647Y-114255092D01*
X109901203Y-114284117D01*
X109907681Y-114290149D01*
X113338281Y-117720748D01*
X113371766Y-117782071D01*
X113374600Y-117808429D01*
X113374600Y-127108818D01*
X113374600Y-127108820D01*
X113374599Y-127108820D01*
X113403440Y-127253807D01*
X113403443Y-127253817D01*
X113460013Y-127390390D01*
X113460014Y-127390392D01*
X113460015Y-127390394D01*
X113460016Y-127390395D01*
X113464801Y-127397556D01*
X113464803Y-127397562D01*
X113464804Y-127397562D01*
X113542146Y-127513314D01*
X113542152Y-127513321D01*
X114713329Y-128684497D01*
X114746814Y-128745820D01*
X114749648Y-128772178D01*
X114749648Y-128900451D01*
X114777977Y-129079310D01*
X114833935Y-129251536D01*
X114833936Y-129251539D01*
X114889812Y-129361200D01*
X114913951Y-129408575D01*
X114916154Y-129412897D01*
X115022589Y-129559394D01*
X115022593Y-129559399D01*
X115150648Y-129687454D01*
X115150653Y-129687458D01*
X115278435Y-129780296D01*
X115297154Y-129793896D01*
X115402632Y-129847640D01*
X115458508Y-129876111D01*
X115458511Y-129876112D01*
X115544624Y-129904091D01*
X115630739Y-129932071D01*
X115713577Y-129945191D01*
X115809597Y-129960400D01*
X115809602Y-129960400D01*
X115990699Y-129960400D01*
X116077407Y-129946665D01*
X116169557Y-129932071D01*
X116341787Y-129876111D01*
X116503142Y-129793896D01*
X116649649Y-129687453D01*
X116737671Y-129599431D01*
X116798994Y-129565946D01*
X116868686Y-129570930D01*
X116924619Y-129612802D01*
X116949036Y-129678266D01*
X116949352Y-129687112D01*
X116949352Y-131004578D01*
X116963884Y-131077635D01*
X116963885Y-131077639D01*
X116963886Y-131077640D01*
X117019251Y-131160501D01*
X117102112Y-131215866D01*
X117102116Y-131215867D01*
X117175173Y-131230399D01*
X117175176Y-131230400D01*
X117175178Y-131230400D01*
X119024528Y-131230400D01*
X119024529Y-131230399D01*
X119097592Y-131215866D01*
X119180453Y-131160501D01*
X119235818Y-131077640D01*
X119250352Y-131004574D01*
X119250352Y-129155226D01*
X119250352Y-129155223D01*
X119250351Y-129155221D01*
X119235819Y-129082164D01*
X119235818Y-129082160D01*
X119228027Y-129070500D01*
X119180453Y-128999299D01*
X119097592Y-128943934D01*
X119097591Y-128943933D01*
X119097587Y-128943932D01*
X119024529Y-128929400D01*
X119024526Y-128929400D01*
X118599400Y-128929400D01*
X118532361Y-128909715D01*
X118486606Y-128856911D01*
X118475400Y-128805400D01*
X118475400Y-125867067D01*
X118475400Y-125867065D01*
X118449810Y-125771562D01*
X118419081Y-125718337D01*
X118400375Y-125685937D01*
X117469375Y-124754937D01*
X116535919Y-123821481D01*
X116502434Y-123760158D01*
X116499600Y-123733800D01*
X116499600Y-123601628D01*
X116474602Y-123475961D01*
X116474601Y-123475960D01*
X116474601Y-123475956D01*
X116425565Y-123357573D01*
X116425564Y-123357572D01*
X116425561Y-123357566D01*
X116354376Y-123251031D01*
X116354373Y-123251027D01*
X116263772Y-123160426D01*
X116263768Y-123160423D01*
X116157233Y-123089238D01*
X116157224Y-123089233D01*
X116038844Y-123040199D01*
X116038838Y-123040197D01*
X115913171Y-123015200D01*
X115913169Y-123015200D01*
X115785031Y-123015200D01*
X115785029Y-123015200D01*
X115659361Y-123040197D01*
X115659355Y-123040199D01*
X115540975Y-123089233D01*
X115540966Y-123089238D01*
X115434431Y-123160423D01*
X115434427Y-123160426D01*
X115343826Y-123251027D01*
X115343823Y-123251031D01*
X115272638Y-123357566D01*
X115272633Y-123357575D01*
X115223599Y-123475955D01*
X115223597Y-123475961D01*
X115198600Y-123601628D01*
X115198600Y-123601631D01*
X115198600Y-123729769D01*
X115198600Y-123729771D01*
X115198599Y-123729771D01*
X115223597Y-123855438D01*
X115223599Y-123855444D01*
X115272633Y-123973824D01*
X115272638Y-123973833D01*
X115343823Y-124080368D01*
X115343826Y-124080372D01*
X115434427Y-124170973D01*
X115434431Y-124170976D01*
X115540966Y-124242161D01*
X115540972Y-124242164D01*
X115540973Y-124242165D01*
X115659356Y-124291201D01*
X115659360Y-124291201D01*
X115659361Y-124291202D01*
X115785028Y-124316200D01*
X115917201Y-124316200D01*
X115984240Y-124335885D01*
X116004882Y-124352519D01*
X117688081Y-126035718D01*
X117721566Y-126097041D01*
X117724400Y-126123399D01*
X117724400Y-128805400D01*
X117704715Y-128872439D01*
X117651911Y-128918194D01*
X117600400Y-128929400D01*
X117174648Y-128929400D01*
X117107609Y-128909715D01*
X117061854Y-128856911D01*
X117050648Y-128805400D01*
X117050648Y-128719348D01*
X117026191Y-128564939D01*
X117022319Y-128540491D01*
X116989698Y-128440093D01*
X116966360Y-128368263D01*
X116966359Y-128368260D01*
X116932079Y-128300984D01*
X116884144Y-128206906D01*
X116870544Y-128188187D01*
X116777706Y-128060405D01*
X116777702Y-128060400D01*
X116649647Y-127932345D01*
X116649642Y-127932341D01*
X116503145Y-127825906D01*
X116503144Y-127825905D01*
X116503142Y-127825904D01*
X116451448Y-127799564D01*
X116341787Y-127743688D01*
X116341784Y-127743687D01*
X116169558Y-127687729D01*
X115990699Y-127659400D01*
X115990694Y-127659400D01*
X115862330Y-127659400D01*
X115795291Y-127639715D01*
X115774649Y-127623081D01*
X114911919Y-126760351D01*
X114878434Y-126699028D01*
X114875600Y-126672670D01*
X114875600Y-118550271D01*
X121918999Y-118550271D01*
X121943997Y-118675938D01*
X121943999Y-118675944D01*
X121993033Y-118794324D01*
X121993038Y-118794333D01*
X122064222Y-118900867D01*
X122064223Y-118900868D01*
X122064224Y-118900869D01*
X122154831Y-118991476D01*
X122154833Y-118991477D01*
X122157681Y-118994325D01*
X122191166Y-119055648D01*
X122194000Y-119082007D01*
X122194000Y-119953035D01*
X122219590Y-120048538D01*
X122219591Y-120048539D01*
X122219591Y-120048540D01*
X122268014Y-120132412D01*
X122268015Y-120132412D01*
X122268021Y-120132423D01*
X122269026Y-120134163D01*
X125263037Y-123128175D01*
X125292744Y-123145326D01*
X125348662Y-123177610D01*
X125348666Y-123177611D01*
X125396411Y-123190405D01*
X125396412Y-123190405D01*
X125406503Y-123193108D01*
X125444164Y-123203200D01*
X125444165Y-123203200D01*
X125587340Y-123203200D01*
X125654379Y-123222885D01*
X125700134Y-123275689D01*
X125711340Y-123327200D01*
X125711340Y-123752354D01*
X125725872Y-123825411D01*
X125725873Y-123825415D01*
X125725874Y-123825416D01*
X125781239Y-123908277D01*
X125843454Y-123949847D01*
X125864100Y-123963642D01*
X125864104Y-123963643D01*
X125937161Y-123978175D01*
X125937164Y-123978176D01*
X125937166Y-123978176D01*
X127786516Y-123978176D01*
X127786517Y-123978175D01*
X127859580Y-123963642D01*
X127942441Y-123908277D01*
X127997806Y-123825416D01*
X128012340Y-123752350D01*
X128012340Y-121903002D01*
X128012340Y-121902999D01*
X128012339Y-121902997D01*
X127997807Y-121829940D01*
X127997806Y-121829936D01*
X127982215Y-121806602D01*
X127942441Y-121747075D01*
X127859580Y-121691710D01*
X127859579Y-121691709D01*
X127859575Y-121691708D01*
X127786517Y-121677176D01*
X127786514Y-121677176D01*
X126316758Y-121677176D01*
X126249719Y-121657491D01*
X126203964Y-121604687D01*
X126194020Y-121535529D01*
X126211032Y-121488384D01*
X126213147Y-121484930D01*
X126213156Y-121484918D01*
X126295371Y-121323563D01*
X126351331Y-121151333D01*
X126365925Y-121059183D01*
X126379660Y-120972475D01*
X126379660Y-120791372D01*
X126363179Y-120687321D01*
X126351331Y-120612515D01*
X126295371Y-120440285D01*
X126295371Y-120440284D01*
X126260389Y-120371629D01*
X126213156Y-120278930D01*
X126107979Y-120134165D01*
X126106718Y-120132429D01*
X126106714Y-120132424D01*
X126016019Y-120041729D01*
X125982534Y-119980406D01*
X125979700Y-119954048D01*
X125979700Y-107210829D01*
X125999385Y-107143790D01*
X126016019Y-107123148D01*
X129964849Y-103174318D01*
X129964852Y-103174315D01*
X130014804Y-103099556D01*
X130046984Y-103051395D01*
X130070418Y-102994820D01*
X130103559Y-102914812D01*
X130132400Y-102769817D01*
X130132400Y-102621982D01*
X130132400Y-79618482D01*
X130132400Y-79618479D01*
X130111135Y-79511577D01*
X130111134Y-79511576D01*
X130109471Y-79503212D01*
X130103559Y-79473488D01*
X130070418Y-79393480D01*
X130069022Y-79390110D01*
X130069019Y-79390101D01*
X130046985Y-79336906D01*
X130046983Y-79336903D01*
X129964854Y-79213988D01*
X129964853Y-79213987D01*
X129964851Y-79213984D01*
X129860316Y-79109449D01*
X128968745Y-78217878D01*
X128048659Y-77297791D01*
X128015174Y-77236468D01*
X128012340Y-77210110D01*
X128012340Y-77081772D01*
X127991161Y-76948059D01*
X127984011Y-76902915D01*
X127939929Y-76767242D01*
X127928052Y-76730687D01*
X127928051Y-76730684D01*
X127875437Y-76627425D01*
X127845836Y-76569330D01*
X127791782Y-76494930D01*
X127739398Y-76422829D01*
X127739394Y-76422824D01*
X127611339Y-76294769D01*
X127611334Y-76294765D01*
X127464837Y-76188330D01*
X127464836Y-76188329D01*
X127464834Y-76188328D01*
X127413140Y-76161988D01*
X127303479Y-76106112D01*
X127303476Y-76106111D01*
X127131250Y-76050153D01*
X126952391Y-76021824D01*
X126952386Y-76021824D01*
X126771294Y-76021824D01*
X126771289Y-76021824D01*
X126592429Y-76050153D01*
X126420203Y-76106111D01*
X126420200Y-76106112D01*
X126258842Y-76188330D01*
X126112345Y-76294765D01*
X126112340Y-76294769D01*
X125984285Y-76422824D01*
X125984281Y-76422829D01*
X125877846Y-76569326D01*
X125795628Y-76730684D01*
X125795627Y-76730687D01*
X125739669Y-76902913D01*
X125711340Y-77081772D01*
X125711340Y-77262875D01*
X125739669Y-77441734D01*
X125795627Y-77613960D01*
X125795628Y-77613963D01*
X125877845Y-77775319D01*
X125879968Y-77778784D01*
X125898214Y-77846229D01*
X125877099Y-77912832D01*
X125823328Y-77957447D01*
X125774242Y-77967576D01*
X124304483Y-77967576D01*
X124231424Y-77982108D01*
X124231420Y-77982109D01*
X124148559Y-78037475D01*
X124093193Y-78120336D01*
X124093192Y-78120340D01*
X124078660Y-78193397D01*
X124078660Y-80042754D01*
X124093192Y-80115811D01*
X124093193Y-80115815D01*
X124093194Y-80115816D01*
X124148559Y-80198677D01*
X124217093Y-80244469D01*
X124231420Y-80254042D01*
X124231424Y-80254043D01*
X124304481Y-80268575D01*
X124304484Y-80268576D01*
X124304486Y-80268576D01*
X126153836Y-80268576D01*
X126153837Y-80268575D01*
X126226900Y-80254042D01*
X126309761Y-80198677D01*
X126365126Y-80115816D01*
X126379660Y-80042750D01*
X126379660Y-78396033D01*
X126399345Y-78328994D01*
X126452149Y-78283239D01*
X126521307Y-78273295D01*
X126541978Y-78278102D01*
X126592430Y-78294495D01*
X126771289Y-78322824D01*
X126771294Y-78322824D01*
X126899594Y-78322824D01*
X126966633Y-78342509D01*
X126987275Y-78359143D01*
X128595081Y-79966948D01*
X128628566Y-80028271D01*
X128631400Y-80054629D01*
X128631400Y-102333670D01*
X128611715Y-102400709D01*
X128595081Y-102421351D01*
X124646248Y-106370183D01*
X124625179Y-106401716D01*
X124604249Y-106433042D01*
X124603156Y-106434678D01*
X124564116Y-106493104D01*
X124564112Y-106493111D01*
X124507543Y-106629682D01*
X124507540Y-106629692D01*
X124478700Y-106774679D01*
X124478700Y-119953968D01*
X124459015Y-120021007D01*
X124442381Y-120041649D01*
X124351605Y-120132424D01*
X124351601Y-120132429D01*
X124245166Y-120278926D01*
X124162948Y-120440284D01*
X124162947Y-120440287D01*
X124106989Y-120612511D01*
X124104377Y-120629005D01*
X124074446Y-120692139D01*
X124015133Y-120729069D01*
X123945271Y-120728069D01*
X123894223Y-120697285D01*
X122981319Y-119784381D01*
X122947834Y-119723058D01*
X122945000Y-119696700D01*
X122945000Y-119082007D01*
X122964685Y-119014968D01*
X122981319Y-118994325D01*
X122984165Y-118991478D01*
X122984169Y-118991476D01*
X123074776Y-118900869D01*
X123145965Y-118794327D01*
X123195001Y-118675944D01*
X123207841Y-118611395D01*
X123220000Y-118550271D01*
X123220000Y-118422128D01*
X123195002Y-118296461D01*
X123195001Y-118296460D01*
X123195001Y-118296456D01*
X123145965Y-118178073D01*
X123145964Y-118178072D01*
X123145961Y-118178066D01*
X123074776Y-118071531D01*
X123074773Y-118071527D01*
X122984172Y-117980926D01*
X122984168Y-117980923D01*
X122877633Y-117909738D01*
X122877624Y-117909733D01*
X122759244Y-117860699D01*
X122759238Y-117860697D01*
X122633571Y-117835700D01*
X122633569Y-117835700D01*
X122505431Y-117835700D01*
X122505429Y-117835700D01*
X122379761Y-117860697D01*
X122379755Y-117860699D01*
X122261375Y-117909733D01*
X122261366Y-117909738D01*
X122154831Y-117980923D01*
X122154827Y-117980926D01*
X122064226Y-118071527D01*
X122064223Y-118071531D01*
X121993038Y-118178066D01*
X121993033Y-118178075D01*
X121943999Y-118296455D01*
X121943997Y-118296461D01*
X121919000Y-118422128D01*
X121919000Y-118422131D01*
X121919000Y-118550269D01*
X121919000Y-118550271D01*
X121918999Y-118550271D01*
X114875600Y-118550271D01*
X114875600Y-117372279D01*
X114846759Y-117227292D01*
X114846758Y-117227291D01*
X114846758Y-117227287D01*
X114817922Y-117157671D01*
X114790187Y-117090711D01*
X114790180Y-117090698D01*
X114708052Y-116967785D01*
X114675951Y-116935684D01*
X114603516Y-116863249D01*
X113665504Y-115925237D01*
X110836286Y-113096017D01*
X110836279Y-113096011D01*
X110786818Y-113046549D01*
X110753334Y-112985226D01*
X110750500Y-112958869D01*
X110750500Y-111927916D01*
X110770185Y-111860877D01*
X110786819Y-111840235D01*
X110795608Y-111831446D01*
X110877553Y-111749501D01*
X110983996Y-111602994D01*
X111066211Y-111441639D01*
X111122171Y-111269409D01*
X111138043Y-111169199D01*
X111150500Y-111090551D01*
X111150500Y-110909448D01*
X111134019Y-110805397D01*
X111122171Y-110730591D01*
X111090945Y-110634486D01*
X111066212Y-110558363D01*
X111066211Y-110558360D01*
X111037740Y-110502484D01*
X110983996Y-110397006D01*
X110883643Y-110258881D01*
X110877558Y-110250505D01*
X110877554Y-110250500D01*
X110749499Y-110122445D01*
X110749494Y-110122441D01*
X110602997Y-110016006D01*
X110602996Y-110016005D01*
X110602994Y-110016004D01*
X110551300Y-109989664D01*
X110441639Y-109933788D01*
X110441636Y-109933787D01*
X110269410Y-109877829D01*
X110090551Y-109849500D01*
X110090546Y-109849500D01*
X109909454Y-109849500D01*
X109909449Y-109849500D01*
X109730589Y-109877829D01*
X109558363Y-109933787D01*
X109558360Y-109933788D01*
X109397003Y-110016005D01*
X109349084Y-110050820D01*
X109283278Y-110074299D01*
X109215224Y-110058473D01*
X109166530Y-110008366D01*
X109152200Y-109950501D01*
X109152200Y-108303799D01*
X109171885Y-108236760D01*
X109188519Y-108216118D01*
X124164218Y-93240419D01*
X124225541Y-93206934D01*
X124251899Y-93204100D01*
X124384071Y-93204100D01*
X124468615Y-93187282D01*
X124509744Y-93179101D01*
X124628127Y-93130065D01*
X124734669Y-93058876D01*
X124825276Y-92968269D01*
X124896465Y-92861727D01*
X124945501Y-92743344D01*
X124970500Y-92617669D01*
X124970500Y-92489531D01*
X124970500Y-92489528D01*
X124945502Y-92363861D01*
X124945501Y-92363860D01*
X124945501Y-92363856D01*
X124907574Y-92272292D01*
X124896466Y-92245475D01*
X124896461Y-92245466D01*
X124825276Y-92138931D01*
X124825273Y-92138927D01*
X124734672Y-92048326D01*
X124734668Y-92048323D01*
X124628133Y-91977138D01*
X124628124Y-91977133D01*
X124509744Y-91928099D01*
X124509738Y-91928097D01*
X124384071Y-91903100D01*
X124384069Y-91903100D01*
X124255931Y-91903100D01*
X124255929Y-91903100D01*
X124130261Y-91928097D01*
X124130255Y-91928099D01*
X124011875Y-91977133D01*
X124011866Y-91977138D01*
X123905331Y-92048323D01*
X123905327Y-92048326D01*
X123814726Y-92138927D01*
X123814723Y-92138931D01*
X123775874Y-92197073D01*
X123722261Y-92241878D01*
X123652936Y-92250585D01*
X123589909Y-92220430D01*
X123569669Y-92197072D01*
X123555274Y-92175528D01*
X123464672Y-92084926D01*
X123464668Y-92084923D01*
X123358133Y-92013738D01*
X123358124Y-92013733D01*
X123239744Y-91964699D01*
X123239738Y-91964697D01*
X123114071Y-91939700D01*
X123114069Y-91939700D01*
X122985931Y-91939700D01*
X122985929Y-91939700D01*
X122860261Y-91964697D01*
X122860255Y-91964699D01*
X122741875Y-92013733D01*
X122741866Y-92013738D01*
X122635331Y-92084923D01*
X122635327Y-92084926D01*
X122544726Y-92175527D01*
X122544723Y-92175531D01*
X122473538Y-92282066D01*
X122473533Y-92282075D01*
X122424499Y-92400455D01*
X122424497Y-92400461D01*
X122399500Y-92526128D01*
X122399500Y-92658299D01*
X122390857Y-92687733D01*
X122384335Y-92717721D01*
X122380577Y-92722740D01*
X122379815Y-92725338D01*
X122363186Y-92745976D01*
X122352986Y-92756177D01*
X122291664Y-92789665D01*
X122265300Y-92792500D01*
X109975099Y-92792500D01*
X109908060Y-92772815D01*
X109887418Y-92756181D01*
X96910763Y-79779526D01*
X96910762Y-79779525D01*
X96825138Y-79730090D01*
X96777386Y-79717295D01*
X96777384Y-79717294D01*
X96777382Y-79717293D01*
X96729636Y-79704500D01*
X96729635Y-79704500D01*
X86119780Y-79704500D01*
X86052741Y-79684815D01*
X86009295Y-79636794D01*
X85941232Y-79503212D01*
X85919636Y-79473488D01*
X85839414Y-79363072D01*
X85716928Y-79240586D01*
X85576788Y-79138768D01*
X85422445Y-79060127D01*
X85257701Y-79006598D01*
X85257699Y-79006597D01*
X85257698Y-79006597D01*
X85126271Y-78985781D01*
X85086611Y-78979500D01*
X84913389Y-78979500D01*
X84873728Y-78985781D01*
X84742302Y-79006597D01*
X84577552Y-79060128D01*
X84423211Y-79138768D01*
X84343256Y-79196859D01*
X84283072Y-79240586D01*
X84283070Y-79240588D01*
X84283069Y-79240588D01*
X84160588Y-79363069D01*
X84160588Y-79363070D01*
X84160586Y-79363072D01*
X84058768Y-79503212D01*
X84021695Y-79575972D01*
X83980128Y-79657552D01*
X83926597Y-79822302D01*
X83899500Y-79993389D01*
X83899500Y-80166610D01*
X83915649Y-80268575D01*
X83926598Y-80337701D01*
X83980127Y-80502445D01*
X84058768Y-80656788D01*
X84160586Y-80796928D01*
X84283072Y-80919414D01*
X84423212Y-81021232D01*
X84577555Y-81099873D01*
X84742299Y-81153402D01*
X84913389Y-81180500D01*
X84913390Y-81180500D01*
X85086610Y-81180500D01*
X85086611Y-81180500D01*
X85257701Y-81153402D01*
X85422445Y-81099873D01*
X85576788Y-81021232D01*
X85716928Y-80919414D01*
X85839414Y-80796928D01*
X85941232Y-80656788D01*
X86009295Y-80523206D01*
X86057269Y-80472409D01*
X86119780Y-80455500D01*
X96473301Y-80455500D01*
X96540340Y-80475185D01*
X96560982Y-80491819D01*
X98687988Y-82618825D01*
X98721473Y-82680148D01*
X98716489Y-82749840D01*
X98674617Y-82805773D01*
X98609153Y-82830190D01*
X98594866Y-82830000D01*
X98589069Y-82830000D01*
X98460931Y-82830000D01*
X98460929Y-82830000D01*
X98335261Y-82854997D01*
X98335255Y-82854999D01*
X98216875Y-82904033D01*
X98216866Y-82904038D01*
X98110331Y-82975223D01*
X98110327Y-82975226D01*
X98019726Y-83065827D01*
X98019723Y-83065831D01*
X97948538Y-83172366D01*
X97948533Y-83172375D01*
X97899499Y-83290755D01*
X97899497Y-83290761D01*
X97874500Y-83416428D01*
X97874500Y-83416431D01*
X97874500Y-83544569D01*
X97874500Y-83544571D01*
X97874499Y-83544571D01*
X97899497Y-83670238D01*
X97899499Y-83670244D01*
X97948533Y-83788624D01*
X97948538Y-83788633D01*
X98019722Y-83895167D01*
X98019723Y-83895168D01*
X98019724Y-83895169D01*
X98110331Y-83985776D01*
X98110333Y-83985777D01*
X98113181Y-83988625D01*
X98146666Y-84049948D01*
X98149500Y-84076307D01*
X98149500Y-92808100D01*
X98129815Y-92875139D01*
X98113181Y-92895781D01*
X89627781Y-101381181D01*
X89566458Y-101414666D01*
X89496766Y-101409682D01*
X89440833Y-101367810D01*
X89416416Y-101302346D01*
X89416100Y-101293500D01*
X89416100Y-90187307D01*
X89435785Y-90120268D01*
X89452419Y-90099625D01*
X89455265Y-90096778D01*
X89455269Y-90096776D01*
X89545876Y-90006169D01*
X89617065Y-89899627D01*
X89666101Y-89781244D01*
X89677839Y-89722237D01*
X89691100Y-89655571D01*
X89691100Y-89527428D01*
X89666102Y-89401761D01*
X89666101Y-89401760D01*
X89666101Y-89401756D01*
X89617065Y-89283373D01*
X89617064Y-89283372D01*
X89617061Y-89283366D01*
X89545876Y-89176831D01*
X89545873Y-89176827D01*
X89455272Y-89086226D01*
X89455268Y-89086223D01*
X89402603Y-89051033D01*
X89364107Y-89009931D01*
X89341075Y-88970038D01*
X89271162Y-88900125D01*
X86057322Y-85686285D01*
X86023837Y-85624962D01*
X86027071Y-85560289D01*
X86073402Y-85417701D01*
X86100500Y-85246611D01*
X86100500Y-85073389D01*
X86073402Y-84902299D01*
X86019873Y-84737555D01*
X85941232Y-84583212D01*
X85839414Y-84443072D01*
X85716928Y-84320586D01*
X85576788Y-84218768D01*
X85422445Y-84140127D01*
X85257701Y-84086598D01*
X85257699Y-84086597D01*
X85257698Y-84086597D01*
X85126271Y-84065781D01*
X85086611Y-84059500D01*
X84913389Y-84059500D01*
X84873728Y-84065781D01*
X84742302Y-84086597D01*
X84577552Y-84140128D01*
X84423211Y-84218768D01*
X84343256Y-84276859D01*
X84283072Y-84320586D01*
X84283070Y-84320588D01*
X84283069Y-84320588D01*
X84160588Y-84443069D01*
X84160588Y-84443070D01*
X84160586Y-84443072D01*
X84116859Y-84503256D01*
X84058768Y-84583211D01*
X83980128Y-84737552D01*
X83926597Y-84902302D01*
X83899500Y-85073389D01*
X83899500Y-85246611D01*
X83926598Y-85417701D01*
X83980127Y-85582445D01*
X84058768Y-85736788D01*
X84160586Y-85876928D01*
X84283072Y-85999414D01*
X84423212Y-86101232D01*
X84577555Y-86179873D01*
X84742299Y-86233402D01*
X84913389Y-86260500D01*
X84913390Y-86260500D01*
X85086610Y-86260500D01*
X85086611Y-86260500D01*
X85257701Y-86233402D01*
X85400289Y-86187071D01*
X85470126Y-86185077D01*
X85526285Y-86217322D01*
X88443761Y-89134798D01*
X88477246Y-89196121D01*
X88472262Y-89265813D01*
X88465445Y-89280920D01*
X88464136Y-89283367D01*
X88415099Y-89401755D01*
X88415097Y-89401761D01*
X88390100Y-89527428D01*
X88390100Y-89527431D01*
X88390100Y-89655569D01*
X88390100Y-89655571D01*
X88390099Y-89655571D01*
X88415097Y-89781238D01*
X88415099Y-89781244D01*
X88464133Y-89899624D01*
X88464138Y-89899633D01*
X88535322Y-90006167D01*
X88535323Y-90006168D01*
X88535324Y-90006169D01*
X88625931Y-90096776D01*
X88625933Y-90096777D01*
X88628781Y-90099625D01*
X88662266Y-90160948D01*
X88665100Y-90187307D01*
X88665100Y-101487401D01*
X88645415Y-101554440D01*
X88628781Y-101575082D01*
X81388982Y-108814881D01*
X81327659Y-108848366D01*
X81301301Y-108851200D01*
X80467264Y-108851200D01*
X80419512Y-108863995D01*
X80419511Y-108863994D01*
X80371763Y-108876789D01*
X80371762Y-108876789D01*
X80286135Y-108926227D01*
X79429726Y-109782636D01*
X79380291Y-109868259D01*
X79380291Y-109868260D01*
X79380290Y-109868262D01*
X79354700Y-109963765D01*
X79354700Y-109963767D01*
X79354700Y-117769538D01*
X79363291Y-117801600D01*
X79363293Y-117801605D01*
X79365628Y-117810318D01*
X79380290Y-117865038D01*
X79417557Y-117929586D01*
X79429726Y-117950663D01*
X79429728Y-117950665D01*
X89399532Y-127920471D01*
X89399536Y-127920474D01*
X89399537Y-127920475D01*
X89442350Y-127945192D01*
X89485162Y-127969910D01*
X89532913Y-127982705D01*
X89580664Y-127995500D01*
X89580665Y-127995500D01*
X102473865Y-127995500D01*
X102506770Y-127995500D01*
X102573809Y-128015185D01*
X102619564Y-128067989D01*
X102624701Y-128081181D01*
X102655770Y-128176803D01*
X102754132Y-128369848D01*
X102759421Y-128380228D01*
X102893621Y-128564937D01*
X103055063Y-128726379D01*
X103239772Y-128860579D01*
X103333350Y-128908259D01*
X103384146Y-128956233D01*
X103400941Y-129024054D01*
X103378404Y-129090189D01*
X103364736Y-129106425D01*
X98405781Y-134065381D01*
X98344458Y-134098866D01*
X98318100Y-134101700D01*
X98185929Y-134101700D01*
X98060261Y-134126697D01*
X98060255Y-134126699D01*
X97941875Y-134175733D01*
X97941866Y-134175738D01*
X97835331Y-134246923D01*
X97835326Y-134246927D01*
X97781817Y-134300436D01*
X97720494Y-134333920D01*
X97650802Y-134328935D01*
X97594869Y-134287064D01*
X97586751Y-134274755D01*
X97576290Y-134256638D01*
X97570515Y-134246635D01*
X97463365Y-134139485D01*
X97393011Y-134098866D01*
X97332136Y-134063719D01*
X97258950Y-134044109D01*
X97185766Y-134024500D01*
X97034234Y-134024500D01*
X96887863Y-134063719D01*
X96756635Y-134139485D01*
X96756632Y-134139487D01*
X96649487Y-134246632D01*
X96649485Y-134246635D01*
X96573719Y-134377863D01*
X96534500Y-134524234D01*
X96534500Y-134675765D01*
X96573719Y-134822136D01*
X96607644Y-134880895D01*
X96649485Y-134953365D01*
X96756635Y-135060515D01*
X96887865Y-135136281D01*
X97034234Y-135175500D01*
X97034236Y-135175500D01*
X97185764Y-135175500D01*
X97185766Y-135175500D01*
X97332135Y-135136281D01*
X97463365Y-135060515D01*
X97482587Y-135041292D01*
X97543907Y-135007807D01*
X97613599Y-135012790D01*
X97669534Y-135054661D01*
X97673370Y-135060082D01*
X97744723Y-135166868D01*
X97744726Y-135166872D01*
X97835327Y-135257473D01*
X97835331Y-135257476D01*
X97941866Y-135328661D01*
X97941872Y-135328664D01*
X97941873Y-135328665D01*
X98060256Y-135377701D01*
X98060260Y-135377701D01*
X98060261Y-135377702D01*
X98185928Y-135402700D01*
X98185931Y-135402700D01*
X98314071Y-135402700D01*
X98398615Y-135385882D01*
X98439744Y-135377701D01*
X98558127Y-135328665D01*
X98664669Y-135257476D01*
X98755276Y-135166869D01*
X98764673Y-135152804D01*
X98785598Y-135121490D01*
X98839210Y-135076684D01*
X98908535Y-135067977D01*
X98971562Y-135098131D01*
X99008282Y-135157574D01*
X99012700Y-135190380D01*
X99012700Y-135462969D01*
X98993015Y-135530008D01*
X98976381Y-135550650D01*
X97375450Y-137151580D01*
X97375444Y-137151588D01*
X97326212Y-137225268D01*
X97326213Y-137225269D01*
X97293321Y-137274496D01*
X97293314Y-137274508D01*
X97236742Y-137411086D01*
X97236740Y-137411092D01*
X97207900Y-137556079D01*
X97207900Y-137556082D01*
X97207900Y-137703918D01*
X97207900Y-137703920D01*
X97207899Y-137703920D01*
X97236740Y-137848907D01*
X97236743Y-137848917D01*
X97293314Y-137985491D01*
X97293316Y-137985495D01*
X97313452Y-138015631D01*
X97323386Y-138030499D01*
X97375448Y-138108416D01*
X97460692Y-138193660D01*
X97494176Y-138254981D01*
X97489192Y-138324673D01*
X97447321Y-138380607D01*
X97381857Y-138405024D01*
X97365224Y-138405095D01*
X96981329Y-138380942D01*
X96977445Y-138380637D01*
X96372048Y-138323409D01*
X96367570Y-138322903D01*
X93545055Y-137952185D01*
X93541806Y-137951714D01*
X93382765Y-137926525D01*
X93378927Y-137925856D01*
X92194706Y-137699954D01*
X92190891Y-137699164D01*
X91014353Y-137436177D01*
X91010565Y-137435267D01*
X89842900Y-137135460D01*
X89839143Y-137134432D01*
X88681474Y-136798099D01*
X88677751Y-136796954D01*
X87758299Y-136498206D01*
X87531178Y-136424410D01*
X87527522Y-136423158D01*
X87195484Y-136303617D01*
X86591679Y-136086233D01*
X86586156Y-136084094D01*
X84594168Y-135257473D01*
X83933801Y-134983438D01*
X83928559Y-134981119D01*
X83064309Y-134574435D01*
X83060817Y-134572724D01*
X82958394Y-134520537D01*
X81986651Y-134025409D01*
X81983215Y-134023589D01*
X81365267Y-133683869D01*
X80926782Y-133442809D01*
X80923435Y-133440901D01*
X80453967Y-133163258D01*
X79885746Y-132827212D01*
X79882425Y-132825177D01*
X78864536Y-132179206D01*
X78861280Y-132177067D01*
X77864193Y-131499447D01*
X77861006Y-131497207D01*
X77182959Y-131004578D01*
X76885668Y-130788583D01*
X76882633Y-130786305D01*
X75930008Y-130047373D01*
X75926993Y-130044958D01*
X75494844Y-129687453D01*
X74998056Y-129276474D01*
X74995125Y-129273971D01*
X74117212Y-128499986D01*
X74090807Y-128476707D01*
X74087926Y-128474085D01*
X73209116Y-127648828D01*
X73206319Y-127646117D01*
X72353882Y-126793680D01*
X72351171Y-126790883D01*
X72264913Y-126699028D01*
X71525914Y-125912073D01*
X71523292Y-125909192D01*
X71398422Y-125767555D01*
X70726024Y-125004869D01*
X70723530Y-125001949D01*
X69955039Y-124073003D01*
X69952632Y-124069999D01*
X69213686Y-123117356D01*
X69211424Y-123114342D01*
X68765586Y-122500699D01*
X68502792Y-122138993D01*
X68500552Y-122135806D01*
X67822932Y-121138719D01*
X67820793Y-121135463D01*
X67174822Y-120117574D01*
X67172787Y-120114253D01*
X66827842Y-119530984D01*
X66559086Y-119076544D01*
X66557201Y-119073238D01*
X65976394Y-118016755D01*
X65974602Y-118013371D01*
X65427259Y-116939150D01*
X65425576Y-116935716D01*
X65018869Y-116071417D01*
X65016571Y-116066222D01*
X63915887Y-113413800D01*
X63913776Y-113408350D01*
X63576846Y-112472491D01*
X63575588Y-112468816D01*
X63494824Y-112220249D01*
X63203036Y-111322219D01*
X63201909Y-111318555D01*
X62865566Y-110160854D01*
X62864539Y-110157099D01*
X62843372Y-110074659D01*
X62564719Y-108989381D01*
X62563834Y-108985698D01*
X62300828Y-107809079D01*
X62300051Y-107805323D01*
X62091692Y-106713066D01*
X62074144Y-106621076D01*
X62073475Y-106617239D01*
X62056132Y-106507740D01*
X62048276Y-106458141D01*
X62047813Y-106454943D01*
X62001117Y-106099420D01*
X64416299Y-106099420D01*
X64445140Y-106244407D01*
X64445143Y-106244417D01*
X64501714Y-106380992D01*
X64517220Y-106404198D01*
X64517221Y-106404201D01*
X64583846Y-106503914D01*
X64583852Y-106503921D01*
X65109148Y-107029216D01*
X65142633Y-107090539D01*
X65145467Y-107116897D01*
X65145467Y-107245257D01*
X65173796Y-107424116D01*
X65229754Y-107596342D01*
X65229755Y-107596345D01*
X65311973Y-107757703D01*
X65418408Y-107904200D01*
X65418412Y-107904205D01*
X65509181Y-107994974D01*
X65542666Y-108056297D01*
X65545500Y-108082655D01*
X65545500Y-113241118D01*
X65545500Y-113241120D01*
X65545499Y-113241120D01*
X65574340Y-113386107D01*
X65574342Y-113386113D01*
X65630912Y-113522688D01*
X65630916Y-113522695D01*
X65647249Y-113547139D01*
X65647250Y-113547142D01*
X65713046Y-113645614D01*
X65713052Y-113645621D01*
X67461956Y-115394523D01*
X67495441Y-115455846D01*
X67498275Y-115482204D01*
X67498275Y-115610562D01*
X67526604Y-115789421D01*
X67582562Y-115961647D01*
X67582563Y-115961650D01*
X67664781Y-116123008D01*
X67771216Y-116269505D01*
X67771220Y-116269510D01*
X67899275Y-116397565D01*
X67899280Y-116397569D01*
X68020727Y-116485804D01*
X68045781Y-116504007D01*
X68103421Y-116533376D01*
X68207135Y-116586222D01*
X68207138Y-116586223D01*
X68263591Y-116604565D01*
X68379366Y-116642182D01*
X68462204Y-116655302D01*
X68558224Y-116670511D01*
X68558229Y-116670511D01*
X68686581Y-116670511D01*
X68753620Y-116690196D01*
X68774262Y-116706830D01*
X72351381Y-120283948D01*
X72384866Y-120345271D01*
X72387700Y-120371629D01*
X72387700Y-121899720D01*
X72368015Y-121966759D01*
X72351381Y-121987401D01*
X72260605Y-122078176D01*
X72260601Y-122078181D01*
X72154166Y-122224678D01*
X72071948Y-122386036D01*
X72071947Y-122386039D01*
X72015989Y-122558265D01*
X71987660Y-122737124D01*
X71987660Y-122918227D01*
X72015989Y-123097086D01*
X72071947Y-123269312D01*
X72071948Y-123269315D01*
X72154166Y-123430673D01*
X72260601Y-123577170D01*
X72260605Y-123577175D01*
X72388660Y-123705230D01*
X72388665Y-123705234D01*
X72486029Y-123775972D01*
X72535166Y-123811672D01*
X72621061Y-123855438D01*
X72696520Y-123893887D01*
X72696523Y-123893888D01*
X72782636Y-123921867D01*
X72868751Y-123949847D01*
X72951589Y-123962967D01*
X73047609Y-123978176D01*
X73047614Y-123978176D01*
X73228711Y-123978176D01*
X73320470Y-123963642D01*
X73407569Y-123949847D01*
X73579799Y-123893887D01*
X73741154Y-123811672D01*
X73887661Y-123705229D01*
X74015713Y-123577177D01*
X74122156Y-123430670D01*
X74204371Y-123269315D01*
X74260331Y-123097085D01*
X74274925Y-123004935D01*
X74288660Y-122918227D01*
X74288660Y-122737124D01*
X74266596Y-122597823D01*
X74260331Y-122558267D01*
X74204371Y-122386037D01*
X74204371Y-122386036D01*
X74152311Y-122283865D01*
X74122156Y-122224682D01*
X74122151Y-122224675D01*
X74120032Y-122221216D01*
X74101786Y-122153771D01*
X74122901Y-122087168D01*
X74176672Y-122042553D01*
X74225758Y-122032424D01*
X75695516Y-122032424D01*
X75695517Y-122032423D01*
X75768580Y-122017890D01*
X75851441Y-121962525D01*
X75906806Y-121879664D01*
X75921340Y-121806598D01*
X75921340Y-119957250D01*
X75921340Y-119957247D01*
X75921339Y-119957245D01*
X75906807Y-119884188D01*
X75906806Y-119884184D01*
X75851441Y-119801323D01*
X75768580Y-119745958D01*
X75768579Y-119745957D01*
X75768575Y-119745956D01*
X75695517Y-119731424D01*
X75695514Y-119731424D01*
X73918248Y-119731424D01*
X73851209Y-119711739D01*
X73805454Y-119658935D01*
X73803688Y-119654880D01*
X73803283Y-119653902D01*
X73721154Y-119530988D01*
X73721153Y-119530987D01*
X73721151Y-119530984D01*
X73616616Y-119426449D01*
X71728129Y-117537962D01*
X69835594Y-115645426D01*
X69802109Y-115584103D01*
X69799275Y-115557745D01*
X69799275Y-115429459D01*
X69780128Y-115308577D01*
X69770946Y-115250602D01*
X69718017Y-115087700D01*
X69714987Y-115078374D01*
X69714986Y-115078371D01*
X69683329Y-115016243D01*
X69632771Y-114917017D01*
X69566465Y-114825754D01*
X69526333Y-114770516D01*
X69526329Y-114770511D01*
X69398270Y-114642452D01*
X69329938Y-114592807D01*
X69287272Y-114537478D01*
X69281293Y-114467864D01*
X69313898Y-114406069D01*
X69374737Y-114371712D01*
X69402823Y-114368489D01*
X70646901Y-114368489D01*
X70646902Y-114368488D01*
X70719965Y-114353955D01*
X70802826Y-114298590D01*
X70858191Y-114215729D01*
X70872725Y-114142663D01*
X70872725Y-112293315D01*
X70872725Y-112293312D01*
X70872724Y-112293310D01*
X70858192Y-112220253D01*
X70858191Y-112220249D01*
X70802826Y-112137388D01*
X70719965Y-112082023D01*
X70719964Y-112082022D01*
X70719960Y-112082021D01*
X70646902Y-112067489D01*
X70646899Y-112067489D01*
X68797551Y-112067489D01*
X68797548Y-112067489D01*
X68724489Y-112082021D01*
X68724485Y-112082022D01*
X68641624Y-112137388D01*
X68586258Y-112220249D01*
X68586257Y-112220253D01*
X68571725Y-112293310D01*
X68571725Y-114082195D01*
X68552040Y-114149234D01*
X68499236Y-114194989D01*
X68430078Y-114204933D01*
X68366522Y-114175908D01*
X68360044Y-114169876D01*
X67082819Y-112892651D01*
X67049334Y-112831328D01*
X67046500Y-112804970D01*
X67046500Y-108082589D01*
X67066185Y-108015550D01*
X67082819Y-107994908D01*
X67125768Y-107951959D01*
X67173520Y-107904207D01*
X67279963Y-107757700D01*
X67362178Y-107596345D01*
X67418138Y-107424115D01*
X67432732Y-107331965D01*
X67446467Y-107245257D01*
X67446467Y-107064154D01*
X67429986Y-106960103D01*
X67418138Y-106885297D01*
X67362178Y-106713067D01*
X67362178Y-106713066D01*
X67313348Y-106617234D01*
X67279963Y-106551712D01*
X67245241Y-106503921D01*
X67173525Y-106405211D01*
X67173521Y-106405206D01*
X67045466Y-106277151D01*
X67045461Y-106277147D01*
X66898964Y-106170712D01*
X66898963Y-106170711D01*
X66898961Y-106170710D01*
X66847267Y-106144370D01*
X66737606Y-106088494D01*
X66737600Y-106088492D01*
X66605973Y-106045725D01*
X66548297Y-106006288D01*
X66521098Y-105941930D01*
X66533012Y-105873083D01*
X66580256Y-105821607D01*
X66644290Y-105803794D01*
X67661709Y-105803794D01*
X67661710Y-105803793D01*
X67734773Y-105789260D01*
X67817634Y-105733895D01*
X67872999Y-105651034D01*
X67887533Y-105577968D01*
X67887533Y-104485321D01*
X79799500Y-104485321D01*
X79799500Y-106434678D01*
X79814032Y-106507735D01*
X79814033Y-106507739D01*
X79814034Y-106507740D01*
X79869399Y-106590601D01*
X79927904Y-106629692D01*
X79952260Y-106645966D01*
X79952264Y-106645967D01*
X80025321Y-106660499D01*
X80025324Y-106660500D01*
X80025326Y-106660500D01*
X81974676Y-106660500D01*
X81974677Y-106660499D01*
X82047740Y-106645966D01*
X82130601Y-106590601D01*
X82185966Y-106507740D01*
X82200500Y-106434674D01*
X82200500Y-104485326D01*
X82200500Y-104485323D01*
X82200499Y-104485321D01*
X82185967Y-104412264D01*
X82185966Y-104412260D01*
X82177840Y-104400099D01*
X82130601Y-104329399D01*
X82047740Y-104274034D01*
X82047739Y-104274033D01*
X82047735Y-104274032D01*
X81974677Y-104259500D01*
X81974674Y-104259500D01*
X80025326Y-104259500D01*
X80025323Y-104259500D01*
X79952264Y-104274032D01*
X79952260Y-104274033D01*
X79869399Y-104329399D01*
X79814033Y-104412260D01*
X79814032Y-104412264D01*
X79799500Y-104485321D01*
X67887533Y-104485321D01*
X67887533Y-103728620D01*
X67887533Y-103728617D01*
X67887532Y-103728615D01*
X67873000Y-103655558D01*
X67872999Y-103655554D01*
X67857547Y-103632428D01*
X67817634Y-103572693D01*
X67734773Y-103517328D01*
X67734772Y-103517327D01*
X67734768Y-103517326D01*
X67661710Y-103502794D01*
X67661707Y-103502794D01*
X66041300Y-103502794D01*
X65974261Y-103483109D01*
X65928506Y-103430305D01*
X65917300Y-103378794D01*
X65917300Y-99737429D01*
X65925944Y-99707988D01*
X65932468Y-99678002D01*
X65936222Y-99672986D01*
X65936985Y-99670390D01*
X65953614Y-99649752D01*
X66114683Y-99488683D01*
X66176005Y-99455201D01*
X66202363Y-99452367D01*
X66330639Y-99452367D01*
X66417347Y-99438632D01*
X66509497Y-99424038D01*
X66681727Y-99368078D01*
X66843082Y-99285863D01*
X66989589Y-99179420D01*
X67117641Y-99051368D01*
X67224084Y-98904861D01*
X67306299Y-98743506D01*
X67362259Y-98571276D01*
X67376853Y-98479126D01*
X67390588Y-98392418D01*
X67390588Y-98264141D01*
X67410273Y-98197102D01*
X67426907Y-98176460D01*
X69067850Y-96535517D01*
X69067852Y-96535515D01*
X69128256Y-96445113D01*
X69149984Y-96412595D01*
X69190141Y-96315647D01*
X69206559Y-96276012D01*
X69235400Y-96131017D01*
X69235400Y-95983182D01*
X69235400Y-94775271D01*
X78709999Y-94775271D01*
X78734997Y-94900938D01*
X78734999Y-94900944D01*
X78784033Y-95019324D01*
X78784038Y-95019333D01*
X78855223Y-95125868D01*
X78855226Y-95125872D01*
X78945827Y-95216473D01*
X78945831Y-95216476D01*
X79052366Y-95287661D01*
X79052372Y-95287664D01*
X79052373Y-95287665D01*
X79170756Y-95336701D01*
X79170760Y-95336701D01*
X79170761Y-95336702D01*
X79296428Y-95361700D01*
X79296431Y-95361700D01*
X79424571Y-95361700D01*
X79509115Y-95344882D01*
X79550244Y-95336701D01*
X79668627Y-95287665D01*
X79775169Y-95216476D01*
X79865776Y-95125869D01*
X79936965Y-95019327D01*
X79986001Y-94900944D01*
X79994182Y-94859815D01*
X80011000Y-94775271D01*
X80011000Y-94643098D01*
X80030685Y-94576059D01*
X80047319Y-94555417D01*
X82663037Y-91939700D01*
X85300474Y-89302263D01*
X85300475Y-89302262D01*
X85349910Y-89216638D01*
X85362705Y-89168886D01*
X85375500Y-89121136D01*
X85375500Y-89022264D01*
X85375500Y-88819780D01*
X85395185Y-88752741D01*
X85443206Y-88709295D01*
X85576786Y-88641233D01*
X85576785Y-88641233D01*
X85576788Y-88641232D01*
X85716928Y-88539414D01*
X85839414Y-88416928D01*
X85941232Y-88276788D01*
X86019873Y-88122445D01*
X86073402Y-87957701D01*
X86100500Y-87786611D01*
X86100500Y-87613389D01*
X86073402Y-87442299D01*
X86019873Y-87277555D01*
X85941232Y-87123212D01*
X85839414Y-86983072D01*
X85716928Y-86860586D01*
X85576788Y-86758768D01*
X85422445Y-86680127D01*
X85257701Y-86626598D01*
X85257699Y-86626597D01*
X85257698Y-86626597D01*
X85126271Y-86605781D01*
X85086611Y-86599500D01*
X84913389Y-86599500D01*
X84873728Y-86605781D01*
X84742302Y-86626597D01*
X84577552Y-86680128D01*
X84423211Y-86758768D01*
X84345547Y-86815195D01*
X84283072Y-86860586D01*
X84283070Y-86860588D01*
X84283069Y-86860588D01*
X84160588Y-86983069D01*
X84160588Y-86983070D01*
X84160586Y-86983072D01*
X84116859Y-87043256D01*
X84058768Y-87123211D01*
X83980128Y-87277552D01*
X83926597Y-87442302D01*
X83899500Y-87613389D01*
X83899500Y-87786610D01*
X83919849Y-87915094D01*
X83926598Y-87957701D01*
X83980127Y-88122445D01*
X84058768Y-88276788D01*
X84160586Y-88416928D01*
X84283072Y-88539414D01*
X84388177Y-88615777D01*
X84423213Y-88641233D01*
X84556794Y-88709295D01*
X84567858Y-88719744D01*
X84581703Y-88726067D01*
X84592743Y-88743246D01*
X84607591Y-88757269D01*
X84611832Y-88772950D01*
X84619477Y-88784845D01*
X84624500Y-88819780D01*
X84624500Y-88864800D01*
X84604815Y-88931839D01*
X84588181Y-88952481D01*
X79516281Y-94024381D01*
X79454958Y-94057866D01*
X79428600Y-94060700D01*
X79296429Y-94060700D01*
X79170761Y-94085697D01*
X79170755Y-94085699D01*
X79052375Y-94134733D01*
X79052366Y-94134738D01*
X78945831Y-94205923D01*
X78945827Y-94205926D01*
X78855226Y-94296527D01*
X78855223Y-94296531D01*
X78784038Y-94403066D01*
X78784033Y-94403075D01*
X78734999Y-94521455D01*
X78734997Y-94521461D01*
X78710000Y-94647128D01*
X78710000Y-94647131D01*
X78710000Y-94775269D01*
X78710000Y-94775271D01*
X78709999Y-94775271D01*
X69235400Y-94775271D01*
X69235400Y-90492592D01*
X69255085Y-90425553D01*
X69271719Y-90404911D01*
X69316991Y-90359639D01*
X69362419Y-90314211D01*
X69468862Y-90167704D01*
X69551077Y-90006349D01*
X69551136Y-90006169D01*
X69580311Y-89916373D01*
X69607037Y-89834119D01*
X69630510Y-89685918D01*
X69635366Y-89655261D01*
X69635366Y-89474158D01*
X69613505Y-89336138D01*
X69607037Y-89295301D01*
X69574812Y-89196121D01*
X69551078Y-89123073D01*
X69551077Y-89123070D01*
X69522606Y-89067194D01*
X69468862Y-88961716D01*
X69423515Y-88899301D01*
X69362424Y-88815215D01*
X69362420Y-88815210D01*
X69234365Y-88687155D01*
X69234360Y-88687151D01*
X69087863Y-88580716D01*
X69087862Y-88580715D01*
X69087860Y-88580714D01*
X69006799Y-88539411D01*
X68926505Y-88498498D01*
X68926502Y-88498497D01*
X68761749Y-88444967D01*
X68704074Y-88405530D01*
X68676875Y-88341171D01*
X68688789Y-88272325D01*
X68696957Y-88258157D01*
X68752100Y-88175630D01*
X68766634Y-88102564D01*
X68766634Y-87982133D01*
X68786319Y-87915094D01*
X68839123Y-87869339D01*
X68908281Y-87859395D01*
X68971837Y-87888420D01*
X68978315Y-87894452D01*
X70769781Y-89685918D01*
X70803266Y-89747241D01*
X70806100Y-89773599D01*
X70806100Y-90763692D01*
X70786415Y-90830731D01*
X70769781Y-90851373D01*
X70676326Y-90944827D01*
X70676323Y-90944831D01*
X70605138Y-91051366D01*
X70605133Y-91051375D01*
X70556099Y-91169755D01*
X70556097Y-91169761D01*
X70531100Y-91295428D01*
X70531100Y-91295431D01*
X70531100Y-91423569D01*
X70531100Y-91423571D01*
X70531099Y-91423571D01*
X70556097Y-91549238D01*
X70556099Y-91549244D01*
X70605133Y-91667624D01*
X70605138Y-91667633D01*
X70676323Y-91774168D01*
X70676326Y-91774172D01*
X70766927Y-91864773D01*
X70766931Y-91864776D01*
X70873466Y-91935961D01*
X70873472Y-91935964D01*
X70873473Y-91935965D01*
X70991856Y-91985001D01*
X70991860Y-91985001D01*
X70991861Y-91985002D01*
X71117528Y-92010000D01*
X71117531Y-92010000D01*
X71245671Y-92010000D01*
X71352185Y-91988812D01*
X71371344Y-91985001D01*
X71489727Y-91935965D01*
X71596269Y-91864776D01*
X71686876Y-91774169D01*
X71758065Y-91667627D01*
X71807101Y-91549244D01*
X71832100Y-91423569D01*
X71832100Y-91295431D01*
X71832100Y-91295428D01*
X71807102Y-91169761D01*
X71807101Y-91169760D01*
X71807101Y-91169756D01*
X71758065Y-91051373D01*
X71758064Y-91051372D01*
X71758061Y-91051366D01*
X71686876Y-90944831D01*
X71686873Y-90944827D01*
X71593419Y-90851373D01*
X71559934Y-90790050D01*
X71557100Y-90763692D01*
X71557100Y-89517264D01*
X71553314Y-89503137D01*
X71553313Y-89503133D01*
X71538155Y-89446563D01*
X71531509Y-89421760D01*
X71531508Y-89421759D01*
X71519962Y-89401761D01*
X71482075Y-89336138D01*
X71412162Y-89266225D01*
X69023363Y-86877426D01*
X69023362Y-86877425D01*
X68937738Y-86827990D01*
X68889986Y-86815195D01*
X68889983Y-86815194D01*
X68858537Y-86806767D01*
X68804950Y-86774102D01*
X68798878Y-86770401D01*
X68798877Y-86770400D01*
X68768350Y-86707552D01*
X68766634Y-86686993D01*
X68766634Y-86253213D01*
X68766633Y-86253211D01*
X68752101Y-86180154D01*
X68752100Y-86180150D01*
X68736941Y-86157463D01*
X68696735Y-86097289D01*
X68613874Y-86041924D01*
X68613873Y-86041923D01*
X68613869Y-86041922D01*
X68540811Y-86027390D01*
X68540808Y-86027390D01*
X66691460Y-86027390D01*
X66691457Y-86027390D01*
X66618398Y-86041922D01*
X66618394Y-86041923D01*
X66535533Y-86097289D01*
X66480167Y-86180150D01*
X66480166Y-86180154D01*
X66465634Y-86253211D01*
X66465634Y-88102568D01*
X66480166Y-88175625D01*
X66480167Y-88175629D01*
X66480168Y-88175630D01*
X66535533Y-88258491D01*
X66618394Y-88313856D01*
X66618398Y-88313857D01*
X66691455Y-88328389D01*
X66691458Y-88328390D01*
X67860588Y-88328390D01*
X67927627Y-88348075D01*
X67973382Y-88400879D01*
X67983326Y-88470037D01*
X67954301Y-88533593D01*
X67916883Y-88562875D01*
X67881868Y-88580716D01*
X67735371Y-88687151D01*
X67735366Y-88687155D01*
X67607311Y-88815210D01*
X67607307Y-88815215D01*
X67500872Y-88961712D01*
X67418654Y-89123070D01*
X67418653Y-89123073D01*
X67362695Y-89295299D01*
X67334366Y-89474158D01*
X67334366Y-89655261D01*
X67362695Y-89834120D01*
X67418653Y-90006346D01*
X67418654Y-90006349D01*
X67464730Y-90096776D01*
X67497164Y-90160431D01*
X67500872Y-90167707D01*
X67607307Y-90314204D01*
X67607311Y-90314209D01*
X67698081Y-90404979D01*
X67731566Y-90466302D01*
X67734400Y-90492660D01*
X67734400Y-95694870D01*
X67714715Y-95761909D01*
X67698081Y-95782551D01*
X67380893Y-96099739D01*
X67319570Y-96133224D01*
X67249878Y-96128240D01*
X67193945Y-96086368D01*
X67169528Y-96020904D01*
X67169212Y-96012058D01*
X67169212Y-94846856D01*
X67169211Y-94846854D01*
X67154679Y-94773797D01*
X67154678Y-94773793D01*
X67099313Y-94690932D01*
X67016452Y-94635567D01*
X67016451Y-94635566D01*
X67016447Y-94635565D01*
X66943389Y-94621033D01*
X66943386Y-94621033D01*
X65094038Y-94621033D01*
X65094035Y-94621033D01*
X65020976Y-94635565D01*
X65020972Y-94635566D01*
X64938111Y-94690932D01*
X64882745Y-94773793D01*
X64882744Y-94773797D01*
X64868212Y-94846854D01*
X64868212Y-96696211D01*
X64882744Y-96769268D01*
X64882745Y-96769272D01*
X64882746Y-96769273D01*
X64938111Y-96852134D01*
X65010413Y-96900444D01*
X65020972Y-96907499D01*
X65020976Y-96907500D01*
X65094033Y-96922032D01*
X65094036Y-96922033D01*
X65094038Y-96922033D01*
X66021929Y-96922033D01*
X66088968Y-96941718D01*
X66134723Y-96994522D01*
X66144667Y-97063680D01*
X66115642Y-97127236D01*
X66056864Y-97165010D01*
X66041327Y-97168506D01*
X65970677Y-97179696D01*
X65798451Y-97235654D01*
X65798448Y-97235655D01*
X65637090Y-97317873D01*
X65490593Y-97424308D01*
X65490588Y-97424312D01*
X65362533Y-97552367D01*
X65362529Y-97552372D01*
X65256094Y-97698869D01*
X65173876Y-97860227D01*
X65173875Y-97860230D01*
X65117917Y-98032456D01*
X65089588Y-98211315D01*
X65089588Y-98339682D01*
X65069903Y-98406721D01*
X65053269Y-98427363D01*
X64583849Y-98896782D01*
X64583847Y-98896785D01*
X64566569Y-98922642D01*
X64566570Y-98922643D01*
X64501714Y-99019708D01*
X64445143Y-99156282D01*
X64445140Y-99156292D01*
X64416300Y-99301279D01*
X64416300Y-99301282D01*
X64416300Y-106099418D01*
X64416300Y-106099420D01*
X64416299Y-106099420D01*
X62001117Y-106099420D01*
X61677090Y-103632390D01*
X61676592Y-103627981D01*
X61619359Y-103022525D01*
X61619057Y-103018673D01*
X61618364Y-103007664D01*
X61543361Y-101815514D01*
X61543178Y-101811644D01*
X61529230Y-101367810D01*
X61505311Y-100606665D01*
X61505250Y-100602770D01*
X61505250Y-99397229D01*
X61505311Y-99393334D01*
X61508518Y-99291295D01*
X61536316Y-98406721D01*
X61543179Y-98188333D01*
X61543362Y-98184464D01*
X61546220Y-98139042D01*
X61619059Y-96981290D01*
X61619362Y-96977445D01*
X61676593Y-96372005D01*
X61677088Y-96367621D01*
X62047821Y-93544995D01*
X62048272Y-93541880D01*
X62073476Y-93382753D01*
X62074144Y-93378923D01*
X62099584Y-93245563D01*
X62300053Y-92194663D01*
X62300826Y-92190933D01*
X62563837Y-91014287D01*
X62564715Y-91010632D01*
X62864543Y-89842882D01*
X62865567Y-89839143D01*
X63201914Y-88681426D01*
X63203030Y-88677798D01*
X63575597Y-87531154D01*
X63576847Y-87527507D01*
X63913787Y-86591620D01*
X63915875Y-86586227D01*
X65016584Y-83933744D01*
X65018854Y-83928614D01*
X65425588Y-83064258D01*
X65427246Y-83060874D01*
X65696013Y-82533389D01*
X83899500Y-82533389D01*
X83899500Y-82706611D01*
X83926598Y-82877701D01*
X83980127Y-83042445D01*
X84058768Y-83196788D01*
X84160586Y-83336928D01*
X84283072Y-83459414D01*
X84423212Y-83561232D01*
X84577555Y-83639873D01*
X84742299Y-83693402D01*
X84913389Y-83720500D01*
X84913390Y-83720500D01*
X85086610Y-83720500D01*
X85086611Y-83720500D01*
X85257701Y-83693402D01*
X85422445Y-83639873D01*
X85576788Y-83561232D01*
X85716928Y-83459414D01*
X85839414Y-83336928D01*
X85941232Y-83196788D01*
X86019873Y-83042445D01*
X86073402Y-82877701D01*
X86100500Y-82706611D01*
X86100500Y-82533389D01*
X86073402Y-82362299D01*
X86019873Y-82197555D01*
X85941232Y-82043212D01*
X85839414Y-81903072D01*
X85716928Y-81780586D01*
X85576788Y-81678768D01*
X85422445Y-81600127D01*
X85257701Y-81546598D01*
X85257699Y-81546597D01*
X85257698Y-81546597D01*
X85126271Y-81525781D01*
X85086611Y-81519500D01*
X84913389Y-81519500D01*
X84873728Y-81525781D01*
X84742302Y-81546597D01*
X84577552Y-81600128D01*
X84423211Y-81678768D01*
X84343256Y-81736859D01*
X84283072Y-81780586D01*
X84283070Y-81780588D01*
X84283069Y-81780588D01*
X84160588Y-81903069D01*
X84160588Y-81903070D01*
X84160586Y-81903072D01*
X84116859Y-81963256D01*
X84058768Y-82043211D01*
X83980128Y-82197552D01*
X83926597Y-82362302D01*
X83909188Y-82472222D01*
X83899500Y-82533389D01*
X65696013Y-82533389D01*
X65974616Y-81986601D01*
X65976380Y-81983271D01*
X66557216Y-80926733D01*
X66559070Y-80923482D01*
X66574128Y-80898020D01*
X80484599Y-80898020D01*
X80513440Y-81043007D01*
X80513443Y-81043017D01*
X80570012Y-81179588D01*
X80570019Y-81179601D01*
X80652148Y-81302515D01*
X80652151Y-81302519D01*
X80756680Y-81407048D01*
X80756684Y-81407051D01*
X80879598Y-81489180D01*
X80879611Y-81489187D01*
X80952794Y-81519500D01*
X81016187Y-81545758D01*
X81016191Y-81545758D01*
X81016192Y-81545759D01*
X81161179Y-81574600D01*
X81161182Y-81574600D01*
X81309020Y-81574600D01*
X81406562Y-81555196D01*
X81454013Y-81545758D01*
X81590595Y-81489184D01*
X81713516Y-81407051D01*
X81818051Y-81302516D01*
X81900184Y-81179595D01*
X81956758Y-81043013D01*
X81985600Y-80898018D01*
X81985600Y-77449493D01*
X83850000Y-77449493D01*
X83850000Y-77630506D01*
X83878317Y-77809293D01*
X83934251Y-77981444D01*
X83934252Y-77981447D01*
X84016432Y-78142731D01*
X84087424Y-78240442D01*
X84087425Y-78240443D01*
X84556329Y-77771538D01*
X84599901Y-77847007D01*
X84692993Y-77940099D01*
X84768460Y-77983670D01*
X84299555Y-78452574D01*
X84397268Y-78523567D01*
X84558552Y-78605747D01*
X84558555Y-78605748D01*
X84730706Y-78661682D01*
X84909494Y-78690000D01*
X85090506Y-78690000D01*
X85269293Y-78661682D01*
X85441444Y-78605748D01*
X85441447Y-78605747D01*
X85602730Y-78523568D01*
X85700442Y-78452574D01*
X85700443Y-78452574D01*
X85231539Y-77983670D01*
X85307007Y-77940099D01*
X85400099Y-77847007D01*
X85443670Y-77771539D01*
X85912574Y-78240443D01*
X85912574Y-78240442D01*
X85983568Y-78142730D01*
X86065747Y-77981447D01*
X86065748Y-77981444D01*
X86121682Y-77809293D01*
X86150000Y-77630506D01*
X86150000Y-77449493D01*
X86121682Y-77270706D01*
X86065748Y-77098555D01*
X86065747Y-77098552D01*
X85983567Y-76937268D01*
X85912574Y-76839556D01*
X85912574Y-76839555D01*
X85443670Y-77308460D01*
X85400099Y-77232993D01*
X85307007Y-77139901D01*
X85231539Y-77096329D01*
X85700443Y-76627425D01*
X85700442Y-76627424D01*
X85602731Y-76556432D01*
X85441447Y-76474252D01*
X85441444Y-76474251D01*
X85269293Y-76418317D01*
X85090506Y-76390000D01*
X84909494Y-76390000D01*
X84730706Y-76418317D01*
X84558555Y-76474251D01*
X84558552Y-76474252D01*
X84397265Y-76556434D01*
X84299556Y-76627423D01*
X84299556Y-76627425D01*
X84768461Y-77096329D01*
X84692993Y-77139901D01*
X84599901Y-77232993D01*
X84556329Y-77308460D01*
X84087425Y-76839556D01*
X84087423Y-76839556D01*
X84016434Y-76937265D01*
X83934252Y-77098552D01*
X83934251Y-77098555D01*
X83878317Y-77270706D01*
X83850000Y-77449493D01*
X81985600Y-77449493D01*
X81985600Y-76494930D01*
X82005285Y-76427891D01*
X82021919Y-76407249D01*
X83687819Y-74741349D01*
X83749142Y-74707864D01*
X83818834Y-74712848D01*
X83874767Y-74754720D01*
X83899184Y-74820184D01*
X83899500Y-74829030D01*
X83899500Y-75874678D01*
X83914032Y-75947735D01*
X83914033Y-75947739D01*
X83914034Y-75947740D01*
X83969399Y-76030601D01*
X84011576Y-76058782D01*
X84052260Y-76085966D01*
X84052264Y-76085967D01*
X84125321Y-76100499D01*
X84125324Y-76100500D01*
X84125326Y-76100500D01*
X85874676Y-76100500D01*
X85874677Y-76100499D01*
X85947740Y-76085966D01*
X86030601Y-76030601D01*
X86085966Y-75947740D01*
X86100500Y-75874674D01*
X86100500Y-74125326D01*
X86100500Y-74125323D01*
X86100499Y-74125321D01*
X86085967Y-74052264D01*
X86085966Y-74052260D01*
X86080931Y-74044724D01*
X86030601Y-73969399D01*
X85947740Y-73914034D01*
X85947739Y-73914033D01*
X85947735Y-73914032D01*
X85874677Y-73899500D01*
X85874674Y-73899500D01*
X84829030Y-73899500D01*
X84761991Y-73879815D01*
X84716236Y-73827011D01*
X84706292Y-73757853D01*
X84735317Y-73694297D01*
X84741349Y-73687819D01*
X85044149Y-73385019D01*
X85105472Y-73351534D01*
X85131830Y-73348700D01*
X89012520Y-73348700D01*
X89110062Y-73329296D01*
X89157513Y-73319858D01*
X89294095Y-73263284D01*
X89417016Y-73181151D01*
X89521551Y-73076616D01*
X89603684Y-72953695D01*
X89660258Y-72817113D01*
X89689100Y-72672118D01*
X89689100Y-72524282D01*
X89689100Y-72524279D01*
X89660259Y-72379292D01*
X89660258Y-72379291D01*
X89660258Y-72379287D01*
X89660256Y-72379282D01*
X89603687Y-72242711D01*
X89603680Y-72242698D01*
X89521551Y-72119784D01*
X89521548Y-72119780D01*
X89417019Y-72015251D01*
X89417015Y-72015248D01*
X89294101Y-71933119D01*
X89294088Y-71933112D01*
X89157517Y-71876543D01*
X89157507Y-71876540D01*
X89012520Y-71847700D01*
X89012518Y-71847700D01*
X84695682Y-71847700D01*
X84695680Y-71847700D01*
X84550692Y-71876540D01*
X84550682Y-71876543D01*
X84414108Y-71933114D01*
X84414105Y-71933115D01*
X84414105Y-71933116D01*
X84370971Y-71961937D01*
X84370970Y-71961936D01*
X84291185Y-72015246D01*
X84291178Y-72015252D01*
X80652148Y-75654283D01*
X80634199Y-75681148D01*
X80634198Y-75681149D01*
X80570013Y-75777208D01*
X80513443Y-75913782D01*
X80513440Y-75913792D01*
X80484600Y-76058779D01*
X80484600Y-76058782D01*
X80484600Y-80898018D01*
X80484600Y-80898020D01*
X80484599Y-80898020D01*
X66574128Y-80898020D01*
X67172788Y-79885744D01*
X67174822Y-79882425D01*
X67279618Y-79717293D01*
X67820799Y-78864525D01*
X67822932Y-78861280D01*
X67996592Y-78605748D01*
X68500558Y-77864184D01*
X68502792Y-77861006D01*
X68517747Y-77840422D01*
X69211446Y-76885626D01*
X69213663Y-76882673D01*
X69952657Y-75929969D01*
X69955014Y-75927026D01*
X70723556Y-74998018D01*
X70725996Y-74995161D01*
X71483718Y-74135695D01*
X73909874Y-74135695D01*
X73909874Y-75985052D01*
X73924406Y-76058109D01*
X73924407Y-76058113D01*
X73924408Y-76058114D01*
X73979773Y-76140975D01*
X74050643Y-76188328D01*
X74062634Y-76196340D01*
X74062638Y-76196341D01*
X74135695Y-76210873D01*
X74135698Y-76210874D01*
X74135700Y-76210874D01*
X74560900Y-76210874D01*
X74627939Y-76230559D01*
X74673694Y-76283363D01*
X74684900Y-76334874D01*
X74684900Y-77178036D01*
X74697677Y-77225723D01*
X74697691Y-77225773D01*
X74697695Y-77225786D01*
X74710490Y-77273538D01*
X74710491Y-77273540D01*
X74710492Y-77273542D01*
X74745868Y-77334815D01*
X74759923Y-77359159D01*
X74759928Y-77359165D01*
X77425381Y-80024618D01*
X77458866Y-80085941D01*
X77461700Y-80112299D01*
X77461700Y-80116331D01*
X77461700Y-80244469D01*
X77461700Y-80244471D01*
X77461699Y-80244471D01*
X77486697Y-80370138D01*
X77486699Y-80370144D01*
X77535733Y-80488524D01*
X77535738Y-80488533D01*
X77606923Y-80595068D01*
X77606926Y-80595072D01*
X77697527Y-80685673D01*
X77697531Y-80685676D01*
X77804066Y-80756861D01*
X77804072Y-80756864D01*
X77804073Y-80756865D01*
X77922456Y-80805901D01*
X77922460Y-80805901D01*
X77922461Y-80805902D01*
X78048128Y-80830900D01*
X78048131Y-80830900D01*
X78176271Y-80830900D01*
X78260815Y-80814082D01*
X78301944Y-80805901D01*
X78420327Y-80756865D01*
X78526869Y-80685676D01*
X78617476Y-80595069D01*
X78688665Y-80488527D01*
X78737701Y-80370144D01*
X78762700Y-80244469D01*
X78762700Y-80116331D01*
X78762700Y-80116328D01*
X78737702Y-79990661D01*
X78737701Y-79990660D01*
X78737701Y-79990656D01*
X78688665Y-79872273D01*
X78688664Y-79872272D01*
X78688661Y-79872266D01*
X78617476Y-79765731D01*
X78617473Y-79765727D01*
X78526872Y-79675126D01*
X78526868Y-79675123D01*
X78420333Y-79603938D01*
X78420324Y-79603933D01*
X78301944Y-79554899D01*
X78301938Y-79554897D01*
X78176271Y-79529900D01*
X78176269Y-79529900D01*
X78048131Y-79529900D01*
X78044099Y-79529900D01*
X77977060Y-79510215D01*
X77956418Y-79493581D01*
X76681444Y-78218607D01*
X76647959Y-78157284D01*
X76652943Y-78087592D01*
X76694815Y-78031659D01*
X76760279Y-78007242D01*
X76769125Y-78006926D01*
X76946977Y-78006926D01*
X77033685Y-77993191D01*
X77125835Y-77978597D01*
X77298065Y-77922637D01*
X77459420Y-77840422D01*
X77605927Y-77733979D01*
X77733979Y-77605927D01*
X77840422Y-77459420D01*
X77922637Y-77298065D01*
X77978597Y-77125835D01*
X78002794Y-76973063D01*
X78006926Y-76946977D01*
X78006926Y-76818604D01*
X78026611Y-76751565D01*
X78043245Y-76730923D01*
X83525549Y-71248619D01*
X83586872Y-71215134D01*
X83613230Y-71212300D01*
X87661720Y-71212300D01*
X87759262Y-71192896D01*
X87806713Y-71183458D01*
X87943295Y-71126884D01*
X87992529Y-71093986D01*
X88066216Y-71044752D01*
X89439283Y-69671685D01*
X89500606Y-69638200D01*
X89526964Y-69635366D01*
X89655261Y-69635366D01*
X89741969Y-69621631D01*
X89834119Y-69607037D01*
X90006349Y-69551077D01*
X90167704Y-69468862D01*
X90314211Y-69362419D01*
X90442263Y-69234367D01*
X90548706Y-69087860D01*
X90630921Y-68926505D01*
X90686881Y-68754275D01*
X90704723Y-68641624D01*
X90715210Y-68575417D01*
X90715210Y-68394314D01*
X90698729Y-68290263D01*
X90686881Y-68215457D01*
X90630921Y-68043227D01*
X90630921Y-68043226D01*
X90589500Y-67961935D01*
X90548706Y-67881872D01*
X90504330Y-67820793D01*
X90442268Y-67735371D01*
X90442264Y-67735366D01*
X90314209Y-67607311D01*
X90314204Y-67607307D01*
X90167707Y-67500872D01*
X90167706Y-67500871D01*
X90167704Y-67500870D01*
X90116010Y-67474530D01*
X90006349Y-67418654D01*
X90006346Y-67418653D01*
X89834120Y-67362695D01*
X89655261Y-67334366D01*
X89655256Y-67334366D01*
X89474164Y-67334366D01*
X89474159Y-67334366D01*
X89295299Y-67362695D01*
X89123073Y-67418653D01*
X89123070Y-67418654D01*
X88961712Y-67500872D01*
X88815215Y-67607307D01*
X88815210Y-67607311D01*
X88687155Y-67735366D01*
X88687151Y-67735371D01*
X88580714Y-67881870D01*
X88562874Y-67916883D01*
X88514899Y-67967679D01*
X88447078Y-67984473D01*
X88380943Y-67961935D01*
X88337492Y-67907219D01*
X88328390Y-67860587D01*
X88328390Y-66691457D01*
X88328389Y-66691455D01*
X88313857Y-66618398D01*
X88313856Y-66618394D01*
X88303566Y-66602994D01*
X88258491Y-66535533D01*
X88175630Y-66480168D01*
X88175629Y-66480167D01*
X88175625Y-66480166D01*
X88102567Y-66465634D01*
X88102564Y-66465634D01*
X86253216Y-66465634D01*
X86253213Y-66465634D01*
X86180154Y-66480166D01*
X86180150Y-66480167D01*
X86097289Y-66535533D01*
X86041923Y-66618394D01*
X86041922Y-66618398D01*
X86027390Y-66691455D01*
X86027390Y-68540812D01*
X86041922Y-68613869D01*
X86041923Y-68613873D01*
X86041924Y-68613874D01*
X86097289Y-68696735D01*
X86138821Y-68724485D01*
X86180150Y-68752100D01*
X86180154Y-68752101D01*
X86253211Y-68766633D01*
X86253214Y-68766634D01*
X87922236Y-68766634D01*
X87989275Y-68786319D01*
X88035030Y-68839123D01*
X88044974Y-68908281D01*
X88015949Y-68971837D01*
X88009917Y-68978315D01*
X87313251Y-69674981D01*
X87251928Y-69708466D01*
X87225570Y-69711300D01*
X83177080Y-69711300D01*
X83032092Y-69740140D01*
X83032086Y-69740142D01*
X82895508Y-69796714D01*
X82895496Y-69796721D01*
X82846269Y-69829613D01*
X82772588Y-69878844D01*
X82772580Y-69878850D01*
X76981825Y-75669607D01*
X76920502Y-75703092D01*
X76894144Y-75705926D01*
X76765875Y-75705926D01*
X76587015Y-75734255D01*
X76414789Y-75790213D01*
X76414779Y-75790217D01*
X76391166Y-75802249D01*
X76322497Y-75815144D01*
X76257757Y-75788866D01*
X76217501Y-75731758D01*
X76210874Y-75691763D01*
X76210874Y-74135697D01*
X76210873Y-74135695D01*
X76196341Y-74062638D01*
X76196340Y-74062634D01*
X76184373Y-74044724D01*
X76140975Y-73979773D01*
X76058114Y-73924408D01*
X76058113Y-73924407D01*
X76058109Y-73924406D01*
X75985051Y-73909874D01*
X75985048Y-73909874D01*
X74135700Y-73909874D01*
X74135697Y-73909874D01*
X74062638Y-73924406D01*
X74062634Y-73924407D01*
X73979773Y-73979773D01*
X73924407Y-74062634D01*
X73924406Y-74062638D01*
X73909874Y-74135695D01*
X71483718Y-74135695D01*
X71523320Y-74090775D01*
X71525882Y-74087960D01*
X72351202Y-73209083D01*
X72353850Y-73206351D01*
X73206351Y-72353850D01*
X73209083Y-72351202D01*
X74087957Y-71525885D01*
X74090775Y-71523320D01*
X74995161Y-70725996D01*
X74998018Y-70723556D01*
X75927026Y-69955014D01*
X75929969Y-69952657D01*
X76882673Y-69213663D01*
X76885626Y-69211446D01*
X77861014Y-68502785D01*
X77864193Y-68500552D01*
X78020509Y-68394320D01*
X78861290Y-67822925D01*
X78864536Y-67820793D01*
X78999150Y-67735365D01*
X79882426Y-67174820D01*
X79885746Y-67172787D01*
X79971333Y-67122171D01*
X80923482Y-66559070D01*
X80926733Y-66557216D01*
X81983271Y-65976380D01*
X81986601Y-65974616D01*
X83060874Y-65427246D01*
X83064258Y-65425588D01*
X83808615Y-65075321D01*
X97579500Y-65075321D01*
X97579500Y-66924678D01*
X97594032Y-66997735D01*
X97594033Y-66997739D01*
X97594034Y-66997740D01*
X97649399Y-67080601D01*
X97711614Y-67122171D01*
X97732260Y-67135966D01*
X97732264Y-67135967D01*
X97805321Y-67150499D01*
X97805324Y-67150500D01*
X97805326Y-67150500D01*
X98230500Y-67150500D01*
X98297539Y-67170185D01*
X98343294Y-67222989D01*
X98354500Y-67274500D01*
X98354500Y-72145464D01*
X98345061Y-72192916D01*
X98330300Y-72228551D01*
X98330297Y-72228561D01*
X98305300Y-72354228D01*
X98305300Y-72354231D01*
X98305300Y-72482369D01*
X98305300Y-72482371D01*
X98305299Y-72482371D01*
X98330297Y-72608038D01*
X98330299Y-72608044D01*
X98379333Y-72726424D01*
X98379338Y-72726433D01*
X98450523Y-72832968D01*
X98450526Y-72832972D01*
X98541127Y-72923573D01*
X98541131Y-72923576D01*
X98647666Y-72994761D01*
X98647672Y-72994764D01*
X98647673Y-72994765D01*
X98766056Y-73043801D01*
X98766060Y-73043801D01*
X98766061Y-73043802D01*
X98891728Y-73068800D01*
X98891731Y-73068800D01*
X99019871Y-73068800D01*
X99104415Y-73051982D01*
X99145544Y-73043801D01*
X99263927Y-72994765D01*
X99370469Y-72923576D01*
X99461076Y-72832969D01*
X99532265Y-72726427D01*
X99581301Y-72608044D01*
X99597963Y-72524282D01*
X99606300Y-72482371D01*
X99606300Y-72354228D01*
X99581302Y-72228561D01*
X99581301Y-72228560D01*
X99581301Y-72228556D01*
X99532265Y-72110173D01*
X99532264Y-72110172D01*
X99532261Y-72110166D01*
X99461076Y-72003631D01*
X99461073Y-72003627D01*
X99370472Y-71913026D01*
X99370468Y-71913023D01*
X99263933Y-71841838D01*
X99263924Y-71841833D01*
X99182047Y-71807919D01*
X99127644Y-71764078D01*
X99105579Y-71697784D01*
X99105500Y-71693358D01*
X99105500Y-67274500D01*
X99125185Y-67207461D01*
X99177989Y-67161706D01*
X99229500Y-67150500D01*
X99654676Y-67150500D01*
X99654677Y-67150499D01*
X99727740Y-67135966D01*
X99810601Y-67080601D01*
X99865966Y-66997740D01*
X99880500Y-66924674D01*
X99880500Y-66157131D01*
X99900185Y-66090092D01*
X99952989Y-66044337D01*
X100022147Y-66034393D01*
X100085703Y-66063418D01*
X100123477Y-66122196D01*
X100126973Y-66137733D01*
X100147829Y-66269410D01*
X100203787Y-66441636D01*
X100203788Y-66441639D01*
X100286006Y-66602997D01*
X100392441Y-66749494D01*
X100392445Y-66749499D01*
X100520500Y-66877554D01*
X100520505Y-66877558D01*
X100585361Y-66924678D01*
X100667006Y-66983996D01*
X100772484Y-67037740D01*
X100828360Y-67066211D01*
X100828363Y-67066212D01*
X100914476Y-67094191D01*
X101000591Y-67122171D01*
X101083429Y-67135291D01*
X101179449Y-67150500D01*
X101179454Y-67150500D01*
X101360551Y-67150500D01*
X101452310Y-67135966D01*
X101539409Y-67122171D01*
X101711639Y-67066211D01*
X101872994Y-66983996D01*
X102019501Y-66877553D01*
X102110235Y-66786819D01*
X102171558Y-66753334D01*
X102197916Y-66750500D01*
X111855070Y-66750500D01*
X111922109Y-66770185D01*
X111942751Y-66786819D01*
X112811790Y-67655858D01*
X113515977Y-68360044D01*
X113549462Y-68421367D01*
X113544478Y-68491059D01*
X113502606Y-68546992D01*
X113437142Y-68571409D01*
X113428296Y-68571725D01*
X112293312Y-68571725D01*
X112220253Y-68586257D01*
X112220249Y-68586258D01*
X112137388Y-68641624D01*
X112082022Y-68724485D01*
X112082021Y-68724489D01*
X112067489Y-68797546D01*
X112067489Y-70646903D01*
X112082021Y-70719960D01*
X112082022Y-70719964D01*
X112082023Y-70719965D01*
X112137388Y-70802826D01*
X112220249Y-70858191D01*
X112220253Y-70858192D01*
X112293310Y-70872724D01*
X112293313Y-70872725D01*
X112293315Y-70872725D01*
X114142665Y-70872725D01*
X114142666Y-70872724D01*
X114215729Y-70858191D01*
X114298590Y-70802826D01*
X114353955Y-70719965D01*
X114368489Y-70646899D01*
X114368489Y-69440637D01*
X114377731Y-69409160D01*
X114385847Y-69377364D01*
X114387527Y-69375799D01*
X114388174Y-69373598D01*
X114412956Y-69352124D01*
X114436983Y-69329754D01*
X114439243Y-69329346D01*
X114440978Y-69327843D01*
X114473449Y-69323174D01*
X114505743Y-69317347D01*
X114508709Y-69318104D01*
X114510136Y-69317899D01*
X114539936Y-69326074D01*
X114579245Y-69342356D01*
X114632108Y-69384030D01*
X114642453Y-69398269D01*
X114642459Y-69398277D01*
X114770511Y-69526329D01*
X114770516Y-69526333D01*
X114881596Y-69607036D01*
X114917017Y-69632771D01*
X115022495Y-69686515D01*
X115078371Y-69714986D01*
X115078374Y-69714987D01*
X115155789Y-69740140D01*
X115250602Y-69770946D01*
X115333440Y-69784066D01*
X115429460Y-69799275D01*
X115429465Y-69799275D01*
X115610562Y-69799275D01*
X115697270Y-69785540D01*
X115789420Y-69770946D01*
X115961650Y-69714986D01*
X116123005Y-69632771D01*
X116269512Y-69526328D01*
X116397564Y-69398276D01*
X116504007Y-69251769D01*
X116586222Y-69090414D01*
X116642182Y-68918184D01*
X116656776Y-68826034D01*
X116670511Y-68739326D01*
X116670511Y-68558223D01*
X116644550Y-68394320D01*
X116642182Y-68379366D01*
X116586222Y-68207136D01*
X116586222Y-68207135D01*
X116557751Y-68151259D01*
X116504007Y-68045781D01*
X116490407Y-68027062D01*
X116397569Y-67899280D01*
X116397565Y-67899275D01*
X116269510Y-67771220D01*
X116269505Y-67771216D01*
X116123008Y-67664781D01*
X116123007Y-67664780D01*
X116123005Y-67664779D01*
X116050534Y-67627853D01*
X115961650Y-67582563D01*
X115961647Y-67582562D01*
X115789421Y-67526604D01*
X115610562Y-67498275D01*
X115610557Y-67498275D01*
X115429465Y-67498275D01*
X115429460Y-67498275D01*
X115250600Y-67526604D01*
X115078374Y-67582562D01*
X115078366Y-67582566D01*
X115014795Y-67614957D01*
X114946126Y-67627853D01*
X114881386Y-67601576D01*
X114870820Y-67592153D01*
X112695721Y-65417052D01*
X112695714Y-65417046D01*
X112622029Y-65367812D01*
X112622029Y-65367813D01*
X112572791Y-65334913D01*
X112436217Y-65278343D01*
X112436207Y-65278340D01*
X112291220Y-65249500D01*
X112291218Y-65249500D01*
X102197916Y-65249500D01*
X102130877Y-65229815D01*
X102110235Y-65213181D01*
X102019499Y-65122445D01*
X102019494Y-65122441D01*
X101872997Y-65016006D01*
X101872996Y-65016005D01*
X101872994Y-65016004D01*
X101821300Y-64989664D01*
X101711639Y-64933788D01*
X101711636Y-64933787D01*
X101539410Y-64877829D01*
X101360551Y-64849500D01*
X101360546Y-64849500D01*
X101179454Y-64849500D01*
X101179449Y-64849500D01*
X101000589Y-64877829D01*
X100828363Y-64933787D01*
X100828360Y-64933788D01*
X100667002Y-65016006D01*
X100520505Y-65122441D01*
X100520500Y-65122445D01*
X100392445Y-65250500D01*
X100392441Y-65250505D01*
X100286006Y-65397002D01*
X100203788Y-65558360D01*
X100203787Y-65558363D01*
X100147829Y-65730589D01*
X100126973Y-65862266D01*
X100097044Y-65925401D01*
X100037732Y-65962332D01*
X99967869Y-65961334D01*
X99909637Y-65922724D01*
X99881523Y-65858760D01*
X99880500Y-65842868D01*
X99880500Y-65075323D01*
X99880499Y-65075321D01*
X99865967Y-65002264D01*
X99865966Y-65002260D01*
X99810601Y-64919399D01*
X99727740Y-64864034D01*
X99727739Y-64864033D01*
X99727735Y-64864032D01*
X99654677Y-64849500D01*
X99654674Y-64849500D01*
X97805326Y-64849500D01*
X97805323Y-64849500D01*
X97732264Y-64864032D01*
X97732260Y-64864033D01*
X97649399Y-64919399D01*
X97594033Y-65002260D01*
X97594032Y-65002264D01*
X97579500Y-65075321D01*
X83808615Y-65075321D01*
X83928614Y-65018854D01*
X83933744Y-65016584D01*
X86586227Y-63915875D01*
X86591620Y-63913787D01*
X87527527Y-63576839D01*
X87531154Y-63575597D01*
X88677798Y-63203030D01*
X88681426Y-63201914D01*
X89839161Y-62865561D01*
X89842882Y-62864543D01*
X91010632Y-62564715D01*
X91014287Y-62563837D01*
X92190933Y-62300826D01*
X92194663Y-62300053D01*
X93378929Y-62074142D01*
X93382753Y-62073476D01*
X93541880Y-62048272D01*
X93544995Y-62047821D01*
X96367621Y-61677088D01*
X96372005Y-61676593D01*
X96977479Y-61619359D01*
X96981290Y-61619059D01*
X98184488Y-61543360D01*
X98188333Y-61543179D01*
X99393335Y-61505311D01*
X99397230Y-61505250D01*
X100602770Y-61505250D01*
X100606665Y-61505311D01*
G37*
%TD.AperFunction*%
%TA.AperFunction,Conductor*%
G36*
X106561409Y-128398990D02*
G01*
X106612915Y-128440092D01*
X106703621Y-128564937D01*
X106865063Y-128726379D01*
X107049772Y-128860579D01*
X107145884Y-128909550D01*
X107253196Y-128964229D01*
X107253198Y-128964229D01*
X107253201Y-128964231D01*
X107361129Y-128999299D01*
X107470339Y-129034784D01*
X107695838Y-129070500D01*
X107695843Y-129070500D01*
X107924162Y-129070500D01*
X108149660Y-129034784D01*
X108182683Y-129024054D01*
X108366799Y-128964231D01*
X108425842Y-128934146D01*
X108494511Y-128921250D01*
X108559252Y-128947526D01*
X108599509Y-129004632D01*
X108602502Y-129074437D01*
X108569819Y-129132312D01*
X106047351Y-131654781D01*
X105986028Y-131688266D01*
X105959670Y-131691100D01*
X102141500Y-131691100D01*
X102074461Y-131671415D01*
X102028706Y-131618611D01*
X102018762Y-131549453D01*
X102047787Y-131485897D01*
X102053819Y-131479419D01*
X104013319Y-129519919D01*
X104074642Y-129486434D01*
X104101000Y-129483600D01*
X105369135Y-129483600D01*
X105369136Y-129483600D01*
X105416886Y-129470805D01*
X105464638Y-129458010D01*
X105550262Y-129408575D01*
X105620175Y-129338662D01*
X105620174Y-129338662D01*
X105678743Y-129280093D01*
X106325475Y-128633363D01*
X106364980Y-128564937D01*
X106374910Y-128547738D01*
X106387705Y-128499986D01*
X106389196Y-128494419D01*
X106389199Y-128494413D01*
X106392823Y-128480888D01*
X106429186Y-128421227D01*
X106492033Y-128390696D01*
X106561409Y-128398990D01*
G37*
%TD.AperFunction*%
%TA.AperFunction,Conductor*%
G36*
X99071949Y-88857213D02*
G01*
X99173556Y-88899301D01*
X99173560Y-88899301D01*
X99173561Y-88899302D01*
X99299228Y-88924300D01*
X99431401Y-88924300D01*
X99498440Y-88943985D01*
X99519082Y-88960619D01*
X100411381Y-89852918D01*
X100444866Y-89914241D01*
X100447700Y-89940599D01*
X100447700Y-116182134D01*
X100428015Y-116249173D01*
X100375211Y-116294928D01*
X100306053Y-116304872D01*
X100276249Y-116296696D01*
X100251992Y-116286649D01*
X100231213Y-116278042D01*
X100231211Y-116278041D01*
X100231207Y-116278040D01*
X100086220Y-116249200D01*
X100086218Y-116249200D01*
X99093130Y-116249200D01*
X99026091Y-116229515D01*
X99005449Y-116212881D01*
X98178581Y-115386013D01*
X98145096Y-115324690D01*
X98150080Y-115254998D01*
X98191952Y-115199065D01*
X98246864Y-115175859D01*
X98281002Y-115170451D01*
X98460637Y-115112085D01*
X98628940Y-115026329D01*
X98736239Y-114948373D01*
X98736240Y-114948371D01*
X97893934Y-114106066D01*
X97787867Y-113999999D01*
X98212132Y-113999999D01*
X98212132Y-114000000D01*
X98948371Y-114736240D01*
X98948373Y-114736239D01*
X99026329Y-114628940D01*
X99112085Y-114460637D01*
X99170451Y-114281002D01*
X99200000Y-114094447D01*
X99200000Y-113905552D01*
X99170451Y-113718997D01*
X99112085Y-113539362D01*
X99026333Y-113371066D01*
X98948371Y-113263759D01*
X98948370Y-113263759D01*
X98212132Y-113999999D01*
X97787867Y-113999999D01*
X97051627Y-113263759D01*
X97051626Y-113263759D01*
X96973668Y-113371062D01*
X96973664Y-113371069D01*
X96907622Y-113500682D01*
X96900686Y-113508025D01*
X96897266Y-113517533D01*
X96877097Y-113533001D01*
X96859648Y-113551477D01*
X96849841Y-113553905D01*
X96841825Y-113560054D01*
X96816494Y-113562163D01*
X96791826Y-113568272D01*
X96782264Y-113565013D01*
X96772196Y-113565852D01*
X96749746Y-113553931D01*
X96725692Y-113545734D01*
X96717766Y-113536950D01*
X96710486Y-113533085D01*
X96699117Y-113516283D01*
X96689007Y-113505079D01*
X96685400Y-113498654D01*
X96665084Y-113449605D01*
X96622660Y-113386113D01*
X96582952Y-113326684D01*
X96307894Y-113051626D01*
X97263759Y-113051626D01*
X97263759Y-113051627D01*
X98000000Y-113787868D01*
X98000001Y-113787868D01*
X98736239Y-113051627D01*
X98628933Y-112973666D01*
X98460637Y-112887914D01*
X98281002Y-112829548D01*
X98094447Y-112800000D01*
X97905553Y-112800000D01*
X97718997Y-112829548D01*
X97539362Y-112887914D01*
X97371064Y-112973667D01*
X97371062Y-112973668D01*
X97263759Y-113051626D01*
X96307894Y-113051626D01*
X96052747Y-112796479D01*
X95087721Y-111831452D01*
X95087714Y-111831446D01*
X95014029Y-111782212D01*
X95014029Y-111782213D01*
X94964791Y-111749313D01*
X94828217Y-111692743D01*
X94828207Y-111692740D01*
X94683220Y-111663900D01*
X94683218Y-111663900D01*
X93324300Y-111663900D01*
X93257261Y-111644215D01*
X93211506Y-111591411D01*
X93200300Y-111539900D01*
X93200300Y-104997264D01*
X93201315Y-104991635D01*
X93200616Y-104988420D01*
X93208118Y-104953932D01*
X93217278Y-104929372D01*
X93217279Y-104929370D01*
X93244088Y-104857491D01*
X93244087Y-104857491D01*
X93244091Y-104857483D01*
X93250500Y-104797873D01*
X93250499Y-103897682D01*
X95700000Y-103897682D01*
X95700000Y-104102317D01*
X95732009Y-104304417D01*
X95795244Y-104499031D01*
X95888141Y-104681350D01*
X95888147Y-104681359D01*
X95980033Y-104807831D01*
X95980035Y-104807832D01*
X96556329Y-104231538D01*
X96599901Y-104307007D01*
X96692993Y-104400099D01*
X96768460Y-104443670D01*
X96192166Y-105019963D01*
X96318650Y-105111859D01*
X96500968Y-105204755D01*
X96695582Y-105267990D01*
X96897683Y-105300000D01*
X97102317Y-105300000D01*
X97304417Y-105267990D01*
X97499031Y-105204755D01*
X97681349Y-105111859D01*
X97807831Y-105019963D01*
X97807832Y-105019963D01*
X97231538Y-104443670D01*
X97307007Y-104400099D01*
X97400099Y-104307007D01*
X97443670Y-104231538D01*
X98019963Y-104807832D01*
X98019963Y-104807831D01*
X98111859Y-104681349D01*
X98204755Y-104499031D01*
X98267990Y-104304417D01*
X98300000Y-104102317D01*
X98300000Y-103897682D01*
X98267990Y-103695582D01*
X98204755Y-103500968D01*
X98111859Y-103318650D01*
X98019963Y-103192167D01*
X98019963Y-103192166D01*
X97443670Y-103768460D01*
X97400099Y-103692993D01*
X97307007Y-103599901D01*
X97231538Y-103556329D01*
X97807832Y-102980035D01*
X97807831Y-102980033D01*
X97681359Y-102888147D01*
X97681350Y-102888141D01*
X97499031Y-102795244D01*
X97304417Y-102732009D01*
X97102317Y-102700000D01*
X96897683Y-102700000D01*
X96695582Y-102732009D01*
X96500968Y-102795244D01*
X96318647Y-102888142D01*
X96192167Y-102980034D01*
X96192167Y-102980035D01*
X96768461Y-103556329D01*
X96692993Y-103599901D01*
X96599901Y-103692993D01*
X96556329Y-103768461D01*
X95980035Y-103192167D01*
X95980034Y-103192167D01*
X95888142Y-103318647D01*
X95795244Y-103500968D01*
X95732009Y-103695582D01*
X95700000Y-103897682D01*
X93250499Y-103897682D01*
X93250499Y-103202128D01*
X93244091Y-103142517D01*
X93210105Y-103051395D01*
X93193797Y-103007671D01*
X93193793Y-103007664D01*
X93107547Y-102892455D01*
X93107544Y-102892452D01*
X92992335Y-102806206D01*
X92992328Y-102806202D01*
X92857482Y-102755908D01*
X92857483Y-102755908D01*
X92797883Y-102749501D01*
X92797881Y-102749500D01*
X92797873Y-102749500D01*
X92797864Y-102749500D01*
X91202129Y-102749500D01*
X91202123Y-102749501D01*
X91142516Y-102755908D01*
X91007671Y-102806202D01*
X91007664Y-102806206D01*
X90892455Y-102892452D01*
X90892452Y-102892455D01*
X90806206Y-103007664D01*
X90806202Y-103007671D01*
X90755908Y-103142517D01*
X90750571Y-103192166D01*
X90749501Y-103202123D01*
X90749500Y-103202135D01*
X90749500Y-104797870D01*
X90749501Y-104797876D01*
X90755908Y-104857483D01*
X90806202Y-104992328D01*
X90806206Y-104992335D01*
X90892452Y-105107544D01*
X90892455Y-105107547D01*
X91007664Y-105193793D01*
X91007671Y-105193797D01*
X91052618Y-105210561D01*
X91142517Y-105244091D01*
X91202127Y-105250500D01*
X91575300Y-105250499D01*
X91642339Y-105270183D01*
X91688094Y-105322987D01*
X91699300Y-105374499D01*
X91699300Y-112052169D01*
X91679615Y-112119208D01*
X91662981Y-112139850D01*
X90784355Y-113018475D01*
X90723032Y-113051960D01*
X90653340Y-113046976D01*
X90623790Y-113031113D01*
X90602994Y-113016004D01*
X90591666Y-113010232D01*
X90441639Y-112933788D01*
X90441636Y-112933787D01*
X90269410Y-112877829D01*
X90090551Y-112849500D01*
X90090546Y-112849500D01*
X89909454Y-112849500D01*
X89909449Y-112849500D01*
X89730589Y-112877829D01*
X89558363Y-112933787D01*
X89558360Y-112933788D01*
X89397002Y-113016006D01*
X89250505Y-113122441D01*
X89250500Y-113122445D01*
X89122445Y-113250500D01*
X89122441Y-113250505D01*
X89016006Y-113397002D01*
X88933788Y-113558360D01*
X88933787Y-113558363D01*
X88877829Y-113730589D01*
X88849500Y-113909448D01*
X88849500Y-114037770D01*
X88829815Y-114104809D01*
X88813181Y-114125451D01*
X85989051Y-116949581D01*
X85927728Y-116983066D01*
X85901370Y-116985900D01*
X80798980Y-116985900D01*
X80653992Y-117014740D01*
X80653982Y-117014743D01*
X80517411Y-117071312D01*
X80517398Y-117071319D01*
X80394484Y-117153448D01*
X80394480Y-117153451D01*
X80317381Y-117230551D01*
X80256058Y-117264036D01*
X80186366Y-117259052D01*
X80130433Y-117217180D01*
X80106016Y-117151716D01*
X80105700Y-117142870D01*
X80105700Y-111617516D01*
X80125385Y-111550477D01*
X80178189Y-111504722D01*
X80247347Y-111494778D01*
X80302583Y-111517197D01*
X80370801Y-111566760D01*
X80441920Y-111602997D01*
X80539163Y-111652545D01*
X80539165Y-111652545D01*
X80539168Y-111652547D01*
X80574109Y-111663900D01*
X80718881Y-111710940D01*
X80905514Y-111740500D01*
X80905519Y-111740500D01*
X81094486Y-111740500D01*
X81281118Y-111710940D01*
X81337131Y-111692740D01*
X81460832Y-111652547D01*
X81629199Y-111566760D01*
X81782073Y-111455690D01*
X81915690Y-111322073D01*
X82026760Y-111169199D01*
X82112547Y-111000832D01*
X82170940Y-110821118D01*
X82185278Y-110730591D01*
X82200500Y-110634486D01*
X82200500Y-110445513D01*
X82170940Y-110258881D01*
X82126609Y-110122447D01*
X82112547Y-110079168D01*
X82112545Y-110079165D01*
X82112543Y-110079157D01*
X82110680Y-110074659D01*
X82111725Y-110074226D01*
X82099816Y-110010831D01*
X82126089Y-109946089D01*
X82135508Y-109935527D01*
X98825475Y-93245563D01*
X98874911Y-93159937D01*
X98900500Y-93064436D01*
X98900500Y-92965564D01*
X98900500Y-88971776D01*
X98920185Y-88904737D01*
X98972989Y-88858982D01*
X99042147Y-88849038D01*
X99071949Y-88857213D01*
G37*
%TD.AperFunction*%
%TD*%
M02*
