%TF.GenerationSoftware,KiCad,Pcbnew,9.0.6*%
%TF.CreationDate,2026-08-16T21:16:21+09:00*%
%TF.ProjectId,ir_blaster_v4_complete,69725f62-6c61-4737-9465-725f76345f63,rev?*%
%TF.SameCoordinates,Original*%
%TF.FileFunction,Copper,L1,Top*%
%TF.FilePolarity,Positive*%
%FSLAX46Y46*%
G04 Gerber Fmt 4.6, Leading zero omitted, Abs format (unit mm)*
G04 Created by KiCad (PCBNEW 9.0.6) date 2026-08-16 21:16:21*
%MOMM*%
%LPD*%
G01*
G04 APERTURE LIST*
G04 Aperture macros list*
%AMRoundRect*
0 Rectangle with rounded corners*
0 $1 Rounding radius*
0 $2 $3 $4 $5 $6 $7 $8 $9 X,Y pos of 4 corners*
0 Add a 4 corners polygon primitive as box body*
4,1,4,$2,$3,$4,$5,$6,$7,$8,$9,$2,$3,0*
0 Add four circle primitives for the rounded corners*
1,1,$1+$1,$2,$3*
1,1,$1+$1,$4,$5*
1,1,$1+$1,$6,$7*
1,1,$1+$1,$8,$9*
0 Add four rect primitives between the rounded corners*
20,1,$1+$1,$2,$3,$4,$5,0*
20,1,$1+$1,$4,$5,$6,$7,0*
20,1,$1+$1,$6,$7,$8,$9,0*
20,1,$1+$1,$8,$9,$2,$3,0*%
G04 Aperture macros list end*
%TA.AperFunction,SMDPad,CuDef*%
%ADD10RoundRect,0.225000X-0.225000X-0.250000X0.225000X-0.250000X0.225000X0.250000X-0.225000X0.250000X0*%
%TD*%
%TA.AperFunction,ComponentPad*%
%ADD11RoundRect,0.250000X-0.750000X-0.750000X0.750000X-0.750000X0.750000X0.750000X-0.750000X0.750000X0*%
%TD*%
%TA.AperFunction,ComponentPad*%
%ADD12C,2.000000*%
%TD*%
%TA.AperFunction,SMDPad,CuDef*%
%ADD13R,0.900000X1.500000*%
%TD*%
%TA.AperFunction,SMDPad,CuDef*%
%ADD14R,1.500000X0.900000*%
%TD*%
%TA.AperFunction,HeatsinkPad*%
%ADD15R,0.900000X0.900000*%
%TD*%
%TA.AperFunction,HeatsinkPad*%
%ADD16C,0.700000*%
%TD*%
%TA.AperFunction,SMDPad,CuDef*%
%ADD17RoundRect,0.375000X-0.625000X-0.375000X0.625000X-0.375000X0.625000X0.375000X-0.625000X0.375000X0*%
%TD*%
%TA.AperFunction,SMDPad,CuDef*%
%ADD18RoundRect,0.500000X-0.500000X-1.400000X0.500000X-1.400000X0.500000X1.400000X-0.500000X1.400000X0*%
%TD*%
%TA.AperFunction,SMDPad,CuDef*%
%ADD19R,1.800000X1.400000*%
%TD*%
%TA.AperFunction,SMDPad,CuDef*%
%ADD20RoundRect,0.150000X-0.587500X-0.150000X0.587500X-0.150000X0.587500X0.150000X-0.587500X0.150000X0*%
%TD*%
%TA.AperFunction,SMDPad,CuDef*%
%ADD21RoundRect,0.250000X-0.325000X-0.650000X0.325000X-0.650000X0.325000X0.650000X-0.325000X0.650000X0*%
%TD*%
%TA.AperFunction,SMDPad,CuDef*%
%ADD22RoundRect,0.250000X-0.312500X-0.625000X0.312500X-0.625000X0.312500X0.625000X-0.312500X0.625000X0*%
%TD*%
%TA.AperFunction,ComponentPad*%
%ADD23R,1.800000X1.800000*%
%TD*%
%TA.AperFunction,ComponentPad*%
%ADD24C,1.800000*%
%TD*%
%TA.AperFunction,SMDPad,CuDef*%
%ADD25RoundRect,0.200000X-0.200000X-0.275000X0.200000X-0.275000X0.200000X0.275000X-0.200000X0.275000X0*%
%TD*%
%TA.AperFunction,ComponentPad*%
%ADD26R,1.700000X1.700000*%
%TD*%
%TA.AperFunction,ComponentPad*%
%ADD27C,1.700000*%
%TD*%
%TA.AperFunction,ComponentPad*%
%ADD28R,1.900000X1.900000*%
%TD*%
%TA.AperFunction,ComponentPad*%
%ADD29C,1.900000*%
%TD*%
%TA.AperFunction,SMDPad,CuDef*%
%ADD30RoundRect,0.218750X-0.218750X-0.256250X0.218750X-0.256250X0.218750X0.256250X-0.218750X0.256250X0*%
%TD*%
%TA.AperFunction,SMDPad,CuDef*%
%ADD31R,0.600000X1.450000*%
%TD*%
%TA.AperFunction,SMDPad,CuDef*%
%ADD32R,0.300000X1.450000*%
%TD*%
%TA.AperFunction,HeatsinkPad*%
%ADD33O,1.000000X2.100000*%
%TD*%
%TA.AperFunction,HeatsinkPad*%
%ADD34O,1.000000X1.600000*%
%TD*%
%TA.AperFunction,ViaPad*%
%ADD35C,0.800000*%
%TD*%
%TA.AperFunction,ViaPad*%
%ADD36C,0.600000*%
%TD*%
%TA.AperFunction,ViaPad*%
%ADD37C,1.000000*%
%TD*%
%TA.AperFunction,Conductor*%
%ADD38C,0.250000*%
%TD*%
%TA.AperFunction,Conductor*%
%ADD39C,0.187400*%
%TD*%
%TA.AperFunction,Conductor*%
%ADD40C,0.350000*%
%TD*%
%TA.AperFunction,Conductor*%
%ADD41C,0.500000*%
%TD*%
%TA.AperFunction,Conductor*%
%ADD42C,1.000000*%
%TD*%
%TA.AperFunction,Conductor*%
%ADD43C,0.599800*%
%TD*%
G04 APERTURE END LIST*
D10*
%TO.P,C3,1*%
%TO.N,+5V*%
X99225000Y-116000000D03*
%TO.P,C3,2*%
%TO.N,GND*%
X100775000Y-116000000D03*
%TD*%
D11*
%TO.P,C_BULK,1*%
%TO.N,+5V*%
X92000000Y-104000000D03*
D12*
%TO.P,C_BULK,2*%
%TO.N,GND*%
X97000000Y-104000000D03*
%TD*%
D13*
%TO.P,U1,1*%
%TO.N,GND*%
X119240000Y-108750000D03*
%TO.P,U1,2*%
%TO.N,+3V3*%
X120510000Y-108750000D03*
%TO.P,U1,3*%
%TO.N,EN*%
X121780000Y-108750000D03*
%TO.P,U1,4*%
%TO.N,N/C*%
X123050000Y-108750000D03*
%TO.P,U1,5*%
X124320000Y-108750000D03*
%TO.P,U1,6*%
X125590000Y-108750000D03*
%TO.P,U1,7*%
X126860000Y-108750000D03*
%TO.P,U1,8*%
X128130000Y-108750000D03*
%TO.P,U1,9*%
%TO.N,PAIR*%
X129400000Y-108750000D03*
%TO.P,U1,10*%
%TO.N,IR_TX*%
X130670000Y-108750000D03*
%TO.P,U1,11*%
%TO.N,IR_RX*%
X131940000Y-108750000D03*
%TO.P,U1,12*%
%TO.N,STATUS*%
X133210000Y-108750000D03*
%TO.P,U1,13*%
%TO.N,N/C*%
X134480000Y-108750000D03*
%TO.P,U1,14*%
X135750000Y-108750000D03*
D14*
%TO.P,U1,15*%
%TO.N,GND*%
X137000000Y-105715000D03*
%TO.P,U1,16*%
%TO.N,N/C*%
X137000000Y-104445000D03*
%TO.P,U1,17*%
X137000000Y-103175000D03*
%TO.P,U1,18*%
X137000000Y-101905000D03*
%TO.P,U1,19*%
X137000000Y-100635000D03*
%TO.P,U1,20*%
X137000000Y-99365000D03*
%TO.P,U1,21*%
X137000000Y-98095000D03*
%TO.P,U1,22*%
X137000000Y-96825000D03*
%TO.P,U1,23*%
X137000000Y-95555000D03*
%TO.P,U1,24*%
X137000000Y-94285000D03*
D13*
%TO.P,U1,25*%
%TO.N,IO0*%
X135750000Y-91250000D03*
%TO.P,U1,26*%
%TO.N,N/C*%
X134480000Y-91250000D03*
%TO.P,U1,27*%
X133210000Y-91250000D03*
%TO.P,U1,28*%
X131940000Y-91250000D03*
%TO.P,U1,29*%
X130670000Y-91250000D03*
%TO.P,U1,30*%
X129400000Y-91250000D03*
%TO.P,U1,31*%
X128130000Y-91250000D03*
%TO.P,U1,32*%
X126860000Y-91250000D03*
%TO.P,U1,33*%
X125590000Y-91250000D03*
%TO.P,U1,34*%
%TO.N,U0RXD*%
X124320000Y-91250000D03*
%TO.P,U1,35*%
%TO.N,U0TXD*%
X123050000Y-91250000D03*
%TO.P,U1,36*%
%TO.N,N/C*%
X121780000Y-91250000D03*
%TO.P,U1,37*%
X120510000Y-91250000D03*
%TO.P,U1,38*%
%TO.N,GND*%
X119240000Y-91250000D03*
D15*
%TO.P,U1,39*%
X125560000Y-102900000D03*
D16*
X126260000Y-102900000D03*
D15*
X126960000Y-102900000D03*
D16*
X127660000Y-102900000D03*
D15*
X128360000Y-102900000D03*
D16*
X125560000Y-102200000D03*
X126960000Y-102200000D03*
X128360000Y-102200000D03*
D15*
X125560000Y-101500000D03*
D16*
X126260000Y-101500000D03*
D15*
X126960000Y-101500000D03*
D16*
X127660000Y-101500000D03*
D15*
X128360000Y-101500000D03*
D16*
X125560000Y-100800000D03*
X126960000Y-100800000D03*
X128360000Y-100800000D03*
D15*
X125560000Y-100100000D03*
D16*
X126260000Y-100100000D03*
D15*
X126960000Y-100100000D03*
D16*
X127660000Y-100100000D03*
D15*
X128360000Y-100100000D03*
%TD*%
D10*
%TO.P,C_EN,1*%
%TO.N,EN*%
X88000000Y-92775000D03*
%TO.P,C_EN,2*%
%TO.N,GND*%
X88000000Y-91225000D03*
%TD*%
D17*
%TO.P,U2,1*%
%TO.N,GND*%
X96850000Y-118700000D03*
%TO.P,U2,2*%
%TO.N,+3V3*%
X96850000Y-121000000D03*
D18*
X103150000Y-121000000D03*
D17*
%TO.P,U2,3*%
%TO.N,+5V*%
X96850000Y-123300000D03*
%TD*%
D19*
%TO.P,SW_BOOT,1*%
%TO.N,IO0*%
X79950000Y-96000000D03*
%TO.P,SW_BOOT,2*%
%TO.N,GND*%
X84050000Y-96000000D03*
%TD*%
D20*
%TO.P,Q1,1*%
%TO.N,MOS_GATE*%
X107062500Y-113050000D03*
%TO.P,Q1,2*%
%TO.N,GND*%
X107062500Y-114950000D03*
%TO.P,Q1,3*%
%TO.N,LED_DRAIN*%
X108937500Y-114000000D03*
%TD*%
D21*
%TO.P,C_RX2,1*%
%TO.N,IR_RX_VCC*%
X103525000Y-82000000D03*
%TO.P,C_RX2,2*%
%TO.N,GND*%
X106475000Y-82000000D03*
%TD*%
D22*
%TO.P,R3,1*%
%TO.N,+5V*%
X120328860Y-81061823D03*
%TO.P,R3,2*%
%TO.N,LED_A3*%
X122569540Y-82941977D03*
%TD*%
D23*
%TO.P,D3,1*%
%TO.N,LED_A3*%
X125229160Y-79118076D03*
D24*
%TO.P,D3,2*%
%TO.N,LED_DRAIN*%
X126861840Y-77172324D03*
%TD*%
D21*
%TO.P,C1,1*%
%TO.N,+5V*%
X94000000Y-122475000D03*
%TO.P,C1,2*%
%TO.N,GND*%
X94000000Y-119525000D03*
%TD*%
D22*
%TO.P,R12,1*%
%TO.N,+5V*%
X90923604Y-72314300D03*
%TO.P,R12,2*%
%TO.N,LED_A12*%
X89923196Y-75062900D03*
%TD*%
D25*
%TO.P,R_RX,1*%
%TO.N,+3V3*%
X96000000Y-82825000D03*
%TO.P,R_RX,2*%
%TO.N,IR_RX_VCC*%
X96000000Y-81175000D03*
%TD*%
D23*
%TO.P,D5,1*%
%TO.N,LED_A5*%
X118099852Y-130079900D03*
D24*
%TO.P,D5,2*%
%TO.N,LED_DRAIN*%
X115900148Y-128809900D03*
%TD*%
D19*
%TO.P,SW_RESET,1*%
%TO.N,EN*%
X79950000Y-91000000D03*
%TO.P,SW_RESET,2*%
%TO.N,GND*%
X84050000Y-91000000D03*
%TD*%
D25*
%TO.P,R_EN,1*%
%TO.N,+3V3*%
X90000000Y-90825000D03*
%TO.P,R_EN,2*%
%TO.N,EN*%
X90000000Y-89175000D03*
%TD*%
D26*
%TO.P,J_PROG,1*%
%TO.N,+3V3*%
X85000000Y-75000000D03*
D27*
%TO.P,J_PROG,2*%
%TO.N,GND*%
X85000000Y-77540000D03*
%TO.P,J_PROG,3*%
%TO.N,U0TXD*%
X85000000Y-80080000D03*
%TO.P,J_PROG,4*%
%TO.N,U0RXD*%
X85000000Y-82620000D03*
%TO.P,J_PROG,5*%
%TO.N,EN*%
X85000000Y-85160000D03*
%TO.P,J_PROG,6*%
%TO.N,IO0*%
X85000000Y-87700000D03*
%TD*%
D10*
%TO.P,C5,1*%
%TO.N,+3V3*%
X97225000Y-113000000D03*
%TO.P,C5,2*%
%TO.N,GND*%
X98775000Y-113000000D03*
%TD*%
D28*
%TO.P,U_RX,1*%
%TO.N,IR_RX*%
X81000000Y-105460000D03*
D29*
%TO.P,U_RX,2*%
%TO.N,GND*%
X81000000Y-108000000D03*
%TO.P,U_RX,3*%
%TO.N,IR_RX_VCC*%
X81000000Y-110540000D03*
%TD*%
D23*
%TO.P,D6,1*%
%TO.N,LED_A6*%
X74770840Y-120881924D03*
D24*
%TO.P,D6,2*%
%TO.N,LED_DRAIN*%
X73138160Y-122827676D03*
%TD*%
D25*
%TO.P,R_PAIR,1*%
%TO.N,+3V3*%
X87000000Y-110825000D03*
%TO.P,R_PAIR,2*%
%TO.N,PAIR*%
X87000000Y-109175000D03*
%TD*%
D23*
%TO.P,D2,1*%
%TO.N,LED_A2*%
X113217989Y-69722225D03*
D24*
%TO.P,D2,2*%
%TO.N,LED_DRAIN*%
X115520011Y-68648775D03*
%TD*%
D30*
%TO.P,D_STATUS,1*%
%TO.N,STATUS_LED*%
X94212500Y-115000000D03*
%TO.P,D_STATUS,2*%
%TO.N,GND*%
X95787500Y-115000000D03*
%TD*%
D23*
%TO.P,D4,1*%
%TO.N,LED_A4*%
X126861840Y-122827676D03*
D24*
%TO.P,D4,2*%
%TO.N,LED_DRAIN*%
X125229160Y-120881924D03*
%TD*%
D31*
%TO.P,J1,A1*%
%TO.N,GND*%
X103250000Y-136045000D03*
%TO.P,J1,A4*%
%TO.N,+5V*%
X102450000Y-136045000D03*
D32*
%TO.P,J1,A5*%
%TO.N,CC1*%
X101250000Y-136045000D03*
%TO.P,J1,A6*%
%TO.N,N/C*%
X100250000Y-136045000D03*
%TO.P,J1,A7*%
X99750000Y-136045000D03*
%TO.P,J1,A8*%
X98750000Y-136045000D03*
D31*
%TO.P,J1,A9*%
%TO.N,+5V*%
X97550000Y-136045000D03*
%TO.P,J1,A12*%
%TO.N,GND*%
X96750000Y-136045000D03*
%TO.P,J1,B1*%
X96750000Y-136045000D03*
%TO.P,J1,B4*%
%TO.N,+5V*%
X97550000Y-136045000D03*
D32*
%TO.P,J1,B5*%
%TO.N,CC2*%
X98250000Y-136045000D03*
%TO.P,J1,B6*%
%TO.N,N/C*%
X99250000Y-136045000D03*
%TO.P,J1,B7*%
X100750000Y-136045000D03*
%TO.P,J1,B8*%
X101750000Y-136045000D03*
D31*
%TO.P,J1,B9*%
%TO.N,+5V*%
X102450000Y-136045000D03*
%TO.P,J1,B12*%
%TO.N,GND*%
X103250000Y-136045000D03*
D33*
%TO.P,J1,S1*%
X104320000Y-135130000D03*
D34*
X104320000Y-130950000D03*
D33*
X95680000Y-135130000D03*
D34*
X95680000Y-130950000D03*
%TD*%
D21*
%TO.P,C_RX1,1*%
%TO.N,IR_RX_VCC*%
X98525000Y-82000000D03*
%TO.P,C_RX1,2*%
%TO.N,GND*%
X101475000Y-82000000D03*
%TD*%
D23*
%TO.P,D12,1*%
%TO.N,LED_A12*%
X87177890Y-67616134D03*
D24*
%TO.P,D12,2*%
%TO.N,LED_DRAIN*%
X89564710Y-68484866D03*
%TD*%
D23*
%TO.P,D9,1*%
%TO.N,LED_A9*%
X66018712Y-95771533D03*
D24*
%TO.P,D9,2*%
%TO.N,LED_DRAIN*%
X66240088Y-98301867D03*
%TD*%
D21*
%TO.P,C2,1*%
%TO.N,+3V3*%
X106000000Y-122475000D03*
%TO.P,C2,2*%
%TO.N,GND*%
X106000000Y-119525000D03*
%TD*%
D25*
%TO.P,R_PD,1*%
%TO.N,MOS_GATE*%
X104000000Y-111825000D03*
%TO.P,R_PD,2*%
%TO.N,GND*%
X104000000Y-110175000D03*
%TD*%
D23*
%TO.P,D7,1*%
%TO.N,LED_A7*%
X69722225Y-113217989D03*
D24*
%TO.P,D7,2*%
%TO.N,LED_DRAIN*%
X68648775Y-115520011D03*
%TD*%
D25*
%TO.P,R_CC1,1*%
%TO.N,CC1*%
X95625000Y-126500000D03*
%TO.P,R_CC1,2*%
%TO.N,GND*%
X93975000Y-126500000D03*
%TD*%
D22*
%TO.P,R4,1*%
%TO.N,+5V*%
X120328860Y-118938177D03*
%TO.P,R4,2*%
%TO.N,LED_A4*%
X122569540Y-117058023D03*
%TD*%
%TO.P,R11,1*%
%TO.N,+5V*%
X81235144Y-79166856D03*
%TO.P,R11,2*%
%TO.N,LED_A11*%
X79166856Y-81235144D03*
%TD*%
D23*
%TO.P,D10,1*%
%TO.N,LED_A10*%
X67616134Y-87177890D03*
D24*
%TO.P,D10,2*%
%TO.N,LED_DRAIN*%
X68484866Y-89564710D03*
%TD*%
D22*
%TO.P,R5,1*%
%TO.N,+5V*%
X113268750Y-125515262D03*
%TO.P,R5,2*%
%TO.N,LED_A5*%
X114731250Y-122982138D03*
%TD*%
%TO.P,R8,1*%
%TO.N,+5V*%
X73865681Y-105116060D03*
%TO.P,R8,2*%
%TO.N,LED_A8*%
X70985119Y-104608140D03*
%TD*%
D23*
%TO.P,D11,1*%
%TO.N,LED_A11*%
X75060374Y-75060374D03*
D24*
%TO.P,D11,2*%
%TO.N,LED_DRAIN*%
X76856426Y-76856426D03*
%TD*%
D22*
%TO.P,R9,1*%
%TO.N,+5V*%
X73563435Y-97432135D03*
%TO.P,R9,2*%
%TO.N,LED_A9*%
X70649565Y-97687065D03*
%TD*%
D25*
%TO.P,R_GATE,1*%
%TO.N,IR_TX*%
X101175000Y-108000000D03*
%TO.P,R_GATE,2*%
%TO.N,MOS_GATE*%
X102825000Y-108000000D03*
%TD*%
D22*
%TO.P,R6,1*%
%TO.N,+5V*%
X79671140Y-118938177D03*
%TO.P,R6,2*%
%TO.N,LED_A6*%
X77430460Y-117058023D03*
%TD*%
D10*
%TO.P,C_RX3,1*%
%TO.N,IR_RX_VCC*%
X105000000Y-86775000D03*
%TO.P,C_RX3,2*%
%TO.N,GND*%
X105000000Y-85225000D03*
%TD*%
D23*
%TO.P,D1,1*%
%TO.N,LED_A1*%
X98730000Y-66000000D03*
D24*
%TO.P,D1,2*%
%TO.N,LED_DRAIN*%
X101270000Y-66000000D03*
%TD*%
D23*
%TO.P,D8,1*%
%TO.N,LED_A8*%
X66737033Y-104653294D03*
D24*
%TO.P,D8,2*%
%TO.N,LED_DRAIN*%
X66295967Y-107154706D03*
%TD*%
D22*
%TO.P,R10,1*%
%TO.N,+5V*%
X75062900Y-89923196D03*
%TO.P,R10,2*%
%TO.N,LED_A10*%
X72314300Y-90923604D03*
%TD*%
%TO.P,R7,1*%
%TO.N,+5V*%
X75948875Y-112451379D03*
%TO.P,R7,2*%
%TO.N,LED_A7*%
X73297925Y-111215221D03*
%TD*%
D25*
%TO.P,R_CC2,1*%
%TO.N,CC2*%
X106025000Y-126500000D03*
%TO.P,R_CC2,2*%
%TO.N,GND*%
X104375000Y-126500000D03*
%TD*%
%TO.P,R_BOOT,1*%
%TO.N,+3V3*%
X109000000Y-89825000D03*
%TO.P,R_BOOT,2*%
%TO.N,IO0*%
X109000000Y-88175000D03*
%TD*%
D22*
%TO.P,R2,1*%
%TO.N,+5V*%
X111215221Y-73297925D03*
%TO.P,R2,2*%
%TO.N,LED_A2*%
X112451379Y-75948875D03*
%TD*%
%TO.P,R1,1*%
%TO.N,+5V*%
X100000000Y-70537500D03*
%TO.P,R1,2*%
%TO.N,LED_A1*%
X100000000Y-73462500D03*
%TD*%
D21*
%TO.P,C4,1*%
%TO.N,+3V3*%
X92525000Y-113000000D03*
%TO.P,C4,2*%
%TO.N,GND*%
X95475000Y-113000000D03*
%TD*%
D19*
%TO.P,SW_PAIR,1*%
%TO.N,PAIR*%
X79950000Y-101000000D03*
%TO.P,SW_PAIR,2*%
%TO.N,GND*%
X84050000Y-101000000D03*
%TD*%
D25*
%TO.P,R_STATUS,1*%
%TO.N,STATUS*%
X91175000Y-115000000D03*
%TO.P,R_STATUS,2*%
%TO.N,STATUS_LED*%
X92825000Y-115000000D03*
%TD*%
D35*
%TO.N,GND*%
X100144200Y-114369100D03*
X88000000Y-90183900D03*
X118283900Y-107723300D03*
X105000000Y-82404900D03*
X110856300Y-109776700D03*
X84048400Y-98387000D03*
D36*
X107000000Y-116375600D03*
D37*
%TO.N,+5V*%
X81235100Y-80824100D03*
X112022900Y-124901400D03*
X97958400Y-137630000D03*
X100012300Y-116999700D03*
X88938600Y-72598200D03*
D36*
X102450000Y-137300000D03*
D37*
X80872900Y-117736400D03*
D35*
%TO.N,+3V3*%
X104059300Y-105265400D03*
X93884600Y-117093600D03*
X103150000Y-118216700D03*
X105866400Y-90224500D03*
D37*
%TO.N,LED_DRAIN*%
X110362200Y-113683300D03*
D35*
%TO.N,IR_TX*%
X101956500Y-108775900D03*
%TO.N,IR_RX*%
X106000000Y-108697600D03*
%TO.N,IR_RX_VCC*%
X98525000Y-83480500D03*
%TO.N,U0TXD*%
X123050000Y-92590200D03*
%TO.N,U0RXD*%
X124320000Y-92553600D03*
%TO.N,EN*%
X89040600Y-89591500D03*
%TO.N,IO0*%
X99363300Y-88273800D03*
X79360500Y-94711200D03*
%TO.N,STATUS*%
X91175000Y-116028100D03*
X100643100Y-125957300D03*
%TO.N,CC2*%
X106025000Y-127542500D03*
X98250000Y-134752200D03*
%TO.N,LED_A1*%
X98955800Y-72418300D03*
%TO.N,LED_A4*%
X122569500Y-118486200D03*
%TO.N,LED_A5*%
X115849100Y-123665700D03*
%TO.N,LED_A10*%
X71181600Y-91359500D03*
%TO.N,LED_A11*%
X78112200Y-80180400D03*
%TD*%
D38*
%TO.N,GND*%
X127660000Y-101500000D02*
X128360000Y-101500000D01*
X84050000Y-98387000D02*
X84050000Y-96000000D01*
X110856300Y-109776700D02*
X104398300Y-109776700D01*
X84050000Y-98387000D02*
X84048400Y-98387000D01*
X128360000Y-102900000D02*
X128360000Y-105170200D01*
X100775000Y-115000000D02*
X100775000Y-116000000D01*
D39*
X137000000Y-105715000D02*
X136004600Y-105715000D01*
D38*
X96750000Y-136045000D02*
X96750000Y-137046700D01*
X95787500Y-117637500D02*
X96850000Y-118700000D01*
D39*
X135459800Y-105170200D02*
X136004600Y-105715000D01*
D38*
X104320000Y-129873300D02*
X104375000Y-129818300D01*
X126260000Y-100100000D02*
X125560000Y-100100000D01*
X125560000Y-100100000D02*
X125560000Y-99373300D01*
X88000000Y-90183900D02*
X88000000Y-91225000D01*
X105000000Y-83475000D02*
X105000000Y-82404900D01*
X84050000Y-91000000D02*
X87775000Y-91000000D01*
X104398300Y-109776700D02*
X104000000Y-110175000D01*
X119240000Y-107723300D02*
X118283900Y-107723300D01*
X126260000Y-102900000D02*
X125560000Y-102900000D01*
X98775000Y-113000000D02*
X98001500Y-112226500D01*
X104375000Y-129818300D02*
X104375000Y-126500000D01*
X126260000Y-102900000D02*
X126960000Y-102900000D01*
X127660000Y-102900000D02*
X128360000Y-102900000D01*
X95680000Y-135130000D02*
X95680000Y-136456700D01*
X98775000Y-113000000D02*
X100144200Y-114369100D01*
X103730000Y-137046700D02*
X103250000Y-137046700D01*
X100144200Y-114369100D02*
X100775000Y-115000000D01*
X94000000Y-119525000D02*
X96025000Y-119525000D01*
X126260000Y-100100000D02*
X126960000Y-100100000D01*
X125560000Y-99373300D02*
X119240000Y-93053300D01*
X96270000Y-137046700D02*
X96750000Y-137046700D01*
X104125000Y-84350000D02*
X105000000Y-83475000D01*
X95680000Y-136456700D02*
X96270000Y-137046700D01*
D39*
X128360000Y-105170200D02*
X135459800Y-105170200D01*
D38*
X95680000Y-130950000D02*
X95680000Y-129873300D01*
X103250000Y-136045000D02*
X103250000Y-137046700D01*
X126260000Y-101500000D02*
X126960000Y-101500000D01*
X119240000Y-108750000D02*
X119240000Y-107723300D01*
X127660000Y-100100000D02*
X128360000Y-100100000D01*
X96025000Y-119525000D02*
X96850000Y-118700000D01*
X106000000Y-116375600D02*
X106000000Y-119525000D01*
X101150600Y-116375600D02*
X106000000Y-116375600D01*
X95787500Y-115000000D02*
X95787500Y-117637500D01*
X106070100Y-82404900D02*
X106475000Y-82000000D01*
X104320000Y-136456700D02*
X103730000Y-137046700D01*
X105000000Y-85225000D02*
X104125000Y-84350000D01*
X96248500Y-112226500D02*
X95475000Y-113000000D01*
X100775000Y-116000000D02*
X101150600Y-116375600D01*
X87775000Y-91000000D02*
X88000000Y-91225000D01*
D40*
X106000000Y-116375600D02*
X107000000Y-116375600D01*
D38*
X95680000Y-129873300D02*
X93975000Y-128168300D01*
X126260000Y-101500000D02*
X125560000Y-101500000D01*
X104320000Y-135130000D02*
X104320000Y-136456700D01*
X93975000Y-128168300D02*
X93975000Y-126500000D01*
X119240000Y-93053300D02*
X119240000Y-91250000D01*
X101475000Y-82000000D02*
X103825000Y-84350000D01*
X98001500Y-112226500D02*
X96248500Y-112226500D01*
D41*
X104320000Y-130949999D02*
X104320000Y-135130000D01*
D38*
X84050000Y-101000000D02*
X84050000Y-98387000D01*
X96775000Y-115000000D02*
X98775000Y-113000000D01*
X103825000Y-84350000D02*
X104125000Y-84350000D01*
X107062500Y-115313100D02*
X107062500Y-114950000D01*
X105000000Y-82404900D02*
X106070100Y-82404900D01*
X95787500Y-115000000D02*
X96775000Y-115000000D01*
X104320000Y-130950000D02*
X104320000Y-129873300D01*
X106000000Y-116375600D02*
X107062500Y-115313100D01*
D42*
%TO.N,+5V*%
X98451400Y-124901400D02*
X96850000Y-123300000D01*
X73865700Y-97734400D02*
X73563400Y-97432100D01*
X97958400Y-137630000D02*
X97550000Y-137221600D01*
X80872900Y-117736400D02*
X85611500Y-122475000D01*
X75062900Y-95932600D02*
X75062900Y-89923200D01*
X90923600Y-72314300D02*
X89222500Y-72314300D01*
X116496700Y-118938200D02*
X120328900Y-118938200D01*
X81235100Y-83751000D02*
X75062900Y-89923200D01*
X73865700Y-105116100D02*
X73865700Y-97734400D01*
X89222500Y-72314300D02*
X88938600Y-72598200D01*
X112022900Y-123412000D02*
X116496700Y-118938200D01*
D38*
X102450000Y-136045000D02*
X102450000Y-137300000D01*
D42*
X100000000Y-70537500D02*
X108454800Y-70537500D01*
X115289600Y-81061800D02*
X120328900Y-81061800D01*
X75948900Y-112451400D02*
X75948900Y-107199300D01*
X96025000Y-122475000D02*
X96850000Y-123300000D01*
X80872900Y-117375400D02*
X75948900Y-112451400D01*
D43*
X97550000Y-137221600D02*
X97550000Y-136045000D01*
D42*
X112022900Y-124901400D02*
X112654800Y-124901400D01*
X108454800Y-70537500D02*
X111215200Y-73297900D01*
X85611500Y-122475000D02*
X94000000Y-122475000D01*
X99225000Y-116212400D02*
X99225000Y-116000000D01*
X112022900Y-124901400D02*
X112022900Y-123412000D01*
X73563400Y-97432100D02*
X75062900Y-95932600D01*
X80872900Y-117736400D02*
X79671100Y-118938200D01*
X112654800Y-124901400D02*
X113268700Y-125515300D01*
X75948900Y-107199300D02*
X73865700Y-105116100D01*
X111215200Y-76987400D02*
X115289600Y-81061800D01*
X92700400Y-70537500D02*
X100000000Y-70537500D01*
X81235100Y-80824100D02*
X81235100Y-83751000D01*
X80872900Y-117736400D02*
X80872900Y-117375400D01*
X100012300Y-116999700D02*
X99225000Y-116212400D01*
X94000000Y-122475000D02*
X96025000Y-122475000D01*
X112022900Y-124901400D02*
X98451400Y-124901400D01*
X111215200Y-73297900D02*
X111215200Y-76987400D01*
X90923600Y-72314300D02*
X92700400Y-70537500D01*
X81235100Y-80824100D02*
X81235100Y-79166900D01*
D38*
%TO.N,+3V3*%
X93117700Y-120372100D02*
X93117700Y-117860500D01*
X93667600Y-117093600D02*
X92131200Y-115557200D01*
X118052100Y-105265400D02*
X120510000Y-107723300D01*
X86126700Y-75000000D02*
X88924600Y-77797800D01*
X106000000Y-122475000D02*
X104625000Y-122475000D01*
X105866400Y-90224500D02*
X90684200Y-90224500D01*
X87519900Y-89279900D02*
X87931100Y-88868700D01*
X83386200Y-82630400D02*
X83386200Y-88332500D01*
X89428200Y-88422500D02*
X90397800Y-88422500D01*
X120510000Y-108750000D02*
X120510000Y-107723300D01*
X93884600Y-117093600D02*
X93667600Y-117093600D01*
X89175000Y-113000000D02*
X92525000Y-113000000D01*
X104059300Y-105265400D02*
X118052100Y-105265400D01*
X92525000Y-114212600D02*
X92525000Y-113000000D01*
X92131200Y-115557200D02*
X92131200Y-114507800D01*
X92525000Y-114212600D02*
X96012400Y-114212600D01*
X93117700Y-117860500D02*
X93884600Y-117093600D01*
X88924600Y-77797800D02*
X93951700Y-82825000D01*
X96012400Y-114212600D02*
X97225000Y-113000000D01*
X88982000Y-88868700D02*
X89428200Y-88422500D01*
X104625000Y-122475000D02*
X103150000Y-121000000D01*
X93951700Y-82825000D02*
X96000000Y-82825000D01*
X90600500Y-90224500D02*
X90000000Y-90825000D01*
X90397800Y-88422500D02*
X90684200Y-88708900D01*
X109000000Y-89825000D02*
X108600500Y-90224500D01*
X84333600Y-89279900D02*
X87519900Y-89279900D01*
X103150000Y-121000000D02*
X103150000Y-118216700D01*
X108600500Y-90224500D02*
X105866400Y-90224500D01*
X88924600Y-77797800D02*
X85372400Y-81350000D01*
X92131200Y-114507800D02*
X92426400Y-114212600D01*
X92426400Y-114212600D02*
X92525000Y-114212600D01*
X87000000Y-110825000D02*
X89175000Y-113000000D01*
X85000000Y-75000000D02*
X86126700Y-75000000D01*
X84666600Y-81350000D02*
X83386200Y-82630400D01*
X103150000Y-121000000D02*
X96850000Y-121000000D01*
X90684200Y-88708900D02*
X90684200Y-90224500D01*
X85372400Y-81350000D02*
X84666600Y-81350000D01*
X93745600Y-121000000D02*
X93117700Y-120372100D01*
X87931100Y-88868700D02*
X88982000Y-88868700D01*
X83386200Y-88332500D02*
X84333600Y-89279900D01*
X96850000Y-121000000D02*
X93745600Y-121000000D01*
X90684200Y-90224500D02*
X90600500Y-90224500D01*
D42*
%TO.N,LED_DRAIN*%
X109254200Y-113683300D02*
X108937500Y-114000000D01*
X89564700Y-68484900D02*
X98972000Y-68484900D01*
X68484900Y-89564700D02*
X76856400Y-81193200D01*
X126861800Y-77172300D02*
X124043500Y-77172300D01*
X76856400Y-81193200D02*
X76856400Y-76856400D01*
X110362200Y-113683300D02*
X109254200Y-113683300D01*
X98972000Y-68484900D02*
X101270000Y-66186900D01*
X123828100Y-120881900D02*
X125229200Y-120881900D01*
X115900100Y-128809900D02*
X123828100Y-120881900D01*
X124043500Y-77172300D02*
X115520000Y-68648800D01*
X101270000Y-66186900D02*
X101270000Y-66000000D01*
D38*
%TO.N,IR_TX*%
X103316300Y-109707000D02*
X103316300Y-110710500D01*
X108148200Y-110927600D02*
X108428500Y-110647300D01*
X130670000Y-108750000D02*
X130670000Y-109776700D01*
X101950900Y-108775900D02*
X101956500Y-108775900D01*
X103316300Y-110710500D02*
X103533400Y-110927600D01*
X103533400Y-110927600D02*
X108148200Y-110927600D01*
X103264900Y-107228900D02*
X103504200Y-107468200D01*
X108428500Y-110647300D02*
X129799400Y-110647300D01*
X103504200Y-109519100D02*
X103316300Y-109707000D01*
X101175000Y-108000000D02*
X101950900Y-108775900D01*
X103504200Y-107468200D02*
X103504200Y-109519100D01*
X101175000Y-108000000D02*
X101946100Y-107228900D01*
X129799400Y-110647300D02*
X130670000Y-109776700D01*
X101946100Y-107228900D02*
X103264900Y-107228900D01*
%TO.N,MOS_GATE*%
X103858000Y-111825000D02*
X104000000Y-111825000D01*
X105837500Y-111825000D02*
X107062500Y-113050000D01*
X104000000Y-111825000D02*
X105837500Y-111825000D01*
X102825000Y-110792000D02*
X103858000Y-111825000D01*
X102825000Y-108000000D02*
X102825000Y-110792000D01*
%TO.N,IR_RX*%
X110310000Y-111284200D02*
X130432500Y-111284200D01*
X104124400Y-106822000D02*
X101170100Y-106822000D01*
X82226700Y-105460000D02*
X82226700Y-105613300D01*
X107954000Y-113640200D02*
X110310000Y-111284200D01*
X130432500Y-111284200D02*
X131940000Y-109776700D01*
X131940000Y-108750000D02*
X131940000Y-109776700D01*
X101170100Y-106822000D02*
X100465400Y-107526700D01*
X100465400Y-109480500D02*
X104625100Y-113640200D01*
X81000000Y-105460000D02*
X82226700Y-105460000D01*
X100465400Y-107526700D02*
X100465400Y-109480500D01*
X104625100Y-113640200D02*
X107954000Y-113640200D01*
X86548500Y-109935100D02*
X100010800Y-109935100D01*
X100010800Y-109935100D02*
X100465400Y-109480500D01*
X82226700Y-105613300D02*
X86548500Y-109935100D01*
X106000000Y-108697600D02*
X104124400Y-106822000D01*
%TO.N,IR_RX_VCC*%
X98525000Y-82000000D02*
X98525000Y-83480500D01*
X99705600Y-80819400D02*
X102344400Y-80819400D01*
X98525000Y-83480500D02*
X101705500Y-83480500D01*
X96000000Y-81175000D02*
X97700000Y-81175000D01*
X98525000Y-82000000D02*
X99705600Y-80819400D01*
X101705500Y-83480500D02*
X105000000Y-86775000D01*
X102344400Y-80819400D02*
X103525000Y-82000000D01*
X97700000Y-81175000D02*
X98525000Y-82000000D01*
%TO.N,U0TXD*%
X123050000Y-92590200D02*
X123050000Y-91250000D01*
%TO.N,U0RXD*%
X123096800Y-89000100D02*
X91543500Y-89000100D01*
X86880200Y-88878200D02*
X84560000Y-88878200D01*
X84560000Y-88878200D02*
X83829300Y-88147500D01*
X91543500Y-89000100D02*
X90564200Y-88020800D01*
X124320000Y-91250000D02*
X124320000Y-92553600D01*
X90564200Y-88020800D02*
X87737600Y-88020800D01*
X124320000Y-90223300D02*
X123096800Y-89000100D01*
X87737600Y-88020800D02*
X86880200Y-88878200D01*
X83829300Y-83790700D02*
X85000000Y-82620000D01*
X124320000Y-91250000D02*
X124320000Y-90223300D01*
X83829300Y-88147500D02*
X83829300Y-83790700D01*
%TO.N,EN*%
X79950000Y-91000000D02*
X79950000Y-91976700D01*
X89101000Y-91674000D02*
X89101000Y-90074000D01*
X89312100Y-89862900D02*
X89040600Y-89591500D01*
X121780000Y-108750000D02*
X121780000Y-107723300D01*
X89312100Y-89862900D02*
X90000000Y-89175000D01*
X88000000Y-92775000D02*
X89101000Y-91674000D01*
X89101000Y-90074000D02*
X89312100Y-89862900D01*
X106831700Y-92775000D02*
X88000000Y-92775000D01*
X80748300Y-92775000D02*
X79950000Y-91976700D01*
X88000000Y-92775000D02*
X80748300Y-92775000D01*
X121780000Y-107723300D02*
X106831700Y-92775000D01*
%TO.N,IO0*%
X99363300Y-88175000D02*
X98807400Y-87619100D01*
X109000000Y-88175000D02*
X133701700Y-88175000D01*
X133701700Y-88175000D02*
X135750000Y-90223300D01*
X79360500Y-94711200D02*
X79672600Y-95023300D01*
X79672600Y-95023300D02*
X79950000Y-95023300D01*
X135750000Y-91250000D02*
X135750000Y-90223300D01*
X79950000Y-96000000D02*
X79950000Y-95023300D01*
X85080900Y-87619100D02*
X85000000Y-87700000D01*
X99363300Y-88175000D02*
X109000000Y-88175000D01*
X98807400Y-87619100D02*
X85080900Y-87619100D01*
X99363300Y-88175000D02*
X99363300Y-88273800D01*
%TO.N,STATUS*%
X106400800Y-125712800D02*
X100887600Y-125712800D01*
X133210000Y-108750000D02*
X133210000Y-109776700D01*
X116284800Y-126701900D02*
X107389900Y-126701900D01*
X100887600Y-125712800D02*
X100643100Y-125957300D01*
X133210000Y-109776700D02*
X116284800Y-126701900D01*
X91175000Y-116028100D02*
X91175000Y-115000000D01*
X107389900Y-126701900D02*
X106400800Y-125712800D01*
%TO.N,STATUS_LED*%
X94212500Y-115000000D02*
X92825000Y-115000000D01*
%TO.N,PAIR*%
X82608400Y-101976700D02*
X79950000Y-101976700D01*
X113317800Y-106368300D02*
X116726200Y-109776700D01*
X129400000Y-108750000D02*
X129400000Y-109776700D01*
X87000000Y-106368300D02*
X82608400Y-101976700D01*
X79950000Y-101000000D02*
X79950000Y-101976700D01*
X87000000Y-106368300D02*
X113317800Y-106368300D01*
X116726200Y-109776700D02*
X129400000Y-109776700D01*
X87000000Y-109175000D02*
X87000000Y-106368300D01*
%TO.N,CC1*%
X101250000Y-136045000D02*
X101250000Y-135043300D01*
X95625000Y-126500000D02*
X101250000Y-132125000D01*
X101250000Y-132125000D02*
X101250000Y-135043300D01*
%TO.N,CC2*%
X106025000Y-126500000D02*
X106025000Y-127542500D01*
X98250000Y-134752200D02*
X98250000Y-136045000D01*
%TO.N,LED_A1*%
X98955800Y-72418300D02*
X100000000Y-73462500D01*
%TO.N,LED_A2*%
X113218000Y-75182300D02*
X112451400Y-75948900D01*
X113218000Y-69722200D02*
X113218000Y-75182300D01*
%TO.N,LED_A3*%
X124052500Y-79118100D02*
X124052500Y-81459000D01*
X124052500Y-81459000D02*
X122569500Y-82942000D01*
X125229200Y-79118100D02*
X124052500Y-79118100D01*
%TO.N,LED_A4*%
X122569500Y-117058000D02*
X122569500Y-118486200D01*
%TO.N,LED_A5*%
X115165500Y-122982100D02*
X114731300Y-122982100D01*
X115849100Y-123665700D02*
X115165500Y-122982100D01*
%TO.N,LED_A6*%
X75947500Y-118541000D02*
X77430500Y-117058000D01*
X75947500Y-120881900D02*
X75947500Y-118541000D01*
X74770800Y-120881900D02*
X75947500Y-120881900D01*
%TO.N,LED_A7*%
X71295100Y-113218000D02*
X73297900Y-111215200D01*
X69722200Y-113218000D02*
X71295100Y-113218000D01*
%TO.N,LED_A8*%
X67913700Y-104653300D02*
X67958900Y-104608100D01*
X66737000Y-104653300D02*
X67913700Y-104653300D01*
X67958900Y-104608100D02*
X70985100Y-104608100D01*
%TO.N,LED_A9*%
X68734000Y-95771500D02*
X70649600Y-97687100D01*
X66018700Y-95771500D02*
X68734000Y-95771500D01*
%TO.N,LED_A10*%
X71181600Y-91359500D02*
X71878400Y-91359500D01*
X71878400Y-91359500D02*
X72314300Y-90923600D01*
%TO.N,LED_A11*%
X78112200Y-80180400D02*
X79166900Y-81235100D01*
%TO.N,LED_A12*%
X87177900Y-67616100D02*
X87177900Y-72317600D01*
X87177900Y-72317600D02*
X89923200Y-75062900D01*
%TD*%
M02*
