M48
; DRILL file {KiCad 9.0.6} date 2026-08-16T21:16:21+0900
; FORMAT={-:-/ absolute / metric / decimal}
; #@! TF.CreationDate,2026-08-16T21:16:21+09:00
; #@! TF.GenerationSoftware,Kicad,Pcbnew,9.0.6
; #@! TF.FileFunction,Plated,1,2,PTH
FMAT,2
METRIC
; #@! TA.AperFunction,Plated,PTH,ViaDrill
T1C0.300
; #@! TA.AperFunction,Plated,PTH,ComponentDrill
T2C0.300
; #@! TA.AperFunction,Plated,PTH,ViaDrill
T3C0.400
; #@! TA.AperFunction,Plated,PTH,ViaDrill
T4C0.500
; #@! TA.AperFunction,Plated,PTH,ComponentDrill
T5C0.600
; #@! TA.AperFunction,Plated,PTH,ComponentDrill
T6C0.850
; #@! TA.AperFunction,Plated,PTH,ComponentDrill
T7C0.900
; #@! TA.AperFunction,Plated,PTH,ComponentDrill
T8C1.000
%
G90
G05
T1
X102.45Y-137.3
X107.0Y-116.376
T2
X125.56Y-100.8
X125.56Y-102.2
X126.26Y-100.1
X126.26Y-101.5
X126.26Y-102.9
X126.96Y-100.8
X126.96Y-102.2
X127.66Y-100.1
X127.66Y-101.5
X127.66Y-102.9
X128.36Y-100.8
X128.36Y-102.2
T3
X71.182Y-91.359
X78.112Y-80.18
X79.361Y-94.711
X84.048Y-98.387
X88.0Y-90.184
X89.041Y-89.591
X91.175Y-116.028
X93.885Y-117.094
X98.25Y-134.752
X98.525Y-83.48
X98.956Y-72.418
X99.363Y-88.274
X100.144Y-114.369
X100.643Y-125.957
X101.956Y-108.776
X103.15Y-118.217
X104.059Y-105.265
X105.0Y-82.405
X105.866Y-90.224
X106.0Y-108.698
X106.025Y-127.542
X110.856Y-109.777
X115.849Y-123.666
X118.284Y-107.723
X122.569Y-118.486
X123.05Y-92.59
X124.32Y-92.554
T4
X80.873Y-117.736
X81.235Y-80.824
X88.939Y-72.598
X97.958Y-137.63
X100.012Y-117.0
X110.362Y-113.683
X112.023Y-124.901
T6
X81.0Y-105.46
X81.0Y-108.0
X81.0Y-110.54
T7
X66.019Y-95.772
X66.24Y-98.302
X66.296Y-107.155
X66.737Y-104.653
X67.616Y-87.178
X68.485Y-89.565
X68.649Y-115.52
X69.722Y-113.218
X73.138Y-122.828
X74.771Y-120.882
X75.06Y-75.06
X76.856Y-76.856
X87.178Y-67.616
X89.565Y-68.485
X98.73Y-66.0
X101.27Y-66.0
X113.218Y-69.722
X115.52Y-68.649
X115.9Y-128.81
X118.1Y-130.08
X125.229Y-79.118
X125.229Y-120.882
X126.862Y-77.172
X126.862Y-122.828
T8
X85.0Y-75.0
X85.0Y-77.54
X85.0Y-80.08
X85.0Y-82.62
X85.0Y-85.16
X85.0Y-87.7
X92.0Y-104.0
X97.0Y-104.0
T5
G00X95.68Y-130.65
M15
G01X95.68Y-131.25
M16
G05
G00X95.68Y-134.58
M15
G01X95.68Y-135.68
M16
G05
G00X104.32Y-130.65
M15
G01X104.32Y-131.25
M16
G05
G00X104.32Y-134.58
M15
G01X104.32Y-135.68
M16
G05
M30
