%TF.GenerationSoftware,KiCad,Pcbnew,9.0.6*%
%TF.CreationDate,2026-08-16T21:16:21+09:00*%
%TF.ProjectId,ir_blaster_v4_complete,69725f62-6c61-4737-9465-725f76345f63,rev?*%
%TF.SameCoordinates,Original*%
%TF.FileFunction,Soldermask,Bot*%
%TF.FilePolarity,Negative*%
%FSLAX46Y46*%
G04 Gerber Fmt 4.6, Leading zero omitted, Abs format (unit mm)*
G04 Created by KiCad (PCBNEW 9.0.6) date 2026-08-16 21:16:21*
%MOMM*%
%LPD*%
G01*
G04 APERTURE LIST*
G04 Aperture macros list*
%AMRoundRect*
0 Rectangle with rounded corners*
0 $1 Rounding radius*
0 $2 $3 $4 $5 $6 $7 $8 $9 X,Y pos of 4 corners*
0 Add a 4 corners polygon primitive as box body*
4,1,4,$2,$3,$4,$5,$6,$7,$8,$9,$2,$3,0*
0 Add four circle primitives for the rounded corners*
1,1,$1+$1,$2,$3*
1,1,$1+$1,$4,$5*
1,1,$1+$1,$6,$7*
1,1,$1+$1,$8,$9*
0 Add four rect primitives between the rounded corners*
20,1,$1+$1,$2,$3,$4,$5,0*
20,1,$1+$1,$4,$5,$6,$7,0*
20,1,$1+$1,$6,$7,$8,$9,0*
20,1,$1+$1,$8,$9,$2,$3,0*%
G04 Aperture macros list end*
%ADD10RoundRect,0.250000X-0.750000X-0.750000X0.750000X-0.750000X0.750000X0.750000X-0.750000X0.750000X0*%
%ADD11C,2.000000*%
%ADD12C,0.700000*%
%ADD13R,1.800000X1.800000*%
%ADD14C,1.800000*%
%ADD15R,1.700000X1.700000*%
%ADD16C,1.700000*%
%ADD17R,1.900000X1.900000*%
%ADD18C,1.900000*%
%ADD19C,0.650000*%
%ADD20O,1.000000X2.100000*%
%ADD21O,1.000000X1.600000*%
%ADD22R,2.400000X2.400000*%
%ADD23C,2.400000*%
G04 APERTURE END LIST*
D10*
%TO.C,C_BULK*%
X92000000Y-104000000D03*
D11*
X97000000Y-104000000D03*
%TD*%
D12*
%TO.C,U1*%
X126260000Y-102900000D03*
X127660000Y-102900000D03*
X125560000Y-102200000D03*
X126960000Y-102200000D03*
X128360000Y-102200000D03*
X126260000Y-101500000D03*
X127660000Y-101500000D03*
X125560000Y-100800000D03*
X126960000Y-100800000D03*
X128360000Y-100800000D03*
X126260000Y-100100000D03*
X127660000Y-100100000D03*
%TD*%
D13*
%TO.C,D3*%
X125229160Y-79118076D03*
D14*
X126861840Y-77172324D03*
%TD*%
D13*
%TO.C,D5*%
X118099852Y-130079900D03*
D14*
X115900148Y-128809900D03*
%TD*%
D15*
%TO.C,J_PROG*%
X85000000Y-75000000D03*
D16*
X85000000Y-77540000D03*
X85000000Y-80080000D03*
X85000000Y-82620000D03*
X85000000Y-85160000D03*
X85000000Y-87700000D03*
%TD*%
D17*
%TO.C,U_RX*%
X81000000Y-105460000D03*
D18*
X81000000Y-108000000D03*
X81000000Y-110540000D03*
%TD*%
D13*
%TO.C,D6*%
X74770840Y-120881924D03*
D14*
X73138160Y-122827676D03*
%TD*%
D13*
%TO.C,D2*%
X113217989Y-69722225D03*
D14*
X115520011Y-68648775D03*
%TD*%
D13*
%TO.C,D4*%
X126861840Y-122827676D03*
D14*
X125229160Y-120881924D03*
%TD*%
D19*
%TO.C,J1*%
X102890000Y-134600000D03*
X97110000Y-134600000D03*
D20*
X104320000Y-135130000D03*
D21*
X104320000Y-130950000D03*
D20*
X95680000Y-135130000D03*
D21*
X95680000Y-130950000D03*
%TD*%
D13*
%TO.C,D12*%
X87177890Y-67616134D03*
D14*
X89564710Y-68484866D03*
%TD*%
D13*
%TO.C,D9*%
X66018712Y-95771533D03*
D14*
X66240088Y-98301867D03*
%TD*%
D13*
%TO.C,D7*%
X69722225Y-113217989D03*
D14*
X68648775Y-115520011D03*
%TD*%
D13*
%TO.C,D10*%
X67616134Y-87177890D03*
D14*
X68484866Y-89564710D03*
%TD*%
D13*
%TO.C,D11*%
X75060374Y-75060374D03*
D14*
X76856426Y-76856426D03*
%TD*%
D13*
%TO.C,D1*%
X98730000Y-66000000D03*
D14*
X101270000Y-66000000D03*
%TD*%
D13*
%TO.C,D8*%
X66737033Y-104653294D03*
D14*
X66295967Y-107154706D03*
%TD*%
%TO.C,TP_3V3*%
X94000000Y-114000000D03*
%TD*%
D22*
%TO.C,TP_PROG_3V3*%
X104000000Y-120000000D03*
%TD*%
D23*
%TO.C,TP_PROG_TXD*%
X104000000Y-123810000D03*
%TD*%
%TO.C,TP_PROG_GND*%
X107810000Y-120000000D03*
%TD*%
%TO.C,TP_PROG_IO0*%
X107810000Y-127620000D03*
%TD*%
D14*
%TO.C,TP_DRAIN*%
X110000000Y-111000000D03*
%TD*%
%TO.C,TP_5V*%
X90000000Y-114000000D03*
%TD*%
D23*
%TO.C,TP_PROG_RXD*%
X107810000Y-123810000D03*
%TD*%
D14*
%TO.C,TP_GND*%
X98000000Y-114000000D03*
%TD*%
%TO.C,TP_TX*%
X102000000Y-114000000D03*
%TD*%
D23*
%TO.C,TP_PROG_EN*%
X104000000Y-127620000D03*
%TD*%
D14*
%TO.C,TP_RX*%
X106000000Y-114000000D03*
%TD*%
M02*
