%TF.GenerationSoftware,KiCad,Pcbnew,9.0.6*%
%TF.CreationDate,2026-08-11T19:46:54+09:00*%
%TF.ProjectId,ir_blaster_v1,69725f62-6c61-4737-9465-725f76312e6b,rev?*%
%TF.SameCoordinates,Original*%
%TF.FileFunction,Copper,L2,Bot*%
%TF.FilePolarity,Positive*%
%FSLAX46Y46*%
G04 Gerber Fmt 4.6, Leading zero omitted, Abs format (unit mm)*
G04 Created by KiCad (PCBNEW 9.0.6) date 2026-08-11 19:46:54*
%MOMM*%
%LPD*%
G01*
G04 APERTURE LIST*
G04 Aperture macros list*
%AMRotRect*
0 Rectangle, with rotation*
0 The origin of the aperture is its center*
0 $1 length*
0 $2 width*
0 $3 Rotation angle, in degrees counterclockwise*
0 Add horizontal line*
21,1,$1,$2,0,0,$3*%
G04 Aperture macros list end*
%TA.AperFunction,ComponentPad*%
%ADD10RotRect,2.000000X2.000000X240.000000*%
%TD*%
%TA.AperFunction,ComponentPad*%
%ADD11C,2.000000*%
%TD*%
%TA.AperFunction,ComponentPad*%
%ADD12R,2.000000X2.000000*%
%TD*%
%TA.AperFunction,ComponentPad*%
%ADD13RotRect,2.000000X2.000000X300.000000*%
%TD*%
%TA.AperFunction,ComponentPad*%
%ADD14RotRect,2.000000X2.000000X150.000000*%
%TD*%
%TA.AperFunction,ComponentPad*%
%ADD15C,2.400000*%
%TD*%
%TA.AperFunction,ComponentPad*%
%ADD16R,2.200000X2.200000*%
%TD*%
%TA.AperFunction,ComponentPad*%
%ADD17C,2.200000*%
%TD*%
%TA.AperFunction,ComponentPad*%
%ADD18RotRect,2.000000X2.000000X120.000000*%
%TD*%
%TA.AperFunction,ComponentPad*%
%ADD19RotRect,2.000000X2.000000X60.000000*%
%TD*%
%TA.AperFunction,ComponentPad*%
%ADD20RotRect,2.000000X2.000000X30.000000*%
%TD*%
%TA.AperFunction,ComponentPad*%
%ADD21RotRect,2.000000X2.000000X210.000000*%
%TD*%
%TA.AperFunction,ComponentPad*%
%ADD22RotRect,2.000000X2.000000X330.000000*%
%TD*%
%TA.AperFunction,ComponentPad*%
%ADD23R,1.800000X1.800000*%
%TD*%
%TA.AperFunction,ComponentPad*%
%ADD24C,1.800000*%
%TD*%
%TA.AperFunction,Conductor*%
%ADD25C,1.000000*%
%TD*%
%TA.AperFunction,Conductor*%
%ADD26C,0.800000*%
%TD*%
G04 APERTURE END LIST*
D10*
%TO.P,D8,1*%
%TO.N,D8_A*%
X84535000Y-126786148D03*
D11*
%TO.P,D8,2*%
%TO.N,LED_DRAIN*%
X83265000Y-128985852D03*
%TD*%
D12*
%TO.P,D7,1*%
%TO.N,D7_A*%
X100000000Y-130930000D03*
D11*
%TO.P,D7,2*%
%TO.N,LED_DRAIN*%
X100000000Y-133470000D03*
%TD*%
%TO.P,RG,1*%
%TO.N,IR_TX*%
X104000000Y-103920000D03*
%TO.P,RG,2*%
%TO.N,GATE*%
X104000000Y-114080000D03*
%TD*%
%TO.P,R9,1*%
%TO.N,+5V*%
X83008409Y-109810000D03*
%TO.P,R9,2*%
%TO.N,D9_A*%
X74209591Y-114890000D03*
%TD*%
D12*
%TO.P,D1,1*%
%TO.N,D1_A*%
X100000000Y-69070000D03*
D11*
%TO.P,D1,2*%
%TO.N,LED_DRAIN*%
X100000000Y-66530000D03*
%TD*%
D13*
%TO.P,D6,1*%
%TO.N,D6_A*%
X115465000Y-126786148D03*
D11*
%TO.P,D6,2*%
%TO.N,LED_DRAIN*%
X116735000Y-128985852D03*
%TD*%
D12*
%TO.P,Q1,1*%
%TO.N,GND*%
X97500000Y-116000000D03*
D11*
%TO.P,Q1,2*%
%TO.N,LED_DRAIN*%
X100000000Y-116000000D03*
%TO.P,Q1,3*%
%TO.N,GATE*%
X102500000Y-116000000D03*
%TD*%
D14*
%TO.P,D11,1*%
%TO.N,D11_A*%
X73213852Y-84535000D03*
D11*
%TO.P,D11,2*%
%TO.N,LED_DRAIN*%
X71014148Y-83265000D03*
%TD*%
%TO.P,R8,1*%
%TO.N,+5V*%
X90190000Y-116991591D03*
%TO.P,R8,2*%
%TO.N,D8_A*%
X85110000Y-125790409D03*
%TD*%
%TO.P,R7,1*%
%TO.N,+5V*%
X100000000Y-119620000D03*
%TO.P,R7,2*%
%TO.N,D7_A*%
X100000000Y-129780000D03*
%TD*%
D15*
%TO.P,TP2,1*%
%TO.N,GND*%
X106000000Y-95000000D03*
%TD*%
D11*
%TO.P,RPD,1*%
%TO.N,GATE*%
X108000000Y-110920000D03*
%TO.P,RPD,2*%
%TO.N,GND*%
X108000000Y-121080000D03*
%TD*%
D16*
%TO.P,Cbulk,1*%
%TO.N,+5V*%
X91500000Y-106000000D03*
D17*
%TO.P,Cbulk,2*%
%TO.N,GND*%
X96500000Y-106000000D03*
%TD*%
D15*
%TO.P,TP3,1*%
%TO.N,IR_TX*%
X96000000Y-102000000D03*
%TD*%
D12*
%TO.P,D4,1*%
%TO.N,D4_A*%
X130930000Y-100000000D03*
D11*
%TO.P,D4,2*%
%TO.N,LED_DRAIN*%
X133470000Y-100000000D03*
%TD*%
%TO.P,R4,1*%
%TO.N,+5V*%
X119620000Y-100000000D03*
%TO.P,R4,2*%
%TO.N,D4_A*%
X129780000Y-100000000D03*
%TD*%
%TO.P,R5,1*%
%TO.N,+5V*%
X116991591Y-109810000D03*
%TO.P,R5,2*%
%TO.N,D5_A*%
X125790409Y-114890000D03*
%TD*%
%TO.P,R2,1*%
%TO.N,+5V*%
X109810000Y-83008409D03*
%TO.P,R2,2*%
%TO.N,D2_A*%
X114890000Y-74209591D03*
%TD*%
%TO.P,R3,1*%
%TO.N,+5V*%
X116991591Y-90190000D03*
%TO.P,R3,2*%
%TO.N,D3_A*%
X125790409Y-85110000D03*
%TD*%
%TO.P,R1,1*%
%TO.N,+5V*%
X100000000Y-80380000D03*
%TO.P,R1,2*%
%TO.N,D1_A*%
X100000000Y-70220000D03*
%TD*%
D18*
%TO.P,D12,1*%
%TO.N,D12_A*%
X84535000Y-73213852D03*
D11*
%TO.P,D12,2*%
%TO.N,LED_DRAIN*%
X83265000Y-71014148D03*
%TD*%
D19*
%TO.P,D2,1*%
%TO.N,D2_A*%
X115465000Y-73213852D03*
D11*
%TO.P,D2,2*%
%TO.N,LED_DRAIN*%
X116735000Y-71014148D03*
%TD*%
D20*
%TO.P,D3,1*%
%TO.N,D3_A*%
X126786148Y-84535000D03*
D11*
%TO.P,D3,2*%
%TO.N,LED_DRAIN*%
X128985852Y-83265000D03*
%TD*%
%TO.P,R6,1*%
%TO.N,+5V*%
X109810000Y-116991591D03*
%TO.P,R6,2*%
%TO.N,D6_A*%
X114890000Y-125790409D03*
%TD*%
%TO.P,R12,1*%
%TO.N,+5V*%
X90190000Y-83008409D03*
%TO.P,R12,2*%
%TO.N,D12_A*%
X85110000Y-74209591D03*
%TD*%
%TO.P,R10,1*%
%TO.N,+5V*%
X80380000Y-100000000D03*
%TO.P,R10,2*%
%TO.N,D10_A*%
X70220000Y-100000000D03*
%TD*%
%TO.P,R11,1*%
%TO.N,+5V*%
X83008409Y-90190000D03*
%TO.P,R11,2*%
%TO.N,D11_A*%
X74209591Y-85110000D03*
%TD*%
D15*
%TO.P,TP4,1*%
%TO.N,LED_DRAIN*%
X103000000Y-120000000D03*
%TD*%
D12*
%TO.P,D10,1*%
%TO.N,D10_A*%
X69070000Y-100000000D03*
D11*
%TO.P,D10,2*%
%TO.N,LED_DRAIN*%
X66530000Y-100000000D03*
%TD*%
D21*
%TO.P,D9,1*%
%TO.N,D9_A*%
X73213852Y-115465000D03*
D11*
%TO.P,D9,2*%
%TO.N,LED_DRAIN*%
X71014148Y-116735000D03*
%TD*%
D22*
%TO.P,D5,1*%
%TO.N,D5_A*%
X126786148Y-115465000D03*
D11*
%TO.P,D5,2*%
%TO.N,LED_DRAIN*%
X128985852Y-116735000D03*
%TD*%
D16*
%TO.P,Cdec,1*%
%TO.N,+5V*%
X100730000Y-101000000D03*
D17*
%TO.P,Cdec,2*%
%TO.N,GND*%
X103270000Y-101000000D03*
%TD*%
D15*
%TO.P,TP1,1*%
%TO.N,+5V*%
X94000000Y-95000000D03*
%TD*%
D23*
%TO.P,J2,1*%
%TO.N,N/C*%
X112700000Y-72000000D03*
D24*
%TO.P,J2,2*%
X112700000Y-74540000D03*
%TO.P,J2,3*%
X112700000Y-77080000D03*
%TO.P,J2,4*%
X112700000Y-79620000D03*
%TO.P,J2,5*%
X112700000Y-82160000D03*
%TO.P,J2,6*%
X112700000Y-84700000D03*
%TO.P,J2,7*%
X112700000Y-87240000D03*
%TO.P,J2,8*%
X112700000Y-89780000D03*
%TO.P,J2,9*%
X112700000Y-92320000D03*
%TO.P,J2,10*%
X112700000Y-94860000D03*
%TO.P,J2,11*%
X112700000Y-97400000D03*
%TO.P,J2,12*%
X112700000Y-99940000D03*
%TO.P,J2,13*%
X112700000Y-102480000D03*
%TO.P,J2,14*%
X112700000Y-105020000D03*
%TO.P,J2,15*%
X112700000Y-107560000D03*
%TO.P,J2,16*%
X112700000Y-110100000D03*
%TO.P,J2,17*%
X112700000Y-112640000D03*
%TO.P,J2,18*%
X112700000Y-115180000D03*
%TO.P,J2,19*%
X112700000Y-117720000D03*
%TD*%
D23*
%TO.P,J1,1*%
%TO.N,N/C*%
X87300000Y-72000000D03*
D24*
%TO.P,J1,2*%
X87300000Y-74540000D03*
%TO.P,J1,3*%
X87300000Y-77080000D03*
%TO.P,J1,4*%
X87300000Y-79620000D03*
%TO.P,J1,5*%
X87300000Y-82160000D03*
%TO.P,J1,6*%
X87300000Y-84700000D03*
%TO.P,J1,7*%
X87300000Y-87240000D03*
%TO.P,J1,8*%
X87300000Y-89780000D03*
%TO.P,J1,9*%
%TO.N,IR_TX*%
X87300000Y-92320000D03*
%TO.P,J1,10*%
%TO.N,N/C*%
X87300000Y-94860000D03*
%TO.P,J1,11*%
X87300000Y-97400000D03*
%TO.P,J1,12*%
X87300000Y-99940000D03*
%TO.P,J1,13*%
X87300000Y-102480000D03*
%TO.P,J1,14*%
%TO.N,GND*%
X87300000Y-105020000D03*
%TO.P,J1,15*%
%TO.N,N/C*%
X87300000Y-107560000D03*
%TO.P,J1,16*%
X87300000Y-110100000D03*
%TO.P,J1,17*%
X87300000Y-112640000D03*
%TO.P,J1,18*%
X87300000Y-115180000D03*
%TO.P,J1,19*%
%TO.N,+5V*%
X87300000Y-117720000D03*
%TD*%
D25*
%TO.N,LED_DRAIN*%
X116735000Y-128986000D02*
X117050000Y-129531000D01*
X71014000Y-83265000D02*
X70469000Y-82950000D01*
X128986000Y-116735000D02*
X129531000Y-117050000D01*
D26*
X134100000Y-100000000D02*
X133808000Y-104451000D01*
X66192000Y-104451000D02*
X65900000Y-100000000D01*
X129531000Y-117050000D02*
X127053000Y-120759000D01*
X132938000Y-91174000D02*
X133808000Y-95549000D01*
X127053000Y-120759000D02*
X124112000Y-124112000D01*
X79241000Y-127053000D02*
X75888000Y-124112000D01*
X65900000Y-100000000D02*
X66192000Y-95549000D01*
D25*
X128986000Y-83265000D02*
X129531000Y-82950000D01*
X116735000Y-71014000D02*
X117050000Y-70469000D01*
D26*
X124112000Y-124112000D02*
X120759000Y-127053000D01*
X132938000Y-108826000D02*
X131504000Y-113050000D01*
X70469000Y-117050000D02*
X68496000Y-113050000D01*
X104451000Y-133808000D02*
X100000000Y-134100000D01*
X70469000Y-82950000D02*
X72947000Y-79241000D01*
X91174000Y-132938000D02*
X86950000Y-131504000D01*
X100000000Y-134100000D02*
X95549000Y-133808000D01*
X95549000Y-66192000D02*
X100000000Y-65900000D01*
D25*
X100000000Y-66530000D02*
X100000000Y-65900000D01*
D26*
X95549000Y-133808000D02*
X91174000Y-132938000D01*
X86950000Y-131504000D02*
X82950000Y-129531000D01*
X129531000Y-82950000D02*
X131504000Y-86950000D01*
D25*
X71014000Y-116735000D02*
X70469000Y-117050000D01*
D26*
X103000000Y-120000000D02*
X108826000Y-132938000D01*
X67062000Y-108826000D02*
X66192000Y-104451000D01*
D25*
X83265000Y-128986000D02*
X82950000Y-129531000D01*
D26*
X75888000Y-124112000D02*
X72947000Y-120759000D01*
X82950000Y-70469000D02*
X86950000Y-68496000D01*
X86950000Y-68496000D02*
X91174000Y-67062000D01*
X79241000Y-72947000D02*
X82950000Y-70469000D01*
X108826000Y-67062000D02*
X113050000Y-68496000D01*
X108826000Y-132938000D02*
X104451000Y-133808000D01*
D25*
X133470000Y-100000000D02*
X134100000Y-100000000D01*
D26*
X72947000Y-120759000D02*
X70469000Y-117050000D01*
X100000000Y-116000000D02*
X103000000Y-120000000D01*
X124112000Y-75888000D02*
X127053000Y-79241000D01*
X120759000Y-72947000D02*
X124112000Y-75888000D01*
X72947000Y-79241000D02*
X75888000Y-75888000D01*
X68496000Y-113050000D02*
X67062000Y-108826000D01*
D25*
X66530000Y-100000000D02*
X65900000Y-100000000D01*
D26*
X68496000Y-86950000D02*
X70469000Y-82950000D01*
D25*
X83265000Y-71014000D02*
X82950000Y-70469000D01*
D26*
X127053000Y-79241000D02*
X129531000Y-82950000D01*
X133808000Y-95549000D02*
X134100000Y-100000000D01*
X66192000Y-95549000D02*
X67062000Y-91174000D01*
X117050000Y-129531000D02*
X113050000Y-131504000D01*
X113050000Y-68496000D02*
X117050000Y-70469000D01*
X131504000Y-113050000D02*
X129531000Y-117050000D01*
X113050000Y-131504000D02*
X108826000Y-132938000D01*
X131504000Y-86950000D02*
X132938000Y-91174000D01*
X117050000Y-70469000D02*
X120759000Y-72947000D01*
X133808000Y-104451000D02*
X132938000Y-108826000D01*
X91174000Y-67062000D02*
X95549000Y-66192000D01*
X100000000Y-65900000D02*
X104451000Y-66192000D01*
X104451000Y-66192000D02*
X108826000Y-67062000D01*
X82950000Y-129531000D02*
X79241000Y-127053000D01*
X67062000Y-91174000D02*
X68496000Y-86950000D01*
X75888000Y-75888000D02*
X79241000Y-72947000D01*
D25*
X100000000Y-133470000D02*
X100000000Y-134100000D01*
D26*
X120759000Y-127053000D02*
X117050000Y-129531000D01*
%TD*%
%TA.AperFunction,Conductor*%
%TO.N,GND*%
G36*
X102149911Y-78105700D02*
G01*
X102162013Y-78106892D01*
X103993033Y-78378630D01*
X104285996Y-78422109D01*
X104297895Y-78424475D01*
X106380065Y-78945514D01*
X106391756Y-78949061D01*
X108112799Y-79565352D01*
X108413284Y-79672953D01*
X108424485Y-79677593D01*
X110365488Y-80595394D01*
X110376222Y-80601130D01*
X111598701Y-81333825D01*
X111677179Y-81380861D01*
X111724562Y-81432210D01*
X111736661Y-81501024D01*
X111716963Y-81551878D01*
X111718550Y-81552850D01*
X111716008Y-81556997D01*
X111633788Y-81718360D01*
X111633787Y-81718363D01*
X111577829Y-81890589D01*
X111549500Y-82069448D01*
X111549500Y-82250551D01*
X111577829Y-82429410D01*
X111633787Y-82601636D01*
X111633788Y-82601639D01*
X111689664Y-82711300D01*
X111716003Y-82762993D01*
X111716006Y-82762997D01*
X111822441Y-82909494D01*
X111822445Y-82909499D01*
X111950500Y-83037554D01*
X111950505Y-83037558D01*
X112045852Y-83106831D01*
X112097006Y-83143996D01*
X112202484Y-83197740D01*
X112258360Y-83226211D01*
X112258363Y-83226212D01*
X112344476Y-83254191D01*
X112430591Y-83282171D01*
X112503639Y-83293740D01*
X112590678Y-83307527D01*
X112653813Y-83337456D01*
X112690744Y-83396768D01*
X112689746Y-83466631D01*
X112651136Y-83524863D01*
X112590678Y-83552473D01*
X112430589Y-83577829D01*
X112258363Y-83633787D01*
X112258360Y-83633788D01*
X112097002Y-83716006D01*
X111950505Y-83822441D01*
X111950500Y-83822445D01*
X111822445Y-83950500D01*
X111822441Y-83950505D01*
X111716006Y-84097002D01*
X111633788Y-84258360D01*
X111633787Y-84258363D01*
X111577829Y-84430589D01*
X111549500Y-84609448D01*
X111549500Y-84790551D01*
X111577829Y-84969410D01*
X111633787Y-85141636D01*
X111633788Y-85141639D01*
X111716006Y-85302997D01*
X111822441Y-85449494D01*
X111822445Y-85449499D01*
X111950500Y-85577554D01*
X111950505Y-85577558D01*
X112078287Y-85670396D01*
X112097006Y-85683996D01*
X112202484Y-85737740D01*
X112258360Y-85766211D01*
X112258363Y-85766212D01*
X112344476Y-85794191D01*
X112430591Y-85822171D01*
X112503639Y-85833740D01*
X112590678Y-85847527D01*
X112653813Y-85877456D01*
X112690744Y-85936768D01*
X112689746Y-86006631D01*
X112651136Y-86064863D01*
X112590678Y-86092473D01*
X112430589Y-86117829D01*
X112258363Y-86173787D01*
X112258360Y-86173788D01*
X112097002Y-86256006D01*
X111950505Y-86362441D01*
X111950500Y-86362445D01*
X111822445Y-86490500D01*
X111822441Y-86490505D01*
X111716006Y-86637002D01*
X111633788Y-86798360D01*
X111633787Y-86798363D01*
X111577829Y-86970589D01*
X111549500Y-87149448D01*
X111549500Y-87330551D01*
X111577829Y-87509410D01*
X111633787Y-87681636D01*
X111633788Y-87681639D01*
X111716006Y-87842997D01*
X111822441Y-87989494D01*
X111822445Y-87989499D01*
X111950500Y-88117554D01*
X111950505Y-88117558D01*
X112078287Y-88210396D01*
X112097006Y-88223996D01*
X112202484Y-88277740D01*
X112258360Y-88306211D01*
X112258363Y-88306212D01*
X112344476Y-88334191D01*
X112430591Y-88362171D01*
X112503639Y-88373740D01*
X112590678Y-88387527D01*
X112653813Y-88417456D01*
X112690744Y-88476768D01*
X112689746Y-88546631D01*
X112651136Y-88604863D01*
X112590678Y-88632473D01*
X112430589Y-88657829D01*
X112258363Y-88713787D01*
X112258360Y-88713788D01*
X112097002Y-88796006D01*
X111950505Y-88902441D01*
X111950500Y-88902445D01*
X111822445Y-89030500D01*
X111822441Y-89030505D01*
X111716006Y-89177002D01*
X111633788Y-89338360D01*
X111633787Y-89338363D01*
X111577829Y-89510589D01*
X111549500Y-89689448D01*
X111549500Y-89870551D01*
X111577829Y-90049410D01*
X111633787Y-90221636D01*
X111633788Y-90221639D01*
X111716006Y-90382997D01*
X111822441Y-90529494D01*
X111822445Y-90529499D01*
X111950500Y-90657554D01*
X111950505Y-90657558D01*
X112078287Y-90750396D01*
X112097006Y-90763996D01*
X112202484Y-90817740D01*
X112258360Y-90846211D01*
X112258363Y-90846212D01*
X112344476Y-90874191D01*
X112430591Y-90902171D01*
X112503639Y-90913740D01*
X112590678Y-90927527D01*
X112653813Y-90957456D01*
X112690744Y-91016768D01*
X112689746Y-91086631D01*
X112651136Y-91144863D01*
X112590678Y-91172473D01*
X112430589Y-91197829D01*
X112258363Y-91253787D01*
X112258360Y-91253788D01*
X112097002Y-91336006D01*
X111950505Y-91442441D01*
X111950500Y-91442445D01*
X111822445Y-91570500D01*
X111822441Y-91570505D01*
X111716006Y-91717002D01*
X111633788Y-91878360D01*
X111633787Y-91878363D01*
X111577829Y-92050589D01*
X111549500Y-92229448D01*
X111549500Y-92410551D01*
X111577829Y-92589410D01*
X111633787Y-92761636D01*
X111633788Y-92761639D01*
X111716006Y-92922997D01*
X111822441Y-93069494D01*
X111822445Y-93069499D01*
X111950500Y-93197554D01*
X111950505Y-93197558D01*
X112072070Y-93285879D01*
X112097006Y-93303996D01*
X112202484Y-93357740D01*
X112258360Y-93386211D01*
X112258363Y-93386212D01*
X112344476Y-93414191D01*
X112430591Y-93442171D01*
X112503639Y-93453740D01*
X112590678Y-93467527D01*
X112653813Y-93497456D01*
X112690744Y-93556768D01*
X112689746Y-93626631D01*
X112651136Y-93684863D01*
X112590678Y-93712473D01*
X112430589Y-93737829D01*
X112258363Y-93793787D01*
X112258360Y-93793788D01*
X112097002Y-93876006D01*
X111950505Y-93982441D01*
X111950500Y-93982445D01*
X111822445Y-94110500D01*
X111822441Y-94110505D01*
X111716006Y-94257002D01*
X111633788Y-94418360D01*
X111633787Y-94418363D01*
X111577829Y-94590589D01*
X111549500Y-94769448D01*
X111549500Y-94950551D01*
X111577829Y-95129410D01*
X111633787Y-95301636D01*
X111633788Y-95301639D01*
X111716006Y-95462997D01*
X111822441Y-95609494D01*
X111822445Y-95609499D01*
X111950500Y-95737554D01*
X111950505Y-95737558D01*
X112075792Y-95828583D01*
X112097006Y-95843996D01*
X112202484Y-95897740D01*
X112258360Y-95926211D01*
X112258363Y-95926212D01*
X112334701Y-95951015D01*
X112430591Y-95982171D01*
X112503639Y-95993740D01*
X112590678Y-96007527D01*
X112653813Y-96037456D01*
X112690744Y-96096768D01*
X112689746Y-96166631D01*
X112651136Y-96224863D01*
X112590678Y-96252473D01*
X112430589Y-96277829D01*
X112258363Y-96333787D01*
X112258360Y-96333788D01*
X112097002Y-96416006D01*
X111950505Y-96522441D01*
X111950500Y-96522445D01*
X111822445Y-96650500D01*
X111822441Y-96650505D01*
X111716006Y-96797002D01*
X111633788Y-96958360D01*
X111633787Y-96958363D01*
X111577829Y-97130589D01*
X111549500Y-97309448D01*
X111549500Y-97490551D01*
X111577829Y-97669410D01*
X111633787Y-97841636D01*
X111633788Y-97841639D01*
X111716006Y-98002997D01*
X111822441Y-98149494D01*
X111822445Y-98149499D01*
X111950500Y-98277554D01*
X111950505Y-98277558D01*
X112078287Y-98370396D01*
X112097006Y-98383996D01*
X112202484Y-98437740D01*
X112258360Y-98466211D01*
X112258363Y-98466212D01*
X112344476Y-98494191D01*
X112430591Y-98522171D01*
X112503639Y-98533740D01*
X112590678Y-98547527D01*
X112653813Y-98577456D01*
X112690744Y-98636768D01*
X112689746Y-98706631D01*
X112651136Y-98764863D01*
X112590678Y-98792473D01*
X112430589Y-98817829D01*
X112258363Y-98873787D01*
X112258360Y-98873788D01*
X112097002Y-98956006D01*
X111950505Y-99062441D01*
X111950500Y-99062445D01*
X111822445Y-99190500D01*
X111822441Y-99190505D01*
X111716006Y-99337002D01*
X111633788Y-99498360D01*
X111633787Y-99498363D01*
X111577829Y-99670589D01*
X111549500Y-99849448D01*
X111549500Y-100030551D01*
X111577829Y-100209410D01*
X111633787Y-100381636D01*
X111633788Y-100381639D01*
X111716006Y-100542997D01*
X111822441Y-100689494D01*
X111822445Y-100689499D01*
X111950500Y-100817554D01*
X111950505Y-100817558D01*
X112078287Y-100910396D01*
X112097006Y-100923996D01*
X112202484Y-100977740D01*
X112258360Y-101006211D01*
X112258363Y-101006212D01*
X112344476Y-101034191D01*
X112430591Y-101062171D01*
X112503639Y-101073740D01*
X112590678Y-101087527D01*
X112653813Y-101117456D01*
X112690744Y-101176768D01*
X112689746Y-101246631D01*
X112651136Y-101304863D01*
X112590678Y-101332473D01*
X112430589Y-101357829D01*
X112258363Y-101413787D01*
X112258360Y-101413788D01*
X112097002Y-101496006D01*
X111950505Y-101602441D01*
X111950500Y-101602445D01*
X111822445Y-101730500D01*
X111822441Y-101730505D01*
X111716006Y-101877002D01*
X111633788Y-102038360D01*
X111633787Y-102038363D01*
X111577829Y-102210589D01*
X111549500Y-102389448D01*
X111549500Y-102570551D01*
X111577829Y-102749410D01*
X111633787Y-102921636D01*
X111633788Y-102921639D01*
X111716006Y-103082997D01*
X111822441Y-103229494D01*
X111822445Y-103229499D01*
X111950500Y-103357554D01*
X111950505Y-103357558D01*
X112029271Y-103414784D01*
X112097006Y-103463996D01*
X112202484Y-103517740D01*
X112258360Y-103546211D01*
X112258363Y-103546212D01*
X112344476Y-103574191D01*
X112430591Y-103602171D01*
X112503639Y-103613740D01*
X112590678Y-103627527D01*
X112653813Y-103657456D01*
X112690744Y-103716768D01*
X112689746Y-103786631D01*
X112651136Y-103844863D01*
X112590678Y-103872473D01*
X112430589Y-103897829D01*
X112258363Y-103953787D01*
X112258360Y-103953788D01*
X112097002Y-104036006D01*
X111950505Y-104142441D01*
X111950500Y-104142445D01*
X111822445Y-104270500D01*
X111822441Y-104270505D01*
X111716006Y-104417002D01*
X111633788Y-104578360D01*
X111633787Y-104578363D01*
X111577829Y-104750589D01*
X111549500Y-104929448D01*
X111549500Y-105110551D01*
X111577829Y-105289410D01*
X111633787Y-105461636D01*
X111633788Y-105461639D01*
X111670697Y-105534075D01*
X111704237Y-105599901D01*
X111716006Y-105622997D01*
X111822441Y-105769494D01*
X111822445Y-105769499D01*
X111950500Y-105897554D01*
X111950505Y-105897558D01*
X112047971Y-105968370D01*
X112097006Y-106003996D01*
X112180089Y-106046329D01*
X112258360Y-106086211D01*
X112258363Y-106086212D01*
X112332134Y-106110181D01*
X112430591Y-106142171D01*
X112503639Y-106153740D01*
X112590678Y-106167527D01*
X112653813Y-106197456D01*
X112690744Y-106256768D01*
X112689746Y-106326631D01*
X112651136Y-106384863D01*
X112590678Y-106412473D01*
X112430589Y-106437829D01*
X112258363Y-106493787D01*
X112258360Y-106493788D01*
X112097002Y-106576006D01*
X111950505Y-106682441D01*
X111950500Y-106682445D01*
X111822445Y-106810500D01*
X111822441Y-106810505D01*
X111716006Y-106957002D01*
X111633788Y-107118360D01*
X111633787Y-107118363D01*
X111577829Y-107290589D01*
X111549500Y-107469448D01*
X111549500Y-107650551D01*
X111577829Y-107829410D01*
X111633787Y-108001636D01*
X111633788Y-108001639D01*
X111716006Y-108162997D01*
X111822441Y-108309494D01*
X111822445Y-108309499D01*
X111950500Y-108437554D01*
X111950505Y-108437558D01*
X112078287Y-108530396D01*
X112097006Y-108543996D01*
X112202484Y-108597740D01*
X112258360Y-108626211D01*
X112258363Y-108626212D01*
X112335012Y-108651116D01*
X112430591Y-108682171D01*
X112503639Y-108693740D01*
X112590678Y-108707527D01*
X112653813Y-108737456D01*
X112690744Y-108796768D01*
X112689746Y-108866631D01*
X112651136Y-108924863D01*
X112590678Y-108952473D01*
X112430589Y-108977829D01*
X112258363Y-109033787D01*
X112258360Y-109033788D01*
X112097002Y-109116006D01*
X111950505Y-109222441D01*
X111950500Y-109222445D01*
X111822445Y-109350500D01*
X111822441Y-109350505D01*
X111716006Y-109497002D01*
X111633788Y-109658360D01*
X111633787Y-109658363D01*
X111577829Y-109830589D01*
X111549500Y-110009448D01*
X111549500Y-110190551D01*
X111577829Y-110369410D01*
X111633787Y-110541636D01*
X111633788Y-110541639D01*
X111689664Y-110651300D01*
X111716003Y-110702993D01*
X111716006Y-110702997D01*
X111822441Y-110849494D01*
X111822445Y-110849499D01*
X111950500Y-110977554D01*
X111950505Y-110977558D01*
X112022286Y-111029709D01*
X112097006Y-111083996D01*
X112202484Y-111137740D01*
X112258360Y-111166211D01*
X112258363Y-111166212D01*
X112344476Y-111194191D01*
X112430591Y-111222171D01*
X112503639Y-111233740D01*
X112590678Y-111247527D01*
X112653813Y-111277456D01*
X112690744Y-111336768D01*
X112689746Y-111406631D01*
X112651136Y-111464863D01*
X112590678Y-111492473D01*
X112430589Y-111517829D01*
X112258363Y-111573787D01*
X112258360Y-111573788D01*
X112097002Y-111656006D01*
X111950505Y-111762441D01*
X111950500Y-111762445D01*
X111822445Y-111890500D01*
X111822441Y-111890505D01*
X111716006Y-112037002D01*
X111633788Y-112198360D01*
X111633787Y-112198363D01*
X111577829Y-112370589D01*
X111549500Y-112549448D01*
X111549500Y-112730551D01*
X111577829Y-112909410D01*
X111633787Y-113081636D01*
X111633788Y-113081639D01*
X111716006Y-113242997D01*
X111822441Y-113389494D01*
X111822445Y-113389499D01*
X111950500Y-113517554D01*
X111950505Y-113517558D01*
X112063937Y-113599970D01*
X112097006Y-113623996D01*
X112202484Y-113677740D01*
X112258360Y-113706211D01*
X112258363Y-113706212D01*
X112344476Y-113734191D01*
X112430591Y-113762171D01*
X112503639Y-113773740D01*
X112590678Y-113787527D01*
X112653813Y-113817456D01*
X112690744Y-113876768D01*
X112689746Y-113946631D01*
X112651136Y-114004863D01*
X112590678Y-114032473D01*
X112430589Y-114057829D01*
X112258363Y-114113787D01*
X112258360Y-114113788D01*
X112097002Y-114196006D01*
X111950505Y-114302441D01*
X111950500Y-114302445D01*
X111822445Y-114430500D01*
X111822441Y-114430505D01*
X111716006Y-114577002D01*
X111633788Y-114738360D01*
X111633787Y-114738363D01*
X111577829Y-114910589D01*
X111549500Y-115089448D01*
X111549500Y-115270551D01*
X111577829Y-115449410D01*
X111633787Y-115621636D01*
X111633788Y-115621639D01*
X111716006Y-115782997D01*
X111822441Y-115929494D01*
X111822445Y-115929499D01*
X111950500Y-116057554D01*
X111950505Y-116057558D01*
X112077742Y-116150000D01*
X112097006Y-116163996D01*
X112202484Y-116217740D01*
X112258360Y-116246211D01*
X112258363Y-116246212D01*
X112344476Y-116274191D01*
X112430591Y-116302171D01*
X112503639Y-116313740D01*
X112590678Y-116327527D01*
X112653813Y-116357456D01*
X112690744Y-116416768D01*
X112689746Y-116486631D01*
X112651136Y-116544863D01*
X112590678Y-116572473D01*
X112430589Y-116597829D01*
X112258363Y-116653787D01*
X112258360Y-116653788D01*
X112097002Y-116736006D01*
X111950505Y-116842441D01*
X111950500Y-116842445D01*
X111822445Y-116970500D01*
X111822441Y-116970505D01*
X111716006Y-117117002D01*
X111633788Y-117278360D01*
X111633787Y-117278363D01*
X111577829Y-117450589D01*
X111549500Y-117629448D01*
X111549500Y-117810551D01*
X111577829Y-117989410D01*
X111633787Y-118161636D01*
X111633788Y-118161639D01*
X111716006Y-118322997D01*
X111774487Y-118403490D01*
X111797967Y-118469296D01*
X111782141Y-118537350D01*
X111737916Y-118582734D01*
X110376234Y-119398862D01*
X110365493Y-119404603D01*
X108424486Y-120322405D01*
X108413284Y-120327046D01*
X106391762Y-121050936D01*
X106380059Y-121054486D01*
X104510805Y-121522246D01*
X104440993Y-121519424D01*
X104383788Y-121479307D01*
X104367638Y-121452869D01*
X104367630Y-121452852D01*
X104156003Y-120982884D01*
X104146427Y-120913675D01*
X104168752Y-120859087D01*
X104240579Y-120760228D01*
X104344231Y-120556799D01*
X104414784Y-120339660D01*
X104424961Y-120275405D01*
X104450500Y-120114162D01*
X104450500Y-119885837D01*
X104414784Y-119660339D01*
X104344229Y-119443196D01*
X104266809Y-119291252D01*
X104240579Y-119239772D01*
X104106379Y-119055063D01*
X103944937Y-118893621D01*
X103760228Y-118759421D01*
X103556803Y-118655770D01*
X103339660Y-118585215D01*
X103114162Y-118549500D01*
X103114157Y-118549500D01*
X102885843Y-118549500D01*
X102879681Y-118550476D01*
X102816078Y-118560549D01*
X102746784Y-118551593D01*
X102697481Y-118512475D01*
X101794029Y-117307872D01*
X101769553Y-117242430D01*
X101784343Y-117174143D01*
X101833704Y-117124693D01*
X101901963Y-117109780D01*
X101949524Y-117122988D01*
X102019966Y-117158880D01*
X102019964Y-117158880D01*
X102019972Y-117158882D01*
X102019975Y-117158884D01*
X102126153Y-117193383D01*
X102207173Y-117219709D01*
X102401578Y-117250500D01*
X102401583Y-117250500D01*
X102598422Y-117250500D01*
X102792826Y-117219709D01*
X102980025Y-117158884D01*
X103155405Y-117069524D01*
X103314646Y-116953828D01*
X103375306Y-116893168D01*
X108559500Y-116893168D01*
X108559500Y-117090013D01*
X108590290Y-117284417D01*
X108651117Y-117471620D01*
X108731535Y-117629448D01*
X108740476Y-117646996D01*
X108856172Y-117806237D01*
X108995354Y-117945419D01*
X109154595Y-118061115D01*
X109237455Y-118103334D01*
X109329970Y-118150473D01*
X109329972Y-118150473D01*
X109329975Y-118150475D01*
X109430317Y-118183078D01*
X109517173Y-118211300D01*
X109711578Y-118242091D01*
X109711583Y-118242091D01*
X109908422Y-118242091D01*
X110102826Y-118211300D01*
X110290025Y-118150475D01*
X110465405Y-118061115D01*
X110624646Y-117945419D01*
X110763828Y-117806237D01*
X110879524Y-117646996D01*
X110968884Y-117471616D01*
X111029709Y-117284417D01*
X111039958Y-117219709D01*
X111060500Y-117090013D01*
X111060500Y-116893168D01*
X111029709Y-116698764D01*
X110968882Y-116511561D01*
X110918851Y-116413370D01*
X110879524Y-116336186D01*
X110763828Y-116176945D01*
X110624646Y-116037763D01*
X110465405Y-115922067D01*
X110419007Y-115898426D01*
X110290029Y-115832708D01*
X110102826Y-115771881D01*
X109908422Y-115741091D01*
X109908417Y-115741091D01*
X109711583Y-115741091D01*
X109711578Y-115741091D01*
X109517173Y-115771881D01*
X109329970Y-115832708D01*
X109154594Y-115922067D01*
X109063741Y-115988076D01*
X108995354Y-116037763D01*
X108995352Y-116037765D01*
X108995351Y-116037765D01*
X108856174Y-116176942D01*
X108856174Y-116176943D01*
X108856172Y-116176945D01*
X108806485Y-116245332D01*
X108740476Y-116336185D01*
X108651117Y-116511561D01*
X108590290Y-116698764D01*
X108559500Y-116893168D01*
X103375306Y-116893168D01*
X103453828Y-116814646D01*
X103569524Y-116655405D01*
X103658884Y-116480025D01*
X103719709Y-116292826D01*
X103750500Y-116098422D01*
X103750500Y-115901577D01*
X103719709Y-115707173D01*
X103671911Y-115560067D01*
X103658884Y-115519975D01*
X103658882Y-115519972D01*
X103658882Y-115519970D01*
X103643046Y-115488891D01*
X103630150Y-115420222D01*
X103656426Y-115355481D01*
X103713533Y-115315224D01*
X103772927Y-115310123D01*
X103835787Y-115320079D01*
X103901579Y-115330500D01*
X103901583Y-115330500D01*
X104098422Y-115330500D01*
X104292826Y-115299709D01*
X104480025Y-115238884D01*
X104655405Y-115149524D01*
X104814646Y-115033828D01*
X104953828Y-114894646D01*
X105069524Y-114735405D01*
X105158884Y-114560025D01*
X105219709Y-114372826D01*
X105230857Y-114302441D01*
X105250500Y-114178422D01*
X105250500Y-113981577D01*
X105219709Y-113787173D01*
X105158882Y-113599970D01*
X105069523Y-113424594D01*
X104953828Y-113265354D01*
X104814646Y-113126172D01*
X104655405Y-113010476D01*
X104480029Y-112921117D01*
X104292826Y-112860290D01*
X104098422Y-112829500D01*
X104098417Y-112829500D01*
X103901583Y-112829500D01*
X103901578Y-112829500D01*
X103707173Y-112860290D01*
X103519970Y-112921117D01*
X103344594Y-113010476D01*
X103253741Y-113076485D01*
X103185354Y-113126172D01*
X103185352Y-113126174D01*
X103185351Y-113126174D01*
X103046174Y-113265351D01*
X103046174Y-113265352D01*
X103046172Y-113265354D01*
X102996485Y-113333741D01*
X102930476Y-113424594D01*
X102841117Y-113599970D01*
X102780290Y-113787173D01*
X102749500Y-113981577D01*
X102749500Y-114178422D01*
X102780290Y-114372826D01*
X102841118Y-114560032D01*
X102856953Y-114591109D01*
X102869849Y-114659779D01*
X102843572Y-114724519D01*
X102786465Y-114764775D01*
X102727070Y-114769876D01*
X102598422Y-114749500D01*
X102598417Y-114749500D01*
X102401583Y-114749500D01*
X102401578Y-114749500D01*
X102207173Y-114780290D01*
X102019970Y-114841117D01*
X101844594Y-114930476D01*
X101810546Y-114955214D01*
X101685354Y-115046172D01*
X101685352Y-115046174D01*
X101685351Y-115046174D01*
X101546174Y-115185351D01*
X101546174Y-115185352D01*
X101546172Y-115185354D01*
X101507280Y-115238884D01*
X101430476Y-115344594D01*
X101360485Y-115481960D01*
X101312510Y-115532756D01*
X101244689Y-115549551D01*
X101178554Y-115527014D01*
X101139515Y-115481960D01*
X101104690Y-115413613D01*
X101069524Y-115344595D01*
X100953828Y-115185354D01*
X100814646Y-115046172D01*
X100655405Y-114930476D01*
X100630456Y-114917764D01*
X100480029Y-114841117D01*
X100292826Y-114780290D01*
X100098422Y-114749500D01*
X100098417Y-114749500D01*
X99901583Y-114749500D01*
X99901578Y-114749500D01*
X99707173Y-114780290D01*
X99519970Y-114841117D01*
X99344594Y-114930476D01*
X99310546Y-114955214D01*
X99185354Y-115046172D01*
X99185352Y-115046174D01*
X99185351Y-115046174D01*
X99046174Y-115185351D01*
X99046167Y-115185360D01*
X99024316Y-115215435D01*
X98968986Y-115258101D01*
X98899372Y-115264079D01*
X98837578Y-115231472D01*
X98803221Y-115170633D01*
X98799999Y-115142549D01*
X98799999Y-114955214D01*
X98799997Y-114955191D01*
X98797091Y-114930130D01*
X98797090Y-114930126D01*
X98751788Y-114827525D01*
X98751785Y-114827520D01*
X98672479Y-114748214D01*
X98672474Y-114748211D01*
X98569876Y-114702910D01*
X98544794Y-114700000D01*
X97650000Y-114700000D01*
X97650000Y-115574318D01*
X97559244Y-115550000D01*
X97440756Y-115550000D01*
X97350000Y-115574318D01*
X97350000Y-114700000D01*
X96455214Y-114700000D01*
X96455191Y-114700002D01*
X96430130Y-114702908D01*
X96430126Y-114702909D01*
X96327525Y-114748211D01*
X96327520Y-114748214D01*
X96248214Y-114827520D01*
X96248211Y-114827525D01*
X96202910Y-114930122D01*
X96202910Y-114930124D01*
X96200000Y-114955205D01*
X96200000Y-115850000D01*
X97074318Y-115850000D01*
X97050000Y-115940756D01*
X97050000Y-116059244D01*
X97074318Y-116150000D01*
X96200001Y-116150000D01*
X96200001Y-117044785D01*
X96200002Y-117044808D01*
X96202908Y-117069869D01*
X96202909Y-117069873D01*
X96248211Y-117172474D01*
X96248214Y-117172479D01*
X96327520Y-117251785D01*
X96327525Y-117251788D01*
X96430123Y-117297089D01*
X96455206Y-117299999D01*
X97349999Y-117299999D01*
X97350000Y-117299998D01*
X97350000Y-116425681D01*
X97440756Y-116450000D01*
X97559244Y-116450000D01*
X97650000Y-116425681D01*
X97650000Y-117299999D01*
X98544786Y-117299999D01*
X98544808Y-117299997D01*
X98569869Y-117297091D01*
X98569873Y-117297090D01*
X98672474Y-117251788D01*
X98672479Y-117251785D01*
X98751785Y-117172479D01*
X98751788Y-117172474D01*
X98797089Y-117069877D01*
X98797089Y-117069875D01*
X98799999Y-117044794D01*
X98799999Y-116857452D01*
X98819683Y-116790412D01*
X98872487Y-116744657D01*
X98941645Y-116734713D01*
X99005201Y-116763738D01*
X99024316Y-116784565D01*
X99043931Y-116811562D01*
X99046172Y-116814646D01*
X99185354Y-116953828D01*
X99344595Y-117069524D01*
X99423602Y-117109780D01*
X99519970Y-117158882D01*
X99519972Y-117158882D01*
X99519975Y-117158884D01*
X99620317Y-117191487D01*
X99707173Y-117219709D01*
X99901578Y-117250500D01*
X100062750Y-117250500D01*
X100129789Y-117270185D01*
X100161950Y-117300100D01*
X101655313Y-119291252D01*
X101679789Y-119356694D01*
X101666599Y-119421944D01*
X101655768Y-119443200D01*
X101655768Y-119443202D01*
X101585216Y-119660335D01*
X101585216Y-119660338D01*
X101549500Y-119885837D01*
X101549500Y-120114162D01*
X101585215Y-120339660D01*
X101655770Y-120556803D01*
X101759417Y-120760220D01*
X101759421Y-120760228D01*
X101893621Y-120944937D01*
X102055063Y-121106379D01*
X102239772Y-121240579D01*
X102335884Y-121289550D01*
X102443196Y-121344229D01*
X102443198Y-121344229D01*
X102443201Y-121344231D01*
X102660340Y-121414784D01*
X102877730Y-121449215D01*
X102885404Y-121452852D01*
X102893897Y-121452898D01*
X102916499Y-121467593D01*
X102940864Y-121479144D01*
X102946880Y-121487347D01*
X102952474Y-121490984D01*
X102971398Y-121520776D01*
X103010534Y-121607689D01*
X103020111Y-121676899D01*
X102990749Y-121740300D01*
X102931771Y-121777762D01*
X102915671Y-121781258D01*
X102162019Y-121893106D01*
X102149905Y-121894299D01*
X100006089Y-121999700D01*
X99993911Y-121999700D01*
X97850094Y-121894299D01*
X97837980Y-121893106D01*
X95714003Y-121577890D01*
X95702105Y-121575524D01*
X93619940Y-121054486D01*
X93608237Y-121050936D01*
X91586715Y-120327046D01*
X91575513Y-120322405D01*
X90108671Y-119628811D01*
X89881888Y-119521577D01*
X98749500Y-119521577D01*
X98749500Y-119718422D01*
X98780290Y-119912826D01*
X98841117Y-120100029D01*
X98930476Y-120275405D01*
X99046172Y-120434646D01*
X99185354Y-120573828D01*
X99344595Y-120689524D01*
X99427455Y-120731743D01*
X99519970Y-120778882D01*
X99519972Y-120778882D01*
X99519975Y-120778884D01*
X99620317Y-120811487D01*
X99707173Y-120839709D01*
X99901578Y-120870500D01*
X99901583Y-120870500D01*
X100098422Y-120870500D01*
X100292826Y-120839709D01*
X100480025Y-120778884D01*
X100655405Y-120689524D01*
X100814646Y-120573828D01*
X100953828Y-120434646D01*
X101069524Y-120275405D01*
X101158884Y-120100025D01*
X101219709Y-119912826D01*
X101240941Y-119778772D01*
X101250500Y-119718422D01*
X101250500Y-119521577D01*
X101219709Y-119327173D01*
X101158882Y-119139970D01*
X101069523Y-118964594D01*
X100953828Y-118805354D01*
X100814646Y-118666172D01*
X100655405Y-118550476D01*
X100480029Y-118461117D01*
X100292826Y-118400290D01*
X100098422Y-118369500D01*
X100098417Y-118369500D01*
X99901583Y-118369500D01*
X99901578Y-118369500D01*
X99707173Y-118400290D01*
X99519970Y-118461117D01*
X99344594Y-118550476D01*
X99279799Y-118597553D01*
X99185354Y-118666172D01*
X99185352Y-118666174D01*
X99185351Y-118666174D01*
X99046174Y-118805351D01*
X99046174Y-118805352D01*
X99046172Y-118805354D01*
X99019423Y-118842171D01*
X98930476Y-118964594D01*
X98841117Y-119139970D01*
X98780290Y-119327173D01*
X98749500Y-119521577D01*
X89881888Y-119521577D01*
X89634506Y-119404603D01*
X89623765Y-119398862D01*
X88262083Y-118582734D01*
X88214700Y-118531386D01*
X88202601Y-118462572D01*
X88225510Y-118403492D01*
X88283996Y-118322994D01*
X88366211Y-118161639D01*
X88422171Y-117989409D01*
X88436765Y-117897259D01*
X88450500Y-117810551D01*
X88450500Y-117629448D01*
X88434019Y-117525397D01*
X88422171Y-117450591D01*
X88375800Y-117307872D01*
X88366212Y-117278363D01*
X88366211Y-117278360D01*
X88336326Y-117219709D01*
X88283996Y-117117006D01*
X88264381Y-117090008D01*
X88177559Y-116970506D01*
X88177553Y-116970499D01*
X88100222Y-116893168D01*
X88939500Y-116893168D01*
X88939500Y-117090013D01*
X88970290Y-117284417D01*
X89031117Y-117471620D01*
X89111535Y-117629448D01*
X89120476Y-117646996D01*
X89236172Y-117806237D01*
X89375354Y-117945419D01*
X89534595Y-118061115D01*
X89617455Y-118103334D01*
X89709970Y-118150473D01*
X89709972Y-118150473D01*
X89709975Y-118150475D01*
X89810317Y-118183078D01*
X89897173Y-118211300D01*
X90091578Y-118242091D01*
X90091583Y-118242091D01*
X90288422Y-118242091D01*
X90482826Y-118211300D01*
X90670025Y-118150475D01*
X90845405Y-118061115D01*
X91004646Y-117945419D01*
X91143828Y-117806237D01*
X91259524Y-117646996D01*
X91348884Y-117471616D01*
X91409709Y-117284417D01*
X91419958Y-117219709D01*
X91440500Y-117090013D01*
X91440500Y-116893168D01*
X91409709Y-116698764D01*
X91348882Y-116511561D01*
X91298851Y-116413370D01*
X91259524Y-116336186D01*
X91143828Y-116176945D01*
X91004646Y-116037763D01*
X90845405Y-115922067D01*
X90799007Y-115898426D01*
X90670029Y-115832708D01*
X90482826Y-115771881D01*
X90288422Y-115741091D01*
X90288417Y-115741091D01*
X90091583Y-115741091D01*
X90091578Y-115741091D01*
X89897173Y-115771881D01*
X89709970Y-115832708D01*
X89534594Y-115922067D01*
X89443741Y-115988076D01*
X89375354Y-116037763D01*
X89375352Y-116037765D01*
X89375351Y-116037765D01*
X89236174Y-116176942D01*
X89236174Y-116176943D01*
X89236172Y-116176945D01*
X89186485Y-116245332D01*
X89120476Y-116336185D01*
X89031117Y-116511561D01*
X88970290Y-116698764D01*
X88939500Y-116893168D01*
X88100222Y-116893168D01*
X88049499Y-116842445D01*
X88049494Y-116842441D01*
X87902997Y-116736006D01*
X87902996Y-116736005D01*
X87902994Y-116736004D01*
X87829907Y-116698764D01*
X87741639Y-116653788D01*
X87741636Y-116653787D01*
X87569410Y-116597829D01*
X87409321Y-116572473D01*
X87346186Y-116542544D01*
X87309255Y-116483232D01*
X87310253Y-116413370D01*
X87348863Y-116355137D01*
X87409321Y-116327527D01*
X87479425Y-116316422D01*
X87569409Y-116302171D01*
X87741639Y-116246211D01*
X87902994Y-116163996D01*
X88049501Y-116057553D01*
X88177553Y-115929501D01*
X88283996Y-115782994D01*
X88366211Y-115621639D01*
X88422171Y-115449409D01*
X88438772Y-115344594D01*
X88450500Y-115270551D01*
X88450500Y-115089448D01*
X88431743Y-114971023D01*
X88425320Y-114930476D01*
X88422171Y-114910591D01*
X88379835Y-114780291D01*
X88366212Y-114738363D01*
X88366211Y-114738360D01*
X88326171Y-114659779D01*
X88283996Y-114577006D01*
X88240850Y-114517620D01*
X88177558Y-114430505D01*
X88177554Y-114430500D01*
X88049499Y-114302445D01*
X88049494Y-114302441D01*
X87902997Y-114196006D01*
X87902996Y-114196005D01*
X87902994Y-114196004D01*
X87851300Y-114169664D01*
X87741639Y-114113788D01*
X87741636Y-114113787D01*
X87569410Y-114057829D01*
X87409321Y-114032473D01*
X87346186Y-114002544D01*
X87309255Y-113943232D01*
X87310253Y-113873370D01*
X87348863Y-113815137D01*
X87409321Y-113787527D01*
X87479425Y-113776422D01*
X87569409Y-113762171D01*
X87741639Y-113706211D01*
X87902994Y-113623996D01*
X88049501Y-113517553D01*
X88177553Y-113389501D01*
X88283996Y-113242994D01*
X88366211Y-113081639D01*
X88422171Y-112909409D01*
X88436765Y-112817259D01*
X88450500Y-112730551D01*
X88450500Y-112549448D01*
X88434019Y-112445397D01*
X88422171Y-112370591D01*
X88394191Y-112284476D01*
X88366212Y-112198363D01*
X88366211Y-112198360D01*
X88336326Y-112139709D01*
X88283996Y-112037006D01*
X88270396Y-112018287D01*
X88177558Y-111890505D01*
X88177554Y-111890500D01*
X88049499Y-111762445D01*
X88049494Y-111762441D01*
X87902997Y-111656006D01*
X87902996Y-111656005D01*
X87902994Y-111656004D01*
X87851300Y-111629664D01*
X87741639Y-111573788D01*
X87741636Y-111573787D01*
X87569410Y-111517829D01*
X87409321Y-111492473D01*
X87346186Y-111462544D01*
X87309255Y-111403232D01*
X87310253Y-111333370D01*
X87348863Y-111275137D01*
X87409321Y-111247527D01*
X87479425Y-111236422D01*
X87569409Y-111222171D01*
X87741639Y-111166211D01*
X87902994Y-111083996D01*
X88049501Y-110977553D01*
X88177553Y-110849501D01*
X88197841Y-110821577D01*
X106749500Y-110821577D01*
X106749500Y-111018422D01*
X106780290Y-111212826D01*
X106841117Y-111400029D01*
X106929652Y-111573787D01*
X106930476Y-111575405D01*
X107046172Y-111734646D01*
X107185354Y-111873828D01*
X107344595Y-111989524D01*
X107427455Y-112031743D01*
X107519970Y-112078882D01*
X107519972Y-112078882D01*
X107519975Y-112078884D01*
X107620317Y-112111487D01*
X107707173Y-112139709D01*
X107901578Y-112170500D01*
X107901583Y-112170500D01*
X108098422Y-112170500D01*
X108292826Y-112139709D01*
X108480025Y-112078884D01*
X108655405Y-111989524D01*
X108814646Y-111873828D01*
X108953828Y-111734646D01*
X109069524Y-111575405D01*
X109158884Y-111400025D01*
X109219709Y-111212826D01*
X109227235Y-111165307D01*
X109250500Y-111018422D01*
X109250500Y-110821577D01*
X109219709Y-110627173D01*
X109191487Y-110540317D01*
X109158884Y-110439975D01*
X109158882Y-110439972D01*
X109158882Y-110439970D01*
X109111743Y-110347455D01*
X109069524Y-110264595D01*
X108953828Y-110105354D01*
X108814646Y-109966172D01*
X108655405Y-109850476D01*
X108480029Y-109761117D01*
X108292826Y-109700290D01*
X108098422Y-109669500D01*
X108098417Y-109669500D01*
X107901583Y-109669500D01*
X107901578Y-109669500D01*
X107707173Y-109700290D01*
X107519970Y-109761117D01*
X107344594Y-109850476D01*
X107253741Y-109916485D01*
X107185354Y-109966172D01*
X107185352Y-109966174D01*
X107185351Y-109966174D01*
X107046174Y-110105351D01*
X107046174Y-110105352D01*
X107046172Y-110105354D01*
X106996485Y-110173741D01*
X106930476Y-110264594D01*
X106841117Y-110439970D01*
X106780290Y-110627173D01*
X106749500Y-110821577D01*
X88197841Y-110821577D01*
X88283996Y-110702994D01*
X88366211Y-110541639D01*
X88422171Y-110369409D01*
X88438772Y-110264594D01*
X88450500Y-110190551D01*
X88450500Y-110009448D01*
X88425320Y-109850476D01*
X88422171Y-109830591D01*
X88379835Y-109700291D01*
X88366212Y-109658363D01*
X88366211Y-109658360D01*
X88337740Y-109602484D01*
X88283996Y-109497006D01*
X88270396Y-109478287D01*
X88177558Y-109350505D01*
X88177554Y-109350500D01*
X88049499Y-109222445D01*
X88049494Y-109222441D01*
X87902997Y-109116006D01*
X87902996Y-109116005D01*
X87902994Y-109116004D01*
X87851300Y-109089664D01*
X87741639Y-109033788D01*
X87741636Y-109033787D01*
X87569410Y-108977829D01*
X87409321Y-108952473D01*
X87346186Y-108922544D01*
X87309255Y-108863232D01*
X87310253Y-108793370D01*
X87348863Y-108735137D01*
X87409321Y-108707527D01*
X87479425Y-108696422D01*
X87569409Y-108682171D01*
X87741639Y-108626211D01*
X87902994Y-108543996D01*
X88049501Y-108437553D01*
X88177553Y-108309501D01*
X88283996Y-108162994D01*
X88366211Y-108001639D01*
X88422171Y-107829409D01*
X88441802Y-107705466D01*
X88450500Y-107650551D01*
X88450500Y-107469448D01*
X88434019Y-107365397D01*
X88422171Y-107290591D01*
X88391887Y-107197384D01*
X88366212Y-107118363D01*
X88366211Y-107118360D01*
X88337740Y-107062484D01*
X88283996Y-106957006D01*
X88227629Y-106879423D01*
X88177558Y-106810505D01*
X88177554Y-106810500D01*
X88049499Y-106682445D01*
X88049494Y-106682441D01*
X87902997Y-106576006D01*
X87902996Y-106576005D01*
X87902994Y-106576004D01*
X87851300Y-106549664D01*
X87741639Y-106493788D01*
X87741636Y-106493787D01*
X87569407Y-106437828D01*
X87569410Y-106437828D01*
X87567524Y-106437530D01*
X87566866Y-106437218D01*
X87564678Y-106436693D01*
X87564788Y-106436232D01*
X87504391Y-106407597D01*
X87467463Y-106348283D01*
X87468465Y-106278421D01*
X87507078Y-106220190D01*
X87567535Y-106192584D01*
X87581005Y-106190450D01*
X87760637Y-106132085D01*
X87928940Y-106046329D01*
X88036239Y-105968373D01*
X88036240Y-105968371D01*
X87531538Y-105463670D01*
X87607007Y-105420099D01*
X87700099Y-105327007D01*
X87743670Y-105251539D01*
X88248371Y-105756240D01*
X88248373Y-105756239D01*
X88326329Y-105648940D01*
X88412085Y-105480637D01*
X88470451Y-105301002D01*
X88500000Y-105114447D01*
X88500000Y-104925553D01*
X88494152Y-104888633D01*
X88494152Y-104888632D01*
X88492044Y-104875321D01*
X90149500Y-104875321D01*
X90149500Y-107124678D01*
X90164032Y-107197735D01*
X90164033Y-107197739D01*
X90164034Y-107197740D01*
X90219399Y-107280601D01*
X90302260Y-107335966D01*
X90302264Y-107335967D01*
X90375321Y-107350499D01*
X90375324Y-107350500D01*
X90375326Y-107350500D01*
X92624676Y-107350500D01*
X92624677Y-107350499D01*
X92697740Y-107335966D01*
X92780601Y-107280601D01*
X92835966Y-107197740D01*
X92850500Y-107124674D01*
X92850500Y-105889818D01*
X95100000Y-105889818D01*
X95100000Y-106110181D01*
X95134473Y-106327835D01*
X95202567Y-106537410D01*
X95302615Y-106733763D01*
X95408442Y-106879423D01*
X95408443Y-106879423D01*
X96056329Y-106231538D01*
X96099901Y-106307007D01*
X96192993Y-106400099D01*
X96268460Y-106443670D01*
X95620574Y-107091555D01*
X95620575Y-107091556D01*
X95766236Y-107197384D01*
X95962589Y-107297432D01*
X96172164Y-107365526D01*
X96389819Y-107400000D01*
X96610181Y-107400000D01*
X96827835Y-107365526D01*
X97037410Y-107297432D01*
X97233763Y-107197384D01*
X97379423Y-107091557D01*
X97379424Y-107091555D01*
X96731538Y-106443670D01*
X96807007Y-106400099D01*
X96900099Y-106307007D01*
X96943670Y-106231539D01*
X97591555Y-106879424D01*
X97591557Y-106879423D01*
X97697384Y-106733763D01*
X97797432Y-106537410D01*
X97865526Y-106327835D01*
X97900000Y-106110181D01*
X97900000Y-105889818D01*
X97865526Y-105672164D01*
X97797432Y-105462589D01*
X97697384Y-105266236D01*
X97591556Y-105120575D01*
X97591555Y-105120574D01*
X96943670Y-105768460D01*
X96900099Y-105692993D01*
X96807007Y-105599901D01*
X96731538Y-105556329D01*
X97379423Y-104908443D01*
X97379423Y-104908442D01*
X97233763Y-104802615D01*
X97037410Y-104702567D01*
X96827835Y-104634473D01*
X96610181Y-104600000D01*
X96389819Y-104600000D01*
X96172164Y-104634473D01*
X95962589Y-104702567D01*
X95766243Y-104802611D01*
X95620575Y-104908443D01*
X96268461Y-105556329D01*
X96192993Y-105599901D01*
X96099901Y-105692993D01*
X96056329Y-105768461D01*
X95408443Y-105120575D01*
X95302611Y-105266243D01*
X95202567Y-105462589D01*
X95134473Y-105672164D01*
X95100000Y-105889818D01*
X92850500Y-105889818D01*
X92850500Y-104875326D01*
X92850500Y-104875323D01*
X92850499Y-104875321D01*
X92835967Y-104802264D01*
X92835966Y-104802260D01*
X92801441Y-104750589D01*
X92780601Y-104719399D01*
X92697740Y-104664034D01*
X92697739Y-104664033D01*
X92697735Y-104664032D01*
X92624677Y-104649500D01*
X92624674Y-104649500D01*
X90375326Y-104649500D01*
X90375323Y-104649500D01*
X90302264Y-104664032D01*
X90302260Y-104664033D01*
X90219399Y-104719399D01*
X90164033Y-104802260D01*
X90164032Y-104802264D01*
X90149500Y-104875321D01*
X88492044Y-104875321D01*
X88470451Y-104738997D01*
X88412085Y-104559362D01*
X88326333Y-104391066D01*
X88248371Y-104283759D01*
X88248370Y-104283759D01*
X87743670Y-104788460D01*
X87700099Y-104712993D01*
X87607007Y-104619901D01*
X87531538Y-104576329D01*
X88036239Y-104071627D01*
X87928933Y-103993666D01*
X87798479Y-103927196D01*
X87760637Y-103907914D01*
X87581004Y-103849548D01*
X87567528Y-103847414D01*
X87513030Y-103821577D01*
X102749500Y-103821577D01*
X102749500Y-104018422D01*
X102780290Y-104212826D01*
X102841117Y-104400029D01*
X102902246Y-104520000D01*
X102930476Y-104575405D01*
X103046172Y-104734646D01*
X103185354Y-104873828D01*
X103344595Y-104989524D01*
X103404406Y-105019999D01*
X103519970Y-105078882D01*
X103519972Y-105078882D01*
X103519975Y-105078884D01*
X103617420Y-105110546D01*
X103707173Y-105139709D01*
X103901578Y-105170500D01*
X103901583Y-105170500D01*
X104098422Y-105170500D01*
X104292826Y-105139709D01*
X104480025Y-105078884D01*
X104655405Y-104989524D01*
X104814646Y-104873828D01*
X104953828Y-104734646D01*
X105069524Y-104575405D01*
X105158884Y-104400025D01*
X105219709Y-104212826D01*
X105250500Y-104018422D01*
X105250500Y-103821577D01*
X105219709Y-103627173D01*
X105166688Y-103463993D01*
X105158884Y-103439975D01*
X105158882Y-103439972D01*
X105158882Y-103439970D01*
X105069523Y-103264594D01*
X105052075Y-103240579D01*
X104953828Y-103105354D01*
X104814646Y-102966172D01*
X104655405Y-102850476D01*
X104480029Y-102761117D01*
X104292826Y-102700290D01*
X104098422Y-102669500D01*
X104098417Y-102669500D01*
X103901583Y-102669500D01*
X103901578Y-102669500D01*
X103707173Y-102700290D01*
X103519970Y-102761117D01*
X103344594Y-102850476D01*
X103253741Y-102916485D01*
X103185354Y-102966172D01*
X103185352Y-102966174D01*
X103185351Y-102966174D01*
X103046174Y-103105351D01*
X103046174Y-103105352D01*
X103046172Y-103105354D01*
X102996485Y-103173741D01*
X102930476Y-103264594D01*
X102841117Y-103439970D01*
X102780290Y-103627173D01*
X102749500Y-103821577D01*
X87513030Y-103821577D01*
X87504394Y-103817483D01*
X87467464Y-103758171D01*
X87468464Y-103688308D01*
X87507075Y-103630076D01*
X87564778Y-103603727D01*
X87564678Y-103603307D01*
X87566832Y-103602789D01*
X87567539Y-103602467D01*
X87569409Y-103602171D01*
X87741639Y-103546211D01*
X87902994Y-103463996D01*
X88049501Y-103357553D01*
X88177553Y-103229501D01*
X88283996Y-103082994D01*
X88366211Y-102921639D01*
X88422171Y-102749409D01*
X88436765Y-102657259D01*
X88450500Y-102570551D01*
X88450500Y-102389448D01*
X88433259Y-102280600D01*
X88422171Y-102210591D01*
X88383495Y-102091556D01*
X88366212Y-102038363D01*
X88366211Y-102038360D01*
X88314700Y-101937266D01*
X88288496Y-101885837D01*
X94549500Y-101885837D01*
X94549500Y-102114162D01*
X94585215Y-102339660D01*
X94655770Y-102556803D01*
X94753908Y-102749409D01*
X94759421Y-102760228D01*
X94893621Y-102944937D01*
X95055063Y-103106379D01*
X95239772Y-103240579D01*
X95335884Y-103289550D01*
X95443196Y-103344229D01*
X95443198Y-103344229D01*
X95443201Y-103344231D01*
X95559592Y-103382049D01*
X95660339Y-103414784D01*
X95885838Y-103450500D01*
X95885843Y-103450500D01*
X96114162Y-103450500D01*
X96339660Y-103414784D01*
X96556799Y-103344231D01*
X96760228Y-103240579D01*
X96944937Y-103106379D01*
X97106379Y-102944937D01*
X97240579Y-102760228D01*
X97344231Y-102556799D01*
X97414784Y-102339660D01*
X97424138Y-102280600D01*
X97450500Y-102114162D01*
X97450500Y-101885837D01*
X97414784Y-101660339D01*
X97361388Y-101496004D01*
X97344231Y-101443201D01*
X97344229Y-101443198D01*
X97344229Y-101443196D01*
X97246045Y-101250500D01*
X97240579Y-101239772D01*
X97106379Y-101055063D01*
X96944937Y-100893621D01*
X96760228Y-100759421D01*
X96556803Y-100655770D01*
X96339660Y-100585215D01*
X96114162Y-100549500D01*
X96114157Y-100549500D01*
X95885843Y-100549500D01*
X95885838Y-100549500D01*
X95660339Y-100585215D01*
X95443196Y-100655770D01*
X95239771Y-100759421D01*
X95055061Y-100893622D01*
X94893622Y-101055061D01*
X94759421Y-101239771D01*
X94655770Y-101443196D01*
X94585215Y-101660339D01*
X94549500Y-101885837D01*
X88288496Y-101885837D01*
X88283996Y-101877006D01*
X88221470Y-101790946D01*
X88177558Y-101730505D01*
X88177554Y-101730500D01*
X88049499Y-101602445D01*
X88049494Y-101602441D01*
X87902997Y-101496006D01*
X87902996Y-101496005D01*
X87902994Y-101496004D01*
X87843961Y-101465925D01*
X87741639Y-101413788D01*
X87741636Y-101413787D01*
X87569410Y-101357829D01*
X87409321Y-101332473D01*
X87346186Y-101302544D01*
X87309255Y-101243232D01*
X87310253Y-101173370D01*
X87348863Y-101115137D01*
X87409321Y-101087527D01*
X87479425Y-101076422D01*
X87569409Y-101062171D01*
X87741639Y-101006211D01*
X87902994Y-100923996D01*
X88049501Y-100817553D01*
X88177553Y-100689501D01*
X88283996Y-100542994D01*
X88366211Y-100381639D01*
X88422171Y-100209409D01*
X88438313Y-100107491D01*
X88450500Y-100030551D01*
X88450500Y-99875321D01*
X99379500Y-99875321D01*
X99379500Y-102124678D01*
X99394032Y-102197735D01*
X99394033Y-102197739D01*
X99412405Y-102225235D01*
X99449399Y-102280601D01*
X99532260Y-102335966D01*
X99532264Y-102335967D01*
X99605321Y-102350499D01*
X99605324Y-102350500D01*
X99605326Y-102350500D01*
X101854676Y-102350500D01*
X101854677Y-102350499D01*
X101927740Y-102335966D01*
X102010601Y-102280601D01*
X102065966Y-102197740D01*
X102080500Y-102124674D01*
X102080500Y-102005858D01*
X102100185Y-101938819D01*
X102152989Y-101893064D01*
X102167339Y-101890527D01*
X102826329Y-101231538D01*
X102869901Y-101307007D01*
X102962993Y-101400099D01*
X103038460Y-101443670D01*
X102390574Y-102091555D01*
X102390575Y-102091556D01*
X102536236Y-102197384D01*
X102732589Y-102297432D01*
X102942164Y-102365526D01*
X103159819Y-102400000D01*
X103380181Y-102400000D01*
X103597835Y-102365526D01*
X103807410Y-102297432D01*
X104003763Y-102197384D01*
X104149423Y-102091557D01*
X104149424Y-102091555D01*
X103501538Y-101443670D01*
X103577007Y-101400099D01*
X103670099Y-101307007D01*
X103713670Y-101231539D01*
X104361555Y-101879424D01*
X104361557Y-101879423D01*
X104467384Y-101733763D01*
X104567432Y-101537410D01*
X104635526Y-101327835D01*
X104670000Y-101110181D01*
X104670000Y-100889818D01*
X104635526Y-100672164D01*
X104567432Y-100462589D01*
X104467384Y-100266236D01*
X104361556Y-100120575D01*
X104361555Y-100120574D01*
X103713670Y-100768460D01*
X103670099Y-100692993D01*
X103577007Y-100599901D01*
X103501538Y-100556329D01*
X104149423Y-99908443D01*
X104149423Y-99908442D01*
X104003763Y-99802615D01*
X103807410Y-99702567D01*
X103597835Y-99634473D01*
X103380181Y-99600000D01*
X103159819Y-99600000D01*
X102942164Y-99634473D01*
X102732589Y-99702567D01*
X102536243Y-99802611D01*
X102390575Y-99908443D01*
X103038461Y-100556329D01*
X102962993Y-100599901D01*
X102869901Y-100692993D01*
X102826329Y-100768461D01*
X102165359Y-100107491D01*
X102145848Y-100103392D01*
X102135945Y-100093629D01*
X102123297Y-100087853D01*
X102111556Y-100069584D01*
X102096093Y-100054339D01*
X102092267Y-100039569D01*
X102085523Y-100029075D01*
X102080500Y-99994140D01*
X102080500Y-99875323D01*
X102080499Y-99875321D01*
X102065967Y-99802264D01*
X102065966Y-99802260D01*
X102010601Y-99719399D01*
X101955235Y-99682405D01*
X101927739Y-99664033D01*
X101927735Y-99664032D01*
X101854677Y-99649500D01*
X101854674Y-99649500D01*
X99605326Y-99649500D01*
X99605323Y-99649500D01*
X99532264Y-99664032D01*
X99532260Y-99664033D01*
X99449399Y-99719399D01*
X99394033Y-99802260D01*
X99394032Y-99802264D01*
X99379500Y-99875321D01*
X88450500Y-99875321D01*
X88450500Y-99849448D01*
X88427235Y-99702567D01*
X88422171Y-99670591D01*
X88366211Y-99498361D01*
X88366211Y-99498360D01*
X88317522Y-99402805D01*
X88283996Y-99337006D01*
X88270396Y-99318287D01*
X88177558Y-99190505D01*
X88177554Y-99190500D01*
X88049499Y-99062445D01*
X88049494Y-99062441D01*
X87902997Y-98956006D01*
X87902996Y-98956005D01*
X87902994Y-98956004D01*
X87851300Y-98929664D01*
X87741639Y-98873788D01*
X87741636Y-98873787D01*
X87569410Y-98817829D01*
X87409321Y-98792473D01*
X87346186Y-98762544D01*
X87309255Y-98703232D01*
X87310253Y-98633370D01*
X87348863Y-98575137D01*
X87409321Y-98547527D01*
X87479425Y-98536422D01*
X87569409Y-98522171D01*
X87741639Y-98466211D01*
X87902994Y-98383996D01*
X88049501Y-98277553D01*
X88177553Y-98149501D01*
X88283996Y-98002994D01*
X88366211Y-97841639D01*
X88422171Y-97669409D01*
X88436765Y-97577259D01*
X88450500Y-97490551D01*
X88450500Y-97309448D01*
X88434019Y-97205397D01*
X88422171Y-97130591D01*
X88366211Y-96958361D01*
X88366211Y-96958360D01*
X88337740Y-96902484D01*
X88283996Y-96797006D01*
X88270396Y-96778287D01*
X88177558Y-96650505D01*
X88177554Y-96650500D01*
X88049499Y-96522445D01*
X88049494Y-96522441D01*
X87902997Y-96416006D01*
X87902996Y-96416005D01*
X87902994Y-96416004D01*
X87851300Y-96389664D01*
X87741639Y-96333788D01*
X87741636Y-96333787D01*
X87569410Y-96277829D01*
X87409321Y-96252473D01*
X87346186Y-96222544D01*
X87309255Y-96163232D01*
X87310253Y-96093370D01*
X87348863Y-96035137D01*
X87409321Y-96007527D01*
X87479425Y-95996422D01*
X87569409Y-95982171D01*
X87741639Y-95926211D01*
X87902994Y-95843996D01*
X88049501Y-95737553D01*
X88177553Y-95609501D01*
X88283996Y-95462994D01*
X88366211Y-95301639D01*
X88422171Y-95129409D01*
X88436765Y-95037259D01*
X88450500Y-94950551D01*
X88450500Y-94885837D01*
X92549500Y-94885837D01*
X92549500Y-95114162D01*
X92585215Y-95339660D01*
X92655770Y-95556803D01*
X92747868Y-95737554D01*
X92759421Y-95760228D01*
X92893621Y-95944937D01*
X93055063Y-96106379D01*
X93239772Y-96240579D01*
X93322859Y-96282914D01*
X93443196Y-96344229D01*
X93443198Y-96344229D01*
X93443201Y-96344231D01*
X93559592Y-96382049D01*
X93660339Y-96414784D01*
X93885838Y-96450500D01*
X93885843Y-96450500D01*
X94114162Y-96450500D01*
X94339660Y-96414784D01*
X94556799Y-96344231D01*
X94760228Y-96240579D01*
X94944937Y-96106379D01*
X95106379Y-95944937D01*
X95240579Y-95760228D01*
X95344231Y-95556799D01*
X95414784Y-95339660D01*
X95420806Y-95301639D01*
X95450500Y-95114162D01*
X95450500Y-94885840D01*
X95450499Y-94885834D01*
X95449883Y-94881947D01*
X104500000Y-94881947D01*
X104500000Y-95118052D01*
X104536934Y-95351247D01*
X104609897Y-95575802D01*
X104717087Y-95786175D01*
X104836850Y-95951015D01*
X104836851Y-95951016D01*
X105556329Y-95231538D01*
X105599901Y-95307007D01*
X105692993Y-95400099D01*
X105768460Y-95443670D01*
X105048982Y-96163147D01*
X105048983Y-96163148D01*
X105213825Y-96282912D01*
X105424197Y-96390102D01*
X105648752Y-96463065D01*
X105648751Y-96463065D01*
X105881948Y-96500000D01*
X106118052Y-96500000D01*
X106351247Y-96463065D01*
X106575802Y-96390102D01*
X106786171Y-96282914D01*
X106951015Y-96163147D01*
X106951016Y-96163147D01*
X106231538Y-95443670D01*
X106307007Y-95400099D01*
X106400099Y-95307007D01*
X106443670Y-95231538D01*
X107163147Y-95951016D01*
X107163147Y-95951015D01*
X107282914Y-95786171D01*
X107390102Y-95575802D01*
X107463065Y-95351247D01*
X107500000Y-95118052D01*
X107500000Y-94881947D01*
X107463065Y-94648752D01*
X107390102Y-94424197D01*
X107282912Y-94213825D01*
X107163148Y-94048983D01*
X107163147Y-94048982D01*
X106443670Y-94768460D01*
X106400099Y-94692993D01*
X106307007Y-94599901D01*
X106231538Y-94556329D01*
X106951016Y-93836851D01*
X106951015Y-93836850D01*
X106786175Y-93717087D01*
X106575802Y-93609897D01*
X106351247Y-93536934D01*
X106351248Y-93536934D01*
X106118052Y-93500000D01*
X105881948Y-93500000D01*
X105648752Y-93536934D01*
X105424197Y-93609897D01*
X105213830Y-93717084D01*
X105048983Y-93836851D01*
X105768461Y-94556329D01*
X105692993Y-94599901D01*
X105599901Y-94692993D01*
X105556329Y-94768461D01*
X104836851Y-94048983D01*
X104717084Y-94213830D01*
X104609897Y-94424197D01*
X104536934Y-94648752D01*
X104500000Y-94881947D01*
X95449883Y-94881947D01*
X95414784Y-94660339D01*
X95344229Y-94443196D01*
X95240578Y-94239771D01*
X95146660Y-94110505D01*
X95106379Y-94055063D01*
X94944937Y-93893621D01*
X94760228Y-93759421D01*
X94556803Y-93655770D01*
X94339660Y-93585215D01*
X94114162Y-93549500D01*
X94114157Y-93549500D01*
X93885843Y-93549500D01*
X93885838Y-93549500D01*
X93660339Y-93585215D01*
X93443196Y-93655770D01*
X93239771Y-93759421D01*
X93055061Y-93893622D01*
X92893622Y-94055061D01*
X92759421Y-94239771D01*
X92655770Y-94443196D01*
X92585215Y-94660339D01*
X92549500Y-94885837D01*
X88450500Y-94885837D01*
X88450500Y-94769448D01*
X88430695Y-94644411D01*
X88422171Y-94590591D01*
X88374280Y-94443196D01*
X88366212Y-94418363D01*
X88366211Y-94418360D01*
X88337740Y-94362484D01*
X88283996Y-94257006D01*
X88252623Y-94213825D01*
X88177558Y-94110505D01*
X88177554Y-94110500D01*
X88049499Y-93982445D01*
X88049494Y-93982441D01*
X87902997Y-93876006D01*
X87902996Y-93876005D01*
X87902994Y-93876004D01*
X87851300Y-93849664D01*
X87741639Y-93793788D01*
X87741636Y-93793787D01*
X87569410Y-93737829D01*
X87409321Y-93712473D01*
X87346186Y-93682544D01*
X87309255Y-93623232D01*
X87310253Y-93553370D01*
X87348863Y-93495137D01*
X87409321Y-93467527D01*
X87479425Y-93456422D01*
X87569409Y-93442171D01*
X87741639Y-93386211D01*
X87902994Y-93303996D01*
X88049501Y-93197553D01*
X88177553Y-93069501D01*
X88283996Y-92922994D01*
X88366211Y-92761639D01*
X88422171Y-92589409D01*
X88436765Y-92497259D01*
X88450500Y-92410551D01*
X88450500Y-92229448D01*
X88434019Y-92125397D01*
X88422171Y-92050591D01*
X88366211Y-91878361D01*
X88366211Y-91878360D01*
X88337740Y-91822484D01*
X88283996Y-91717006D01*
X88189335Y-91586715D01*
X88177558Y-91570505D01*
X88177554Y-91570500D01*
X88049499Y-91442445D01*
X88049494Y-91442441D01*
X87902997Y-91336006D01*
X87902996Y-91336005D01*
X87902994Y-91336004D01*
X87851300Y-91309664D01*
X87741639Y-91253788D01*
X87741636Y-91253787D01*
X87569410Y-91197829D01*
X87409321Y-91172473D01*
X87346186Y-91142544D01*
X87309255Y-91083232D01*
X87310253Y-91013370D01*
X87348863Y-90955137D01*
X87409321Y-90927527D01*
X87479425Y-90916422D01*
X87569409Y-90902171D01*
X87741639Y-90846211D01*
X87902994Y-90763996D01*
X88049501Y-90657553D01*
X88177553Y-90529501D01*
X88283996Y-90382994D01*
X88366211Y-90221639D01*
X88422171Y-90049409D01*
X88446283Y-89897173D01*
X88450500Y-89870551D01*
X88450500Y-89689448D01*
X88434019Y-89585397D01*
X88422171Y-89510591D01*
X88366211Y-89338361D01*
X88366211Y-89338360D01*
X88337740Y-89282484D01*
X88283996Y-89177006D01*
X88242925Y-89120476D01*
X88177558Y-89030505D01*
X88177554Y-89030500D01*
X88049499Y-88902445D01*
X88049494Y-88902441D01*
X87902997Y-88796006D01*
X87902996Y-88796005D01*
X87902994Y-88796004D01*
X87851300Y-88769664D01*
X87741639Y-88713788D01*
X87741636Y-88713787D01*
X87569410Y-88657829D01*
X87409321Y-88632473D01*
X87346186Y-88602544D01*
X87309255Y-88543232D01*
X87310253Y-88473370D01*
X87348863Y-88415137D01*
X87409321Y-88387527D01*
X87479425Y-88376422D01*
X87569409Y-88362171D01*
X87741639Y-88306211D01*
X87902994Y-88223996D01*
X88049501Y-88117553D01*
X88177553Y-87989501D01*
X88283996Y-87842994D01*
X88366211Y-87681639D01*
X88422171Y-87509409D01*
X88436765Y-87417259D01*
X88450500Y-87330551D01*
X88450500Y-87149448D01*
X88434019Y-87045397D01*
X88422171Y-86970591D01*
X88366211Y-86798361D01*
X88366211Y-86798360D01*
X88337740Y-86742484D01*
X88283996Y-86637006D01*
X88246831Y-86585852D01*
X88177558Y-86490505D01*
X88177554Y-86490500D01*
X88049499Y-86362445D01*
X88049494Y-86362441D01*
X87902997Y-86256006D01*
X87902996Y-86256005D01*
X87902994Y-86256004D01*
X87824724Y-86216123D01*
X87741639Y-86173788D01*
X87741636Y-86173787D01*
X87569410Y-86117829D01*
X87409321Y-86092473D01*
X87346186Y-86062544D01*
X87309255Y-86003232D01*
X87310253Y-85933370D01*
X87348863Y-85875137D01*
X87409321Y-85847527D01*
X87479425Y-85836422D01*
X87569409Y-85822171D01*
X87741639Y-85766211D01*
X87902994Y-85683996D01*
X88049501Y-85577553D01*
X88177553Y-85449501D01*
X88283996Y-85302994D01*
X88366211Y-85141639D01*
X88422171Y-84969409D01*
X88436765Y-84877259D01*
X88450500Y-84790551D01*
X88450500Y-84609448D01*
X88425005Y-84448485D01*
X88422171Y-84430591D01*
X88366211Y-84258361D01*
X88366211Y-84258360D01*
X88319808Y-84167291D01*
X88283996Y-84097006D01*
X88187597Y-83964323D01*
X88177558Y-83950505D01*
X88177554Y-83950500D01*
X88049499Y-83822445D01*
X88049494Y-83822441D01*
X87902997Y-83716006D01*
X87902996Y-83716005D01*
X87902994Y-83716004D01*
X87851300Y-83689664D01*
X87741639Y-83633788D01*
X87741636Y-83633787D01*
X87569410Y-83577829D01*
X87409321Y-83552473D01*
X87346186Y-83522544D01*
X87309255Y-83463232D01*
X87310253Y-83393370D01*
X87348863Y-83335137D01*
X87409321Y-83307527D01*
X87479425Y-83296422D01*
X87569409Y-83282171D01*
X87741639Y-83226211D01*
X87902994Y-83143996D01*
X88049501Y-83037553D01*
X88177068Y-82909986D01*
X88939500Y-82909986D01*
X88939500Y-83106831D01*
X88970290Y-83301235D01*
X89031117Y-83488438D01*
X89120476Y-83663814D01*
X89236172Y-83823055D01*
X89375354Y-83962237D01*
X89534595Y-84077933D01*
X89617455Y-84120152D01*
X89709970Y-84167291D01*
X89709972Y-84167291D01*
X89709975Y-84167293D01*
X89810317Y-84199896D01*
X89897173Y-84228118D01*
X90091578Y-84258909D01*
X90091583Y-84258909D01*
X90288422Y-84258909D01*
X90482826Y-84228118D01*
X90670025Y-84167293D01*
X90845405Y-84077933D01*
X91004646Y-83962237D01*
X91143828Y-83823055D01*
X91259524Y-83663814D01*
X91348884Y-83488434D01*
X91409709Y-83301235D01*
X91412729Y-83282170D01*
X91440500Y-83106831D01*
X91440500Y-82909986D01*
X108559500Y-82909986D01*
X108559500Y-83106831D01*
X108590290Y-83301235D01*
X108651117Y-83488438D01*
X108740476Y-83663814D01*
X108856172Y-83823055D01*
X108995354Y-83962237D01*
X109154595Y-84077933D01*
X109237455Y-84120152D01*
X109329970Y-84167291D01*
X109329972Y-84167291D01*
X109329975Y-84167293D01*
X109430317Y-84199896D01*
X109517173Y-84228118D01*
X109711578Y-84258909D01*
X109711583Y-84258909D01*
X109908422Y-84258909D01*
X110102826Y-84228118D01*
X110290025Y-84167293D01*
X110465405Y-84077933D01*
X110624646Y-83962237D01*
X110763828Y-83823055D01*
X110879524Y-83663814D01*
X110968884Y-83488434D01*
X111029709Y-83301235D01*
X111032729Y-83282170D01*
X111060500Y-83106831D01*
X111060500Y-82909986D01*
X111029709Y-82715582D01*
X110968882Y-82528379D01*
X110879523Y-82353003D01*
X110763828Y-82193763D01*
X110624646Y-82054581D01*
X110465405Y-81938885D01*
X110290029Y-81849526D01*
X110102826Y-81788699D01*
X109908422Y-81757909D01*
X109908417Y-81757909D01*
X109711583Y-81757909D01*
X109711578Y-81757909D01*
X109517173Y-81788699D01*
X109329970Y-81849526D01*
X109154594Y-81938885D01*
X109063741Y-82004894D01*
X108995354Y-82054581D01*
X108995352Y-82054583D01*
X108995351Y-82054583D01*
X108856174Y-82193760D01*
X108856174Y-82193761D01*
X108856172Y-82193763D01*
X108814917Y-82250546D01*
X108740476Y-82353003D01*
X108651117Y-82528379D01*
X108590290Y-82715582D01*
X108559500Y-82909986D01*
X91440500Y-82909986D01*
X91409709Y-82715582D01*
X91348882Y-82528379D01*
X91259523Y-82353003D01*
X91143828Y-82193763D01*
X91004646Y-82054581D01*
X90845405Y-81938885D01*
X90670029Y-81849526D01*
X90482826Y-81788699D01*
X90288422Y-81757909D01*
X90288417Y-81757909D01*
X90091583Y-81757909D01*
X90091578Y-81757909D01*
X89897173Y-81788699D01*
X89709970Y-81849526D01*
X89534594Y-81938885D01*
X89443741Y-82004894D01*
X89375354Y-82054581D01*
X89375352Y-82054583D01*
X89375351Y-82054583D01*
X89236174Y-82193760D01*
X89236174Y-82193761D01*
X89236172Y-82193763D01*
X89194917Y-82250546D01*
X89120476Y-82353003D01*
X89031117Y-82528379D01*
X88970290Y-82715582D01*
X88939500Y-82909986D01*
X88177068Y-82909986D01*
X88177553Y-82909501D01*
X88222844Y-82847163D01*
X88233688Y-82832238D01*
X88233690Y-82832235D01*
X88247083Y-82813800D01*
X88283996Y-82762994D01*
X88366211Y-82601639D01*
X88422171Y-82429409D01*
X88436765Y-82337259D01*
X88450500Y-82250551D01*
X88450500Y-82069448D01*
X88429820Y-81938885D01*
X88422171Y-81890591D01*
X88366211Y-81718361D01*
X88366211Y-81718360D01*
X88283991Y-81556997D01*
X88281450Y-81552850D01*
X88283267Y-81551736D01*
X88262770Y-81494323D01*
X88278582Y-81426266D01*
X88322813Y-81380865D01*
X89623785Y-80601125D01*
X89634502Y-80595398D01*
X90298184Y-80281577D01*
X98749500Y-80281577D01*
X98749500Y-80478422D01*
X98780290Y-80672826D01*
X98841117Y-80860029D01*
X98917277Y-81009500D01*
X98930476Y-81035405D01*
X99046172Y-81194646D01*
X99185354Y-81333828D01*
X99344595Y-81449524D01*
X99427455Y-81491743D01*
X99519970Y-81538882D01*
X99519972Y-81538882D01*
X99519975Y-81538884D01*
X99620317Y-81571487D01*
X99707173Y-81599709D01*
X99901578Y-81630500D01*
X99901583Y-81630500D01*
X100098422Y-81630500D01*
X100292826Y-81599709D01*
X100480025Y-81538884D01*
X100655405Y-81449524D01*
X100814646Y-81333828D01*
X100953828Y-81194646D01*
X101069524Y-81035405D01*
X101158884Y-80860025D01*
X101219709Y-80672826D01*
X101250500Y-80478422D01*
X101250500Y-80281577D01*
X101219709Y-80087173D01*
X101158882Y-79899970D01*
X101069523Y-79724594D01*
X100953828Y-79565354D01*
X100814646Y-79426172D01*
X100655405Y-79310476D01*
X100480029Y-79221117D01*
X100292826Y-79160290D01*
X100098422Y-79129500D01*
X100098417Y-79129500D01*
X99901583Y-79129500D01*
X99901578Y-79129500D01*
X99707173Y-79160290D01*
X99519970Y-79221117D01*
X99344594Y-79310476D01*
X99253741Y-79376485D01*
X99185354Y-79426172D01*
X99185352Y-79426174D01*
X99185351Y-79426174D01*
X99046174Y-79565351D01*
X99046174Y-79565352D01*
X99046172Y-79565354D01*
X98996485Y-79633741D01*
X98930476Y-79724594D01*
X98841117Y-79899970D01*
X98780290Y-80087173D01*
X98749500Y-80281577D01*
X90298184Y-80281577D01*
X91575521Y-79677590D01*
X91586705Y-79672956D01*
X93608249Y-78949059D01*
X93619929Y-78945516D01*
X95702108Y-78424474D01*
X95714000Y-78422109D01*
X97837988Y-78106892D01*
X97850086Y-78105700D01*
X99993918Y-78000299D01*
X100006082Y-78000299D01*
X102149911Y-78105700D01*
G37*
%TD.AperFunction*%
%TA.AperFunction,Conductor*%
G36*
X86362673Y-82847163D02*
G01*
X86403080Y-82882845D01*
X86422443Y-82909497D01*
X86550500Y-83037554D01*
X86550505Y-83037558D01*
X86645852Y-83106831D01*
X86697006Y-83143996D01*
X86802484Y-83197740D01*
X86858360Y-83226211D01*
X86858363Y-83226212D01*
X86944476Y-83254191D01*
X87030591Y-83282171D01*
X87103639Y-83293740D01*
X87190678Y-83307527D01*
X87253813Y-83337456D01*
X87290744Y-83396768D01*
X87289746Y-83466631D01*
X87251136Y-83524863D01*
X87190678Y-83552473D01*
X87030589Y-83577829D01*
X86858363Y-83633787D01*
X86858360Y-83633788D01*
X86697002Y-83716006D01*
X86550505Y-83822441D01*
X86550500Y-83822445D01*
X86422445Y-83950500D01*
X86422441Y-83950505D01*
X86316006Y-84097002D01*
X86233788Y-84258360D01*
X86233787Y-84258363D01*
X86177829Y-84430589D01*
X86149500Y-84609448D01*
X86149500Y-84790551D01*
X86177829Y-84969410D01*
X86233787Y-85141636D01*
X86233788Y-85141639D01*
X86316006Y-85302997D01*
X86422441Y-85449494D01*
X86422445Y-85449499D01*
X86550500Y-85577554D01*
X86550505Y-85577558D01*
X86678287Y-85670396D01*
X86697006Y-85683996D01*
X86802484Y-85737740D01*
X86858360Y-85766211D01*
X86858363Y-85766212D01*
X86944476Y-85794191D01*
X87030591Y-85822171D01*
X87103639Y-85833740D01*
X87190678Y-85847527D01*
X87253813Y-85877456D01*
X87290744Y-85936768D01*
X87289746Y-86006631D01*
X87251136Y-86064863D01*
X87190678Y-86092473D01*
X87030589Y-86117829D01*
X86858363Y-86173787D01*
X86858360Y-86173788D01*
X86697002Y-86256006D01*
X86550505Y-86362441D01*
X86550500Y-86362445D01*
X86422445Y-86490500D01*
X86422441Y-86490505D01*
X86316006Y-86637002D01*
X86233788Y-86798360D01*
X86233787Y-86798363D01*
X86177829Y-86970589D01*
X86149500Y-87149448D01*
X86149500Y-87330551D01*
X86177829Y-87509410D01*
X86233787Y-87681636D01*
X86233788Y-87681639D01*
X86316006Y-87842997D01*
X86422441Y-87989494D01*
X86422445Y-87989499D01*
X86550500Y-88117554D01*
X86550505Y-88117558D01*
X86678287Y-88210396D01*
X86697006Y-88223996D01*
X86802484Y-88277740D01*
X86858360Y-88306211D01*
X86858363Y-88306212D01*
X86944476Y-88334191D01*
X87030591Y-88362171D01*
X87103639Y-88373740D01*
X87190678Y-88387527D01*
X87253813Y-88417456D01*
X87290744Y-88476768D01*
X87289746Y-88546631D01*
X87251136Y-88604863D01*
X87190678Y-88632473D01*
X87030589Y-88657829D01*
X86858363Y-88713787D01*
X86858360Y-88713788D01*
X86697002Y-88796006D01*
X86550505Y-88902441D01*
X86550500Y-88902445D01*
X86422445Y-89030500D01*
X86422441Y-89030505D01*
X86316006Y-89177002D01*
X86233788Y-89338360D01*
X86233787Y-89338363D01*
X86177829Y-89510589D01*
X86149500Y-89689448D01*
X86149500Y-89870551D01*
X86177829Y-90049410D01*
X86233787Y-90221636D01*
X86233788Y-90221639D01*
X86316006Y-90382997D01*
X86422441Y-90529494D01*
X86422445Y-90529499D01*
X86550500Y-90657554D01*
X86550505Y-90657558D01*
X86678287Y-90750396D01*
X86697006Y-90763996D01*
X86802484Y-90817740D01*
X86858360Y-90846211D01*
X86858363Y-90846212D01*
X86944476Y-90874191D01*
X87030591Y-90902171D01*
X87103639Y-90913740D01*
X87190678Y-90927527D01*
X87253813Y-90957456D01*
X87290744Y-91016768D01*
X87289746Y-91086631D01*
X87251136Y-91144863D01*
X87190678Y-91172473D01*
X87030589Y-91197829D01*
X86858363Y-91253787D01*
X86858360Y-91253788D01*
X86697002Y-91336006D01*
X86550505Y-91442441D01*
X86550500Y-91442445D01*
X86422445Y-91570500D01*
X86422441Y-91570505D01*
X86316006Y-91717002D01*
X86233788Y-91878360D01*
X86233787Y-91878363D01*
X86177829Y-92050589D01*
X86149500Y-92229448D01*
X86149500Y-92410551D01*
X86177829Y-92589410D01*
X86233787Y-92761636D01*
X86233788Y-92761639D01*
X86316006Y-92922997D01*
X86422441Y-93069494D01*
X86422445Y-93069499D01*
X86550500Y-93197554D01*
X86550505Y-93197558D01*
X86672070Y-93285879D01*
X86697006Y-93303996D01*
X86802484Y-93357740D01*
X86858360Y-93386211D01*
X86858363Y-93386212D01*
X86944476Y-93414191D01*
X87030591Y-93442171D01*
X87103639Y-93453740D01*
X87190678Y-93467527D01*
X87253813Y-93497456D01*
X87290744Y-93556768D01*
X87289746Y-93626631D01*
X87251136Y-93684863D01*
X87190678Y-93712473D01*
X87030589Y-93737829D01*
X86858363Y-93793787D01*
X86858360Y-93793788D01*
X86697002Y-93876006D01*
X86550505Y-93982441D01*
X86550500Y-93982445D01*
X86422445Y-94110500D01*
X86422441Y-94110505D01*
X86316006Y-94257002D01*
X86233788Y-94418360D01*
X86233787Y-94418363D01*
X86177829Y-94590589D01*
X86149500Y-94769448D01*
X86149500Y-94950551D01*
X86177829Y-95129410D01*
X86233787Y-95301636D01*
X86233788Y-95301639D01*
X86316006Y-95462997D01*
X86422441Y-95609494D01*
X86422445Y-95609499D01*
X86550500Y-95737554D01*
X86550505Y-95737558D01*
X86675792Y-95828583D01*
X86697006Y-95843996D01*
X86802484Y-95897740D01*
X86858360Y-95926211D01*
X86858363Y-95926212D01*
X86934701Y-95951015D01*
X87030591Y-95982171D01*
X87103639Y-95993740D01*
X87190678Y-96007527D01*
X87253813Y-96037456D01*
X87290744Y-96096768D01*
X87289746Y-96166631D01*
X87251136Y-96224863D01*
X87190678Y-96252473D01*
X87030589Y-96277829D01*
X86858363Y-96333787D01*
X86858360Y-96333788D01*
X86697002Y-96416006D01*
X86550505Y-96522441D01*
X86550500Y-96522445D01*
X86422445Y-96650500D01*
X86422441Y-96650505D01*
X86316006Y-96797002D01*
X86233788Y-96958360D01*
X86233787Y-96958363D01*
X86177829Y-97130589D01*
X86149500Y-97309448D01*
X86149500Y-97490551D01*
X86177829Y-97669410D01*
X86233787Y-97841636D01*
X86233788Y-97841639D01*
X86316006Y-98002997D01*
X86422441Y-98149494D01*
X86422445Y-98149499D01*
X86550500Y-98277554D01*
X86550505Y-98277558D01*
X86678287Y-98370396D01*
X86697006Y-98383996D01*
X86802484Y-98437740D01*
X86858360Y-98466211D01*
X86858363Y-98466212D01*
X86944476Y-98494191D01*
X87030591Y-98522171D01*
X87103639Y-98533740D01*
X87190678Y-98547527D01*
X87253813Y-98577456D01*
X87290744Y-98636768D01*
X87289746Y-98706631D01*
X87251136Y-98764863D01*
X87190678Y-98792473D01*
X87030589Y-98817829D01*
X86858363Y-98873787D01*
X86858360Y-98873788D01*
X86697002Y-98956006D01*
X86550505Y-99062441D01*
X86550500Y-99062445D01*
X86422445Y-99190500D01*
X86422441Y-99190505D01*
X86316006Y-99337002D01*
X86233788Y-99498360D01*
X86233787Y-99498363D01*
X86177829Y-99670589D01*
X86149500Y-99849448D01*
X86149500Y-100030551D01*
X86177829Y-100209410D01*
X86233787Y-100381636D01*
X86233788Y-100381639D01*
X86316006Y-100542997D01*
X86422441Y-100689494D01*
X86422445Y-100689499D01*
X86550500Y-100817554D01*
X86550505Y-100817558D01*
X86678287Y-100910396D01*
X86697006Y-100923996D01*
X86802484Y-100977740D01*
X86858360Y-101006211D01*
X86858363Y-101006212D01*
X86944476Y-101034191D01*
X87030591Y-101062171D01*
X87103639Y-101073740D01*
X87190678Y-101087527D01*
X87253813Y-101117456D01*
X87290744Y-101176768D01*
X87289746Y-101246631D01*
X87251136Y-101304863D01*
X87190678Y-101332473D01*
X87030589Y-101357829D01*
X86858363Y-101413787D01*
X86858360Y-101413788D01*
X86697002Y-101496006D01*
X86550505Y-101602441D01*
X86550500Y-101602445D01*
X86422445Y-101730500D01*
X86422441Y-101730505D01*
X86316006Y-101877002D01*
X86233788Y-102038360D01*
X86233787Y-102038363D01*
X86177829Y-102210589D01*
X86149500Y-102389448D01*
X86149500Y-102570551D01*
X86177829Y-102749410D01*
X86233787Y-102921636D01*
X86233788Y-102921639D01*
X86316006Y-103082997D01*
X86422441Y-103229494D01*
X86422445Y-103229499D01*
X86550500Y-103357554D01*
X86550505Y-103357558D01*
X86629271Y-103414784D01*
X86697006Y-103463996D01*
X86802484Y-103517740D01*
X86858360Y-103546211D01*
X86858363Y-103546212D01*
X86938679Y-103572307D01*
X87030591Y-103602171D01*
X87032463Y-103602467D01*
X87033118Y-103602778D01*
X87035322Y-103603307D01*
X87035210Y-103603769D01*
X87095597Y-103632392D01*
X87132532Y-103691701D01*
X87131538Y-103761564D01*
X87092932Y-103819799D01*
X87032472Y-103847414D01*
X87018994Y-103849548D01*
X86839362Y-103907914D01*
X86671064Y-103993667D01*
X86671062Y-103993668D01*
X86563759Y-104071626D01*
X86563759Y-104071627D01*
X87068461Y-104576329D01*
X86992993Y-104619901D01*
X86899901Y-104712993D01*
X86856329Y-104788461D01*
X86351627Y-104283759D01*
X86351626Y-104283759D01*
X86273668Y-104391062D01*
X86273667Y-104391064D01*
X86187914Y-104559362D01*
X86129548Y-104738997D01*
X86100000Y-104925552D01*
X86100000Y-105114447D01*
X86129548Y-105301002D01*
X86187914Y-105480637D01*
X86273666Y-105648933D01*
X86351627Y-105756239D01*
X86856329Y-105251538D01*
X86899901Y-105327007D01*
X86992993Y-105420099D01*
X87068460Y-105463670D01*
X86563759Y-105968370D01*
X86563759Y-105968371D01*
X86671066Y-106046333D01*
X86839362Y-106132085D01*
X87018994Y-106190450D01*
X87032465Y-106192584D01*
X87095601Y-106222512D01*
X87132533Y-106281823D01*
X87131537Y-106351686D01*
X87092928Y-106409919D01*
X87035222Y-106436276D01*
X87035322Y-106436693D01*
X87033190Y-106437204D01*
X87032478Y-106437530D01*
X87030588Y-106437829D01*
X86858363Y-106493787D01*
X86858360Y-106493788D01*
X86697002Y-106576006D01*
X86550505Y-106682441D01*
X86550500Y-106682445D01*
X86422445Y-106810500D01*
X86422441Y-106810505D01*
X86316006Y-106957002D01*
X86233788Y-107118360D01*
X86233787Y-107118363D01*
X86177829Y-107290589D01*
X86149500Y-107469448D01*
X86149500Y-107650551D01*
X86177829Y-107829410D01*
X86233787Y-108001636D01*
X86233788Y-108001639D01*
X86316006Y-108162997D01*
X86422441Y-108309494D01*
X86422445Y-108309499D01*
X86550500Y-108437554D01*
X86550505Y-108437558D01*
X86678287Y-108530396D01*
X86697006Y-108543996D01*
X86802484Y-108597740D01*
X86858360Y-108626211D01*
X86858363Y-108626212D01*
X86935012Y-108651116D01*
X87030591Y-108682171D01*
X87103639Y-108693740D01*
X87190678Y-108707527D01*
X87253813Y-108737456D01*
X87290744Y-108796768D01*
X87289746Y-108866631D01*
X87251136Y-108924863D01*
X87190678Y-108952473D01*
X87030589Y-108977829D01*
X86858363Y-109033787D01*
X86858360Y-109033788D01*
X86697002Y-109116006D01*
X86550505Y-109222441D01*
X86550500Y-109222445D01*
X86422445Y-109350500D01*
X86422441Y-109350505D01*
X86316006Y-109497002D01*
X86233788Y-109658360D01*
X86233787Y-109658363D01*
X86177829Y-109830589D01*
X86149500Y-110009448D01*
X86149500Y-110190551D01*
X86177829Y-110369410D01*
X86233787Y-110541636D01*
X86233788Y-110541639D01*
X86289664Y-110651300D01*
X86316003Y-110702993D01*
X86316006Y-110702997D01*
X86422441Y-110849494D01*
X86422445Y-110849499D01*
X86550500Y-110977554D01*
X86550505Y-110977558D01*
X86622286Y-111029709D01*
X86697006Y-111083996D01*
X86802484Y-111137740D01*
X86858360Y-111166211D01*
X86858363Y-111166212D01*
X86944476Y-111194191D01*
X87030591Y-111222171D01*
X87103639Y-111233740D01*
X87190678Y-111247527D01*
X87253813Y-111277456D01*
X87290744Y-111336768D01*
X87289746Y-111406631D01*
X87251136Y-111464863D01*
X87190678Y-111492473D01*
X87030589Y-111517829D01*
X86858363Y-111573787D01*
X86858360Y-111573788D01*
X86697002Y-111656006D01*
X86550505Y-111762441D01*
X86550500Y-111762445D01*
X86422445Y-111890500D01*
X86422441Y-111890505D01*
X86316006Y-112037002D01*
X86233788Y-112198360D01*
X86233787Y-112198363D01*
X86177829Y-112370589D01*
X86149500Y-112549448D01*
X86149500Y-112730551D01*
X86177829Y-112909410D01*
X86233787Y-113081636D01*
X86233788Y-113081639D01*
X86316006Y-113242997D01*
X86422441Y-113389494D01*
X86422445Y-113389499D01*
X86550500Y-113517554D01*
X86550505Y-113517558D01*
X86663937Y-113599970D01*
X86697006Y-113623996D01*
X86802484Y-113677740D01*
X86858360Y-113706211D01*
X86858363Y-113706212D01*
X86944476Y-113734191D01*
X87030591Y-113762171D01*
X87103639Y-113773740D01*
X87190678Y-113787527D01*
X87253813Y-113817456D01*
X87290744Y-113876768D01*
X87289746Y-113946631D01*
X87251136Y-114004863D01*
X87190678Y-114032473D01*
X87030589Y-114057829D01*
X86858363Y-114113787D01*
X86858360Y-114113788D01*
X86697002Y-114196006D01*
X86550505Y-114302441D01*
X86550500Y-114302445D01*
X86422445Y-114430500D01*
X86422441Y-114430505D01*
X86316006Y-114577002D01*
X86233788Y-114738360D01*
X86233787Y-114738363D01*
X86177829Y-114910589D01*
X86149500Y-115089448D01*
X86149500Y-115270551D01*
X86177829Y-115449410D01*
X86233787Y-115621636D01*
X86233788Y-115621639D01*
X86316006Y-115782997D01*
X86422441Y-115929494D01*
X86422445Y-115929499D01*
X86550500Y-116057554D01*
X86550505Y-116057558D01*
X86677742Y-116150000D01*
X86697006Y-116163996D01*
X86802484Y-116217740D01*
X86858360Y-116246211D01*
X86858363Y-116246212D01*
X86944476Y-116274191D01*
X87030591Y-116302171D01*
X87103639Y-116313740D01*
X87190678Y-116327527D01*
X87253813Y-116357456D01*
X87290744Y-116416768D01*
X87289746Y-116486631D01*
X87251136Y-116544863D01*
X87190678Y-116572473D01*
X87030589Y-116597829D01*
X86858363Y-116653787D01*
X86858360Y-116653788D01*
X86697002Y-116736006D01*
X86550505Y-116842441D01*
X86550500Y-116842445D01*
X86422445Y-116970500D01*
X86346423Y-117075136D01*
X86338770Y-117081036D01*
X86334178Y-117089538D01*
X86311554Y-117102022D01*
X86291093Y-117117801D01*
X86281465Y-117118627D01*
X86273005Y-117123297D01*
X86247223Y-117121568D01*
X86221479Y-117123780D01*
X86211073Y-117119145D01*
X86203292Y-117118624D01*
X86172241Y-117101850D01*
X86047891Y-117009627D01*
X86038473Y-117001895D01*
X86003859Y-116970506D01*
X84448485Y-115560067D01*
X84439929Y-115551511D01*
X84221034Y-115310123D01*
X82998101Y-113961523D01*
X82990362Y-113952095D01*
X82868050Y-113787173D01*
X81711630Y-112227895D01*
X81704871Y-112217780D01*
X81693233Y-112198363D01*
X80601130Y-110376222D01*
X80595392Y-110365485D01*
X80308956Y-109759717D01*
X80286193Y-109711577D01*
X81757909Y-109711577D01*
X81757909Y-109908422D01*
X81788699Y-110102826D01*
X81849526Y-110290029D01*
X81889973Y-110369410D01*
X81938885Y-110465405D01*
X82054581Y-110624646D01*
X82193763Y-110763828D01*
X82353004Y-110879524D01*
X82435864Y-110921743D01*
X82528379Y-110968882D01*
X82528381Y-110968882D01*
X82528384Y-110968884D01*
X82628726Y-111001487D01*
X82715582Y-111029709D01*
X82909987Y-111060500D01*
X82909992Y-111060500D01*
X83106831Y-111060500D01*
X83301235Y-111029709D01*
X83488434Y-110968884D01*
X83663814Y-110879524D01*
X83823055Y-110763828D01*
X83962237Y-110624646D01*
X84077933Y-110465405D01*
X84167293Y-110290025D01*
X84228118Y-110102826D01*
X84258909Y-109908422D01*
X84258909Y-109711577D01*
X84228118Y-109517173D01*
X84199896Y-109430317D01*
X84167293Y-109329975D01*
X84167291Y-109329972D01*
X84167291Y-109329970D01*
X84077932Y-109154594D01*
X84049896Y-109116006D01*
X83962237Y-108995354D01*
X83823055Y-108856172D01*
X83663814Y-108740476D01*
X83653336Y-108735137D01*
X83488438Y-108651117D01*
X83301235Y-108590290D01*
X83106831Y-108559500D01*
X83106826Y-108559500D01*
X82909992Y-108559500D01*
X82909987Y-108559500D01*
X82715582Y-108590290D01*
X82528379Y-108651117D01*
X82353003Y-108740476D01*
X82280202Y-108793370D01*
X82193763Y-108856172D01*
X82193761Y-108856174D01*
X82193760Y-108856174D01*
X82054583Y-108995351D01*
X82054583Y-108995352D01*
X82054581Y-108995354D01*
X82026658Y-109033787D01*
X81938885Y-109154594D01*
X81849526Y-109329970D01*
X81788699Y-109517173D01*
X81757909Y-109711577D01*
X80286193Y-109711577D01*
X79811430Y-108707527D01*
X79677593Y-108424485D01*
X79672953Y-108413284D01*
X78949061Y-106391756D01*
X78945513Y-106380059D01*
X78937561Y-106348283D01*
X78424475Y-104297894D01*
X78422109Y-104285996D01*
X78337631Y-103716768D01*
X78106892Y-102162013D01*
X78105700Y-102149905D01*
X78103943Y-102114162D01*
X78000299Y-100006081D01*
X78000299Y-99993911D01*
X78004501Y-99908442D01*
X78004839Y-99901577D01*
X79129500Y-99901577D01*
X79129500Y-100098422D01*
X79160290Y-100292826D01*
X79221117Y-100480029D01*
X79282195Y-100599901D01*
X79310476Y-100655405D01*
X79426172Y-100814646D01*
X79565354Y-100953828D01*
X79724595Y-101069524D01*
X79765763Y-101090500D01*
X79899970Y-101158882D01*
X79899972Y-101158882D01*
X79899975Y-101158884D01*
X79955016Y-101176768D01*
X80087173Y-101219709D01*
X80281578Y-101250500D01*
X80281583Y-101250500D01*
X80478422Y-101250500D01*
X80672826Y-101219709D01*
X80696145Y-101212132D01*
X80860025Y-101158884D01*
X81035405Y-101069524D01*
X81194646Y-100953828D01*
X81333828Y-100814646D01*
X81449524Y-100655405D01*
X81538884Y-100480025D01*
X81599709Y-100292826D01*
X81630500Y-100098422D01*
X81630500Y-99901577D01*
X81599709Y-99707173D01*
X81538882Y-99519970D01*
X81479183Y-99402805D01*
X81449524Y-99344595D01*
X81333828Y-99185354D01*
X81194646Y-99046172D01*
X81035405Y-98930476D01*
X80860029Y-98841117D01*
X80672826Y-98780290D01*
X80478422Y-98749500D01*
X80478417Y-98749500D01*
X80281583Y-98749500D01*
X80281578Y-98749500D01*
X80087173Y-98780290D01*
X79899970Y-98841117D01*
X79724594Y-98930476D01*
X79689456Y-98956006D01*
X79565354Y-99046172D01*
X79565352Y-99046174D01*
X79565351Y-99046174D01*
X79426174Y-99185351D01*
X79426174Y-99185352D01*
X79426172Y-99185354D01*
X79422430Y-99190505D01*
X79310476Y-99344594D01*
X79221117Y-99519970D01*
X79160290Y-99707173D01*
X79129500Y-99901577D01*
X78004839Y-99901577D01*
X78105700Y-97850086D01*
X78106893Y-97837980D01*
X78131911Y-97669410D01*
X78422109Y-95714000D01*
X78424475Y-95702105D01*
X78547085Y-95212132D01*
X78945516Y-93619929D01*
X78949059Y-93608249D01*
X79672956Y-91586705D01*
X79677590Y-91575521D01*
X80379271Y-90091577D01*
X81757909Y-90091577D01*
X81757909Y-90288422D01*
X81788699Y-90482826D01*
X81849526Y-90670029D01*
X81897405Y-90763996D01*
X81938885Y-90845405D01*
X82054581Y-91004646D01*
X82193763Y-91143828D01*
X82353004Y-91259524D01*
X82435864Y-91301743D01*
X82528379Y-91348882D01*
X82528381Y-91348882D01*
X82528384Y-91348884D01*
X82628726Y-91381487D01*
X82715582Y-91409709D01*
X82909987Y-91440500D01*
X82909992Y-91440500D01*
X83106831Y-91440500D01*
X83301235Y-91409709D01*
X83488434Y-91348884D01*
X83663814Y-91259524D01*
X83823055Y-91143828D01*
X83962237Y-91004646D01*
X84077933Y-90845405D01*
X84167293Y-90670025D01*
X84228118Y-90482826D01*
X84258909Y-90288422D01*
X84258909Y-90091577D01*
X84228118Y-89897173D01*
X84167291Y-89709970D01*
X84077932Y-89534594D01*
X84060493Y-89510591D01*
X83962237Y-89375354D01*
X83823055Y-89236172D01*
X83663814Y-89120476D01*
X83488438Y-89031117D01*
X83301235Y-88970290D01*
X83106831Y-88939500D01*
X83106826Y-88939500D01*
X82909992Y-88939500D01*
X82909987Y-88939500D01*
X82715582Y-88970290D01*
X82528379Y-89031117D01*
X82353003Y-89120476D01*
X82262150Y-89186485D01*
X82193763Y-89236172D01*
X82193761Y-89236174D01*
X82193760Y-89236174D01*
X82054583Y-89375351D01*
X82054583Y-89375352D01*
X82054581Y-89375354D01*
X82004894Y-89443741D01*
X81938885Y-89534594D01*
X81849526Y-89709970D01*
X81788699Y-89897173D01*
X81757909Y-90091577D01*
X80379271Y-90091577D01*
X80595398Y-89634502D01*
X80601125Y-89623785D01*
X81704880Y-87782204D01*
X81711623Y-87772113D01*
X82990372Y-86047891D01*
X82998092Y-86038486D01*
X84439941Y-84448475D01*
X84448464Y-84439951D01*
X86038488Y-82998091D01*
X86047891Y-82990372D01*
X86228901Y-82856128D01*
X86294467Y-82832007D01*
X86362673Y-82847163D01*
G37*
%TD.AperFunction*%
%TD*%
%TA.AperFunction,NonConductor*%
G36*
X113771100Y-82856129D02*
G01*
X113882011Y-82938385D01*
X113952094Y-82990362D01*
X113961520Y-82998099D01*
X115551524Y-84439941D01*
X115560067Y-84448485D01*
X116755003Y-85766211D01*
X117001895Y-86038473D01*
X117009636Y-86047903D01*
X117242912Y-86362445D01*
X118288366Y-87772100D01*
X118295128Y-87782219D01*
X119398867Y-89623773D01*
X119404607Y-89634514D01*
X120322405Y-91575513D01*
X120327046Y-91586715D01*
X121050936Y-93608237D01*
X121054486Y-93619940D01*
X121575524Y-95702105D01*
X121577890Y-95714003D01*
X121893106Y-97837980D01*
X121894299Y-97850094D01*
X121999700Y-99993911D01*
X121999700Y-100006089D01*
X121894299Y-102149905D01*
X121893106Y-102162019D01*
X121577890Y-104285996D01*
X121575524Y-104297894D01*
X121054486Y-106380059D01*
X121050936Y-106391762D01*
X120327046Y-108413284D01*
X120322405Y-108424486D01*
X119404607Y-110365485D01*
X119398867Y-110376226D01*
X118295128Y-112217780D01*
X118288366Y-112227899D01*
X117009637Y-113952095D01*
X117001895Y-113961526D01*
X115560070Y-115551511D01*
X115551511Y-115560070D01*
X113961526Y-117001895D01*
X113952098Y-117009635D01*
X113904673Y-117044808D01*
X113827760Y-117101849D01*
X113762187Y-117125972D01*
X113693981Y-117110815D01*
X113653576Y-117075135D01*
X113577558Y-116970505D01*
X113577554Y-116970500D01*
X113449499Y-116842445D01*
X113449494Y-116842441D01*
X113302997Y-116736006D01*
X113302996Y-116736005D01*
X113302994Y-116736004D01*
X113229907Y-116698764D01*
X113141639Y-116653788D01*
X113141636Y-116653787D01*
X112969410Y-116597829D01*
X112809321Y-116572473D01*
X112746186Y-116542544D01*
X112709255Y-116483232D01*
X112710253Y-116413370D01*
X112748863Y-116355137D01*
X112809321Y-116327527D01*
X112879425Y-116316422D01*
X112969409Y-116302171D01*
X113141639Y-116246211D01*
X113302994Y-116163996D01*
X113449501Y-116057553D01*
X113577553Y-115929501D01*
X113683996Y-115782994D01*
X113766211Y-115621639D01*
X113822171Y-115449409D01*
X113838772Y-115344594D01*
X113850500Y-115270551D01*
X113850500Y-115089448D01*
X113831742Y-114971023D01*
X113822171Y-114910591D01*
X113779835Y-114780291D01*
X113766212Y-114738363D01*
X113766211Y-114738360D01*
X113726171Y-114659779D01*
X113683996Y-114577006D01*
X113640850Y-114517620D01*
X113577558Y-114430505D01*
X113577554Y-114430500D01*
X113449499Y-114302445D01*
X113449494Y-114302441D01*
X113302997Y-114196006D01*
X113302996Y-114196005D01*
X113302994Y-114196004D01*
X113251300Y-114169664D01*
X113141639Y-114113788D01*
X113141636Y-114113787D01*
X112969410Y-114057829D01*
X112809321Y-114032473D01*
X112746186Y-114002544D01*
X112709255Y-113943232D01*
X112710253Y-113873370D01*
X112748863Y-113815137D01*
X112809321Y-113787527D01*
X112879425Y-113776422D01*
X112969409Y-113762171D01*
X113141639Y-113706211D01*
X113302994Y-113623996D01*
X113449501Y-113517553D01*
X113577553Y-113389501D01*
X113683996Y-113242994D01*
X113766211Y-113081639D01*
X113822171Y-112909409D01*
X113836765Y-112817259D01*
X113850500Y-112730551D01*
X113850500Y-112549448D01*
X113834019Y-112445397D01*
X113822171Y-112370591D01*
X113794191Y-112284476D01*
X113766212Y-112198363D01*
X113766211Y-112198360D01*
X113736326Y-112139709D01*
X113683996Y-112037006D01*
X113670396Y-112018287D01*
X113577558Y-111890505D01*
X113577554Y-111890500D01*
X113449499Y-111762445D01*
X113449494Y-111762441D01*
X113302997Y-111656006D01*
X113302996Y-111656005D01*
X113302994Y-111656004D01*
X113251300Y-111629664D01*
X113141639Y-111573788D01*
X113141636Y-111573787D01*
X112969410Y-111517829D01*
X112809321Y-111492473D01*
X112746186Y-111462544D01*
X112709255Y-111403232D01*
X112710253Y-111333370D01*
X112748863Y-111275137D01*
X112809321Y-111247527D01*
X112879425Y-111236422D01*
X112969409Y-111222171D01*
X113141639Y-111166211D01*
X113302994Y-111083996D01*
X113449501Y-110977553D01*
X113577553Y-110849501D01*
X113683996Y-110702994D01*
X113766211Y-110541639D01*
X113822171Y-110369409D01*
X113838772Y-110264594D01*
X113850500Y-110190551D01*
X113850500Y-110009448D01*
X113825320Y-109850476D01*
X113822171Y-109830591D01*
X113783502Y-109711577D01*
X115741091Y-109711577D01*
X115741091Y-109908422D01*
X115771881Y-110102826D01*
X115832708Y-110290029D01*
X115873155Y-110369410D01*
X115922067Y-110465405D01*
X116037763Y-110624646D01*
X116176945Y-110763828D01*
X116336186Y-110879524D01*
X116419046Y-110921743D01*
X116511561Y-110968882D01*
X116511563Y-110968882D01*
X116511566Y-110968884D01*
X116611908Y-111001487D01*
X116698764Y-111029709D01*
X116893169Y-111060500D01*
X116893174Y-111060500D01*
X117090013Y-111060500D01*
X117284417Y-111029709D01*
X117471616Y-110968884D01*
X117646996Y-110879524D01*
X117806237Y-110763828D01*
X117945419Y-110624646D01*
X118061115Y-110465405D01*
X118150475Y-110290025D01*
X118211300Y-110102826D01*
X118242091Y-109908422D01*
X118242091Y-109711577D01*
X118211300Y-109517173D01*
X118183078Y-109430317D01*
X118150475Y-109329975D01*
X118150473Y-109329972D01*
X118150473Y-109329970D01*
X118061114Y-109154594D01*
X118033078Y-109116006D01*
X117945419Y-108995354D01*
X117806237Y-108856172D01*
X117646996Y-108740476D01*
X117636518Y-108735137D01*
X117471620Y-108651117D01*
X117284417Y-108590290D01*
X117090013Y-108559500D01*
X117090008Y-108559500D01*
X116893174Y-108559500D01*
X116893169Y-108559500D01*
X116698764Y-108590290D01*
X116511561Y-108651117D01*
X116336185Y-108740476D01*
X116263384Y-108793370D01*
X116176945Y-108856172D01*
X116176943Y-108856174D01*
X116176942Y-108856174D01*
X116037765Y-108995351D01*
X116037765Y-108995352D01*
X116037763Y-108995354D01*
X116009840Y-109033787D01*
X115922067Y-109154594D01*
X115832708Y-109329970D01*
X115771881Y-109517173D01*
X115741091Y-109711577D01*
X113783502Y-109711577D01*
X113779835Y-109700291D01*
X113766212Y-109658363D01*
X113766211Y-109658360D01*
X113737740Y-109602484D01*
X113683996Y-109497006D01*
X113670396Y-109478287D01*
X113577558Y-109350505D01*
X113577554Y-109350500D01*
X113449499Y-109222445D01*
X113449494Y-109222441D01*
X113302997Y-109116006D01*
X113302996Y-109116005D01*
X113302994Y-109116004D01*
X113251300Y-109089664D01*
X113141639Y-109033788D01*
X113141636Y-109033787D01*
X112969410Y-108977829D01*
X112809321Y-108952473D01*
X112746186Y-108922544D01*
X112709255Y-108863232D01*
X112710253Y-108793370D01*
X112748863Y-108735137D01*
X112809321Y-108707527D01*
X112879425Y-108696422D01*
X112969409Y-108682171D01*
X113141639Y-108626211D01*
X113302994Y-108543996D01*
X113449501Y-108437553D01*
X113577553Y-108309501D01*
X113683996Y-108162994D01*
X113766211Y-108001639D01*
X113822171Y-107829409D01*
X113841802Y-107705466D01*
X113850500Y-107650551D01*
X113850500Y-107469448D01*
X113834019Y-107365397D01*
X113822171Y-107290591D01*
X113791887Y-107197384D01*
X113766212Y-107118363D01*
X113766211Y-107118360D01*
X113737740Y-107062484D01*
X113683996Y-106957006D01*
X113627629Y-106879423D01*
X113577558Y-106810505D01*
X113577554Y-106810500D01*
X113449499Y-106682445D01*
X113449494Y-106682441D01*
X113302997Y-106576006D01*
X113302996Y-106576005D01*
X113302994Y-106576004D01*
X113251300Y-106549664D01*
X113141639Y-106493788D01*
X113141636Y-106493787D01*
X112969410Y-106437829D01*
X112809321Y-106412473D01*
X112746186Y-106382544D01*
X112709255Y-106323232D01*
X112710253Y-106253370D01*
X112748863Y-106195137D01*
X112809321Y-106167527D01*
X112879425Y-106156422D01*
X112969409Y-106142171D01*
X113141639Y-106086211D01*
X113302994Y-106003996D01*
X113449501Y-105897553D01*
X113577553Y-105769501D01*
X113683996Y-105622994D01*
X113766211Y-105461639D01*
X113822171Y-105289409D01*
X113836765Y-105197259D01*
X113850500Y-105110551D01*
X113850500Y-104929448D01*
X113830355Y-104802264D01*
X113822171Y-104750591D01*
X113766211Y-104578361D01*
X113766211Y-104578360D01*
X113736474Y-104520000D01*
X113683996Y-104417006D01*
X113589100Y-104286392D01*
X113577558Y-104270505D01*
X113577554Y-104270500D01*
X113449499Y-104142445D01*
X113449494Y-104142441D01*
X113302997Y-104036006D01*
X113302996Y-104036005D01*
X113302994Y-104036004D01*
X113251300Y-104009664D01*
X113141639Y-103953788D01*
X113141636Y-103953787D01*
X112969410Y-103897829D01*
X112809321Y-103872473D01*
X112746186Y-103842544D01*
X112709255Y-103783232D01*
X112710253Y-103713370D01*
X112748863Y-103655137D01*
X112809321Y-103627527D01*
X112879425Y-103616422D01*
X112969409Y-103602171D01*
X113141639Y-103546211D01*
X113302994Y-103463996D01*
X113449501Y-103357553D01*
X113577553Y-103229501D01*
X113683996Y-103082994D01*
X113766211Y-102921639D01*
X113822171Y-102749409D01*
X113836765Y-102657259D01*
X113850500Y-102570551D01*
X113850500Y-102389448D01*
X113833259Y-102280600D01*
X113822171Y-102210591D01*
X113783495Y-102091556D01*
X113766212Y-102038363D01*
X113766211Y-102038360D01*
X113714700Y-101937266D01*
X113683996Y-101877006D01*
X113621470Y-101790946D01*
X113577558Y-101730505D01*
X113577554Y-101730500D01*
X113449499Y-101602445D01*
X113449494Y-101602441D01*
X113302997Y-101496006D01*
X113302996Y-101496005D01*
X113302994Y-101496004D01*
X113243961Y-101465925D01*
X113141639Y-101413788D01*
X113141636Y-101413787D01*
X112969410Y-101357829D01*
X112809321Y-101332473D01*
X112746186Y-101302544D01*
X112709255Y-101243232D01*
X112710253Y-101173370D01*
X112748863Y-101115137D01*
X112809321Y-101087527D01*
X112879425Y-101076422D01*
X112969409Y-101062171D01*
X113141639Y-101006211D01*
X113302994Y-100923996D01*
X113449501Y-100817553D01*
X113577553Y-100689501D01*
X113683996Y-100542994D01*
X113766211Y-100381639D01*
X113822171Y-100209409D01*
X113838313Y-100107491D01*
X113850500Y-100030551D01*
X113850500Y-99901577D01*
X118369500Y-99901577D01*
X118369500Y-100098422D01*
X118400290Y-100292826D01*
X118461117Y-100480029D01*
X118522195Y-100599901D01*
X118550476Y-100655405D01*
X118666172Y-100814646D01*
X118805354Y-100953828D01*
X118964595Y-101069524D01*
X119005763Y-101090500D01*
X119139970Y-101158882D01*
X119139972Y-101158882D01*
X119139975Y-101158884D01*
X119195016Y-101176768D01*
X119327173Y-101219709D01*
X119521578Y-101250500D01*
X119521583Y-101250500D01*
X119718422Y-101250500D01*
X119912826Y-101219709D01*
X119936145Y-101212132D01*
X120100025Y-101158884D01*
X120275405Y-101069524D01*
X120434646Y-100953828D01*
X120573828Y-100814646D01*
X120689524Y-100655405D01*
X120778884Y-100480025D01*
X120839709Y-100292826D01*
X120870500Y-100098422D01*
X120870500Y-99901577D01*
X120839709Y-99707173D01*
X120778882Y-99519970D01*
X120719183Y-99402805D01*
X120689524Y-99344595D01*
X120573828Y-99185354D01*
X120434646Y-99046172D01*
X120275405Y-98930476D01*
X120100029Y-98841117D01*
X119912826Y-98780290D01*
X119718422Y-98749500D01*
X119718417Y-98749500D01*
X119521583Y-98749500D01*
X119521578Y-98749500D01*
X119327173Y-98780290D01*
X119139970Y-98841117D01*
X118964594Y-98930476D01*
X118929456Y-98956006D01*
X118805354Y-99046172D01*
X118805352Y-99046174D01*
X118805351Y-99046174D01*
X118666174Y-99185351D01*
X118666174Y-99185352D01*
X118666172Y-99185354D01*
X118662430Y-99190505D01*
X118550476Y-99344594D01*
X118461117Y-99519970D01*
X118400290Y-99707173D01*
X118369500Y-99901577D01*
X113850500Y-99901577D01*
X113850500Y-99849448D01*
X113827235Y-99702567D01*
X113822171Y-99670591D01*
X113766211Y-99498361D01*
X113766211Y-99498360D01*
X113717522Y-99402805D01*
X113683996Y-99337006D01*
X113670396Y-99318287D01*
X113577558Y-99190505D01*
X113577554Y-99190500D01*
X113449499Y-99062445D01*
X113449494Y-99062441D01*
X113302997Y-98956006D01*
X113302996Y-98956005D01*
X113302994Y-98956004D01*
X113251300Y-98929664D01*
X113141639Y-98873788D01*
X113141636Y-98873787D01*
X112969410Y-98817829D01*
X112809321Y-98792473D01*
X112746186Y-98762544D01*
X112709255Y-98703232D01*
X112710253Y-98633370D01*
X112748863Y-98575137D01*
X112809321Y-98547527D01*
X112879425Y-98536422D01*
X112969409Y-98522171D01*
X113141639Y-98466211D01*
X113302994Y-98383996D01*
X113449501Y-98277553D01*
X113577553Y-98149501D01*
X113683996Y-98002994D01*
X113766211Y-97841639D01*
X113822171Y-97669409D01*
X113836765Y-97577259D01*
X113850500Y-97490551D01*
X113850500Y-97309448D01*
X113834019Y-97205397D01*
X113822171Y-97130591D01*
X113766211Y-96958361D01*
X113766211Y-96958360D01*
X113737740Y-96902484D01*
X113683996Y-96797006D01*
X113670396Y-96778287D01*
X113577558Y-96650505D01*
X113577554Y-96650500D01*
X113449499Y-96522445D01*
X113449494Y-96522441D01*
X113302997Y-96416006D01*
X113302996Y-96416005D01*
X113302994Y-96416004D01*
X113251300Y-96389664D01*
X113141639Y-96333788D01*
X113141636Y-96333787D01*
X112969410Y-96277829D01*
X112809321Y-96252473D01*
X112746186Y-96222544D01*
X112709255Y-96163232D01*
X112710253Y-96093370D01*
X112748863Y-96035137D01*
X112809321Y-96007527D01*
X112879425Y-95996422D01*
X112969409Y-95982171D01*
X113141639Y-95926211D01*
X113302994Y-95843996D01*
X113449501Y-95737553D01*
X113577553Y-95609501D01*
X113683996Y-95462994D01*
X113766211Y-95301639D01*
X113822171Y-95129409D01*
X113836765Y-95037259D01*
X113850500Y-94950551D01*
X113850500Y-94769448D01*
X113830695Y-94644411D01*
X113822171Y-94590591D01*
X113774280Y-94443196D01*
X113766212Y-94418363D01*
X113766211Y-94418360D01*
X113737740Y-94362484D01*
X113683996Y-94257006D01*
X113652623Y-94213825D01*
X113577558Y-94110505D01*
X113577554Y-94110500D01*
X113449499Y-93982445D01*
X113449494Y-93982441D01*
X113302997Y-93876006D01*
X113302996Y-93876005D01*
X113302994Y-93876004D01*
X113251300Y-93849664D01*
X113141639Y-93793788D01*
X113141636Y-93793787D01*
X112969410Y-93737829D01*
X112809321Y-93712473D01*
X112746186Y-93682544D01*
X112709255Y-93623232D01*
X112710253Y-93553370D01*
X112748863Y-93495137D01*
X112809321Y-93467527D01*
X112879425Y-93456422D01*
X112969409Y-93442171D01*
X113141639Y-93386211D01*
X113302994Y-93303996D01*
X113449501Y-93197553D01*
X113577553Y-93069501D01*
X113683996Y-92922994D01*
X113766211Y-92761639D01*
X113822171Y-92589409D01*
X113836765Y-92497259D01*
X113850500Y-92410551D01*
X113850500Y-92229448D01*
X113834019Y-92125397D01*
X113822171Y-92050591D01*
X113766211Y-91878361D01*
X113766211Y-91878360D01*
X113737740Y-91822484D01*
X113683996Y-91717006D01*
X113589335Y-91586715D01*
X113577558Y-91570505D01*
X113577554Y-91570500D01*
X113449499Y-91442445D01*
X113449494Y-91442441D01*
X113302997Y-91336006D01*
X113302996Y-91336005D01*
X113302994Y-91336004D01*
X113251300Y-91309664D01*
X113141639Y-91253788D01*
X113141636Y-91253787D01*
X112969410Y-91197829D01*
X112809321Y-91172473D01*
X112746186Y-91142544D01*
X112709255Y-91083232D01*
X112710253Y-91013370D01*
X112748863Y-90955137D01*
X112809321Y-90927527D01*
X112879425Y-90916422D01*
X112969409Y-90902171D01*
X113141639Y-90846211D01*
X113302994Y-90763996D01*
X113449501Y-90657553D01*
X113577553Y-90529501D01*
X113683996Y-90382994D01*
X113766211Y-90221639D01*
X113808470Y-90091577D01*
X115741091Y-90091577D01*
X115741091Y-90288422D01*
X115771881Y-90482826D01*
X115832708Y-90670029D01*
X115880587Y-90763996D01*
X115922067Y-90845405D01*
X116037763Y-91004646D01*
X116176945Y-91143828D01*
X116336186Y-91259524D01*
X116419046Y-91301743D01*
X116511561Y-91348882D01*
X116511563Y-91348882D01*
X116511566Y-91348884D01*
X116611908Y-91381487D01*
X116698764Y-91409709D01*
X116893169Y-91440500D01*
X116893174Y-91440500D01*
X117090013Y-91440500D01*
X117284417Y-91409709D01*
X117471616Y-91348884D01*
X117646996Y-91259524D01*
X117806237Y-91143828D01*
X117945419Y-91004646D01*
X118061115Y-90845405D01*
X118150475Y-90670025D01*
X118211300Y-90482826D01*
X118242091Y-90288422D01*
X118242091Y-90091577D01*
X118211300Y-89897173D01*
X118150473Y-89709970D01*
X118061114Y-89534594D01*
X118043675Y-89510591D01*
X117945419Y-89375354D01*
X117806237Y-89236172D01*
X117646996Y-89120476D01*
X117471620Y-89031117D01*
X117284417Y-88970290D01*
X117090013Y-88939500D01*
X117090008Y-88939500D01*
X116893174Y-88939500D01*
X116893169Y-88939500D01*
X116698764Y-88970290D01*
X116511561Y-89031117D01*
X116336185Y-89120476D01*
X116245332Y-89186485D01*
X116176945Y-89236172D01*
X116176943Y-89236174D01*
X116176942Y-89236174D01*
X116037765Y-89375351D01*
X116037765Y-89375352D01*
X116037763Y-89375354D01*
X115988076Y-89443741D01*
X115922067Y-89534594D01*
X115832708Y-89709970D01*
X115771881Y-89897173D01*
X115741091Y-90091577D01*
X113808470Y-90091577D01*
X113822171Y-90049409D01*
X113846283Y-89897173D01*
X113850500Y-89870551D01*
X113850500Y-89689448D01*
X113834019Y-89585397D01*
X113822171Y-89510591D01*
X113766211Y-89338361D01*
X113766211Y-89338360D01*
X113737740Y-89282484D01*
X113683996Y-89177006D01*
X113642925Y-89120476D01*
X113577558Y-89030505D01*
X113577554Y-89030500D01*
X113449499Y-88902445D01*
X113449494Y-88902441D01*
X113302997Y-88796006D01*
X113302996Y-88796005D01*
X113302994Y-88796004D01*
X113251300Y-88769664D01*
X113141639Y-88713788D01*
X113141636Y-88713787D01*
X112969410Y-88657829D01*
X112809321Y-88632473D01*
X112746186Y-88602544D01*
X112709255Y-88543232D01*
X112710253Y-88473370D01*
X112748863Y-88415137D01*
X112809321Y-88387527D01*
X112879425Y-88376422D01*
X112969409Y-88362171D01*
X113141639Y-88306211D01*
X113302994Y-88223996D01*
X113449501Y-88117553D01*
X113577553Y-87989501D01*
X113683996Y-87842994D01*
X113766211Y-87681639D01*
X113822171Y-87509409D01*
X113836765Y-87417259D01*
X113850500Y-87330551D01*
X113850500Y-87149448D01*
X113834019Y-87045397D01*
X113822171Y-86970591D01*
X113766211Y-86798361D01*
X113766211Y-86798360D01*
X113737740Y-86742484D01*
X113683996Y-86637006D01*
X113646831Y-86585852D01*
X113577558Y-86490505D01*
X113577554Y-86490500D01*
X113449499Y-86362445D01*
X113449494Y-86362441D01*
X113302997Y-86256006D01*
X113302996Y-86256005D01*
X113302994Y-86256004D01*
X113224724Y-86216123D01*
X113141639Y-86173788D01*
X113141636Y-86173787D01*
X112969410Y-86117829D01*
X112809321Y-86092473D01*
X112746186Y-86062544D01*
X112709255Y-86003232D01*
X112710253Y-85933370D01*
X112748863Y-85875137D01*
X112809321Y-85847527D01*
X112879425Y-85836422D01*
X112969409Y-85822171D01*
X113141639Y-85766211D01*
X113302994Y-85683996D01*
X113449501Y-85577553D01*
X113577553Y-85449501D01*
X113683996Y-85302994D01*
X113766211Y-85141639D01*
X113822171Y-84969409D01*
X113836765Y-84877259D01*
X113850500Y-84790551D01*
X113850500Y-84609448D01*
X113825005Y-84448485D01*
X113822171Y-84430591D01*
X113766211Y-84258361D01*
X113766211Y-84258360D01*
X113719808Y-84167291D01*
X113683996Y-84097006D01*
X113587597Y-83964323D01*
X113577558Y-83950505D01*
X113577554Y-83950500D01*
X113449499Y-83822445D01*
X113449494Y-83822441D01*
X113302997Y-83716006D01*
X113302996Y-83716005D01*
X113302994Y-83716004D01*
X113251300Y-83689664D01*
X113141639Y-83633788D01*
X113141636Y-83633787D01*
X112969410Y-83577829D01*
X112809321Y-83552473D01*
X112746186Y-83522544D01*
X112709255Y-83463232D01*
X112710253Y-83393370D01*
X112748863Y-83335137D01*
X112809321Y-83307527D01*
X112879425Y-83296422D01*
X112969409Y-83282171D01*
X113141639Y-83226211D01*
X113302994Y-83143996D01*
X113449501Y-83037553D01*
X113577553Y-82909501D01*
X113596920Y-82882843D01*
X113652245Y-82840180D01*
X113721858Y-82834198D01*
X113771100Y-82856129D01*
G37*
%TD.AperFunction*%
M02*
