M48
; DRILL file {KiCad 9.0.6} date 2026-08-11T19:46:54+0900
; FORMAT={-:-/ absolute / metric / decimal}
; #@! TF.CreationDate,2026-08-11T19:46:54+09:00
; #@! TF.GenerationSoftware,Kicad,Pcbnew,9.0.6
; #@! TF.FileFunction,Plated,1,2,PTH
FMAT,2
METRIC
; #@! TA.AperFunction,Plated,PTH,ComponentDrill
T1C0.900
; #@! TA.AperFunction,Plated,PTH,ComponentDrill
T2C1.000
%
G90
G05
T1
X66.53Y-100.0
X69.07Y-100.0
X70.22Y-100.0
X71.014Y-83.265
X71.014Y-116.735
X73.214Y-84.535
X73.214Y-115.465
X74.21Y-85.11
X74.21Y-114.89
X80.38Y-100.0
X83.008Y-90.19
X83.008Y-109.81
X83.265Y-71.014
X83.265Y-128.986
X84.535Y-73.214
X84.535Y-126.786
X85.11Y-74.21
X85.11Y-125.79
X90.19Y-83.008
X90.19Y-116.992
X97.5Y-116.0
X100.0Y-66.53
X100.0Y-69.07
X100.0Y-70.22
X100.0Y-80.38
X100.0Y-116.0
X100.0Y-119.62
X100.0Y-129.78
X100.0Y-130.93
X100.0Y-133.47
X102.5Y-116.0
X104.0Y-103.92
X104.0Y-114.08
X108.0Y-110.92
X108.0Y-121.08
X109.81Y-83.008
X109.81Y-116.992
X114.89Y-74.21
X114.89Y-125.79
X115.465Y-73.214
X115.465Y-126.786
X116.735Y-71.014
X116.735Y-128.986
X116.992Y-90.19
X116.992Y-109.81
X119.62Y-100.0
X125.79Y-85.11
X125.79Y-114.89
X126.786Y-84.535
X126.786Y-115.465
X128.986Y-83.265
X128.986Y-116.735
X129.78Y-100.0
X130.93Y-100.0
X133.47Y-100.0
T2
X87.3Y-72.0
X87.3Y-74.54
X87.3Y-77.08
X87.3Y-79.62
X87.3Y-82.16
X87.3Y-84.7
X87.3Y-87.24
X87.3Y-89.78
X87.3Y-92.32
X87.3Y-94.86
X87.3Y-97.4
X87.3Y-99.94
X87.3Y-102.48
X87.3Y-105.02
X87.3Y-107.56
X87.3Y-110.1
X87.3Y-112.64
X87.3Y-115.18
X87.3Y-117.72
X91.5Y-106.0
X94.0Y-95.0
X96.0Y-102.0
X96.5Y-106.0
X100.73Y-101.0
X103.0Y-120.0
X103.27Y-101.0
X106.0Y-95.0
X112.7Y-72.0
X112.7Y-74.54
X112.7Y-77.08
X112.7Y-79.62
X112.7Y-82.16
X112.7Y-84.7
X112.7Y-87.24
X112.7Y-89.78
X112.7Y-92.32
X112.7Y-94.86
X112.7Y-97.4
X112.7Y-99.94
X112.7Y-102.48
X112.7Y-105.02
X112.7Y-107.56
X112.7Y-110.1
X112.7Y-112.64
X112.7Y-115.18
X112.7Y-117.72
M30
