%TF.GenerationSoftware,KiCad,Pcbnew,9.0.6*%
%TF.CreationDate,2026-08-11T19:46:54+09:00*%
%TF.ProjectId,ir_blaster_v1,69725f62-6c61-4737-9465-725f76312e6b,rev?*%
%TF.SameCoordinates,Original*%
%TF.FileFunction,Soldermask,Top*%
%TF.FilePolarity,Negative*%
%FSLAX46Y46*%
G04 Gerber Fmt 4.6, Leading zero omitted, Abs format (unit mm)*
G04 Created by KiCad (PCBNEW 9.0.6) date 2026-08-11 19:46:54*
%MOMM*%
%LPD*%
G01*
G04 APERTURE LIST*
G04 Aperture macros list*
%AMRotRect*
0 Rectangle, with rotation*
0 The origin of the aperture is its center*
0 $1 length*
0 $2 width*
0 $3 Rotation angle, in degrees counterclockwise*
0 Add horizontal line*
21,1,$1,$2,0,0,$3*%
G04 Aperture macros list end*
%ADD10RotRect,2.000000X2.000000X240.000000*%
%ADD11C,2.000000*%
%ADD12R,2.000000X2.000000*%
%ADD13RotRect,2.000000X2.000000X300.000000*%
%ADD14RotRect,2.000000X2.000000X150.000000*%
%ADD15C,2.400000*%
%ADD16R,2.200000X2.200000*%
%ADD17C,2.200000*%
%ADD18RotRect,2.000000X2.000000X120.000000*%
%ADD19RotRect,2.000000X2.000000X60.000000*%
%ADD20RotRect,2.000000X2.000000X30.000000*%
%ADD21RotRect,2.000000X2.000000X210.000000*%
%ADD22RotRect,2.000000X2.000000X330.000000*%
%ADD23R,1.800000X1.800000*%
%ADD24C,1.800000*%
G04 APERTURE END LIST*
D10*
%TO.C,D8*%
X84535000Y-126786148D03*
D11*
X83265000Y-128985852D03*
%TD*%
D12*
%TO.C,D7*%
X100000000Y-130930000D03*
D11*
X100000000Y-133470000D03*
%TD*%
%TO.C,RG*%
X104000000Y-103920000D03*
X104000000Y-114080000D03*
%TD*%
%TO.C,R9*%
X83008409Y-109810000D03*
X74209591Y-114890000D03*
%TD*%
D12*
%TO.C,D1*%
X100000000Y-69070000D03*
D11*
X100000000Y-66530000D03*
%TD*%
D13*
%TO.C,D6*%
X115465000Y-126786148D03*
D11*
X116735000Y-128985852D03*
%TD*%
D12*
%TO.C,Q1*%
X97500000Y-116000000D03*
D11*
X100000000Y-116000000D03*
X102500000Y-116000000D03*
%TD*%
D14*
%TO.C,D11*%
X73213852Y-84535000D03*
D11*
X71014148Y-83265000D03*
%TD*%
%TO.C,R8*%
X90190000Y-116991591D03*
X85110000Y-125790409D03*
%TD*%
%TO.C,R7*%
X100000000Y-119620000D03*
X100000000Y-129780000D03*
%TD*%
D15*
%TO.C,TP2*%
X106000000Y-95000000D03*
%TD*%
D11*
%TO.C,RPD*%
X108000000Y-110920000D03*
X108000000Y-121080000D03*
%TD*%
D16*
%TO.C,Cbulk*%
X91500000Y-106000000D03*
D17*
X96500000Y-106000000D03*
%TD*%
D15*
%TO.C,TP3*%
X96000000Y-102000000D03*
%TD*%
D12*
%TO.C,D4*%
X130930000Y-100000000D03*
D11*
X133470000Y-100000000D03*
%TD*%
%TO.C,R4*%
X119620000Y-100000000D03*
X129780000Y-100000000D03*
%TD*%
%TO.C,R5*%
X116991591Y-109810000D03*
X125790409Y-114890000D03*
%TD*%
%TO.C,R2*%
X109810000Y-83008409D03*
X114890000Y-74209591D03*
%TD*%
%TO.C,R3*%
X116991591Y-90190000D03*
X125790409Y-85110000D03*
%TD*%
%TO.C,R1*%
X100000000Y-80380000D03*
X100000000Y-70220000D03*
%TD*%
D18*
%TO.C,D12*%
X84535000Y-73213852D03*
D11*
X83265000Y-71014148D03*
%TD*%
D19*
%TO.C,D2*%
X115465000Y-73213852D03*
D11*
X116735000Y-71014148D03*
%TD*%
D20*
%TO.C,D3*%
X126786148Y-84535000D03*
D11*
X128985852Y-83265000D03*
%TD*%
%TO.C,R6*%
X109810000Y-116991591D03*
X114890000Y-125790409D03*
%TD*%
%TO.C,R12*%
X90190000Y-83008409D03*
X85110000Y-74209591D03*
%TD*%
%TO.C,R10*%
X80380000Y-100000000D03*
X70220000Y-100000000D03*
%TD*%
%TO.C,R11*%
X83008409Y-90190000D03*
X74209591Y-85110000D03*
%TD*%
D15*
%TO.C,TP4*%
X103000000Y-120000000D03*
%TD*%
D12*
%TO.C,D10*%
X69070000Y-100000000D03*
D11*
X66530000Y-100000000D03*
%TD*%
D21*
%TO.C,D9*%
X73213852Y-115465000D03*
D11*
X71014148Y-116735000D03*
%TD*%
D22*
%TO.C,D5*%
X126786148Y-115465000D03*
D11*
X128985852Y-116735000D03*
%TD*%
D16*
%TO.C,Cdec*%
X100730000Y-101000000D03*
D17*
X103270000Y-101000000D03*
%TD*%
D15*
%TO.C,TP1*%
X94000000Y-95000000D03*
%TD*%
D23*
%TO.C,J2*%
X112700000Y-72000000D03*
D24*
X112700000Y-74540000D03*
X112700000Y-77080000D03*
X112700000Y-79620000D03*
X112700000Y-82160000D03*
X112700000Y-84700000D03*
X112700000Y-87240000D03*
X112700000Y-89780000D03*
X112700000Y-92320000D03*
X112700000Y-94860000D03*
X112700000Y-97400000D03*
X112700000Y-99940000D03*
X112700000Y-102480000D03*
X112700000Y-105020000D03*
X112700000Y-107560000D03*
X112700000Y-110100000D03*
X112700000Y-112640000D03*
X112700000Y-115180000D03*
X112700000Y-117720000D03*
%TD*%
D23*
%TO.C,J1*%
X87300000Y-72000000D03*
D24*
X87300000Y-74540000D03*
X87300000Y-77080000D03*
X87300000Y-79620000D03*
X87300000Y-82160000D03*
X87300000Y-84700000D03*
X87300000Y-87240000D03*
X87300000Y-89780000D03*
X87300000Y-92320000D03*
X87300000Y-94860000D03*
X87300000Y-97400000D03*
X87300000Y-99940000D03*
X87300000Y-102480000D03*
X87300000Y-105020000D03*
X87300000Y-107560000D03*
X87300000Y-110100000D03*
X87300000Y-112640000D03*
X87300000Y-115180000D03*
X87300000Y-117720000D03*
%TD*%
M02*
