%TF.GenerationSoftware,KiCad,Pcbnew,9.0.6*%
%TF.CreationDate,2026-08-11T20:14:44+09:00*%
%TF.ProjectId,ir_blaster_v2_smd,69725f62-6c61-4737-9465-725f76325f73,rev?*%
%TF.SameCoordinates,Original*%
%TF.FileFunction,Soldermask,Top*%
%TF.FilePolarity,Negative*%
%FSLAX46Y46*%
G04 Gerber Fmt 4.6, Leading zero omitted, Abs format (unit mm)*
G04 Created by KiCad (PCBNEW 9.0.6) date 2026-08-11 20:14:44*
%MOMM*%
%LPD*%
G01*
G04 APERTURE LIST*
G04 Aperture macros list*
%AMRoundRect*
0 Rectangle with rounded corners*
0 $1 Rounding radius*
0 $2 $3 $4 $5 $6 $7 $8 $9 X,Y pos of 4 corners*
0 Add a 4 corners polygon primitive as box body*
4,1,4,$2,$3,$4,$5,$6,$7,$8,$9,$2,$3,0*
0 Add four circle primitives for the rounded corners*
1,1,$1+$1,$2,$3*
1,1,$1+$1,$4,$5*
1,1,$1+$1,$6,$7*
1,1,$1+$1,$8,$9*
0 Add four rect primitives between the rounded corners*
20,1,$1+$1,$2,$3,$4,$5,0*
20,1,$1+$1,$4,$5,$6,$7,0*
20,1,$1+$1,$6,$7,$8,$9,0*
20,1,$1+$1,$8,$9,$2,$3,0*%
%AMRotRect*
0 Rectangle, with rotation*
0 The origin of the aperture is its center*
0 $1 length*
0 $2 width*
0 $3 Rotation angle, in degrees counterclockwise*
0 Add horizontal line*
21,1,$1,$2,0,0,$3*%
G04 Aperture macros list end*
%ADD10R,2.000000X2.000000*%
%ADD11C,2.000000*%
%ADD12RoundRect,0.280000X0.620000X-0.420000X0.620000X0.420000X-0.620000X0.420000X-0.620000X-0.420000X0*%
%ADD13RotRect,2.000000X2.000000X60.000000*%
%ADD14RoundRect,0.280000X0.326936X-0.673731X0.746936X0.053731X-0.326936X0.673731X-0.746936X-0.053731X0*%
%ADD15RotRect,2.000000X2.000000X30.000000*%
%ADD16RoundRect,0.280000X-0.053731X-0.746936X0.673731X-0.326936X0.053731X0.746936X-0.673731X0.326936X0*%
%ADD17RoundRect,0.280000X-0.420000X-0.620000X0.420000X-0.620000X0.420000X0.620000X-0.420000X0.620000X0*%
%ADD18RotRect,2.000000X2.000000X330.000000*%
%ADD19RoundRect,0.280000X-0.673731X-0.326936X0.053731X-0.746936X0.673731X0.326936X-0.053731X0.746936X0*%
%ADD20RotRect,2.000000X2.000000X300.000000*%
%ADD21RoundRect,0.280000X-0.746936X0.053731X-0.326936X-0.673731X0.746936X-0.053731X0.326936X0.673731X0*%
%ADD22RoundRect,0.280000X-0.620000X0.420000X-0.620000X-0.420000X0.620000X-0.420000X0.620000X0.420000X0*%
%ADD23RotRect,2.000000X2.000000X240.000000*%
%ADD24RoundRect,0.280000X-0.326936X0.673731X-0.746936X-0.053731X0.326936X-0.673731X0.746936X0.053731X0*%
%ADD25RotRect,2.000000X2.000000X210.000000*%
%ADD26RoundRect,0.280000X0.053731X0.746936X-0.673731X0.326936X-0.053731X-0.746936X0.673731X-0.326936X0*%
%ADD27RoundRect,0.280000X0.420000X0.620000X-0.420000X0.620000X-0.420000X-0.620000X0.420000X-0.620000X0*%
%ADD28RotRect,2.000000X2.000000X150.000000*%
%ADD29RoundRect,0.280000X0.673731X0.326936X-0.053731X0.746936X-0.673731X-0.326936X0.053731X-0.746936X0*%
%ADD30RotRect,2.000000X2.000000X120.000000*%
%ADD31RoundRect,0.280000X0.746936X-0.053731X0.326936X0.673731X-0.746936X0.053731X-0.326936X-0.673731X0*%
%ADD32R,1.800000X1.800000*%
%ADD33C,1.800000*%
%ADD34RoundRect,0.200000X-0.300000X-0.350000X0.300000X-0.350000X0.300000X0.350000X-0.300000X0.350000X0*%
%ADD35RoundRect,0.180000X-0.295000X0.270000X-0.295000X-0.270000X0.295000X-0.270000X0.295000X0.270000X0*%
%ADD36R,2.200000X2.200000*%
%ADD37C,2.200000*%
%ADD38RoundRect,0.180000X-0.270000X-0.295000X0.270000X-0.295000X0.270000X0.295000X-0.270000X0.295000X0*%
%ADD39C,2.400000*%
G04 APERTURE END LIST*
D10*
%TO.C,D1*%
X100000000Y-69070000D03*
D11*
X100000000Y-66530000D03*
%TD*%
D12*
%TO.C,R1*%
X100000000Y-79800000D03*
X100000000Y-76200000D03*
%TD*%
D13*
%TO.C,D2*%
X115465000Y-73213852D03*
D11*
X116735000Y-71014148D03*
%TD*%
D14*
%TO.C,R2*%
X106600000Y-88568846D03*
X108400000Y-85451154D03*
%TD*%
D15*
%TO.C,D3*%
X126786148Y-84535000D03*
D11*
X128985852Y-83265000D03*
%TD*%
D16*
%TO.C,R3*%
X117494154Y-89900000D03*
X120611846Y-88100000D03*
%TD*%
D10*
%TO.C,D4*%
X130930000Y-100000000D03*
D11*
X133470000Y-100000000D03*
%TD*%
D17*
%TO.C,R4*%
X120200000Y-100000000D03*
X123800000Y-100000000D03*
%TD*%
D18*
%TO.C,D5*%
X126786148Y-115465000D03*
D11*
X128985852Y-116735000D03*
%TD*%
D19*
%TO.C,R5*%
X117494154Y-110100000D03*
X120611846Y-111900000D03*
%TD*%
D20*
%TO.C,D6*%
X115465000Y-126786148D03*
D11*
X116735000Y-128985852D03*
%TD*%
D21*
%TO.C,R6*%
X110100000Y-117494154D03*
X111900000Y-120611846D03*
%TD*%
D10*
%TO.C,D7*%
X100000000Y-130930000D03*
D11*
X100000000Y-133470000D03*
%TD*%
D22*
%TO.C,R7*%
X100000000Y-120200000D03*
X100000000Y-123800000D03*
%TD*%
D23*
%TO.C,D8*%
X84535000Y-126786148D03*
D11*
X83265000Y-128985852D03*
%TD*%
D24*
%TO.C,R8*%
X89900000Y-117494154D03*
X88100000Y-120611846D03*
%TD*%
D25*
%TO.C,D9*%
X73213852Y-115465000D03*
D11*
X71014148Y-116735000D03*
%TD*%
D26*
%TO.C,R9*%
X82505846Y-110100000D03*
X79388154Y-111900000D03*
%TD*%
D10*
%TO.C,D10*%
X69070000Y-100000000D03*
D11*
X66530000Y-100000000D03*
%TD*%
D27*
%TO.C,R10*%
X79800000Y-100000000D03*
X76200000Y-100000000D03*
%TD*%
D28*
%TO.C,D11*%
X73213852Y-84535000D03*
D11*
X71014148Y-83265000D03*
%TD*%
D29*
%TO.C,R11*%
X82505846Y-89900000D03*
X79388154Y-88100000D03*
%TD*%
D30*
%TO.C,D12*%
X84535000Y-73213852D03*
D11*
X83265000Y-71014148D03*
%TD*%
D31*
%TO.C,R12*%
X93400000Y-88568846D03*
X91600000Y-85451154D03*
%TD*%
D32*
%TO.C,J1*%
X87300000Y-72000000D03*
D33*
X87300000Y-74540000D03*
X87300000Y-77080000D03*
X87300000Y-79620000D03*
X87300000Y-82160000D03*
X87300000Y-84700000D03*
X87300000Y-87240000D03*
X87300000Y-89780000D03*
X87300000Y-92320000D03*
X87300000Y-94860000D03*
X87300000Y-97400000D03*
X87300000Y-99940000D03*
X87300000Y-102480000D03*
X87300000Y-105020000D03*
X87300000Y-107560000D03*
X87300000Y-110100000D03*
X87300000Y-112640000D03*
X87300000Y-115180000D03*
X87300000Y-117720000D03*
%TD*%
D32*
%TO.C,J2*%
X112700000Y-72000000D03*
D33*
X112700000Y-74540000D03*
X112700000Y-77080000D03*
X112700000Y-79620000D03*
X112700000Y-82160000D03*
X112700000Y-84700000D03*
X112700000Y-87240000D03*
X112700000Y-89780000D03*
X112700000Y-92320000D03*
X112700000Y-94860000D03*
X112700000Y-97400000D03*
X112700000Y-99940000D03*
X112700000Y-102480000D03*
X112700000Y-105020000D03*
X112700000Y-107560000D03*
X112700000Y-110100000D03*
X112700000Y-112640000D03*
X112700000Y-115180000D03*
X112700000Y-117720000D03*
%TD*%
D34*
%TO.C,Q1*%
X99000000Y-115050000D03*
X99000000Y-116950000D03*
X101000000Y-116000000D03*
%TD*%
D35*
%TO.C,RG*%
X104000000Y-108050000D03*
X104000000Y-109950000D03*
%TD*%
%TO.C,RPD*%
X108000000Y-115050000D03*
X108000000Y-116950000D03*
%TD*%
D36*
%TO.C,Cbulk*%
X91500000Y-106000000D03*
D37*
X96500000Y-106000000D03*
%TD*%
D38*
%TO.C,Cdec*%
X101100000Y-101000000D03*
X102900000Y-101000000D03*
%TD*%
D39*
%TO.C,TP1*%
X94000000Y-95000000D03*
%TD*%
%TO.C,TP2*%
X106000000Y-95000000D03*
%TD*%
%TO.C,TP3*%
X96000000Y-102000000D03*
%TD*%
%TO.C,TP4*%
X103000000Y-120000000D03*
%TD*%
M02*
