M48
; DRILL file {KiCad 9.0.6} date 2026-08-11T20:14:44+0900
; FORMAT={-:-/ absolute / metric / decimal}
; #@! TF.CreationDate,2026-08-11T20:14:44+09:00
; #@! TF.GenerationSoftware,Kicad,Pcbnew,9.0.6
; #@! TF.FileFunction,MixedPlating,1,2
FMAT,2
METRIC
; #@! TA.AperFunction,Plated,PTH,ViaDrill
T1C0.400
; #@! TA.AperFunction,Plated,PTH,ComponentDrill
T2C0.900
; #@! TA.AperFunction,Plated,PTH,ComponentDrill
T3C1.000
%
G90
G05
T1
X91.6Y-85.451
X99.0Y-116.95
X102.9Y-101.0
X108.0Y-116.95
X108.4Y-85.451
T2
X66.53Y-100.0
X69.07Y-100.0
X71.014Y-83.265
X71.014Y-116.735
X73.214Y-84.535
X73.214Y-115.465
X83.265Y-71.014
X83.265Y-128.986
X84.535Y-73.214
X84.535Y-126.786
X100.0Y-66.53
X100.0Y-69.07
X100.0Y-130.93
X100.0Y-133.47
X115.465Y-73.214
X115.465Y-126.786
X116.735Y-71.014
X116.735Y-128.986
X126.786Y-84.535
X126.786Y-115.465
X128.986Y-83.265
X128.986Y-116.735
X130.93Y-100.0
X133.47Y-100.0
T3
X87.3Y-72.0
X87.3Y-74.54
X87.3Y-77.08
X87.3Y-79.62
X87.3Y-82.16
X87.3Y-84.7
X87.3Y-87.24
X87.3Y-89.78
X87.3Y-92.32
X87.3Y-94.86
X87.3Y-97.4
X87.3Y-99.94
X87.3Y-102.48
X87.3Y-105.02
X87.3Y-107.56
X87.3Y-110.1
X87.3Y-112.64
X87.3Y-115.18
X87.3Y-117.72
X91.5Y-106.0
X94.0Y-95.0
X96.0Y-102.0
X96.5Y-106.0
X103.0Y-120.0
X106.0Y-95.0
X112.7Y-72.0
X112.7Y-74.54
X112.7Y-77.08
X112.7Y-79.62
X112.7Y-82.16
X112.7Y-84.7
X112.7Y-87.24
X112.7Y-89.78
X112.7Y-92.32
X112.7Y-94.86
X112.7Y-97.4
X112.7Y-99.94
X112.7Y-102.48
X112.7Y-105.02
X112.7Y-107.56
X112.7Y-110.1
X112.7Y-112.64
X112.7Y-115.18
X112.7Y-117.72
M30
