%TF.GenerationSoftware,KiCad,Pcbnew,9.0.6*%
%TF.CreationDate,2026-08-11T21:14:43+09:00*%
%TF.ProjectId,ir_blaster_v3_wroom_factory_prog,69725f62-6c61-4737-9465-725f76335f77,rev?*%
%TF.SameCoordinates,Original*%
%TF.FileFunction,Copper,L2,Bot*%
%TF.FilePolarity,Positive*%
%FSLAX46Y46*%
G04 Gerber Fmt 4.6, Leading zero omitted, Abs format (unit mm)*
G04 Created by KiCad (PCBNEW 9.0.6) date 2026-08-11 21:14:43*
%MOMM*%
%LPD*%
G01*
G04 APERTURE LIST*
%TA.AperFunction,HeatsinkPad*%
%ADD10C,0.700000*%
%TD*%
%TA.AperFunction,ComponentPad*%
%ADD11R,1.700000X1.700000*%
%TD*%
%TA.AperFunction,ComponentPad*%
%ADD12C,1.700000*%
%TD*%
%TA.AperFunction,SMDPad,CuDef*%
%ADD13C,2.400000*%
%TD*%
%TA.AperFunction,SMDPad,CuDef*%
%ADD14R,2.400000X2.400000*%
%TD*%
%TA.AperFunction,ViaPad*%
%ADD15C,0.800000*%
%TD*%
%TA.AperFunction,Conductor*%
%ADD16C,0.250000*%
%TD*%
%TA.AperFunction,Conductor*%
%ADD17C,0.300000*%
%TD*%
G04 APERTURE END LIST*
D10*
%TO.P,U1,39*%
%TO.N,GND*%
X97100000Y-81760000D03*
X97100000Y-83160000D03*
X97800000Y-81060000D03*
X97800000Y-82460000D03*
X97800000Y-83860000D03*
X98500000Y-81760000D03*
X98500000Y-83160000D03*
X99200000Y-81060000D03*
X99200000Y-82460000D03*
X99200000Y-83860000D03*
X99900000Y-81760000D03*
X99900000Y-83160000D03*
%TD*%
D11*
%TO.P,J_PROG,1*%
%TO.N,+3V3*%
X75500000Y-91000000D03*
D12*
%TO.P,J_PROG,2*%
%TO.N,GND*%
X75500000Y-93540000D03*
%TO.P,J_PROG,3*%
%TO.N,U0TXD*%
X75500000Y-96080000D03*
%TO.P,J_PROG,4*%
%TO.N,U0RXD*%
X75500000Y-98620000D03*
%TO.P,J_PROG,5*%
%TO.N,EN*%
X75500000Y-101160000D03*
%TO.P,J_PROG,6*%
%TO.N,IO0*%
X75500000Y-103700000D03*
%TD*%
D13*
%TO.P,TP_PROG_TX,1*%
%TO.N,U0TXD*%
X84500000Y-97620000D03*
%TD*%
%TO.P,TP_PROG_IO0,1*%
%TO.N,IO0*%
X84500000Y-109050000D03*
%TD*%
%TO.P,TP_PROG_GND,1*%
%TO.N,GND*%
X84500000Y-93810000D03*
%TD*%
%TO.P,TP_PROG_EN,1*%
%TO.N,EN*%
X84500000Y-105240000D03*
%TD*%
%TO.P,TP_PROG_RX,1*%
%TO.N,U0RXD*%
X84500000Y-101430000D03*
%TD*%
D14*
%TO.P,TP_PROG_3V3,1*%
%TO.N,+3V3*%
X84500000Y-90000000D03*
%TD*%
D15*
%TO.N,GND*%
X91250000Y-74740000D03*
X108750000Y-74740000D03*
%TO.N,U0TXD*%
X108750000Y-78550000D03*
%TO.N,IO0*%
X108750000Y-91250000D03*
%TD*%
D16*
%TO.N,GND*%
X75500000Y-93540000D02*
X84500000Y-93810000D01*
%TO.N,+3V3*%
X75500000Y-91000000D02*
X84500000Y-90000000D01*
D17*
%TO.N,U0TXD*%
X75500000Y-96080000D02*
X73500000Y-96080000D01*
D16*
X75500000Y-96080000D02*
X84500000Y-97620000D01*
D17*
X73500000Y-96080000D02*
X73500000Y-120000000D01*
X115500000Y-120000000D02*
X115500000Y-78550000D01*
X115500000Y-78550000D02*
X108750000Y-78550000D01*
X73500000Y-120000000D02*
X115500000Y-120000000D01*
D16*
%TO.N,U0RXD*%
X75500000Y-98620000D02*
X84500000Y-101430000D01*
%TO.N,EN*%
X75500000Y-101160000D02*
X84500000Y-105240000D01*
D17*
%TO.N,IO0*%
X112000000Y-91250000D02*
X108750000Y-91250000D01*
D16*
X75500000Y-103700000D02*
X84500000Y-109050000D01*
D17*
X84500000Y-109050000D02*
X112000000Y-109050000D01*
X112000000Y-109050000D02*
X112000000Y-91250000D01*
%TD*%
%TA.AperFunction,Conductor*%
%TO.N,GND*%
G36*
X100060834Y-63505981D02*
G01*
X100803079Y-63578954D01*
X107047642Y-64192886D01*
X107059657Y-64194667D01*
X107177719Y-64218151D01*
X107189496Y-64221102D01*
X113918276Y-66264294D01*
X113929688Y-66268380D01*
X114000673Y-66297784D01*
X114013084Y-66303752D01*
X117293296Y-68112073D01*
X120200761Y-69714906D01*
X120218245Y-69726581D01*
X125760863Y-74150778D01*
X125771187Y-74160009D01*
X125839989Y-74228811D01*
X125849220Y-74239135D01*
X129789497Y-79175500D01*
X130273415Y-79781750D01*
X130285095Y-79799242D01*
X133696246Y-85986914D01*
X133702214Y-85999325D01*
X133731618Y-86070310D01*
X133735709Y-86081736D01*
X135068948Y-90472450D01*
X135729204Y-92646851D01*
X135778888Y-92810472D01*
X135781854Y-92822309D01*
X135805327Y-92940318D01*
X135807115Y-92952376D01*
X136271789Y-97678768D01*
X136435419Y-99343124D01*
X136494019Y-99939164D01*
X136494614Y-99951297D01*
X136494614Y-100048701D01*
X136494019Y-100060834D01*
X135807115Y-107047622D01*
X135805327Y-107059680D01*
X135781854Y-107177689D01*
X135778888Y-107189526D01*
X133735709Y-113918262D01*
X133731618Y-113929688D01*
X133702214Y-114000673D01*
X133696246Y-114013084D01*
X130285095Y-120200757D01*
X130273415Y-120218249D01*
X125849220Y-125760863D01*
X125839989Y-125771187D01*
X125771187Y-125839989D01*
X125760863Y-125849220D01*
X120218249Y-130273415D01*
X120200757Y-130285095D01*
X114013084Y-133696246D01*
X114000673Y-133702214D01*
X113929688Y-133731618D01*
X113918262Y-133735709D01*
X107189526Y-135778888D01*
X107177689Y-135781854D01*
X107059680Y-135805327D01*
X107047622Y-135807115D01*
X100060835Y-136494019D01*
X100048702Y-136494614D01*
X99951298Y-136494614D01*
X99939165Y-136494019D01*
X92952376Y-135807115D01*
X92940318Y-135805327D01*
X92822309Y-135781854D01*
X92810472Y-135778888D01*
X86081736Y-133735709D01*
X86070310Y-133731618D01*
X85999325Y-133702214D01*
X85986914Y-133696246D01*
X79799242Y-130285095D01*
X79781750Y-130273415D01*
X74239135Y-125849220D01*
X74228811Y-125839989D01*
X74160009Y-125771187D01*
X74150778Y-125760863D01*
X69726581Y-120218245D01*
X69714904Y-120200757D01*
X69689452Y-120154589D01*
X68112073Y-117293296D01*
X66303752Y-114013084D01*
X66297784Y-114000673D01*
X66268380Y-113929688D01*
X66264294Y-113918276D01*
X64221102Y-107189496D01*
X64218151Y-107177719D01*
X64194667Y-107059657D01*
X64192886Y-107047642D01*
X63531817Y-100323622D01*
X63505981Y-100060834D01*
X63505386Y-100048702D01*
X63505386Y-99951296D01*
X63505981Y-99939164D01*
X63553148Y-99459411D01*
X63890577Y-96027273D01*
X73099500Y-96027273D01*
X73099500Y-119947273D01*
X73099500Y-120052727D01*
X73126793Y-120154587D01*
X73179520Y-120245913D01*
X73254087Y-120320480D01*
X73345413Y-120373207D01*
X73447273Y-120400500D01*
X73447275Y-120400500D01*
X115552725Y-120400500D01*
X115552727Y-120400500D01*
X115654587Y-120373207D01*
X115745913Y-120320480D01*
X115820480Y-120245913D01*
X115873207Y-120154587D01*
X115900500Y-120052727D01*
X115900500Y-78497273D01*
X115873207Y-78395413D01*
X115820480Y-78304087D01*
X115745913Y-78229520D01*
X115654587Y-78176793D01*
X115552727Y-78149500D01*
X115552726Y-78149500D01*
X109320807Y-78149500D01*
X109253768Y-78129815D01*
X109233130Y-78113185D01*
X109164669Y-78044724D01*
X109164668Y-78044723D01*
X109164667Y-78044722D01*
X109058133Y-77973538D01*
X109058124Y-77973533D01*
X108939744Y-77924499D01*
X108939738Y-77924497D01*
X108814071Y-77899500D01*
X108814069Y-77899500D01*
X108685931Y-77899500D01*
X108685929Y-77899500D01*
X108560261Y-77924497D01*
X108560255Y-77924499D01*
X108441875Y-77973533D01*
X108441866Y-77973538D01*
X108335331Y-78044723D01*
X108335327Y-78044726D01*
X108244726Y-78135327D01*
X108244723Y-78135331D01*
X108173538Y-78241866D01*
X108173533Y-78241875D01*
X108124499Y-78360255D01*
X108124497Y-78360261D01*
X108099500Y-78485928D01*
X108099500Y-78485931D01*
X108099500Y-78614069D01*
X108099500Y-78614071D01*
X108099499Y-78614071D01*
X108124497Y-78739738D01*
X108124499Y-78739744D01*
X108173533Y-78858124D01*
X108173538Y-78858133D01*
X108244723Y-78964668D01*
X108244726Y-78964672D01*
X108335327Y-79055273D01*
X108335331Y-79055276D01*
X108441866Y-79126461D01*
X108441872Y-79126464D01*
X108441873Y-79126465D01*
X108560256Y-79175501D01*
X108560260Y-79175501D01*
X108560261Y-79175502D01*
X108685928Y-79200500D01*
X108685931Y-79200500D01*
X108814071Y-79200500D01*
X108898615Y-79183682D01*
X108939744Y-79175501D01*
X109058127Y-79126465D01*
X109164669Y-79055276D01*
X109233127Y-78986817D01*
X109294448Y-78953334D01*
X109320807Y-78950500D01*
X114975500Y-78950500D01*
X115042539Y-78970185D01*
X115088294Y-79022989D01*
X115099500Y-79074500D01*
X115099500Y-119475500D01*
X115079815Y-119542539D01*
X115027011Y-119588294D01*
X114975500Y-119599500D01*
X74024500Y-119599500D01*
X73957461Y-119579815D01*
X73911706Y-119527011D01*
X73900500Y-119475500D01*
X73900500Y-103613389D01*
X74399500Y-103613389D01*
X74399500Y-103786610D01*
X74425228Y-103949056D01*
X74426598Y-103957701D01*
X74480127Y-104122445D01*
X74558768Y-104276788D01*
X74660586Y-104416928D01*
X74783072Y-104539414D01*
X74923212Y-104641232D01*
X75077555Y-104719873D01*
X75242299Y-104773402D01*
X75413389Y-104800500D01*
X75413390Y-104800500D01*
X75586610Y-104800500D01*
X75586611Y-104800500D01*
X75757701Y-104773402D01*
X75922445Y-104719873D01*
X76076788Y-104641232D01*
X76133008Y-104600385D01*
X76198812Y-104576905D01*
X76266866Y-104592730D01*
X76269225Y-104594096D01*
X82486251Y-108289772D01*
X83022293Y-108608419D01*
X83069861Y-108659595D01*
X83082210Y-108728365D01*
X83081404Y-108734406D01*
X83049500Y-108935837D01*
X83049500Y-109164162D01*
X83085215Y-109389660D01*
X83155770Y-109606803D01*
X83259421Y-109810228D01*
X83393621Y-109994937D01*
X83555063Y-110156379D01*
X83739772Y-110290579D01*
X83755493Y-110298589D01*
X83943196Y-110394229D01*
X83943198Y-110394229D01*
X83943201Y-110394231D01*
X84059592Y-110432049D01*
X84160339Y-110464784D01*
X84385838Y-110500500D01*
X84385843Y-110500500D01*
X84614162Y-110500500D01*
X84839660Y-110464784D01*
X85056799Y-110394231D01*
X85260228Y-110290579D01*
X85444937Y-110156379D01*
X85606379Y-109994937D01*
X85740579Y-109810228D01*
X85844231Y-109606799D01*
X85867176Y-109536180D01*
X85906614Y-109478506D01*
X85970973Y-109451308D01*
X85985107Y-109450500D01*
X112052725Y-109450500D01*
X112052727Y-109450500D01*
X112154587Y-109423207D01*
X112245913Y-109370480D01*
X112320480Y-109295913D01*
X112373207Y-109204587D01*
X112400500Y-109102727D01*
X112400500Y-91197273D01*
X112373207Y-91095413D01*
X112320480Y-91004087D01*
X112245913Y-90929520D01*
X112154587Y-90876793D01*
X112052727Y-90849500D01*
X112052726Y-90849500D01*
X109320807Y-90849500D01*
X109253768Y-90829815D01*
X109233130Y-90813185D01*
X109164669Y-90744724D01*
X109164668Y-90744723D01*
X109164667Y-90744722D01*
X109058133Y-90673538D01*
X109058124Y-90673533D01*
X108939744Y-90624499D01*
X108939738Y-90624497D01*
X108814071Y-90599500D01*
X108814069Y-90599500D01*
X108685931Y-90599500D01*
X108685929Y-90599500D01*
X108560261Y-90624497D01*
X108560255Y-90624499D01*
X108441875Y-90673533D01*
X108441866Y-90673538D01*
X108335331Y-90744723D01*
X108335327Y-90744726D01*
X108244726Y-90835327D01*
X108244723Y-90835331D01*
X108173538Y-90941866D01*
X108173533Y-90941875D01*
X108124499Y-91060255D01*
X108124497Y-91060261D01*
X108099500Y-91185928D01*
X108099500Y-91185931D01*
X108099500Y-91314069D01*
X108099500Y-91314071D01*
X108099499Y-91314071D01*
X108124497Y-91439738D01*
X108124499Y-91439744D01*
X108173533Y-91558124D01*
X108173538Y-91558133D01*
X108244723Y-91664668D01*
X108244726Y-91664672D01*
X108335327Y-91755273D01*
X108335331Y-91755276D01*
X108441866Y-91826461D01*
X108441872Y-91826464D01*
X108441873Y-91826465D01*
X108560256Y-91875501D01*
X108560260Y-91875501D01*
X108560261Y-91875502D01*
X108685928Y-91900500D01*
X108685931Y-91900500D01*
X108814071Y-91900500D01*
X108898615Y-91883682D01*
X108939744Y-91875501D01*
X109058127Y-91826465D01*
X109164669Y-91755276D01*
X109233127Y-91686817D01*
X109294448Y-91653334D01*
X109320807Y-91650500D01*
X111475500Y-91650500D01*
X111542539Y-91670185D01*
X111588294Y-91722989D01*
X111599500Y-91774500D01*
X111599500Y-108525500D01*
X111579815Y-108592539D01*
X111527011Y-108638294D01*
X111475500Y-108649500D01*
X85985107Y-108649500D01*
X85918068Y-108629815D01*
X85872313Y-108577011D01*
X85867176Y-108563819D01*
X85844231Y-108493201D01*
X85844229Y-108493198D01*
X85844229Y-108493196D01*
X85740578Y-108289771D01*
X85606379Y-108105063D01*
X85444937Y-107943621D01*
X85260228Y-107809421D01*
X85056803Y-107705770D01*
X84839660Y-107635215D01*
X84614162Y-107599500D01*
X84614157Y-107599500D01*
X84385843Y-107599500D01*
X84385838Y-107599500D01*
X84160339Y-107635215D01*
X83943196Y-107705770D01*
X83739771Y-107809421D01*
X83555057Y-107943625D01*
X83551352Y-107946790D01*
X83550545Y-107945846D01*
X83494259Y-107976569D01*
X83424568Y-107971572D01*
X83404563Y-107961988D01*
X80415132Y-106184938D01*
X76653836Y-103949056D01*
X76606268Y-103897880D01*
X76593919Y-103829110D01*
X76594721Y-103823091D01*
X76600500Y-103786611D01*
X76600500Y-103613389D01*
X76573402Y-103442299D01*
X76519873Y-103277555D01*
X76441232Y-103123212D01*
X76339414Y-102983072D01*
X76216928Y-102860586D01*
X76076788Y-102758768D01*
X75922445Y-102680127D01*
X75757701Y-102626598D01*
X75757699Y-102626597D01*
X75757698Y-102626597D01*
X75626271Y-102605781D01*
X75586611Y-102599500D01*
X75413389Y-102599500D01*
X75373728Y-102605781D01*
X75242302Y-102626597D01*
X75242299Y-102626598D01*
X75106941Y-102670579D01*
X75077552Y-102680128D01*
X74923211Y-102758768D01*
X74843256Y-102816859D01*
X74783072Y-102860586D01*
X74783070Y-102860588D01*
X74783069Y-102860588D01*
X74660588Y-102983069D01*
X74660588Y-102983070D01*
X74660586Y-102983072D01*
X74616859Y-103043256D01*
X74558768Y-103123211D01*
X74480128Y-103277552D01*
X74426597Y-103442302D01*
X74399500Y-103613389D01*
X73900500Y-103613389D01*
X73900500Y-101073389D01*
X74399500Y-101073389D01*
X74399500Y-101246611D01*
X74426598Y-101417701D01*
X74480127Y-101582445D01*
X74558768Y-101736788D01*
X74660586Y-101876928D01*
X74783072Y-101999414D01*
X74923212Y-102101232D01*
X75077555Y-102179873D01*
X75242299Y-102233402D01*
X75413389Y-102260500D01*
X75413390Y-102260500D01*
X75586610Y-102260500D01*
X75586611Y-102260500D01*
X75757701Y-102233402D01*
X75922445Y-102179873D01*
X76076788Y-102101232D01*
X76216928Y-101999414D01*
X76226496Y-101989844D01*
X76287817Y-101956359D01*
X76357509Y-101961341D01*
X76365365Y-101964581D01*
X82982820Y-104964495D01*
X83035750Y-105010102D01*
X83055621Y-105077087D01*
X83054095Y-105096827D01*
X83049500Y-105125841D01*
X83049500Y-105354162D01*
X83085215Y-105579660D01*
X83155770Y-105796803D01*
X83259421Y-106000228D01*
X83393621Y-106184937D01*
X83555063Y-106346379D01*
X83739772Y-106480579D01*
X83835884Y-106529550D01*
X83943196Y-106584229D01*
X83943198Y-106584229D01*
X83943201Y-106584231D01*
X84059592Y-106622049D01*
X84160339Y-106654784D01*
X84385838Y-106690500D01*
X84385843Y-106690500D01*
X84614162Y-106690500D01*
X84839660Y-106654784D01*
X85056799Y-106584231D01*
X85260228Y-106480579D01*
X85444937Y-106346379D01*
X85606379Y-106184937D01*
X85740579Y-106000228D01*
X85844231Y-105796799D01*
X85914784Y-105579660D01*
X85926894Y-105503203D01*
X85950500Y-105354162D01*
X85950500Y-105125837D01*
X85914784Y-104900339D01*
X85844229Y-104683196D01*
X85770968Y-104539414D01*
X85740579Y-104479772D01*
X85606379Y-104295063D01*
X85444937Y-104133621D01*
X85260228Y-103999421D01*
X85056803Y-103895770D01*
X84839660Y-103825215D01*
X84614162Y-103789500D01*
X84614157Y-103789500D01*
X84385843Y-103789500D01*
X84385838Y-103789500D01*
X84160339Y-103825215D01*
X83943196Y-103895770D01*
X83739771Y-103999421D01*
X83555064Y-104133620D01*
X83432923Y-104255760D01*
X83371599Y-104289244D01*
X83301908Y-104284259D01*
X83294044Y-104281015D01*
X76673302Y-101279612D01*
X76620371Y-101234004D01*
X76600500Y-101167019D01*
X76600500Y-101073389D01*
X76573402Y-100902302D01*
X76573402Y-100902299D01*
X76519873Y-100737555D01*
X76441232Y-100583212D01*
X76339414Y-100443072D01*
X76216928Y-100320586D01*
X76076788Y-100218768D01*
X75922445Y-100140127D01*
X75757701Y-100086598D01*
X75757699Y-100086597D01*
X75757698Y-100086597D01*
X75626271Y-100065781D01*
X75586611Y-100059500D01*
X75413389Y-100059500D01*
X75373728Y-100065781D01*
X75242302Y-100086597D01*
X75077552Y-100140128D01*
X74923211Y-100218768D01*
X74843256Y-100276859D01*
X74783072Y-100320586D01*
X74783070Y-100320588D01*
X74783069Y-100320588D01*
X74660588Y-100443069D01*
X74660588Y-100443070D01*
X74660586Y-100443072D01*
X74630079Y-100485061D01*
X74558768Y-100583211D01*
X74480128Y-100737552D01*
X74426597Y-100902302D01*
X74399500Y-101073389D01*
X73900500Y-101073389D01*
X73900500Y-98533389D01*
X74399500Y-98533389D01*
X74399500Y-98706611D01*
X74426598Y-98877701D01*
X74480127Y-99042445D01*
X74558768Y-99196788D01*
X74660586Y-99336928D01*
X74783072Y-99459414D01*
X74923212Y-99561232D01*
X75077555Y-99639873D01*
X75242299Y-99693402D01*
X75413389Y-99720500D01*
X75413390Y-99720500D01*
X75586610Y-99720500D01*
X75586611Y-99720500D01*
X75757701Y-99693402D01*
X75922445Y-99639873D01*
X76076788Y-99561232D01*
X76216928Y-99459414D01*
X76333218Y-99343124D01*
X76394541Y-99309639D01*
X76457855Y-99312440D01*
X77992860Y-99791702D01*
X82962458Y-101343321D01*
X83020582Y-101382090D01*
X83048521Y-101446131D01*
X83049500Y-101461685D01*
X83049500Y-101544162D01*
X83085215Y-101769660D01*
X83155770Y-101986803D01*
X83214075Y-102101232D01*
X83259421Y-102190228D01*
X83393621Y-102374937D01*
X83555063Y-102536379D01*
X83739772Y-102670579D01*
X83835884Y-102719550D01*
X83943196Y-102774229D01*
X83943198Y-102774229D01*
X83943201Y-102774231D01*
X84059592Y-102812049D01*
X84160339Y-102844784D01*
X84385838Y-102880500D01*
X84385843Y-102880500D01*
X84614162Y-102880500D01*
X84839660Y-102844784D01*
X85056799Y-102774231D01*
X85260228Y-102670579D01*
X85444937Y-102536379D01*
X85606379Y-102374937D01*
X85740579Y-102190228D01*
X85840425Y-101994268D01*
X85844229Y-101986803D01*
X85844229Y-101986802D01*
X85844231Y-101986799D01*
X85914784Y-101769660D01*
X85950500Y-101544162D01*
X85950500Y-101315837D01*
X85914784Y-101090339D01*
X85882049Y-100989592D01*
X85844231Y-100873201D01*
X85844229Y-100873198D01*
X85844229Y-100873196D01*
X85775116Y-100737555D01*
X85740579Y-100669772D01*
X85606379Y-100485063D01*
X85444937Y-100323621D01*
X85260228Y-100189421D01*
X85056803Y-100085770D01*
X84839660Y-100015215D01*
X84614162Y-99979500D01*
X84614157Y-99979500D01*
X84385843Y-99979500D01*
X84385838Y-99979500D01*
X84160339Y-100015215D01*
X83943196Y-100085770D01*
X83739771Y-100189421D01*
X83555061Y-100323622D01*
X83393620Y-100485063D01*
X83323866Y-100581070D01*
X83268535Y-100623735D01*
X83198922Y-100629713D01*
X83186593Y-100626548D01*
X83177583Y-100623735D01*
X81628662Y-100140127D01*
X76680112Y-98595079D01*
X76621986Y-98556309D01*
X76594596Y-98496113D01*
X76573402Y-98362299D01*
X76519873Y-98197555D01*
X76441232Y-98043212D01*
X76339414Y-97903072D01*
X76216928Y-97780586D01*
X76076788Y-97678768D01*
X75922445Y-97600127D01*
X75757701Y-97546598D01*
X75757699Y-97546597D01*
X75757698Y-97546597D01*
X75626271Y-97525781D01*
X75586611Y-97519500D01*
X75413389Y-97519500D01*
X75373728Y-97525781D01*
X75242302Y-97546597D01*
X75077552Y-97600128D01*
X74923211Y-97678768D01*
X74846976Y-97734157D01*
X74783072Y-97780586D01*
X74783070Y-97780588D01*
X74783069Y-97780588D01*
X74660588Y-97903069D01*
X74660588Y-97903070D01*
X74660586Y-97903072D01*
X74619474Y-97959657D01*
X74558768Y-98043211D01*
X74480128Y-98197552D01*
X74426597Y-98362302D01*
X74426597Y-98362303D01*
X74399500Y-98533389D01*
X73900500Y-98533389D01*
X73900500Y-96604500D01*
X73920185Y-96537461D01*
X73972989Y-96491706D01*
X74024500Y-96480500D01*
X74392958Y-96480500D01*
X74459997Y-96500185D01*
X74503443Y-96548206D01*
X74558766Y-96656786D01*
X74581584Y-96688191D01*
X74660586Y-96796928D01*
X74783072Y-96919414D01*
X74923212Y-97021232D01*
X75077555Y-97099873D01*
X75242299Y-97153402D01*
X75413389Y-97180500D01*
X75413390Y-97180500D01*
X75586610Y-97180500D01*
X75586611Y-97180500D01*
X75757701Y-97153402D01*
X75922445Y-97099873D01*
X76076788Y-97021232D01*
X76216928Y-96919414D01*
X76339414Y-96796928D01*
X76418419Y-96688186D01*
X76473744Y-96645525D01*
X76539645Y-96638852D01*
X82964879Y-97738280D01*
X83027638Y-97768990D01*
X83063831Y-97828754D01*
X83066438Y-97841105D01*
X83085215Y-97959657D01*
X83085216Y-97959660D01*
X83155769Y-98176799D01*
X83259421Y-98380228D01*
X83393621Y-98564937D01*
X83555063Y-98726379D01*
X83739772Y-98860579D01*
X83835884Y-98909550D01*
X83943196Y-98964229D01*
X83943198Y-98964229D01*
X83943201Y-98964231D01*
X84059592Y-99002049D01*
X84160339Y-99034784D01*
X84385838Y-99070500D01*
X84385843Y-99070500D01*
X84614162Y-99070500D01*
X84839660Y-99034784D01*
X85056799Y-98964231D01*
X85260228Y-98860579D01*
X85444937Y-98726379D01*
X85606379Y-98564937D01*
X85740579Y-98380228D01*
X85844231Y-98176799D01*
X85914784Y-97959660D01*
X85923747Y-97903069D01*
X85950500Y-97734162D01*
X85950500Y-97505837D01*
X85914784Y-97280339D01*
X85844229Y-97063196D01*
X85770968Y-96919414D01*
X85740579Y-96859772D01*
X85606379Y-96675063D01*
X85444937Y-96513621D01*
X85260228Y-96379421D01*
X85056803Y-96275770D01*
X84839660Y-96205215D01*
X84614162Y-96169500D01*
X84614157Y-96169500D01*
X84385843Y-96169500D01*
X84385838Y-96169500D01*
X84160339Y-96205215D01*
X83943196Y-96275770D01*
X83739771Y-96379421D01*
X83555061Y-96513622D01*
X83393622Y-96675061D01*
X83259419Y-96859774D01*
X83222592Y-96932051D01*
X83174618Y-96982846D01*
X83106797Y-96999641D01*
X83091194Y-96997979D01*
X76668048Y-95898908D01*
X76605289Y-95868198D01*
X76571031Y-95815003D01*
X76519873Y-95657555D01*
X76441232Y-95503212D01*
X76339414Y-95363072D01*
X76216928Y-95240586D01*
X76076788Y-95138768D01*
X75922445Y-95060127D01*
X75872252Y-95043818D01*
X75830048Y-95030105D01*
X75757701Y-95006598D01*
X75757699Y-95006597D01*
X75757698Y-95006597D01*
X75626271Y-94985781D01*
X75586611Y-94979500D01*
X75413389Y-94979500D01*
X75373728Y-94985781D01*
X75242302Y-95006597D01*
X75077552Y-95060128D01*
X74923211Y-95138768D01*
X74843256Y-95196859D01*
X74783072Y-95240586D01*
X74783070Y-95240588D01*
X74783069Y-95240588D01*
X74660588Y-95363069D01*
X74660588Y-95363070D01*
X74660586Y-95363072D01*
X74629996Y-95405174D01*
X74558766Y-95503213D01*
X74503443Y-95611794D01*
X74455469Y-95662591D01*
X74392958Y-95679500D01*
X73447273Y-95679500D01*
X73345413Y-95706793D01*
X73345410Y-95706794D01*
X73254085Y-95759521D01*
X73179521Y-95834085D01*
X73126794Y-95925410D01*
X73126793Y-95925413D01*
X73099500Y-96027273D01*
X63890577Y-96027273D01*
X63994213Y-94973147D01*
X83548982Y-94973147D01*
X83548983Y-94973148D01*
X83713825Y-95092912D01*
X83924197Y-95200102D01*
X84148752Y-95273065D01*
X84148751Y-95273065D01*
X84381948Y-95310000D01*
X84618052Y-95310000D01*
X84851247Y-95273065D01*
X85075802Y-95200102D01*
X85286171Y-95092914D01*
X85451015Y-94973147D01*
X85451016Y-94973147D01*
X84500000Y-94022132D01*
X83548982Y-94973147D01*
X63994213Y-94973147D01*
X64144010Y-93449493D01*
X74350000Y-93449493D01*
X74350000Y-93630506D01*
X74378317Y-93809293D01*
X74434251Y-93981444D01*
X74434252Y-93981447D01*
X74516432Y-94142731D01*
X74587424Y-94240442D01*
X74587425Y-94240443D01*
X75056329Y-93771538D01*
X75099901Y-93847007D01*
X75192993Y-93940099D01*
X75268460Y-93983670D01*
X74799555Y-94452574D01*
X74897268Y-94523567D01*
X75058552Y-94605747D01*
X75058555Y-94605748D01*
X75230706Y-94661682D01*
X75409494Y-94690000D01*
X75590506Y-94690000D01*
X75769293Y-94661682D01*
X75941444Y-94605748D01*
X75941447Y-94605747D01*
X76102730Y-94523568D01*
X76200442Y-94452574D01*
X76200443Y-94452574D01*
X75731539Y-93983670D01*
X75807007Y-93940099D01*
X75900099Y-93847007D01*
X75943670Y-93771538D01*
X76412574Y-94240443D01*
X76412574Y-94240442D01*
X76483568Y-94142730D01*
X76565747Y-93981447D01*
X76565748Y-93981444D01*
X76621682Y-93809293D01*
X76640269Y-93691947D01*
X83000000Y-93691947D01*
X83000000Y-93928052D01*
X83036934Y-94161247D01*
X83109897Y-94385802D01*
X83217087Y-94596175D01*
X83336850Y-94761015D01*
X83336851Y-94761016D01*
X84287868Y-93810000D01*
X84287867Y-93809999D01*
X84712132Y-93809999D01*
X84712132Y-93810001D01*
X85663147Y-94761016D01*
X85663147Y-94761015D01*
X85782914Y-94596171D01*
X85890102Y-94385802D01*
X85963065Y-94161247D01*
X86000000Y-93928052D01*
X86000000Y-93691947D01*
X85963065Y-93458752D01*
X85890102Y-93234197D01*
X85782912Y-93023825D01*
X85663148Y-92858983D01*
X85663147Y-92858982D01*
X84712132Y-93809999D01*
X84287867Y-93809999D01*
X83336851Y-92858983D01*
X83217084Y-93023830D01*
X83109897Y-93234197D01*
X83036934Y-93458752D01*
X83000000Y-93691947D01*
X76640269Y-93691947D01*
X76644113Y-93667677D01*
X76644113Y-93667676D01*
X76650000Y-93630507D01*
X76650000Y-93449493D01*
X76621682Y-93270706D01*
X76565748Y-93098555D01*
X76565747Y-93098552D01*
X76483567Y-92937268D01*
X76412574Y-92839556D01*
X76412574Y-92839555D01*
X75943670Y-93308460D01*
X75900099Y-93232993D01*
X75807007Y-93139901D01*
X75731538Y-93096329D01*
X76181016Y-92646851D01*
X83548983Y-92646851D01*
X84500000Y-93597868D01*
X84500001Y-93597868D01*
X85451016Y-92646851D01*
X85451015Y-92646850D01*
X85286175Y-92527087D01*
X85075802Y-92419897D01*
X84851247Y-92346934D01*
X84851248Y-92346934D01*
X84618052Y-92310000D01*
X84381948Y-92310000D01*
X84148752Y-92346934D01*
X83924197Y-92419897D01*
X83713830Y-92527084D01*
X83548983Y-92646851D01*
X76181016Y-92646851D01*
X76200443Y-92627424D01*
X76102731Y-92556432D01*
X75941447Y-92474252D01*
X75941444Y-92474251D01*
X75769293Y-92418317D01*
X75590506Y-92390000D01*
X75409494Y-92390000D01*
X75230706Y-92418317D01*
X75058555Y-92474251D01*
X75058552Y-92474252D01*
X74897265Y-92556434D01*
X74799556Y-92627423D01*
X74799556Y-92627425D01*
X75268461Y-93096329D01*
X75192993Y-93139901D01*
X75099901Y-93232993D01*
X75056329Y-93308460D01*
X74587425Y-92839556D01*
X74587423Y-92839556D01*
X74516434Y-92937265D01*
X74434252Y-93098552D01*
X74434251Y-93098555D01*
X74378317Y-93270706D01*
X74350000Y-93449493D01*
X64144010Y-93449493D01*
X64192887Y-92952348D01*
X64194666Y-92940348D01*
X64218153Y-92822270D01*
X64221099Y-92810512D01*
X65036457Y-90125321D01*
X74399500Y-90125321D01*
X74399500Y-91874678D01*
X74414032Y-91947735D01*
X74414033Y-91947739D01*
X74414034Y-91947740D01*
X74469399Y-92030601D01*
X74546550Y-92082151D01*
X74552260Y-92085966D01*
X74552264Y-92085967D01*
X74625321Y-92100499D01*
X74625324Y-92100500D01*
X74625326Y-92100500D01*
X76374676Y-92100500D01*
X76374677Y-92100499D01*
X76447740Y-92085966D01*
X76530601Y-92030601D01*
X76585966Y-91947740D01*
X76600500Y-91874674D01*
X76600500Y-91366518D01*
X76620185Y-91299479D01*
X76672989Y-91253724D01*
X76710801Y-91243277D01*
X82911807Y-90554276D01*
X82980610Y-90566437D01*
X83031916Y-90613866D01*
X83049500Y-90677518D01*
X83049500Y-91224678D01*
X83064032Y-91297735D01*
X83064033Y-91297739D01*
X83074946Y-91314071D01*
X83119399Y-91380601D01*
X83202260Y-91435966D01*
X83202264Y-91435967D01*
X83275321Y-91450499D01*
X83275324Y-91450500D01*
X83275326Y-91450500D01*
X85724676Y-91450500D01*
X85724677Y-91450499D01*
X85797740Y-91435966D01*
X85880601Y-91380601D01*
X85935966Y-91297740D01*
X85950500Y-91224674D01*
X85950500Y-88775326D01*
X85950500Y-88775323D01*
X85950499Y-88775321D01*
X85935967Y-88702264D01*
X85935966Y-88702260D01*
X85880601Y-88619399D01*
X85797740Y-88564034D01*
X85797739Y-88564033D01*
X85797735Y-88564032D01*
X85724677Y-88549500D01*
X85724674Y-88549500D01*
X83275326Y-88549500D01*
X83275323Y-88549500D01*
X83202264Y-88564032D01*
X83202260Y-88564033D01*
X83119399Y-88619399D01*
X83064033Y-88702260D01*
X83064032Y-88702264D01*
X83049500Y-88775321D01*
X83049500Y-89672369D01*
X83029815Y-89739408D01*
X82977011Y-89785163D01*
X82939194Y-89795611D01*
X76738194Y-90484611D01*
X76669390Y-90472450D01*
X76618084Y-90425021D01*
X76600500Y-90361369D01*
X76600500Y-90125323D01*
X76600499Y-90125321D01*
X76585967Y-90052264D01*
X76585966Y-90052260D01*
X76530601Y-89969399D01*
X76447740Y-89914034D01*
X76447739Y-89914033D01*
X76447735Y-89914032D01*
X76374677Y-89899500D01*
X76374674Y-89899500D01*
X74625326Y-89899500D01*
X74625323Y-89899500D01*
X74552264Y-89914032D01*
X74552260Y-89914033D01*
X74469399Y-89969399D01*
X74414033Y-90052260D01*
X74414032Y-90052264D01*
X74399500Y-90125321D01*
X65036457Y-90125321D01*
X66264298Y-86081710D01*
X66268374Y-86070326D01*
X66297784Y-85999325D01*
X66303748Y-85986921D01*
X69714910Y-79799232D01*
X69726577Y-79781759D01*
X74150794Y-74239116D01*
X74159992Y-74228829D01*
X74228829Y-74159992D01*
X74239116Y-74150794D01*
X79781759Y-69726577D01*
X79799232Y-69714910D01*
X85986921Y-66303748D01*
X85999325Y-66297784D01*
X86004096Y-66295807D01*
X86070326Y-66268374D01*
X86081710Y-66264298D01*
X92810512Y-64221099D01*
X92822270Y-64218153D01*
X92940348Y-64194666D01*
X92952351Y-64192886D01*
X99300215Y-63568799D01*
X99939166Y-63505981D01*
X99951298Y-63505386D01*
X100048702Y-63505386D01*
X100060834Y-63505981D01*
G37*
%TD.AperFunction*%
%TD*%
M02*
