%TF.GenerationSoftware,KiCad,Pcbnew,9.0.6*%
%TF.CreationDate,2026-08-11T21:14:43+09:00*%
%TF.ProjectId,ir_blaster_v3_wroom_factory_prog,69725f62-6c61-4737-9465-725f76335f77,rev?*%
%TF.SameCoordinates,Original*%
%TF.FileFunction,Copper,L1,Top*%
%TF.FilePolarity,Positive*%
%FSLAX46Y46*%
G04 Gerber Fmt 4.6, Leading zero omitted, Abs format (unit mm)*
G04 Created by KiCad (PCBNEW 9.0.6) date 2026-08-11 21:14:43*
%MOMM*%
%LPD*%
G01*
G04 APERTURE LIST*
%TA.AperFunction,SMDPad,CuDef*%
%ADD10R,1.500000X0.900000*%
%TD*%
%TA.AperFunction,SMDPad,CuDef*%
%ADD11R,0.900000X1.500000*%
%TD*%
%TA.AperFunction,HeatsinkPad*%
%ADD12R,0.900000X0.900000*%
%TD*%
%TA.AperFunction,HeatsinkPad*%
%ADD13C,0.700000*%
%TD*%
%TA.AperFunction,ComponentPad*%
%ADD14R,1.700000X1.700000*%
%TD*%
%TA.AperFunction,ComponentPad*%
%ADD15C,1.700000*%
%TD*%
%TA.AperFunction,ViaPad*%
%ADD16C,0.800000*%
%TD*%
%TA.AperFunction,Conductor*%
%ADD17C,0.300000*%
%TD*%
G04 APERTURE END LIST*
D10*
%TO.P,U1,1*%
%TO.N,GND*%
X91250000Y-74740000D03*
%TO.P,U1,2*%
%TO.N,+3V3*%
X91250000Y-76010000D03*
%TO.P,U1,3*%
%TO.N,EN*%
X91250000Y-77280000D03*
%TO.P,U1,4*%
%TO.N,N/C*%
X91250000Y-78550000D03*
%TO.P,U1,5*%
X91250000Y-79820000D03*
%TO.P,U1,6*%
X91250000Y-81090000D03*
%TO.P,U1,7*%
X91250000Y-82360000D03*
%TO.P,U1,8*%
X91250000Y-83630000D03*
%TO.P,U1,9*%
X91250000Y-84900000D03*
%TO.P,U1,10*%
X91250000Y-86170000D03*
%TO.P,U1,11*%
X91250000Y-87440000D03*
%TO.P,U1,12*%
X91250000Y-88710000D03*
%TO.P,U1,13*%
X91250000Y-89980000D03*
%TO.P,U1,14*%
X91250000Y-91250000D03*
D11*
%TO.P,U1,15*%
X94285000Y-92500000D03*
%TO.P,U1,16*%
X95555000Y-92500000D03*
%TO.P,U1,17*%
X96825000Y-92500000D03*
%TO.P,U1,18*%
X98095000Y-92500000D03*
%TO.P,U1,19*%
X99365000Y-92500000D03*
%TO.P,U1,20*%
X100635000Y-92500000D03*
%TO.P,U1,21*%
X101905000Y-92500000D03*
%TO.P,U1,22*%
X103175000Y-92500000D03*
%TO.P,U1,23*%
X104445000Y-92500000D03*
%TO.P,U1,24*%
X105715000Y-92500000D03*
D10*
%TO.P,U1,25*%
%TO.N,IO0*%
X108750000Y-91250000D03*
%TO.P,U1,26*%
%TO.N,N/C*%
X108750000Y-89980000D03*
%TO.P,U1,27*%
X108750000Y-88710000D03*
%TO.P,U1,28*%
X108750000Y-87440000D03*
%TO.P,U1,29*%
X108750000Y-86170000D03*
%TO.P,U1,30*%
X108750000Y-84900000D03*
%TO.P,U1,31*%
X108750000Y-83630000D03*
%TO.P,U1,32*%
X108750000Y-82360000D03*
%TO.P,U1,33*%
X108750000Y-81090000D03*
%TO.P,U1,34*%
%TO.N,U0RXD*%
X108750000Y-79820000D03*
%TO.P,U1,35*%
%TO.N,U0TXD*%
X108750000Y-78550000D03*
%TO.P,U1,36*%
%TO.N,N/C*%
X108750000Y-77280000D03*
%TO.P,U1,37*%
X108750000Y-76010000D03*
%TO.P,U1,38*%
%TO.N,GND*%
X108750000Y-74740000D03*
D12*
%TO.P,U1,39*%
X97100000Y-81060000D03*
D13*
X97100000Y-81760000D03*
D12*
X97100000Y-82460000D03*
D13*
X97100000Y-83160000D03*
D12*
X97100000Y-83860000D03*
D13*
X97800000Y-81060000D03*
X97800000Y-82460000D03*
X97800000Y-83860000D03*
D12*
X98500000Y-81060000D03*
D13*
X98500000Y-81760000D03*
D12*
X98500000Y-82460000D03*
D13*
X98500000Y-83160000D03*
D12*
X98500000Y-83860000D03*
D13*
X99200000Y-81060000D03*
X99200000Y-82460000D03*
X99200000Y-83860000D03*
D12*
X99900000Y-81060000D03*
D13*
X99900000Y-81760000D03*
D12*
X99900000Y-82460000D03*
D13*
X99900000Y-83160000D03*
D12*
X99900000Y-83860000D03*
%TD*%
D14*
%TO.P,J_PROG,1*%
%TO.N,+3V3*%
X75500000Y-91000000D03*
D15*
%TO.P,J_PROG,2*%
%TO.N,GND*%
X75500000Y-93540000D03*
%TO.P,J_PROG,3*%
%TO.N,U0TXD*%
X75500000Y-96080000D03*
%TO.P,J_PROG,4*%
%TO.N,U0RXD*%
X75500000Y-98620000D03*
%TO.P,J_PROG,5*%
%TO.N,EN*%
X75500000Y-101160000D03*
%TO.P,J_PROG,6*%
%TO.N,IO0*%
X75500000Y-103700000D03*
%TD*%
D16*
%TO.N,GND*%
X91250000Y-74740000D03*
X108750000Y-74740000D03*
%TO.N,U0TXD*%
X108750000Y-78550000D03*
%TO.N,IO0*%
X108750000Y-91250000D03*
%TD*%
D17*
%TO.N,+3V3*%
X88000000Y-76010000D02*
X91250000Y-76010000D01*
X88000000Y-86000000D02*
X88000000Y-76010000D01*
X78000000Y-86000000D02*
X88000000Y-86000000D01*
X75500000Y-91000000D02*
X78000000Y-86000000D01*
%TO.N,U0RXD*%
X117000000Y-122500000D02*
X117000000Y-79820000D01*
X74000000Y-98620000D02*
X74000000Y-122500000D01*
X75500000Y-98620000D02*
X74000000Y-98620000D01*
X74000000Y-122500000D02*
X117000000Y-122500000D01*
X117000000Y-79820000D02*
X108750000Y-79820000D01*
%TO.N,EN*%
X75500000Y-101160000D02*
X89000000Y-101160000D01*
X89000000Y-101160000D02*
X89000000Y-77280000D01*
X89000000Y-77280000D02*
X91250000Y-77280000D01*
%TD*%
M02*
