%TF.GenerationSoftware,KiCad,Pcbnew,9.0.6*%
%TF.CreationDate,2026-08-11T21:14:43+09:00*%
%TF.ProjectId,ir_blaster_v3_wroom_factory_prog,69725f62-6c61-4737-9465-725f76335f77,rev?*%
%TF.SameCoordinates,Original*%
%TF.FileFunction,Legend,Top*%
%TF.FilePolarity,Positive*%
%FSLAX46Y46*%
G04 Gerber Fmt 4.6, Leading zero omitted, Abs format (unit mm)*
G04 Created by KiCad (PCBNEW 9.0.6) date 2026-08-11 21:14:43*
%MOMM*%
%LPD*%
G01*
G04 APERTURE LIST*
%ADD10C,0.150000*%
%ADD11C,0.120000*%
G04 APERTURE END LIST*
D10*
X69747618Y-93178485D02*
X69785714Y-93140390D01*
X69785714Y-93140390D02*
X69861904Y-93102295D01*
X69861904Y-93102295D02*
X70052380Y-93102295D01*
X70052380Y-93102295D02*
X70128571Y-93140390D01*
X70128571Y-93140390D02*
X70166666Y-93178485D01*
X70166666Y-93178485D02*
X70204761Y-93254676D01*
X70204761Y-93254676D02*
X70204761Y-93330866D01*
X70204761Y-93330866D02*
X70166666Y-93445152D01*
X70166666Y-93445152D02*
X69709523Y-93902295D01*
X69709523Y-93902295D02*
X70204761Y-93902295D01*
X71576190Y-93140390D02*
X71500000Y-93102295D01*
X71500000Y-93102295D02*
X71385714Y-93102295D01*
X71385714Y-93102295D02*
X71271428Y-93140390D01*
X71271428Y-93140390D02*
X71195238Y-93216580D01*
X71195238Y-93216580D02*
X71157143Y-93292771D01*
X71157143Y-93292771D02*
X71119047Y-93445152D01*
X71119047Y-93445152D02*
X71119047Y-93559438D01*
X71119047Y-93559438D02*
X71157143Y-93711819D01*
X71157143Y-93711819D02*
X71195238Y-93788009D01*
X71195238Y-93788009D02*
X71271428Y-93864200D01*
X71271428Y-93864200D02*
X71385714Y-93902295D01*
X71385714Y-93902295D02*
X71461905Y-93902295D01*
X71461905Y-93902295D02*
X71576190Y-93864200D01*
X71576190Y-93864200D02*
X71614286Y-93826104D01*
X71614286Y-93826104D02*
X71614286Y-93559438D01*
X71614286Y-93559438D02*
X71461905Y-93559438D01*
X71957143Y-93902295D02*
X71957143Y-93102295D01*
X71957143Y-93102295D02*
X72414286Y-93902295D01*
X72414286Y-93902295D02*
X72414286Y-93102295D01*
X72795238Y-93902295D02*
X72795238Y-93102295D01*
X72795238Y-93102295D02*
X72985714Y-93102295D01*
X72985714Y-93102295D02*
X73100000Y-93140390D01*
X73100000Y-93140390D02*
X73176190Y-93216580D01*
X73176190Y-93216580D02*
X73214285Y-93292771D01*
X73214285Y-93292771D02*
X73252381Y-93445152D01*
X73252381Y-93445152D02*
X73252381Y-93559438D01*
X73252381Y-93559438D02*
X73214285Y-93711819D01*
X73214285Y-93711819D02*
X73176190Y-93788009D01*
X73176190Y-93788009D02*
X73100000Y-93864200D01*
X73100000Y-93864200D02*
X72985714Y-93902295D01*
X72985714Y-93902295D02*
X72795238Y-93902295D01*
X70604761Y-100722295D02*
X70223809Y-100722295D01*
X70223809Y-100722295D02*
X70185713Y-101103247D01*
X70185713Y-101103247D02*
X70223809Y-101065152D01*
X70223809Y-101065152D02*
X70299999Y-101027057D01*
X70299999Y-101027057D02*
X70490475Y-101027057D01*
X70490475Y-101027057D02*
X70566666Y-101065152D01*
X70566666Y-101065152D02*
X70604761Y-101103247D01*
X70604761Y-101103247D02*
X70642856Y-101179438D01*
X70642856Y-101179438D02*
X70642856Y-101369914D01*
X70642856Y-101369914D02*
X70604761Y-101446104D01*
X70604761Y-101446104D02*
X70566666Y-101484200D01*
X70566666Y-101484200D02*
X70490475Y-101522295D01*
X70490475Y-101522295D02*
X70299999Y-101522295D01*
X70299999Y-101522295D02*
X70223809Y-101484200D01*
X70223809Y-101484200D02*
X70185713Y-101446104D01*
X71595238Y-101103247D02*
X71861904Y-101103247D01*
X71976190Y-101522295D02*
X71595238Y-101522295D01*
X71595238Y-101522295D02*
X71595238Y-100722295D01*
X71595238Y-100722295D02*
X71976190Y-100722295D01*
X72319048Y-101522295D02*
X72319048Y-100722295D01*
X72319048Y-100722295D02*
X72776191Y-101522295D01*
X72776191Y-101522295D02*
X72776191Y-100722295D01*
X70566666Y-98448961D02*
X70566666Y-98982295D01*
X70376190Y-98144200D02*
X70185713Y-98715628D01*
X70185713Y-98715628D02*
X70680952Y-98715628D01*
X72052381Y-98982295D02*
X71785714Y-98601342D01*
X71595238Y-98982295D02*
X71595238Y-98182295D01*
X71595238Y-98182295D02*
X71900000Y-98182295D01*
X71900000Y-98182295D02*
X71976190Y-98220390D01*
X71976190Y-98220390D02*
X72014285Y-98258485D01*
X72014285Y-98258485D02*
X72052381Y-98334676D01*
X72052381Y-98334676D02*
X72052381Y-98448961D01*
X72052381Y-98448961D02*
X72014285Y-98525152D01*
X72014285Y-98525152D02*
X71976190Y-98563247D01*
X71976190Y-98563247D02*
X71900000Y-98601342D01*
X71900000Y-98601342D02*
X71595238Y-98601342D01*
X72319047Y-98182295D02*
X72852381Y-98982295D01*
X72852381Y-98182295D02*
X72319047Y-98982295D01*
X66482142Y-107385427D02*
X66482142Y-106535427D01*
X66482142Y-106535427D02*
X66805952Y-106535427D01*
X66805952Y-106535427D02*
X66886904Y-106575903D01*
X66886904Y-106575903D02*
X66927381Y-106616379D01*
X66927381Y-106616379D02*
X66967857Y-106697331D01*
X66967857Y-106697331D02*
X66967857Y-106818760D01*
X66967857Y-106818760D02*
X66927381Y-106899712D01*
X66927381Y-106899712D02*
X66886904Y-106940189D01*
X66886904Y-106940189D02*
X66805952Y-106980665D01*
X66805952Y-106980665D02*
X66482142Y-106980665D01*
X67817857Y-107385427D02*
X67534523Y-106980665D01*
X67332142Y-107385427D02*
X67332142Y-106535427D01*
X67332142Y-106535427D02*
X67655952Y-106535427D01*
X67655952Y-106535427D02*
X67736904Y-106575903D01*
X67736904Y-106575903D02*
X67777381Y-106616379D01*
X67777381Y-106616379D02*
X67817857Y-106697331D01*
X67817857Y-106697331D02*
X67817857Y-106818760D01*
X67817857Y-106818760D02*
X67777381Y-106899712D01*
X67777381Y-106899712D02*
X67736904Y-106940189D01*
X67736904Y-106940189D02*
X67655952Y-106980665D01*
X67655952Y-106980665D02*
X67332142Y-106980665D01*
X68344047Y-106535427D02*
X68505952Y-106535427D01*
X68505952Y-106535427D02*
X68586904Y-106575903D01*
X68586904Y-106575903D02*
X68667857Y-106656855D01*
X68667857Y-106656855D02*
X68708333Y-106818760D01*
X68708333Y-106818760D02*
X68708333Y-107102093D01*
X68708333Y-107102093D02*
X68667857Y-107263998D01*
X68667857Y-107263998D02*
X68586904Y-107344951D01*
X68586904Y-107344951D02*
X68505952Y-107385427D01*
X68505952Y-107385427D02*
X68344047Y-107385427D01*
X68344047Y-107385427D02*
X68263095Y-107344951D01*
X68263095Y-107344951D02*
X68182142Y-107263998D01*
X68182142Y-107263998D02*
X68141666Y-107102093D01*
X68141666Y-107102093D02*
X68141666Y-106818760D01*
X68141666Y-106818760D02*
X68182142Y-106656855D01*
X68182142Y-106656855D02*
X68263095Y-106575903D01*
X68263095Y-106575903D02*
X68344047Y-106535427D01*
X69517857Y-106575903D02*
X69436904Y-106535427D01*
X69436904Y-106535427D02*
X69315476Y-106535427D01*
X69315476Y-106535427D02*
X69194047Y-106575903D01*
X69194047Y-106575903D02*
X69113095Y-106656855D01*
X69113095Y-106656855D02*
X69072618Y-106737808D01*
X69072618Y-106737808D02*
X69032142Y-106899712D01*
X69032142Y-106899712D02*
X69032142Y-107021141D01*
X69032142Y-107021141D02*
X69072618Y-107183046D01*
X69072618Y-107183046D02*
X69113095Y-107263998D01*
X69113095Y-107263998D02*
X69194047Y-107344951D01*
X69194047Y-107344951D02*
X69315476Y-107385427D01*
X69315476Y-107385427D02*
X69396428Y-107385427D01*
X69396428Y-107385427D02*
X69517857Y-107344951D01*
X69517857Y-107344951D02*
X69558333Y-107304474D01*
X69558333Y-107304474D02*
X69558333Y-107021141D01*
X69558333Y-107021141D02*
X69396428Y-107021141D01*
X87027381Y-128385427D02*
X87027381Y-127535427D01*
X87917858Y-128385427D02*
X87634524Y-127980665D01*
X87432143Y-128385427D02*
X87432143Y-127535427D01*
X87432143Y-127535427D02*
X87755953Y-127535427D01*
X87755953Y-127535427D02*
X87836905Y-127575903D01*
X87836905Y-127575903D02*
X87877382Y-127616379D01*
X87877382Y-127616379D02*
X87917858Y-127697331D01*
X87917858Y-127697331D02*
X87917858Y-127818760D01*
X87917858Y-127818760D02*
X87877382Y-127899712D01*
X87877382Y-127899712D02*
X87836905Y-127940189D01*
X87836905Y-127940189D02*
X87755953Y-127980665D01*
X87755953Y-127980665D02*
X87432143Y-127980665D01*
X89213096Y-127940189D02*
X89334524Y-127980665D01*
X89334524Y-127980665D02*
X89375001Y-128021141D01*
X89375001Y-128021141D02*
X89415477Y-128102093D01*
X89415477Y-128102093D02*
X89415477Y-128223522D01*
X89415477Y-128223522D02*
X89375001Y-128304474D01*
X89375001Y-128304474D02*
X89334524Y-128344951D01*
X89334524Y-128344951D02*
X89253572Y-128385427D01*
X89253572Y-128385427D02*
X88929762Y-128385427D01*
X88929762Y-128385427D02*
X88929762Y-127535427D01*
X88929762Y-127535427D02*
X89213096Y-127535427D01*
X89213096Y-127535427D02*
X89294048Y-127575903D01*
X89294048Y-127575903D02*
X89334524Y-127616379D01*
X89334524Y-127616379D02*
X89375001Y-127697331D01*
X89375001Y-127697331D02*
X89375001Y-127778284D01*
X89375001Y-127778284D02*
X89334524Y-127859236D01*
X89334524Y-127859236D02*
X89294048Y-127899712D01*
X89294048Y-127899712D02*
X89213096Y-127940189D01*
X89213096Y-127940189D02*
X88929762Y-127940189D01*
X90184524Y-128385427D02*
X89779762Y-128385427D01*
X89779762Y-128385427D02*
X89779762Y-127535427D01*
X90427381Y-128142570D02*
X90832143Y-128142570D01*
X90346429Y-128385427D02*
X90629762Y-127535427D01*
X90629762Y-127535427D02*
X90913096Y-128385427D01*
X91155952Y-128344951D02*
X91277381Y-128385427D01*
X91277381Y-128385427D02*
X91479762Y-128385427D01*
X91479762Y-128385427D02*
X91560714Y-128344951D01*
X91560714Y-128344951D02*
X91601190Y-128304474D01*
X91601190Y-128304474D02*
X91641667Y-128223522D01*
X91641667Y-128223522D02*
X91641667Y-128142570D01*
X91641667Y-128142570D02*
X91601190Y-128061617D01*
X91601190Y-128061617D02*
X91560714Y-128021141D01*
X91560714Y-128021141D02*
X91479762Y-127980665D01*
X91479762Y-127980665D02*
X91317857Y-127940189D01*
X91317857Y-127940189D02*
X91236905Y-127899712D01*
X91236905Y-127899712D02*
X91196428Y-127859236D01*
X91196428Y-127859236D02*
X91155952Y-127778284D01*
X91155952Y-127778284D02*
X91155952Y-127697331D01*
X91155952Y-127697331D02*
X91196428Y-127616379D01*
X91196428Y-127616379D02*
X91236905Y-127575903D01*
X91236905Y-127575903D02*
X91317857Y-127535427D01*
X91317857Y-127535427D02*
X91520238Y-127535427D01*
X91520238Y-127535427D02*
X91641667Y-127575903D01*
X91884524Y-127535427D02*
X92370238Y-127535427D01*
X92127381Y-128385427D02*
X92127381Y-127535427D01*
X92653571Y-127940189D02*
X92936905Y-127940189D01*
X93058333Y-128385427D02*
X92653571Y-128385427D01*
X92653571Y-128385427D02*
X92653571Y-127535427D01*
X92653571Y-127535427D02*
X93058333Y-127535427D01*
X93908334Y-128385427D02*
X93625000Y-127980665D01*
X93422619Y-128385427D02*
X93422619Y-127535427D01*
X93422619Y-127535427D02*
X93746429Y-127535427D01*
X93746429Y-127535427D02*
X93827381Y-127575903D01*
X93827381Y-127575903D02*
X93867858Y-127616379D01*
X93867858Y-127616379D02*
X93908334Y-127697331D01*
X93908334Y-127697331D02*
X93908334Y-127818760D01*
X93908334Y-127818760D02*
X93867858Y-127899712D01*
X93867858Y-127899712D02*
X93827381Y-127940189D01*
X93827381Y-127940189D02*
X93746429Y-127980665D01*
X93746429Y-127980665D02*
X93422619Y-127980665D01*
X94798810Y-127535427D02*
X95082143Y-128385427D01*
X95082143Y-128385427D02*
X95365477Y-127535427D01*
X95567857Y-127535427D02*
X96094048Y-127535427D01*
X96094048Y-127535427D02*
X95810714Y-127859236D01*
X95810714Y-127859236D02*
X95932143Y-127859236D01*
X95932143Y-127859236D02*
X96013095Y-127899712D01*
X96013095Y-127899712D02*
X96053571Y-127940189D01*
X96053571Y-127940189D02*
X96094048Y-128021141D01*
X96094048Y-128021141D02*
X96094048Y-128223522D01*
X96094048Y-128223522D02*
X96053571Y-128304474D01*
X96053571Y-128304474D02*
X96013095Y-128344951D01*
X96013095Y-128344951D02*
X95932143Y-128385427D01*
X95932143Y-128385427D02*
X95689286Y-128385427D01*
X95689286Y-128385427D02*
X95608333Y-128344951D01*
X95608333Y-128344951D02*
X95567857Y-128304474D01*
X97713095Y-127494951D02*
X96984524Y-128587808D01*
X98563095Y-127535427D02*
X98765476Y-128385427D01*
X98765476Y-128385427D02*
X98927381Y-127778284D01*
X98927381Y-127778284D02*
X99089286Y-128385427D01*
X99089286Y-128385427D02*
X99291667Y-127535427D01*
X100101191Y-128385427D02*
X99817857Y-127980665D01*
X99615476Y-128385427D02*
X99615476Y-127535427D01*
X99615476Y-127535427D02*
X99939286Y-127535427D01*
X99939286Y-127535427D02*
X100020238Y-127575903D01*
X100020238Y-127575903D02*
X100060715Y-127616379D01*
X100060715Y-127616379D02*
X100101191Y-127697331D01*
X100101191Y-127697331D02*
X100101191Y-127818760D01*
X100101191Y-127818760D02*
X100060715Y-127899712D01*
X100060715Y-127899712D02*
X100020238Y-127940189D01*
X100020238Y-127940189D02*
X99939286Y-127980665D01*
X99939286Y-127980665D02*
X99615476Y-127980665D01*
X100627381Y-127535427D02*
X100789286Y-127535427D01*
X100789286Y-127535427D02*
X100870238Y-127575903D01*
X100870238Y-127575903D02*
X100951191Y-127656855D01*
X100951191Y-127656855D02*
X100991667Y-127818760D01*
X100991667Y-127818760D02*
X100991667Y-128102093D01*
X100991667Y-128102093D02*
X100951191Y-128263998D01*
X100951191Y-128263998D02*
X100870238Y-128344951D01*
X100870238Y-128344951D02*
X100789286Y-128385427D01*
X100789286Y-128385427D02*
X100627381Y-128385427D01*
X100627381Y-128385427D02*
X100546429Y-128344951D01*
X100546429Y-128344951D02*
X100465476Y-128263998D01*
X100465476Y-128263998D02*
X100425000Y-128102093D01*
X100425000Y-128102093D02*
X100425000Y-127818760D01*
X100425000Y-127818760D02*
X100465476Y-127656855D01*
X100465476Y-127656855D02*
X100546429Y-127575903D01*
X100546429Y-127575903D02*
X100627381Y-127535427D01*
X101517857Y-127535427D02*
X101679762Y-127535427D01*
X101679762Y-127535427D02*
X101760714Y-127575903D01*
X101760714Y-127575903D02*
X101841667Y-127656855D01*
X101841667Y-127656855D02*
X101882143Y-127818760D01*
X101882143Y-127818760D02*
X101882143Y-128102093D01*
X101882143Y-128102093D02*
X101841667Y-128263998D01*
X101841667Y-128263998D02*
X101760714Y-128344951D01*
X101760714Y-128344951D02*
X101679762Y-128385427D01*
X101679762Y-128385427D02*
X101517857Y-128385427D01*
X101517857Y-128385427D02*
X101436905Y-128344951D01*
X101436905Y-128344951D02*
X101355952Y-128263998D01*
X101355952Y-128263998D02*
X101315476Y-128102093D01*
X101315476Y-128102093D02*
X101315476Y-127818760D01*
X101315476Y-127818760D02*
X101355952Y-127656855D01*
X101355952Y-127656855D02*
X101436905Y-127575903D01*
X101436905Y-127575903D02*
X101517857Y-127535427D01*
X102246428Y-128385427D02*
X102246428Y-127535427D01*
X102246428Y-127535427D02*
X102529762Y-128142570D01*
X102529762Y-128142570D02*
X102813095Y-127535427D01*
X102813095Y-127535427D02*
X102813095Y-128385427D01*
X104148810Y-127940189D02*
X103865476Y-127940189D01*
X103865476Y-128385427D02*
X103865476Y-127535427D01*
X103865476Y-127535427D02*
X104270238Y-127535427D01*
X104553571Y-128142570D02*
X104958333Y-128142570D01*
X104472619Y-128385427D02*
X104755952Y-127535427D01*
X104755952Y-127535427D02*
X105039286Y-128385427D01*
X105808333Y-128304474D02*
X105767857Y-128344951D01*
X105767857Y-128344951D02*
X105646428Y-128385427D01*
X105646428Y-128385427D02*
X105565476Y-128385427D01*
X105565476Y-128385427D02*
X105444047Y-128344951D01*
X105444047Y-128344951D02*
X105363095Y-128263998D01*
X105363095Y-128263998D02*
X105322618Y-128183046D01*
X105322618Y-128183046D02*
X105282142Y-128021141D01*
X105282142Y-128021141D02*
X105282142Y-127899712D01*
X105282142Y-127899712D02*
X105322618Y-127737808D01*
X105322618Y-127737808D02*
X105363095Y-127656855D01*
X105363095Y-127656855D02*
X105444047Y-127575903D01*
X105444047Y-127575903D02*
X105565476Y-127535427D01*
X105565476Y-127535427D02*
X105646428Y-127535427D01*
X105646428Y-127535427D02*
X105767857Y-127575903D01*
X105767857Y-127575903D02*
X105808333Y-127616379D01*
X106051190Y-127535427D02*
X106536904Y-127535427D01*
X106294047Y-128385427D02*
X106294047Y-127535427D01*
X106982142Y-127535427D02*
X107144047Y-127535427D01*
X107144047Y-127535427D02*
X107224999Y-127575903D01*
X107224999Y-127575903D02*
X107305952Y-127656855D01*
X107305952Y-127656855D02*
X107346428Y-127818760D01*
X107346428Y-127818760D02*
X107346428Y-128102093D01*
X107346428Y-128102093D02*
X107305952Y-128263998D01*
X107305952Y-128263998D02*
X107224999Y-128344951D01*
X107224999Y-128344951D02*
X107144047Y-128385427D01*
X107144047Y-128385427D02*
X106982142Y-128385427D01*
X106982142Y-128385427D02*
X106901190Y-128344951D01*
X106901190Y-128344951D02*
X106820237Y-128263998D01*
X106820237Y-128263998D02*
X106779761Y-128102093D01*
X106779761Y-128102093D02*
X106779761Y-127818760D01*
X106779761Y-127818760D02*
X106820237Y-127656855D01*
X106820237Y-127656855D02*
X106901190Y-127575903D01*
X106901190Y-127575903D02*
X106982142Y-127535427D01*
X108196428Y-128385427D02*
X107913094Y-127980665D01*
X107710713Y-128385427D02*
X107710713Y-127535427D01*
X107710713Y-127535427D02*
X108034523Y-127535427D01*
X108034523Y-127535427D02*
X108115475Y-127575903D01*
X108115475Y-127575903D02*
X108155952Y-127616379D01*
X108155952Y-127616379D02*
X108196428Y-127697331D01*
X108196428Y-127697331D02*
X108196428Y-127818760D01*
X108196428Y-127818760D02*
X108155952Y-127899712D01*
X108155952Y-127899712D02*
X108115475Y-127940189D01*
X108115475Y-127940189D02*
X108034523Y-127980665D01*
X108034523Y-127980665D02*
X107710713Y-127980665D01*
X108722618Y-127980665D02*
X108722618Y-128385427D01*
X108439285Y-127535427D02*
X108722618Y-127980665D01*
X108722618Y-127980665D02*
X109005952Y-127535427D01*
X109936903Y-128385427D02*
X109936903Y-127535427D01*
X109936903Y-127535427D02*
X110260713Y-127535427D01*
X110260713Y-127535427D02*
X110341665Y-127575903D01*
X110341665Y-127575903D02*
X110382142Y-127616379D01*
X110382142Y-127616379D02*
X110422618Y-127697331D01*
X110422618Y-127697331D02*
X110422618Y-127818760D01*
X110422618Y-127818760D02*
X110382142Y-127899712D01*
X110382142Y-127899712D02*
X110341665Y-127940189D01*
X110341665Y-127940189D02*
X110260713Y-127980665D01*
X110260713Y-127980665D02*
X109936903Y-127980665D01*
X111272618Y-128385427D02*
X110989284Y-127980665D01*
X110786903Y-128385427D02*
X110786903Y-127535427D01*
X110786903Y-127535427D02*
X111110713Y-127535427D01*
X111110713Y-127535427D02*
X111191665Y-127575903D01*
X111191665Y-127575903D02*
X111232142Y-127616379D01*
X111232142Y-127616379D02*
X111272618Y-127697331D01*
X111272618Y-127697331D02*
X111272618Y-127818760D01*
X111272618Y-127818760D02*
X111232142Y-127899712D01*
X111232142Y-127899712D02*
X111191665Y-127940189D01*
X111191665Y-127940189D02*
X111110713Y-127980665D01*
X111110713Y-127980665D02*
X110786903Y-127980665D01*
X111798808Y-127535427D02*
X111960713Y-127535427D01*
X111960713Y-127535427D02*
X112041665Y-127575903D01*
X112041665Y-127575903D02*
X112122618Y-127656855D01*
X112122618Y-127656855D02*
X112163094Y-127818760D01*
X112163094Y-127818760D02*
X112163094Y-128102093D01*
X112163094Y-128102093D02*
X112122618Y-128263998D01*
X112122618Y-128263998D02*
X112041665Y-128344951D01*
X112041665Y-128344951D02*
X111960713Y-128385427D01*
X111960713Y-128385427D02*
X111798808Y-128385427D01*
X111798808Y-128385427D02*
X111717856Y-128344951D01*
X111717856Y-128344951D02*
X111636903Y-128263998D01*
X111636903Y-128263998D02*
X111596427Y-128102093D01*
X111596427Y-128102093D02*
X111596427Y-127818760D01*
X111596427Y-127818760D02*
X111636903Y-127656855D01*
X111636903Y-127656855D02*
X111717856Y-127575903D01*
X111717856Y-127575903D02*
X111798808Y-127535427D01*
X112972618Y-127575903D02*
X112891665Y-127535427D01*
X112891665Y-127535427D02*
X112770237Y-127535427D01*
X112770237Y-127535427D02*
X112648808Y-127575903D01*
X112648808Y-127575903D02*
X112567856Y-127656855D01*
X112567856Y-127656855D02*
X112527379Y-127737808D01*
X112527379Y-127737808D02*
X112486903Y-127899712D01*
X112486903Y-127899712D02*
X112486903Y-128021141D01*
X112486903Y-128021141D02*
X112527379Y-128183046D01*
X112527379Y-128183046D02*
X112567856Y-128263998D01*
X112567856Y-128263998D02*
X112648808Y-128344951D01*
X112648808Y-128344951D02*
X112770237Y-128385427D01*
X112770237Y-128385427D02*
X112851189Y-128385427D01*
X112851189Y-128385427D02*
X112972618Y-128344951D01*
X112972618Y-128344951D02*
X113013094Y-128304474D01*
X113013094Y-128304474D02*
X113013094Y-128021141D01*
X113013094Y-128021141D02*
X112851189Y-128021141D01*
X70319047Y-91362295D02*
X69861904Y-91362295D01*
X70090476Y-91362295D02*
X70090476Y-90562295D01*
X70090476Y-90562295D02*
X70014285Y-90676580D01*
X70014285Y-90676580D02*
X69938095Y-90752771D01*
X69938095Y-90752771D02*
X69861904Y-90790866D01*
X71195238Y-90562295D02*
X71690476Y-90562295D01*
X71690476Y-90562295D02*
X71423810Y-90867057D01*
X71423810Y-90867057D02*
X71538095Y-90867057D01*
X71538095Y-90867057D02*
X71614286Y-90905152D01*
X71614286Y-90905152D02*
X71652381Y-90943247D01*
X71652381Y-90943247D02*
X71690476Y-91019438D01*
X71690476Y-91019438D02*
X71690476Y-91209914D01*
X71690476Y-91209914D02*
X71652381Y-91286104D01*
X71652381Y-91286104D02*
X71614286Y-91324200D01*
X71614286Y-91324200D02*
X71538095Y-91362295D01*
X71538095Y-91362295D02*
X71309524Y-91362295D01*
X71309524Y-91362295D02*
X71233333Y-91324200D01*
X71233333Y-91324200D02*
X71195238Y-91286104D01*
X71919048Y-90562295D02*
X72185715Y-91362295D01*
X72185715Y-91362295D02*
X72452381Y-90562295D01*
X72642857Y-90562295D02*
X73138095Y-90562295D01*
X73138095Y-90562295D02*
X72871429Y-90867057D01*
X72871429Y-90867057D02*
X72985714Y-90867057D01*
X72985714Y-90867057D02*
X73061905Y-90905152D01*
X73061905Y-90905152D02*
X73100000Y-90943247D01*
X73100000Y-90943247D02*
X73138095Y-91019438D01*
X73138095Y-91019438D02*
X73138095Y-91209914D01*
X73138095Y-91209914D02*
X73100000Y-91286104D01*
X73100000Y-91286104D02*
X73061905Y-91324200D01*
X73061905Y-91324200D02*
X72985714Y-91362295D01*
X72985714Y-91362295D02*
X72757143Y-91362295D01*
X72757143Y-91362295D02*
X72680952Y-91324200D01*
X72680952Y-91324200D02*
X72642857Y-91286104D01*
X70357143Y-103262295D02*
X70204762Y-103262295D01*
X70204762Y-103262295D02*
X70128571Y-103300390D01*
X70128571Y-103300390D02*
X70090476Y-103338485D01*
X70090476Y-103338485D02*
X70014286Y-103452771D01*
X70014286Y-103452771D02*
X69976190Y-103605152D01*
X69976190Y-103605152D02*
X69976190Y-103909914D01*
X69976190Y-103909914D02*
X70014286Y-103986104D01*
X70014286Y-103986104D02*
X70052381Y-104024200D01*
X70052381Y-104024200D02*
X70128571Y-104062295D01*
X70128571Y-104062295D02*
X70280952Y-104062295D01*
X70280952Y-104062295D02*
X70357143Y-104024200D01*
X70357143Y-104024200D02*
X70395238Y-103986104D01*
X70395238Y-103986104D02*
X70433333Y-103909914D01*
X70433333Y-103909914D02*
X70433333Y-103719438D01*
X70433333Y-103719438D02*
X70395238Y-103643247D01*
X70395238Y-103643247D02*
X70357143Y-103605152D01*
X70357143Y-103605152D02*
X70280952Y-103567057D01*
X70280952Y-103567057D02*
X70128571Y-103567057D01*
X70128571Y-103567057D02*
X70052381Y-103605152D01*
X70052381Y-103605152D02*
X70014286Y-103643247D01*
X70014286Y-103643247D02*
X69976190Y-103719438D01*
X71385715Y-104062295D02*
X71385715Y-103262295D01*
X71919048Y-103262295D02*
X72071429Y-103262295D01*
X72071429Y-103262295D02*
X72147619Y-103300390D01*
X72147619Y-103300390D02*
X72223810Y-103376580D01*
X72223810Y-103376580D02*
X72261905Y-103528961D01*
X72261905Y-103528961D02*
X72261905Y-103795628D01*
X72261905Y-103795628D02*
X72223810Y-103948009D01*
X72223810Y-103948009D02*
X72147619Y-104024200D01*
X72147619Y-104024200D02*
X72071429Y-104062295D01*
X72071429Y-104062295D02*
X71919048Y-104062295D01*
X71919048Y-104062295D02*
X71842857Y-104024200D01*
X71842857Y-104024200D02*
X71766667Y-103948009D01*
X71766667Y-103948009D02*
X71728571Y-103795628D01*
X71728571Y-103795628D02*
X71728571Y-103528961D01*
X71728571Y-103528961D02*
X71766667Y-103376580D01*
X71766667Y-103376580D02*
X71842857Y-103300390D01*
X71842857Y-103300390D02*
X71919048Y-103262295D01*
X72757143Y-103262295D02*
X72833333Y-103262295D01*
X72833333Y-103262295D02*
X72909524Y-103300390D01*
X72909524Y-103300390D02*
X72947619Y-103338485D01*
X72947619Y-103338485D02*
X72985714Y-103414676D01*
X72985714Y-103414676D02*
X73023809Y-103567057D01*
X73023809Y-103567057D02*
X73023809Y-103757533D01*
X73023809Y-103757533D02*
X72985714Y-103909914D01*
X72985714Y-103909914D02*
X72947619Y-103986104D01*
X72947619Y-103986104D02*
X72909524Y-104024200D01*
X72909524Y-104024200D02*
X72833333Y-104062295D01*
X72833333Y-104062295D02*
X72757143Y-104062295D01*
X72757143Y-104062295D02*
X72680952Y-104024200D01*
X72680952Y-104024200D02*
X72642857Y-103986104D01*
X72642857Y-103986104D02*
X72604762Y-103909914D01*
X72604762Y-103909914D02*
X72566666Y-103757533D01*
X72566666Y-103757533D02*
X72566666Y-103567057D01*
X72566666Y-103567057D02*
X72604762Y-103414676D01*
X72604762Y-103414676D02*
X72642857Y-103338485D01*
X72642857Y-103338485D02*
X72680952Y-103300390D01*
X72680952Y-103300390D02*
X72757143Y-103262295D01*
X70242856Y-95642295D02*
X70738094Y-95642295D01*
X70738094Y-95642295D02*
X70471428Y-95947057D01*
X70471428Y-95947057D02*
X70585713Y-95947057D01*
X70585713Y-95947057D02*
X70661904Y-95985152D01*
X70661904Y-95985152D02*
X70699999Y-96023247D01*
X70699999Y-96023247D02*
X70738094Y-96099438D01*
X70738094Y-96099438D02*
X70738094Y-96289914D01*
X70738094Y-96289914D02*
X70699999Y-96366104D01*
X70699999Y-96366104D02*
X70661904Y-96404200D01*
X70661904Y-96404200D02*
X70585713Y-96442295D01*
X70585713Y-96442295D02*
X70357142Y-96442295D01*
X70357142Y-96442295D02*
X70280951Y-96404200D01*
X70280951Y-96404200D02*
X70242856Y-96366104D01*
X71576190Y-95642295D02*
X72033333Y-95642295D01*
X71804761Y-96442295D02*
X71804761Y-95642295D01*
X72223809Y-95642295D02*
X72757143Y-96442295D01*
X72757143Y-95642295D02*
X72223809Y-96442295D01*
X91409523Y-65143247D02*
X91676189Y-65143247D01*
X91790475Y-65562295D02*
X91409523Y-65562295D01*
X91409523Y-65562295D02*
X91409523Y-64762295D01*
X91409523Y-64762295D02*
X91790475Y-64762295D01*
X92095237Y-65524200D02*
X92209523Y-65562295D01*
X92209523Y-65562295D02*
X92399999Y-65562295D01*
X92399999Y-65562295D02*
X92476190Y-65524200D01*
X92476190Y-65524200D02*
X92514285Y-65486104D01*
X92514285Y-65486104D02*
X92552380Y-65409914D01*
X92552380Y-65409914D02*
X92552380Y-65333723D01*
X92552380Y-65333723D02*
X92514285Y-65257533D01*
X92514285Y-65257533D02*
X92476190Y-65219438D01*
X92476190Y-65219438D02*
X92399999Y-65181342D01*
X92399999Y-65181342D02*
X92247618Y-65143247D01*
X92247618Y-65143247D02*
X92171428Y-65105152D01*
X92171428Y-65105152D02*
X92133333Y-65067057D01*
X92133333Y-65067057D02*
X92095237Y-64990866D01*
X92095237Y-64990866D02*
X92095237Y-64914676D01*
X92095237Y-64914676D02*
X92133333Y-64838485D01*
X92133333Y-64838485D02*
X92171428Y-64800390D01*
X92171428Y-64800390D02*
X92247618Y-64762295D01*
X92247618Y-64762295D02*
X92438095Y-64762295D01*
X92438095Y-64762295D02*
X92552380Y-64800390D01*
X92895238Y-65562295D02*
X92895238Y-64762295D01*
X92895238Y-64762295D02*
X93200000Y-64762295D01*
X93200000Y-64762295D02*
X93276190Y-64800390D01*
X93276190Y-64800390D02*
X93314285Y-64838485D01*
X93314285Y-64838485D02*
X93352381Y-64914676D01*
X93352381Y-64914676D02*
X93352381Y-65028961D01*
X93352381Y-65028961D02*
X93314285Y-65105152D01*
X93314285Y-65105152D02*
X93276190Y-65143247D01*
X93276190Y-65143247D02*
X93200000Y-65181342D01*
X93200000Y-65181342D02*
X92895238Y-65181342D01*
X93619047Y-64762295D02*
X94114285Y-64762295D01*
X94114285Y-64762295D02*
X93847619Y-65067057D01*
X93847619Y-65067057D02*
X93961904Y-65067057D01*
X93961904Y-65067057D02*
X94038095Y-65105152D01*
X94038095Y-65105152D02*
X94076190Y-65143247D01*
X94076190Y-65143247D02*
X94114285Y-65219438D01*
X94114285Y-65219438D02*
X94114285Y-65409914D01*
X94114285Y-65409914D02*
X94076190Y-65486104D01*
X94076190Y-65486104D02*
X94038095Y-65524200D01*
X94038095Y-65524200D02*
X93961904Y-65562295D01*
X93961904Y-65562295D02*
X93733333Y-65562295D01*
X93733333Y-65562295D02*
X93657142Y-65524200D01*
X93657142Y-65524200D02*
X93619047Y-65486104D01*
X94419047Y-64838485D02*
X94457143Y-64800390D01*
X94457143Y-64800390D02*
X94533333Y-64762295D01*
X94533333Y-64762295D02*
X94723809Y-64762295D01*
X94723809Y-64762295D02*
X94800000Y-64800390D01*
X94800000Y-64800390D02*
X94838095Y-64838485D01*
X94838095Y-64838485D02*
X94876190Y-64914676D01*
X94876190Y-64914676D02*
X94876190Y-64990866D01*
X94876190Y-64990866D02*
X94838095Y-65105152D01*
X94838095Y-65105152D02*
X94380952Y-65562295D01*
X94380952Y-65562295D02*
X94876190Y-65562295D01*
X95790476Y-65333723D02*
X96171429Y-65333723D01*
X95714286Y-65562295D02*
X95980953Y-64762295D01*
X95980953Y-64762295D02*
X96247619Y-65562295D01*
X96514286Y-65562295D02*
X96514286Y-64762295D01*
X96514286Y-64762295D02*
X96971429Y-65562295D01*
X96971429Y-65562295D02*
X96971429Y-64762295D01*
X97238095Y-64762295D02*
X97695238Y-64762295D01*
X97466666Y-65562295D02*
X97466666Y-64762295D01*
X97961905Y-65143247D02*
X98228571Y-65143247D01*
X98342857Y-65562295D02*
X97961905Y-65562295D01*
X97961905Y-65562295D02*
X97961905Y-64762295D01*
X97961905Y-64762295D02*
X98342857Y-64762295D01*
X98685715Y-65562295D02*
X98685715Y-64762295D01*
X98685715Y-64762295D02*
X99142858Y-65562295D01*
X99142858Y-65562295D02*
X99142858Y-64762295D01*
X99523810Y-65562295D02*
X99523810Y-64762295D01*
X99523810Y-64762295D02*
X99980953Y-65562295D01*
X99980953Y-65562295D02*
X99980953Y-64762295D01*
X100323809Y-65333723D02*
X100704762Y-65333723D01*
X100247619Y-65562295D02*
X100514286Y-64762295D01*
X100514286Y-64762295D02*
X100780952Y-65562295D01*
X101657143Y-65562295D02*
X101657143Y-64762295D01*
X102114286Y-65562295D02*
X101771428Y-65105152D01*
X102114286Y-64762295D02*
X101657143Y-65219438D01*
X102457143Y-65143247D02*
X102723809Y-65143247D01*
X102838095Y-65562295D02*
X102457143Y-65562295D01*
X102457143Y-65562295D02*
X102457143Y-64762295D01*
X102457143Y-64762295D02*
X102838095Y-64762295D01*
X103180953Y-65143247D02*
X103447619Y-65143247D01*
X103561905Y-65562295D02*
X103180953Y-65562295D01*
X103180953Y-65562295D02*
X103180953Y-64762295D01*
X103180953Y-64762295D02*
X103561905Y-64762295D01*
X103904763Y-65562295D02*
X103904763Y-64762295D01*
X103904763Y-64762295D02*
X104209525Y-64762295D01*
X104209525Y-64762295D02*
X104285715Y-64800390D01*
X104285715Y-64800390D02*
X104323810Y-64838485D01*
X104323810Y-64838485D02*
X104361906Y-64914676D01*
X104361906Y-64914676D02*
X104361906Y-65028961D01*
X104361906Y-65028961D02*
X104323810Y-65105152D01*
X104323810Y-65105152D02*
X104285715Y-65143247D01*
X104285715Y-65143247D02*
X104209525Y-65181342D01*
X104209525Y-65181342D02*
X103904763Y-65181342D01*
X105771430Y-65486104D02*
X105733334Y-65524200D01*
X105733334Y-65524200D02*
X105619049Y-65562295D01*
X105619049Y-65562295D02*
X105542858Y-65562295D01*
X105542858Y-65562295D02*
X105428572Y-65524200D01*
X105428572Y-65524200D02*
X105352382Y-65448009D01*
X105352382Y-65448009D02*
X105314287Y-65371819D01*
X105314287Y-65371819D02*
X105276191Y-65219438D01*
X105276191Y-65219438D02*
X105276191Y-65105152D01*
X105276191Y-65105152D02*
X105314287Y-64952771D01*
X105314287Y-64952771D02*
X105352382Y-64876580D01*
X105352382Y-64876580D02*
X105428572Y-64800390D01*
X105428572Y-64800390D02*
X105542858Y-64762295D01*
X105542858Y-64762295D02*
X105619049Y-64762295D01*
X105619049Y-64762295D02*
X105733334Y-64800390D01*
X105733334Y-64800390D02*
X105771430Y-64838485D01*
X106495239Y-65562295D02*
X106114287Y-65562295D01*
X106114287Y-65562295D02*
X106114287Y-64762295D01*
X106761906Y-65143247D02*
X107028572Y-65143247D01*
X107142858Y-65562295D02*
X106761906Y-65562295D01*
X106761906Y-65562295D02*
X106761906Y-64762295D01*
X106761906Y-64762295D02*
X107142858Y-64762295D01*
X107447620Y-65333723D02*
X107828573Y-65333723D01*
X107371430Y-65562295D02*
X107638097Y-64762295D01*
X107638097Y-64762295D02*
X107904763Y-65562295D01*
X108628573Y-65562295D02*
X108361906Y-65181342D01*
X108171430Y-65562295D02*
X108171430Y-64762295D01*
X108171430Y-64762295D02*
X108476192Y-64762295D01*
X108476192Y-64762295D02*
X108552382Y-64800390D01*
X108552382Y-64800390D02*
X108590477Y-64838485D01*
X108590477Y-64838485D02*
X108628573Y-64914676D01*
X108628573Y-64914676D02*
X108628573Y-65028961D01*
X108628573Y-65028961D02*
X108590477Y-65105152D01*
X108590477Y-65105152D02*
X108552382Y-65143247D01*
X108552382Y-65143247D02*
X108476192Y-65181342D01*
X108476192Y-65181342D02*
X108171430Y-65181342D01*
X88954819Y-93163220D02*
X89764342Y-93163220D01*
X89764342Y-93163220D02*
X89859580Y-93115601D01*
X89859580Y-93115601D02*
X89907200Y-93067982D01*
X89907200Y-93067982D02*
X89954819Y-92972744D01*
X89954819Y-92972744D02*
X89954819Y-92782268D01*
X89954819Y-92782268D02*
X89907200Y-92687030D01*
X89907200Y-92687030D02*
X89859580Y-92639411D01*
X89859580Y-92639411D02*
X89764342Y-92591792D01*
X89764342Y-92591792D02*
X88954819Y-92591792D01*
X89954819Y-91591792D02*
X89954819Y-92163220D01*
X89954819Y-91877506D02*
X88954819Y-91877506D01*
X88954819Y-91877506D02*
X89097676Y-91972744D01*
X89097676Y-91972744D02*
X89192914Y-92067982D01*
X89192914Y-92067982D02*
X89240533Y-92163220D01*
X73238095Y-88074819D02*
X73238095Y-88789104D01*
X73238095Y-88789104D02*
X73190476Y-88931961D01*
X73190476Y-88931961D02*
X73095238Y-89027200D01*
X73095238Y-89027200D02*
X72952381Y-89074819D01*
X72952381Y-89074819D02*
X72857143Y-89074819D01*
X73476191Y-89170057D02*
X74238095Y-89170057D01*
X74476191Y-89074819D02*
X74476191Y-88074819D01*
X74476191Y-88074819D02*
X74857143Y-88074819D01*
X74857143Y-88074819D02*
X74952381Y-88122438D01*
X74952381Y-88122438D02*
X75000000Y-88170057D01*
X75000000Y-88170057D02*
X75047619Y-88265295D01*
X75047619Y-88265295D02*
X75047619Y-88408152D01*
X75047619Y-88408152D02*
X75000000Y-88503390D01*
X75000000Y-88503390D02*
X74952381Y-88551009D01*
X74952381Y-88551009D02*
X74857143Y-88598628D01*
X74857143Y-88598628D02*
X74476191Y-88598628D01*
X76047619Y-89074819D02*
X75714286Y-88598628D01*
X75476191Y-89074819D02*
X75476191Y-88074819D01*
X75476191Y-88074819D02*
X75857143Y-88074819D01*
X75857143Y-88074819D02*
X75952381Y-88122438D01*
X75952381Y-88122438D02*
X76000000Y-88170057D01*
X76000000Y-88170057D02*
X76047619Y-88265295D01*
X76047619Y-88265295D02*
X76047619Y-88408152D01*
X76047619Y-88408152D02*
X76000000Y-88503390D01*
X76000000Y-88503390D02*
X75952381Y-88551009D01*
X75952381Y-88551009D02*
X75857143Y-88598628D01*
X75857143Y-88598628D02*
X75476191Y-88598628D01*
X76666667Y-88074819D02*
X76857143Y-88074819D01*
X76857143Y-88074819D02*
X76952381Y-88122438D01*
X76952381Y-88122438D02*
X77047619Y-88217676D01*
X77047619Y-88217676D02*
X77095238Y-88408152D01*
X77095238Y-88408152D02*
X77095238Y-88741485D01*
X77095238Y-88741485D02*
X77047619Y-88931961D01*
X77047619Y-88931961D02*
X76952381Y-89027200D01*
X76952381Y-89027200D02*
X76857143Y-89074819D01*
X76857143Y-89074819D02*
X76666667Y-89074819D01*
X76666667Y-89074819D02*
X76571429Y-89027200D01*
X76571429Y-89027200D02*
X76476191Y-88931961D01*
X76476191Y-88931961D02*
X76428572Y-88741485D01*
X76428572Y-88741485D02*
X76428572Y-88408152D01*
X76428572Y-88408152D02*
X76476191Y-88217676D01*
X76476191Y-88217676D02*
X76571429Y-88122438D01*
X76571429Y-88122438D02*
X76666667Y-88074819D01*
X78047619Y-88122438D02*
X77952381Y-88074819D01*
X77952381Y-88074819D02*
X77809524Y-88074819D01*
X77809524Y-88074819D02*
X77666667Y-88122438D01*
X77666667Y-88122438D02*
X77571429Y-88217676D01*
X77571429Y-88217676D02*
X77523810Y-88312914D01*
X77523810Y-88312914D02*
X77476191Y-88503390D01*
X77476191Y-88503390D02*
X77476191Y-88646247D01*
X77476191Y-88646247D02*
X77523810Y-88836723D01*
X77523810Y-88836723D02*
X77571429Y-88931961D01*
X77571429Y-88931961D02*
X77666667Y-89027200D01*
X77666667Y-89027200D02*
X77809524Y-89074819D01*
X77809524Y-89074819D02*
X77904762Y-89074819D01*
X77904762Y-89074819D02*
X78047619Y-89027200D01*
X78047619Y-89027200D02*
X78095238Y-88979580D01*
X78095238Y-88979580D02*
X78095238Y-88646247D01*
X78095238Y-88646247D02*
X77904762Y-88646247D01*
D11*
%TO.C,U1*%
X90800000Y-92950000D02*
X90800000Y-92000000D01*
X92200000Y-92950000D02*
X90800000Y-92950000D01*
X107800000Y-92950000D02*
X109200000Y-92950000D01*
X109200000Y-92950000D02*
X109200000Y-92000000D01*
X90800000Y-74000000D02*
X90300000Y-74000000D01*
X90800000Y-73500000D01*
X90800000Y-74000000D01*
G36*
X90800000Y-74000000D02*
G01*
X90300000Y-74000000D01*
X90800000Y-73500000D01*
X90800000Y-74000000D01*
G37*
%TO.C,J_PROG*%
X74120000Y-89620000D02*
X75500000Y-89620000D01*
X74120000Y-91000000D02*
X74120000Y-89620000D01*
X74120000Y-92270000D02*
X74120000Y-105080000D01*
X74120000Y-92270000D02*
X76880000Y-92270000D01*
X74120000Y-105080000D02*
X76880000Y-105080000D01*
X76880000Y-92270000D02*
X76880000Y-105080000D01*
%TD*%
M02*
